<svg width="716" height="192" viewBox="0 0 716 192" fill="none" xmlns="http://www.w3.org/2000/svg">
<path d="M43.7 92.4C39.1 88.9 35.4 84.3 33.1 79H33.2H126.4C126.8 77.2 127.2 75.5 127.4 73.7C127.8 70.7 128.1 67.8 128.1 64.8C128.2 29.6 99.8 0.999998 64.7 0.899998C29.5 0.799998 0.900007 29.2 0.800007 64.3C0.700007 99.5 29.1 128.1 64.2 128.2C89.1 128.3 111.7 113.9 122.2 91.4H86.8C74.4 101.7 56.6 102.1 43.7 92.4ZM64.7 30.1C79.5 30.1 92.7 39.5 97.5 53.6H31.8C36.6 39.5 49.8 30.1 64.7 30.1Z" fill="black"/>
<path d="M361.8 191.3V64.4C362 29.2 390.6 0.699998 425.8 0.799998C461 0.699998 489.6 29.2 489.8 64.4C489.6 99.6 461 128.1 425.8 128C413.4 128 401.3 124.4 390.9 117.7V191.4H361.8V191.3ZM425.7 99.1C444.9 99.1 460.6 83.6 460.6 64.4C460.5 45.2 444.9 29.6 425.7 29.7C406.5 29.7 390.8 45.2 390.8 64.4C390.9 83.6 406.5 99.2 425.7 99.1Z" fill="black"/>
<path d="M220.1 191.3V64.8V64.4C220.3 29.2 248.9 0.699998 284.1 0.799998C319.3 0.699998 347.9 29.2 348.1 64.4C347.9 99.6 319.3 128.1 284.1 128C271.7 128 259.6 124.4 249.2 117.7V191.3H220.1ZM284.1 99.1C303.3 99.1 319 83.6 319 64.4C318.9 45.2 303.3 29.6 284.1 29.7C264.9 29.7 249.3 45.2 249.2 64.4C249.2 83.6 264.8 99.2 284.1 99.1Z" fill="black"/>
<path d="M547.5 92.4C542.9 88.9 539.2 84.3 536.9 79H537H630.2C630.6 77.2 631 75.5 631.2 73.7C631.6 70.7 631.9 67.8 631.9 64.8C632 29.6 603.6 0.999998 568.5 0.899998C533.3 0.799998 504.7 29.2 504.6 64.3C504.5 99.5 532.9 128.1 568 128.2C592.9 128.3 615.5 113.9 626 91.4H590.6C578.3 101.7 560.4 102.1 547.5 92.4ZM568.5 30.1C583.3 30.1 596.5 39.5 601.3 53.6H535.7C540.5 39.5 553.7 30.1 568.5 30.1Z" fill="black"/>
<path d="M147.5 66V128.2H176.2L176.1 65.7C177.3 38.2 188.7 29 211.2 29.6V0.900002C174.5 0.900002 147.5 17.4 147.5 66Z" fill="black"/>
<path d="M651.4 66V128.2H680.1L680 65.7C681.2 38.2 692.6 29 715.1 29.6V0.900002C678.5 0.900002 651.4 17.4 651.4 66Z" fill="black"/>
</svg>
