<svg width="1920" height="1080" viewBox="0 0 1920 1080" fill="none" xmlns="http://www.w3.org/2000/svg">
<rect width="1920" height="1080" fill="white"/>
<rect x="204" y="210" width="975" height="104" rx="52" fill="#F2F2F2"/>
<rect x="127" y="210" width="221" height="104" rx="52" fill="#BDBDBD"/>
<path d="M225.299 263.564C220.331 261.98 217.631 258.2 217.631 254.168V253.556H224.435V250.568H206.975V253.556H213.887V254.204C213.887 258.632 211.043 262.808 205.931 264.572L207.803 267.488C211.691 266.156 214.427 263.384 215.867 259.928C217.271 262.952 219.863 265.292 223.499 266.444L225.299 263.564ZM221.123 277.856C216.587 277.856 213.959 276.704 213.959 274.616C213.959 272.492 216.587 271.376 221.123 271.376C225.659 271.376 228.287 272.492 228.287 274.616C228.287 276.704 225.659 277.856 221.123 277.856ZM221.123 268.46C214.427 268.46 210.287 270.728 210.287 274.616C210.287 278.468 214.427 280.772 221.123 280.772C227.819 280.772 231.959 278.468 231.959 274.616C231.959 270.728 227.819 268.46 221.123 268.46ZM231.599 256.184V248.264H227.891V267.704H231.599V259.244H236.207V256.184H231.599ZM258.632 263.456C253.808 261.764 251.036 257.696 251.036 253.664V253.124H257.804V250.136H240.416V253.124H247.292V253.664C247.292 258.092 244.34 262.376 239.3 264.14L241.208 267.056C245.06 265.724 247.796 262.88 249.236 259.388C250.604 262.556 253.232 265.076 256.832 266.336L258.632 263.456ZM248.552 271.592H262.628V277.424H248.552V271.592ZM244.916 280.376H266.264V268.64H244.916V280.376ZM262.556 248.228V256.148H256.796V259.172H262.556V267.164H266.264V248.228H262.556Z" fill="white"/>
<rect x="204" y="343" width="975" height="104" rx="52" fill="#F2F2F2"/>
<rect x="127" y="343" width="221" height="104" rx="52" fill="#828282"/>
<path d="M224.831 395.124C220.907 395.952 217.415 396.132 211.259 396.168V386.952H222.023V383.928H207.551V399.228H210.179C217.163 399.228 220.979 399.012 225.191 398.112L224.831 395.124ZM214.751 402.396H211.007V413.16H232.895V410.136H214.751V402.396ZM231.599 390.552V381.228H227.891V404.772H231.599V393.612H236.207V390.552H231.599ZM258.632 396.456C253.808 394.764 251.036 390.696 251.036 386.664V386.124H257.804V383.136H240.416V386.124H247.292V386.664C247.292 391.092 244.34 395.376 239.3 397.14L241.208 400.056C245.06 398.724 247.796 395.88 249.236 392.388C250.604 395.556 253.232 398.076 256.832 399.336L258.632 396.456ZM248.552 404.592H262.628V410.424H248.552V404.592ZM244.916 413.376H266.264V401.64H244.916V413.376ZM262.556 381.228V389.148H256.796V392.172H262.556V400.164H266.264V381.228H262.556Z" fill="white"/>
<path d="M423.888 248.264H420.144V264.932H423.888V248.264ZM416.868 261.296C411.864 259.748 408.948 255.788 408.948 251.576V249.128H405.168V251.576C405.168 255.968 402.252 260.18 397.104 261.872L398.94 264.824C402.864 263.492 405.636 260.792 407.112 257.3C408.588 260.504 411.324 262.988 415.068 264.212L416.868 261.296ZM406.284 277.568V274.724H423.888V266.48H402.576V269.36H420.216V272.024H402.648V280.484H424.86V277.568H406.284ZM447.105 263.312C443.577 263.924 440.589 264.068 435.153 264.068V259.856H445.557V250.136H431.445V253.124H441.885V257.012H431.517V267.092H433.893C440.265 267.092 443.577 266.984 447.501 266.3L447.105 263.312ZM435.153 272.924H453.441V280.844H457.149V269.9H435.153V272.924ZM453.441 248.264V252.944H447.609V255.932H453.441V259.748H447.609V262.736H453.441V268.28H457.149V248.264H453.441ZM478.026 251.54C483.066 251.54 485.766 252.512 485.766 254.384C485.766 256.22 483.066 257.192 478.026 257.192C472.986 257.192 470.286 256.22 470.286 254.384C470.286 252.512 472.986 251.54 478.026 251.54ZM478.026 259.964C485.298 259.964 489.618 257.984 489.618 254.384C489.618 250.748 485.298 248.768 478.026 248.768C470.718 248.768 466.434 250.748 466.434 254.384C466.434 257.984 470.718 259.964 478.026 259.964ZM470.538 274.94H489.042V267.164H466.794V269.972H485.406V272.312H466.866V280.484H489.978V277.64H470.538V274.94ZM463.302 261.872V264.824H492.75V261.872H463.302ZM532.333 258.056C525.925 257.264 521.137 253.628 521.137 249.848V248.624H517.321V249.848C517.321 253.664 512.569 257.228 506.089 258.056L507.457 260.936C512.749 260.18 517.141 257.732 519.229 254.348C521.353 257.732 525.709 260.18 531.001 260.936L532.333 258.056ZM526.717 277.424H511.705V272.456H526.717V277.424ZM533.917 265.976V263.024H504.505V265.976H517.321V269.504H508.033V280.376H530.353V269.504H521.065V265.976H533.917ZM564.442 248.264H560.734V264.752H564.442V248.264ZM539.818 249.668V252.692H550.654C550.186 257.264 546.226 260.756 538.162 262.412L539.458 265.4C549.322 263.24 554.722 258.2 554.722 249.668H539.818ZM546.91 277.532V274.508H564.442V266.192H543.13V269.072H560.734V271.808H543.202V280.484H565.414V277.532H546.91ZM606.977 260.252C600.425 259.316 595.529 255.248 595.529 251.036V249.308H591.605V251.036C591.605 255.32 586.781 259.316 580.157 260.252L581.597 263.24C586.997 262.376 591.497 259.676 593.585 255.896C595.709 259.64 600.137 262.376 605.537 263.24L606.977 260.252ZM608.237 266.3H578.861V269.324H591.605V280.808H595.313V269.324H608.237V266.3ZM613.563 251.684V254.708H624.939C624.183 262.196 619.899 267.92 611.943 271.988L613.995 274.832C624.615 269.468 628.647 261.116 628.647 251.684H613.563ZM642.075 261.08H637.143V248.228H633.435V280.736H637.143V264.176H642.075V261.08ZM657.178 257.156C657.178 254.456 659.23 252.692 662.074 252.692C664.918 252.692 667.006 254.456 667.006 257.156C667.006 259.892 664.918 261.692 662.074 261.692C659.23 261.692 657.178 259.892 657.178 257.156ZM676.402 258.632V265.472H680.11V248.3H676.402V255.572H670.354C669.634 252.008 666.358 249.632 662.074 249.632C657.214 249.632 653.614 252.728 653.614 257.156C653.614 261.656 657.214 264.752 662.074 264.752C666.394 264.752 669.67 262.304 670.39 258.632H676.402ZM664.918 277.532H660.274V273.752H664.918V277.532ZM664.918 267.344V271.016H660.274V267.344H656.818V280.376H668.338V267.344H664.918ZM677.734 267.092H674.062V269.684C674.062 272.888 672.226 276.272 668.338 277.892L670.21 280.7C672.946 279.548 674.782 277.46 675.862 275.012C676.87 277.496 678.742 279.584 681.622 280.7L683.458 277.892C679.534 276.452 677.734 273.14 677.734 269.684V267.092ZM695.047 270.26C692.275 270.26 690.367 267.236 690.367 262.088C690.367 257.048 692.275 253.988 695.047 253.988C697.855 253.988 699.763 257.048 699.763 262.088C699.763 267.236 697.855 270.26 695.047 270.26ZM709.555 248.228V260.36H703.219C702.715 254.384 699.403 250.64 695.047 250.64C690.259 250.64 686.839 255.104 686.839 262.088C686.839 269.144 690.259 273.572 695.047 273.572C699.511 273.572 702.823 269.684 703.255 263.384H709.555V280.844H713.299V248.228H709.555ZM731.188 250.892H727.444V256.256C727.444 262.34 724.276 268.604 719.2 271.088L721.54 274.04C725.248 272.132 727.912 268.352 729.352 263.744C730.756 268.1 733.384 271.664 737.056 273.5L739.252 270.512C734.284 268.208 731.188 262.304 731.188 256.256V250.892ZM742.672 248.192V258.884H735.724V261.908H742.672V280.808H746.416V248.192H742.672ZM787.403 248.264H783.659V264.932H787.403V248.264ZM780.383 261.296C775.379 259.748 772.463 255.788 772.463 251.576V249.128H768.683V251.576C768.683 255.968 765.767 260.18 760.619 261.872L762.455 264.824C766.379 263.492 769.151 260.792 770.627 257.3C772.103 260.504 774.839 262.988 778.583 264.212L780.383 261.296ZM769.799 277.568V274.724H787.403V266.48H766.091V269.36H783.731V272.024H766.163V280.484H788.375V277.568H769.799ZM810.62 263.312C807.092 263.924 804.104 264.068 798.668 264.068V259.856H809.072V250.136H794.96V253.124H805.4V257.012H795.032V267.092H797.408C803.78 267.092 807.092 266.984 811.016 266.3L810.62 263.312ZM798.668 272.924H816.956V280.844H820.664V269.9H798.668V272.924ZM816.956 248.264V252.944H811.124V255.932H816.956V259.748H811.124V262.736H816.956V268.28H820.664V248.264H816.956ZM831.57 255.14H839.958V252.116H827.934V273.032H830.094C834.666 273.032 838.014 272.888 841.938 272.132L841.614 269.072C838.266 269.756 835.314 269.936 831.57 269.972V255.14ZM851.046 248.228V261.08H847.194V248.912H843.702V279.152H847.194V264.104H851.046V280.736H854.574V248.228H851.046ZM876.495 273.896V268.352H886.647V265.364H867.171V260.828H885.927V250.532H863.463V253.52H882.255V257.876H863.535V268.352H872.787V273.896H859.971V276.956H889.419V273.896H876.495ZM905.89 255.14H914.278V252.116H902.254V273.032H904.414C908.986 273.032 912.334 272.888 916.258 272.132L915.934 269.072C912.586 269.756 909.634 269.936 905.89 269.972V255.14ZM925.366 248.228V261.08H921.514V248.912H918.022V279.152H921.514V264.104H925.366V280.736H928.894V248.228H925.366ZM948.943 252.44C953.587 252.44 956.647 254.024 956.647 256.652C956.647 259.316 953.587 260.9 948.943 260.9C944.263 260.9 941.203 259.316 941.203 256.652C941.203 254.024 944.263 252.44 948.943 252.44ZM948.943 263.888C955.783 263.888 960.463 261.08 960.463 256.652C960.463 252.26 955.783 249.452 948.943 249.452C942.067 249.452 937.387 252.26 937.387 256.652C937.387 261.08 942.067 263.888 948.943 263.888ZM963.739 266.66H934.255V269.72H947.035V280.772H950.743V269.72H963.739V266.66ZM988.274 262.448H980.318V257.588H988.274V262.448ZM991.946 250.064H988.274V254.672H980.318V250.064H976.61V265.4H991.946V250.064ZM983.882 271.844H1001.09V268.892H980.174V280.34H1001.7V277.388H983.882V271.844ZM1000.87 255.896V248.264H997.166V267.272H1000.87V258.956H1005.48V255.896H1000.87ZM1034.71 257.588H1016.1V249.416H1012.39V260.612H1034.71V257.588ZM1015.88 270.476H1012.18V280.052H1034.89V277.064H1015.88V270.476ZM1008.58 264.5V267.488H1038.1V264.5H1008.58ZM1046.73 254.348H1058.14V251.324H1043.02V272.816H1045.69C1051.56 272.816 1055.95 272.636 1060.88 271.736L1060.48 268.676C1055.95 269.468 1051.99 269.684 1046.73 269.72V254.348ZM1071.97 260.756H1066.89V248.228H1063.18V280.808H1066.89V263.816H1071.97V260.756ZM1078.37 278.468C1079.92 278.468 1081.15 277.28 1081.15 275.588C1081.15 273.86 1079.92 272.636 1078.37 272.636C1076.83 272.636 1075.6 273.86 1075.6 275.588C1075.6 277.28 1076.83 278.468 1078.37 278.468Z" fill="black"/>
<path d="M423.888 381.264H420.144V397.932H423.888V381.264ZM416.868 394.296C411.864 392.748 408.948 388.788 408.948 384.576V382.128H405.168V384.576C405.168 388.968 402.252 393.18 397.104 394.872L398.94 397.824C402.864 396.492 405.636 393.792 407.112 390.3C408.588 393.504 411.324 395.988 415.068 397.212L416.868 394.296ZM406.284 410.568V407.724H423.888V399.48H402.576V402.36H420.216V405.024H402.648V413.484H424.86V410.568H406.284ZM447.105 396.312C443.577 396.924 440.589 397.068 435.153 397.068V392.856H445.557V383.136H431.445V386.124H441.885V390.012H431.517V400.092H433.893C440.265 400.092 443.577 399.984 447.501 399.3L447.105 396.312ZM435.153 405.924H453.441V413.844H457.149V402.9H435.153V405.924ZM453.441 381.264V385.944H447.609V388.932H453.441V392.748H447.609V395.736H453.441V401.28H457.149V381.264H453.441ZM478.026 384.54C483.066 384.54 485.766 385.512 485.766 387.384C485.766 389.22 483.066 390.192 478.026 390.192C472.986 390.192 470.286 389.22 470.286 387.384C470.286 385.512 472.986 384.54 478.026 384.54ZM478.026 392.964C485.298 392.964 489.618 390.984 489.618 387.384C489.618 383.748 485.298 381.768 478.026 381.768C470.718 381.768 466.434 383.748 466.434 387.384C466.434 390.984 470.718 392.964 478.026 392.964ZM470.538 407.94H489.042V400.164H466.794V402.972H485.406V405.312H466.866V413.484H489.978V410.64H470.538V407.94ZM463.302 394.872V397.824H492.75V394.872H463.302ZM532.333 391.056C525.925 390.264 521.137 386.628 521.137 382.848V381.624H517.321V382.848C517.321 386.664 512.569 390.228 506.089 391.056L507.457 393.936C512.749 393.18 517.141 390.732 519.229 387.348C521.353 390.732 525.709 393.18 531.001 393.936L532.333 391.056ZM526.717 410.424H511.705V405.456H526.717V410.424ZM533.917 398.976V396.024H504.505V398.976H517.321V402.504H508.033V413.376H530.353V402.504H521.065V398.976H533.917ZM564.442 381.264H560.734V397.752H564.442V381.264ZM539.818 382.668V385.692H550.654C550.186 390.264 546.226 393.756 538.162 395.412L539.458 398.4C549.322 396.24 554.722 391.2 554.722 382.668H539.818ZM546.91 410.532V407.508H564.442V399.192H543.13V402.072H560.734V404.808H543.202V413.484H565.414V410.532H546.91ZM606.977 393.252C600.425 392.316 595.529 388.248 595.529 384.036V382.308H591.605V384.036C591.605 388.32 586.781 392.316 580.157 393.252L581.597 396.24C586.997 395.376 591.497 392.676 593.585 388.896C595.709 392.64 600.137 395.376 605.537 396.24L606.977 393.252ZM608.237 399.3H578.861V402.324H591.605V413.808H595.313V402.324H608.237V399.3ZM613.563 384.684V387.708H624.939C624.183 395.196 619.899 400.92 611.943 404.988L613.995 407.832C624.615 402.468 628.647 394.116 628.647 384.684H613.563ZM642.075 394.08H637.143V381.228H633.435V413.736H637.143V397.176H642.075V394.08ZM657.178 390.156C657.178 387.456 659.23 385.692 662.074 385.692C664.918 385.692 667.006 387.456 667.006 390.156C667.006 392.892 664.918 394.692 662.074 394.692C659.23 394.692 657.178 392.892 657.178 390.156ZM676.402 391.632V398.472H680.11V381.3H676.402V388.572H670.354C669.634 385.008 666.358 382.632 662.074 382.632C657.214 382.632 653.614 385.728 653.614 390.156C653.614 394.656 657.214 397.752 662.074 397.752C666.394 397.752 669.67 395.304 670.39 391.632H676.402ZM664.918 410.532H660.274V406.752H664.918V410.532ZM664.918 400.344V404.016H660.274V400.344H656.818V413.376H668.338V400.344H664.918ZM677.734 400.092H674.062V402.684C674.062 405.888 672.226 409.272 668.338 410.892L670.21 413.7C672.946 412.548 674.782 410.46 675.862 408.012C676.87 410.496 678.742 412.584 681.622 413.7L683.458 410.892C679.534 409.452 677.734 406.14 677.734 402.684V400.092ZM695.047 403.26C692.275 403.26 690.367 400.236 690.367 395.088C690.367 390.048 692.275 386.988 695.047 386.988C697.855 386.988 699.763 390.048 699.763 395.088C699.763 400.236 697.855 403.26 695.047 403.26ZM709.555 381.228V393.36H703.219C702.715 387.384 699.403 383.64 695.047 383.64C690.259 383.64 686.839 388.104 686.839 395.088C686.839 402.144 690.259 406.572 695.047 406.572C699.511 406.572 702.823 402.684 703.255 396.384H709.555V413.844H713.299V381.228H709.555ZM731.188 383.892H727.444V389.256C727.444 395.34 724.276 401.604 719.2 404.088L721.54 407.04C725.248 405.132 727.912 401.352 729.352 396.744C730.756 401.1 733.384 404.664 737.056 406.5L739.252 403.512C734.284 401.208 731.188 395.304 731.188 389.256V383.892ZM742.672 381.192V391.884H735.724V394.908H742.672V413.808H746.416V381.192H742.672ZM787.403 381.264H783.659V397.932H787.403V381.264ZM780.383 394.296C775.379 392.748 772.463 388.788 772.463 384.576V382.128H768.683V384.576C768.683 388.968 765.767 393.18 760.619 394.872L762.455 397.824C766.379 396.492 769.151 393.792 770.627 390.3C772.103 393.504 774.839 395.988 778.583 397.212L780.383 394.296ZM769.799 410.568V407.724H787.403V399.48H766.091V402.36H783.731V405.024H766.163V413.484H788.375V410.568H769.799ZM810.62 396.312C807.092 396.924 804.104 397.068 798.668 397.068V392.856H809.072V383.136H794.96V386.124H805.4V390.012H795.032V400.092H797.408C803.78 400.092 807.092 399.984 811.016 399.3L810.62 396.312ZM798.668 405.924H816.956V413.844H820.664V402.9H798.668V405.924ZM816.956 381.264V385.944H811.124V388.932H816.956V392.748H811.124V395.736H816.956V401.28H820.664V381.264H816.956ZM831.57 388.14H839.958V385.116H827.934V406.032H830.094C834.666 406.032 838.014 405.888 841.938 405.132L841.614 402.072C838.266 402.756 835.314 402.936 831.57 402.972V388.14ZM851.046 381.228V394.08H847.194V381.912H843.702V412.152H847.194V397.104H851.046V413.736H854.574V381.228H851.046ZM876.495 406.896V401.352H886.647V398.364H867.171V393.828H885.927V383.532H863.463V386.52H882.255V390.876H863.535V401.352H872.787V406.896H859.971V409.956H889.419V406.896H876.495ZM905.89 388.14H914.278V385.116H902.254V406.032H904.414C908.986 406.032 912.334 405.888 916.258 405.132L915.934 402.072C912.586 402.756 909.634 402.936 905.89 402.972V388.14ZM925.366 381.228V394.08H921.514V381.912H918.022V412.152H921.514V397.104H925.366V413.736H928.894V381.228H925.366ZM948.943 385.44C953.587 385.44 956.647 387.024 956.647 389.652C956.647 392.316 953.587 393.9 948.943 393.9C944.263 393.9 941.203 392.316 941.203 389.652C941.203 387.024 944.263 385.44 948.943 385.44ZM948.943 396.888C955.783 396.888 960.463 394.08 960.463 389.652C960.463 385.26 955.783 382.452 948.943 382.452C942.067 382.452 937.387 385.26 937.387 389.652C937.387 394.08 942.067 396.888 948.943 396.888ZM963.739 399.66H934.255V402.72H947.035V413.772H950.743V402.72H963.739V399.66ZM988.274 395.448H980.318V390.588H988.274V395.448ZM991.946 383.064H988.274V387.672H980.318V383.064H976.61V398.4H991.946V383.064ZM983.882 404.844H1001.09V401.892H980.174V413.34H1001.7V410.388H983.882V404.844ZM1000.87 388.896V381.264H997.166V400.272H1000.87V391.956H1005.48V388.896H1000.87ZM1034.71 390.588H1016.1V382.416H1012.39V393.612H1034.71V390.588ZM1015.88 403.476H1012.18V413.052H1034.89V410.064H1015.88V403.476ZM1008.58 397.5V400.488H1038.1V397.5H1008.58ZM1046.73 387.348H1058.14V384.324H1043.02V405.816H1045.69C1051.56 405.816 1055.95 405.636 1060.88 404.736L1060.48 401.676C1055.95 402.468 1051.99 402.684 1046.73 402.72V387.348ZM1071.97 393.756H1066.89V381.228H1063.18V413.808H1066.89V396.816H1071.97V393.756ZM1078.37 411.468C1079.92 411.468 1081.15 410.28 1081.15 408.588C1081.15 406.86 1079.92 405.636 1078.37 405.636C1076.83 405.636 1075.6 406.86 1075.6 408.588C1075.6 410.28 1076.83 411.468 1078.37 411.468Z" fill="black"/>
<path d="M91.9003 81.392V86.432H103.084C102.268 95.12 98.5243 101.504 89.6443 106.688L93.3403 111.104C105.676 103.904 109.324 93.776 109.324 81.392H91.9003ZM122.044 75.92V92.576H118.108V77.072H112.204V118.256H118.108V97.664H122.044V120.128H128.092V75.92H122.044ZM150.601 92.288H141.913V87.872H150.601V92.288ZM156.841 77.84H150.601V83.12H141.913V77.84H135.673V97.232H156.841V77.84ZM146.329 112.112H169.177V100.112H139.993V104.912H162.937V107.6H140.041V119.792H170.473V114.896H146.329V112.112ZM169.177 84.464V75.92H162.841V98.384H169.177V89.6H174.985V84.464H169.177ZM194.757 85.376H203.541V80.144H179.253V85.376H188.421V87.824C188.421 95.12 184.821 103.424 177.573 106.784L181.125 111.824C186.165 109.424 189.717 104.576 191.685 98.816C193.653 104.048 197.109 108.464 202.005 110.72L205.509 105.728C198.261 102.368 194.757 94.544 194.757 87.824V85.376ZM219.573 92.768H213.141V75.92H206.805V120.128H213.141V98H219.573V92.768ZM251.228 98.912H259.676V93.824H242.924V84.896H259.388V79.856H236.588V98.912H244.892V106.256C241.004 106.352 237.212 106.352 233.756 106.352L234.524 111.536C242.732 111.536 252.62 111.44 262.076 109.952L261.692 105.344C258.332 105.68 254.78 105.92 251.228 106.112V98.912ZM264.092 75.92V120.224H270.428V75.92H264.092ZM312.136 105.104C313.912 95.696 313.912 89.456 313.912 83.936V79.712H281.8V84.752H307.576C307.576 89.888 307.48 96.032 305.8 104.384L312.136 105.104ZM298.216 109.712V94.496H291.88V109.712H277.768V114.8H317.752V109.712H298.216ZM338.485 79.328H332.101V85.712C332.101 94.112 328.741 102.704 321.253 106.16L325.189 111.248C330.133 108.752 333.445 104.144 335.365 98.48C337.189 103.808 340.405 108.128 345.253 110.48L348.997 105.44C341.701 102.176 338.485 94.064 338.485 85.712V79.328ZM352.645 75.872V89.744H344.149V94.832H352.645V120.224H358.981V75.872H352.645ZM380.556 91.568C389.052 90.992 394.572 88.304 396.876 84.464C399.18 88.304 404.748 90.992 413.244 91.568L415.212 86.864C407.244 86.384 402.924 84.224 401.628 81.824H413.292V77.024H380.556V81.824H392.124C390.828 84.224 386.508 86.384 378.588 86.864L380.556 91.568ZM396.78 116.096C392.172 116.096 389.868 115.616 389.868 114.464C389.868 113.264 392.172 112.784 396.78 112.784C401.436 112.784 403.788 113.264 403.788 114.464C403.788 115.616 401.436 116.096 396.78 116.096ZM396.78 108.608C388.284 108.608 383.34 110.672 383.34 114.464C383.34 118.256 388.284 120.272 396.78 120.272C405.372 120.272 410.316 118.256 410.316 114.464C410.316 110.672 405.372 108.608 396.78 108.608ZM399.996 99.488H393.66V102.608H380.508V107.312H413.196V102.608H399.996V99.488ZM399.996 93.152V89.12H393.66V93.152H376.908V98.096H416.988V93.152H399.996ZM441.032 82.208C446.984 82.208 450.536 83.648 450.536 86.336C450.536 89.072 446.984 90.416 441.032 90.416C435.128 90.416 431.576 89.072 431.576 86.336C431.576 83.648 435.128 82.208 441.032 82.208ZM441.032 95.456C450.68 95.456 457.064 91.952 457.064 86.336C457.064 80.72 450.68 77.216 441.032 77.216C431.432 77.216 425.048 80.72 425.048 86.336C425.048 91.952 431.432 95.456 441.032 95.456ZM432.248 106.496H425.912V119.36H456.536V114.32H432.248V106.496ZM421.064 98.48V103.52H461V98.48H421.064ZM502.735 95.792C495.967 93.536 492.943 88.304 492.751 83.216H501.343V78.176H477.583V83.216H486.271C486.127 88.688 482.959 94.256 475.855 96.56L479.071 101.6C484.207 99.872 487.663 96.416 489.631 92.048C491.551 95.984 494.815 99.152 499.663 100.736L502.735 95.792ZM489.871 108.224H506.863V114.656H489.871V108.224ZM483.631 119.6H513.055V103.28H483.631V119.6ZM506.719 75.92V86.144H500.047V91.28H506.719V101.456H513.055V75.92H506.719ZM526.684 103.904H532.828C532.108 97.136 540.46 94.832 540.46 88.016C540.46 81.872 536.236 78.896 530.476 78.896C526.3 78.896 522.892 80.864 520.396 83.696L524.284 87.248C525.82 85.664 527.5 84.56 529.612 84.56C532.108 84.56 533.692 86.096 533.692 88.496C533.692 93.056 525.532 96.176 526.684 103.904ZM529.756 116.672C532.299 116.672 534.172 114.656 534.172 112.064C534.172 109.424 532.299 107.456 529.756 107.456C527.26 107.456 525.388 109.424 525.388 112.064C525.388 114.656 527.26 116.672 529.756 116.672Z" fill="#333333"/>
<path d="M146.152 552.376H155.272V547.144H130.504V552.376H139.72V554.824C139.72 562.36 136.12 570.472 128.728 573.784L132.328 578.824C137.512 576.472 141.064 571.624 143.032 565.864C145 571.192 148.504 575.512 153.64 577.72L157.096 572.728C149.704 569.656 146.152 562.024 146.152 554.824V552.376ZM159.352 542.92V587.128H165.688V542.92H159.352ZM184.164 575.416H202.164V581.656H184.164V575.416ZM177.924 586.6H208.356V570.472H177.924V586.6ZM207.54 560.824C208.548 555.736 208.548 551.992 208.548 548.44V544.888H178.164V549.928H202.308C202.308 553 202.164 556.408 201.252 560.824H173.22V565.864H213.252V560.824H207.54ZM218.433 547.432V552.52H224.385C224.049 561.4 222.321 567.784 216.465 574.264L221.409 577.864C229.281 569.128 230.385 559.624 230.385 547.432H218.433ZM231.921 547.432V552.52H236.625C236.289 562.36 234.705 569.752 228.849 577.144L233.841 580.648C241.569 571.096 242.577 560.2 242.577 547.432H231.921ZM258.225 560.2H252.513V542.872H246.129V587.08H252.513V565.432H258.225V560.2ZM278.621 552.376H287.741V547.144H262.973V552.376H272.189V554.824C272.189 562.36 268.589 570.472 261.197 573.784L264.797 578.824C269.981 576.472 273.533 571.624 275.501 565.864C277.469 571.192 280.973 575.512 286.109 577.72L289.565 572.728C282.173 569.656 278.621 562.024 278.621 554.824V552.376ZM291.821 542.92V587.128H298.157V542.92H291.821ZM327.172 572.344C324.772 572.344 323.044 570.424 323.044 567.112C323.044 563.8 324.772 561.832 327.172 561.832C329.572 561.832 331.3 563.8 331.3 567.112C331.3 570.424 329.572 572.344 327.172 572.344ZM327.172 556.552C321.508 556.552 317.476 560.92 317.476 567.112C317.476 573.256 321.508 577.624 327.172 577.624C332.836 577.624 336.868 573.256 336.868 567.112C336.868 560.92 332.836 556.552 327.172 556.552ZM330.292 544.12H324.052V549.592H316.516V554.632H337.636V549.592H330.292V544.12ZM348.484 542.872V560.92H345.124V543.736H339.22V585.256H345.124V566.008H348.484V587.08H354.484V542.872H348.484ZM379.659 552.424C379.659 549.976 381.675 548.584 384.747 548.584C387.819 548.584 389.931 549.976 389.931 552.424C389.931 554.872 387.819 556.264 384.747 556.264C381.675 556.264 379.659 554.872 379.659 552.424ZM398.043 562.456C394.827 562.888 391.419 563.128 387.963 563.32V560.536C392.667 559.624 395.787 556.552 395.787 552.424C395.787 547.48 391.227 544.024 384.747 544.024C378.315 544.024 373.755 547.48 373.755 552.424C373.755 556.6 376.923 559.672 381.627 560.584V563.608C377.979 563.704 374.475 563.704 371.451 563.704L372.171 568.6C379.563 568.552 389.547 568.408 398.475 566.776L398.043 562.456ZM403.227 571.288H396.939V572.008C396.939 575.224 395.451 578.68 391.995 581.032C388.539 578.776 387.099 575.32 387.099 572.008V571.288H380.955V572.008C380.955 576.136 378.555 580.216 372.795 581.992L375.819 586.552C379.851 585.208 382.539 582.76 384.075 579.592C385.515 582.856 388.011 585.544 392.043 586.984C396.027 585.544 398.523 582.712 399.963 579.448C401.499 582.712 404.187 585.208 408.411 586.552L411.435 581.992C405.579 580.312 403.227 576.328 403.227 572.008V571.288ZM406.635 553.624V542.968H400.299V569.368H406.635V558.856H412.203V553.624H406.635ZM435.864 554.44V559.48H446.376V575.08H452.712V542.92H446.376V554.44H435.864ZM440.376 562.984C435.432 563.848 430.968 564.184 424.632 564.232V550.984H438.359V545.944H418.344V569.32H421.896C430.008 569.32 435.144 569.08 440.856 567.976L440.376 562.984ZM429.912 581.416V572.488H423.576V586.504H453.72V581.416H429.912ZM481.199 551.176H500.255V562.888H481.199V551.176ZM493.919 576.856V567.88H506.447V546.184H475.007V567.88H487.583V576.856H470.783V581.992H510.815V576.856H493.919ZM550.555 556.12H526.123V549.544H550.219V544.504H519.835V561.16H550.555V556.12ZM526.027 573.112H519.691V586.36H550.891V581.32H526.027V573.112ZM514.987 564.76V569.8H554.971V564.76H514.987ZM597.522 563.224C590.514 560.92 587.25 555.736 587.154 550.552H595.89V545.56H571.842V550.552H580.722C580.626 556.024 577.362 561.64 570.162 563.944L573.378 568.888C578.514 567.208 582.066 563.752 584.034 559.432C586.05 563.368 589.41 566.536 594.306 568.072L597.522 563.224ZM576.594 576.568H600.306V587.176H606.69V571.528H576.594V576.568ZM600.306 542.92V569.56H606.69V542.92H600.306ZM640.479 562.984C633.519 560.92 630.495 555.976 630.399 550.936H639.039V545.848H615.135V550.936H623.919C623.823 556.456 620.655 562.072 613.503 564.472L616.671 569.416C621.855 567.736 625.359 564.232 627.327 559.864C629.247 563.512 632.607 566.44 637.455 567.88L640.479 562.984ZM634.479 582.28C628.815 582.28 625.791 581.08 625.791 578.584C625.791 576.04 628.815 574.84 634.479 574.84C640.095 574.84 643.119 576.04 643.119 578.584C643.119 581.08 640.095 582.28 634.479 582.28ZM634.479 569.944C625.263 569.944 619.503 573.16 619.503 578.584C619.503 583.96 625.263 587.128 634.479 587.128C643.647 587.128 649.407 583.96 649.407 578.584C649.407 573.16 643.647 569.944 634.479 569.944ZM648.927 553.096V542.92H642.591V569.176H648.927V558.28H654.783V553.096H648.927ZM686.507 558.76H689.963V569.944H695.963V542.92H689.963V553.672H686.507V543.736H680.603V568.552H686.507V558.76ZM680.555 562.552C674.747 560.2 672.347 555.448 672.347 550.696V545.56H666.251V550.696C666.251 555.688 663.851 561.16 657.659 563.848L661.019 568.744C665.099 567.016 667.835 563.848 669.419 560.104C671.003 563.272 673.547 565.912 677.195 567.352L680.555 562.552ZM680.987 582.376C675.227 582.376 672.059 581.224 672.059 578.872C672.059 576.52 675.227 575.368 680.987 575.368C686.651 575.368 689.819 576.52 689.819 578.872C689.819 581.224 686.651 582.376 680.987 582.376ZM680.987 570.616C671.675 570.616 665.723 573.736 665.723 578.872C665.723 584.056 671.675 587.128 680.987 587.128C690.251 587.128 696.155 584.056 696.155 578.872C696.155 573.736 690.251 570.616 680.987 570.616ZM728.119 545.704H718.759V542.584H712.423V545.704H703.015V549.88H728.119V545.704ZM710.791 556.504C710.791 555.256 712.567 554.632 715.591 554.632C718.615 554.632 720.343 555.256 720.343 556.504C720.343 557.8 718.615 558.472 715.591 558.472C712.567 558.472 710.791 557.8 710.791 556.504ZM729.223 563.032C725.863 563.416 722.311 563.704 718.759 563.896V562.12C723.463 561.544 726.343 559.528 726.343 556.504C726.343 552.904 722.167 550.744 715.591 550.744C709.015 550.744 704.791 552.904 704.791 556.504C704.791 559.528 707.671 561.544 712.423 562.12V564.136C708.631 564.232 705.079 564.232 701.911 564.232L702.535 568.552C710.167 568.552 720.391 568.456 729.655 566.824L729.223 563.032ZM714.103 580.504H737.479V570.52H707.767V574.696H731.239V576.616H707.815V586.792H739.015V582.616H714.103V580.504ZM737.479 553.336V542.872H731.143V568.936H737.479V558.52H743.047V553.336H737.479ZM766.563 548.2C772.995 548.2 776.019 549.112 776.019 551.08C776.019 553.144 772.995 554.008 766.563 554.008C760.179 554.008 757.155 553.144 757.155 551.08C757.155 549.112 760.179 548.2 766.563 548.2ZM766.563 558.616C776.691 558.616 782.595 555.976 782.595 551.08C782.595 546.232 776.691 543.544 766.563 543.544C756.483 543.544 750.579 546.232 750.579 551.08C750.579 555.976 756.483 558.616 766.563 558.616ZM757.491 579.544H781.683V568.168H751.155V572.824H775.443V575.176H751.203V586.792H782.835V582.04H757.491V579.544ZM746.595 560.728V565.672H786.531V560.728H746.595ZM821.499 582.52C815.403 582.52 812.571 581.704 812.571 579.88C812.571 578.056 815.403 577.288 821.499 577.288C827.643 577.288 830.475 578.056 830.475 579.88C830.475 581.704 827.643 582.52 821.499 582.52ZM821.499 572.632C811.803 572.632 806.187 575.128 806.187 579.88C806.187 584.584 811.803 587.128 821.499 587.128C831.243 587.128 836.859 584.584 836.859 579.88C836.859 575.128 831.243 572.632 821.499 572.632ZM824.715 565.72V562.984H837.339V558.184H812.859V555.784H835.995V551.176H812.859V548.872H837.003V544.072H806.571V562.984H818.379V565.72H801.579V570.664H841.563V565.72H824.715ZM881.495 556.456H857.015V554.296H880.103V550.216H857.015V548.104H881.159V543.88H850.727V560.728H881.495V556.456ZM856.679 580.12H880.871V569.416H850.343V573.832H874.631V575.944H850.391V586.792H882.023V582.376H856.679V580.12ZM845.879 562.744V567.4H885.671V562.744H845.879ZM902.035 571.816C898.819 571.816 896.659 568.312 896.659 561.736C896.659 555.208 898.819 551.704 902.035 551.704C905.299 551.704 907.459 555.208 907.459 561.736C907.459 568.312 905.299 571.816 902.035 571.816ZM920.707 542.872V558.808H913.315C912.451 550.84 907.987 545.992 902.035 545.992C895.459 545.992 890.611 552.04 890.611 561.736C890.611 571.48 895.459 577.576 902.035 577.576C908.179 577.576 912.691 572.392 913.363 563.944H920.707V587.224H927.043V542.872H920.707ZM157.816 612.232C157.816 618.232 157.816 624.52 156.232 632.968L162.52 633.544C164.152 624.472 164.152 618.424 164.152 612.232V607H133.192V612.04H157.816V612.232ZM129.064 636.184V641.368H169.048V636.184H129.064ZM180.9 607.096H174.564V636.28H178.404C184.836 636.28 191.94 635.896 199.284 634.36L198.66 629.176C192.468 630.376 186.468 630.856 180.9 631V607.096ZM214.02 619.576H207.828V602.872H201.492V647.032H207.828V624.808H214.02V619.576ZM224.961 612.088H233.601V631.384H224.961V612.088ZM218.721 636.376H239.841V607.096H218.721V636.376ZM258.417 619.576H251.985V602.968H245.649V647.128H251.985V624.808H258.417V619.576ZM302.696 602.872V647.224H309.032V602.872H302.696ZM285.272 605.992C278.6 605.992 273.656 612.04 273.656 621.736C273.656 631.48 278.6 637.576 285.272 637.576C291.944 637.576 296.888 631.48 296.888 621.736C296.888 612.04 291.944 605.992 285.272 605.992ZM285.272 611.704C288.536 611.704 290.792 615.208 290.792 621.736C290.792 628.312 288.536 631.816 285.272 631.816C282.008 631.816 279.752 628.312 279.752 621.736C279.752 615.208 282.008 611.704 285.272 611.704ZM347.188 628.84H353.524V602.92H347.188V610.984H339.124V616.12H347.188V628.84ZM343.156 622.456C336.148 620.2 333.268 614.824 333.268 608.872V605.224H326.836V609.16C326.836 615.256 323.716 621.256 316.18 623.656L319.492 628.744C324.724 626.968 328.228 623.416 330.196 618.904C332.068 622.84 335.188 625.864 339.844 627.448L343.156 622.456ZM338.596 642.28C332.788 642.28 329.764 641.08 329.764 638.584C329.764 636.04 332.788 634.84 338.596 634.84C344.356 634.84 347.38 636.04 347.38 638.584C347.38 641.08 344.356 642.28 338.596 642.28ZM338.596 629.944C329.188 629.944 323.428 633.112 323.428 638.584C323.428 643.96 329.188 647.128 338.596 647.128C347.956 647.128 353.716 643.96 353.716 638.584C353.716 633.112 347.956 629.944 338.596 629.944ZM384.144 627.832C385.344 620.536 385.344 615.16 385.344 610.888V607.288H362.592V612.328H379.104C379.104 616.264 378.96 621.016 377.952 627.304L384.144 627.832ZM374.496 619.96H368.256V633.016C365.472 633.064 362.784 633.064 360.336 633.064L360.912 638.248C368.592 638.2 378.48 638.008 387.456 636.472L387.12 631.912C383.088 632.392 378.768 632.68 374.496 632.824V619.96ZM401.424 620.68H395.472V602.872H389.136V647.08H395.472V625.96H401.424V620.68ZM426.792 632.824H420.456V646.36H451.656V641.32H426.792V632.824ZM438.984 625.096V619.816H451.272V614.776H427.08V604.168H420.743V619.816H432.648V625.096H415.8V630.136H455.784V625.096H438.984ZM468.74 623.752H483.092V606.664H462.212V611.704H476.612V618.76H462.26V636.952H466.244C474.26 636.952 480.74 636.664 487.94 635.416L487.268 630.28C481.028 631.336 475.46 631.672 468.74 631.72V623.752ZM490.34 602.872V647.224H496.676V602.872H490.34ZM511.216 616.36C511.216 612.904 513.712 610.888 517.072 610.888C520.432 610.888 522.976 612.904 522.976 616.36C522.976 619.816 520.432 621.88 517.072 621.88C513.712 621.88 511.216 619.816 511.216 616.36ZM520.288 626.872C525.472 625.72 529.12 621.688 529.12 616.36C529.12 610.024 523.936 605.464 517.072 605.464C510.256 605.464 505.072 610.024 505.072 616.36C505.072 621.736 508.768 625.816 514 626.92V633.16C510.304 633.208 506.704 633.208 503.584 633.208L504.352 638.344C511.792 638.392 521.632 638.392 530.848 636.664L530.32 632.104C527.104 632.488 523.744 632.776 520.288 632.92V626.872ZM544.768 620.248H538.96V602.872H532.624V647.08H538.96V625.48H544.768V620.248ZM585.159 606.808H575.271V602.584H568.887V606.808H559.047V611.752H585.111L585.159 606.808ZM567.303 620.776C567.303 618.664 569.271 617.56 572.103 617.56C574.935 617.56 576.903 618.664 576.903 620.776C576.903 622.888 574.935 623.992 572.103 623.992C569.271 623.992 567.303 622.888 567.303 620.776ZM582.951 620.776C582.951 616.072 578.487 612.952 572.103 612.952C565.719 612.952 561.255 616.072 561.255 620.776C561.255 625.432 565.719 628.6 572.103 628.6C578.487 628.6 582.951 625.432 582.951 620.776ZM587.607 641.704H571.431V638.584H587.607V641.704ZM587.607 633.832H571.431V630.472H565.143V646.6H593.895V630.472H587.607V633.832ZM599.751 613.528H593.895V602.968H587.559V628.84H593.895V618.712H599.751V613.528ZM612.084 623.752H626.436V606.664H605.556V611.704H619.956V618.76H605.604V636.952H609.588C617.604 636.952 624.084 636.664 631.284 635.416L630.612 630.28C624.372 631.336 618.804 631.672 612.084 631.72V623.752ZM633.684 602.872V647.224H640.02V602.872H633.684ZM678.032 628.84H684.368V602.92H678.032V610.984H669.968V616.12H678.032V628.84ZM674 622.456C666.992 620.2 664.112 614.824 664.112 608.872V605.224H657.68V609.16C657.68 615.256 654.56 621.256 647.024 623.656L650.336 628.744C655.568 626.968 659.072 623.416 661.04 618.904C662.912 622.84 666.032 625.864 670.688 627.448L674 622.456ZM669.44 642.28C663.632 642.28 660.608 641.08 660.608 638.584C660.608 636.04 663.632 634.84 669.44 634.84C675.2 634.84 678.224 636.04 678.224 638.584C678.224 641.08 675.2 642.28 669.44 642.28ZM669.44 629.944C660.032 629.944 654.272 633.112 654.272 638.584C654.272 643.96 660.032 647.128 669.44 647.128C678.8 647.128 684.56 643.96 684.56 638.584C684.56 633.112 678.8 629.944 669.44 629.944ZM721.852 602.872V647.224H728.188V602.872H721.852ZM704.428 605.992C697.756 605.992 692.812 612.04 692.812 621.736C692.812 631.48 697.756 637.576 704.428 637.576C711.1 637.576 716.044 631.48 716.044 621.736C716.044 612.04 711.1 605.992 704.428 605.992ZM704.428 611.704C707.692 611.704 709.948 615.208 709.948 621.736C709.948 628.312 707.692 631.816 704.428 631.816C701.164 631.816 698.908 628.312 698.908 621.736C698.908 615.208 701.164 611.704 704.428 611.704ZM766.467 642.52C760.371 642.52 757.539 641.704 757.539 639.88C757.539 638.056 760.371 637.288 766.467 637.288C772.611 637.288 775.443 638.056 775.443 639.88C775.443 641.704 772.611 642.52 766.467 642.52ZM766.467 632.632C756.771 632.632 751.155 635.128 751.155 639.88C751.155 644.584 756.771 647.128 766.467 647.128C776.211 647.128 781.827 644.584 781.827 639.88C781.827 635.128 776.211 632.632 766.467 632.632ZM769.683 625.72V622.984H782.307V618.184H757.827V615.784H780.963V611.176H757.827V608.872H781.971V604.072H751.539V622.984H763.347V625.72H746.547V630.664H786.531V625.72H769.683ZM803.52 632.92C800.544 632.92 798.336 630.904 798.336 627.544C798.336 624.184 800.544 622.12 803.52 622.12C806.496 622.12 808.656 624.184 808.656 627.496C808.656 630.904 806.496 632.92 803.52 632.92ZM803.52 616.984C797.088 616.984 792.288 621.352 792.288 627.496C792.288 633.736 797.088 638.104 803.52 638.104C809.904 638.104 814.656 633.736 814.656 627.496C814.656 621.352 809.904 616.984 803.52 616.984ZM806.64 603.688H800.304V609.448H790.512V614.488H816.24V609.448H806.64V603.688ZM831.792 620.2H825.456V602.92H819.12V647.128H825.456V625.432H831.792V620.2ZM870.524 614.872H846.188V604.504H839.852V619.912H870.524V614.872ZM845.804 633.016H839.42V646.168H870.764V641.128H845.804V633.016ZM834.908 624.424V629.512H874.94V624.424H834.908ZM904.051 606.76H897.955V614.2C897.955 621.736 895.603 629.656 889.123 633.592L892.915 638.344C896.899 635.944 899.491 631.72 901.027 626.824C902.419 631.288 904.771 635.032 908.515 637.336L911.971 632.44C905.971 628.456 904.051 621.112 904.051 613.96V606.76ZM912.883 617.848H907.315V622.984H912.883V645.16H918.787V603.64H912.883V617.848ZM921.859 602.92V647.128H927.859V602.92H921.859ZM957.039 614.584H952.767C953.007 612.52 953.151 610.408 953.151 608.152H935.967V613.192H946.863C946.047 621.832 942.207 628.216 933.471 633.544L937.071 637.96C945.327 633.064 949.743 626.92 951.711 619.624H957.039V625.624H950.895V630.712H957.039V645.208H962.943V603.88H957.039V614.584ZM966.111 602.872V647.128H972.111V602.872H966.111Z" fill="#333333"/>
<path d="M127 627.4H259.473V629.8H127V627.4Z" fill="#333333"/>
<g clip-path="url(#clip0_20_155)">
<path fill-rule="evenodd" clip-rule="evenodd" d="M1655.46 964.507C1656.03 964.28 1656.54 963.942 1656.98 963.515C1657.42 963.088 1657.77 962.578 1658.01 962.016C1658.25 961.454 1658.37 960.85 1658.38 960.238C1658.39 959.627 1658.27 959.021 1658.04 958.454L1573.53 749.288C1573.05 748.163 1572.14 747.274 1571 746.814C1569.86 746.354 1568.59 746.358 1567.46 746.828C1566.33 747.31 1565.45 748.216 1564.99 749.349C1564.52 750.482 1564.53 751.751 1565 752.881L1649.51 962.169C1650.01 963.247 1650.91 964.09 1652.02 964.525C1653.12 964.96 1654.36 964.953 1655.46 964.507Z" fill="#7B7B7B"/>
<path d="M1378.73 1000.98C1583.48 1000.98 1749.47 991.644 1749.47 980.133C1749.47 968.622 1583.48 959.29 1378.73 959.29C1173.98 959.29 1008 968.622 1008 980.133C1008 991.644 1173.98 1000.98 1378.73 1000.98Z" fill="#E8E8E8"/>
<path fill-rule="evenodd" clip-rule="evenodd" d="M1491.53 850.918H1417.14C1416.16 850.918 1415.22 850.529 1414.53 849.837C1413.84 849.145 1413.45 848.206 1413.45 847.227C1413.45 846.248 1413.84 845.309 1414.53 844.617C1415.22 843.925 1416.16 843.536 1417.14 843.536H1491.53C1492.51 843.542 1493.44 843.934 1494.13 844.625C1494.81 845.317 1495.2 846.252 1495.2 847.227C1495.2 848.201 1494.81 849.137 1494.13 849.828C1493.44 850.52 1492.51 850.911 1491.53 850.918Z" fill="#7B7B7B"/>
<path fill-rule="evenodd" clip-rule="evenodd" d="M1477.9 964.507C1476.78 964.03 1475.88 963.124 1475.42 961.989C1474.96 960.854 1474.97 959.583 1475.44 958.454L1559.95 749.289C1560.44 748.165 1561.34 747.277 1562.47 746.816C1563.61 746.355 1564.88 746.36 1566.01 746.828C1566.57 747.055 1567.09 747.392 1567.53 747.82C1567.96 748.247 1568.31 748.757 1568.55 749.319C1568.79 749.881 1568.92 750.485 1568.92 751.096C1568.93 751.708 1568.82 752.314 1568.59 752.881L1484.06 962.17C1483.81 962.727 1483.45 963.23 1483 963.649C1482.56 964.069 1482.04 964.396 1481.46 964.614C1480.89 964.831 1480.28 964.933 1479.67 964.915C1479.06 964.897 1478.46 964.758 1477.9 964.507Z" fill="#7B7B7B"/>
<path fill-rule="evenodd" clip-rule="evenodd" d="M1543.08 964.507C1544.2 964.025 1545.09 963.119 1545.55 961.986C1546.01 960.853 1546 959.584 1545.54 958.454L1461.03 749.289C1460.54 748.165 1459.64 747.277 1458.51 746.816C1457.37 746.355 1456.1 746.36 1454.98 746.828C1454.41 747.055 1453.89 747.392 1453.45 747.82C1453.02 748.247 1452.67 748.757 1452.43 749.319C1452.19 749.881 1452.06 750.485 1452.06 751.096C1452.05 751.708 1452.16 752.314 1452.39 752.881L1536.95 961.948C1537.18 962.52 1537.53 963.041 1537.96 963.479C1538.39 963.918 1538.91 964.266 1539.48 964.504C1540.05 964.742 1540.66 964.865 1541.28 964.866C1541.9 964.866 1542.51 964.744 1543.08 964.507Z" fill="#7B7B7B"/>
<path fill-rule="evenodd" clip-rule="evenodd" d="M1607.78 850.918H1528.07C1527.09 850.911 1526.16 850.52 1525.48 849.828C1524.79 849.137 1524.4 848.201 1524.4 847.227C1524.4 846.252 1524.79 845.317 1525.48 844.625C1526.16 843.934 1527.09 843.542 1528.07 843.536H1607.78C1608.76 843.542 1609.69 843.933 1610.38 844.624C1611.07 845.315 1611.46 846.25 1611.47 847.227C1611.46 848.204 1611.07 849.139 1610.38 849.83C1609.69 850.521 1608.76 850.911 1607.78 850.918Z" fill="#7B7B7B"/>
<path fill-rule="evenodd" clip-rule="evenodd" d="M1448.09 504.59C1448.09 504.59 1427.3 538.573 1423.48 599.575C1423.48 599.575 1438.52 598.148 1438.47 595.983C1438.42 593.817 1448.09 504.59 1448.09 504.59Z" fill="#B4B4B4"/>
<path fill-rule="evenodd" clip-rule="evenodd" d="M1719.3 972.037C1717.68 972.663 1715.87 972.636 1714.27 971.962C1712.66 971.288 1711.38 970.018 1710.69 968.42L1592.99 679.846C1592.68 679.055 1592.54 678.211 1592.56 677.362C1592.58 676.513 1592.77 675.677 1593.12 674.904C1593.48 674.131 1593.98 673.436 1594.6 672.86C1595.23 672.285 1595.96 671.84 1596.76 671.553C1598.38 670.927 1600.19 670.954 1601.79 671.629C1603.4 672.303 1604.68 673.572 1605.37 675.17L1723.07 963.745C1723.38 964.534 1723.54 965.38 1723.52 966.231C1723.5 967.082 1723.31 967.921 1722.96 968.696C1722.61 969.471 1722.1 970.166 1721.47 970.741C1720.84 971.315 1720.11 971.756 1719.3 972.037Z" fill="#7B7B7B"/>
<path fill-rule="evenodd" clip-rule="evenodd" d="M1306.52 955.821L1276.04 953.606L1286.13 918.516L1315.33 920.607L1306.52 955.821Z" fill="#878787"/>
<path fill-rule="evenodd" clip-rule="evenodd" d="M1443.51 955.55L1410.89 953.187L1415 919.573L1447.62 921.911L1443.51 955.55Z" fill="#878787"/>
<path fill-rule="evenodd" clip-rule="evenodd" d="M1233.92 976.614C1233.87 977.215 1233.95 977.82 1234.16 978.385C1234.37 978.951 1234.7 979.464 1235.13 979.887C1235.99 980.748 1246 982.126 1247.43 982.052C1259.73 981.412 1283.55 978.804 1299.96 977.967C1302.57 977.816 1305.03 976.703 1306.87 974.842C1308.7 973.065 1309.76 970.648 1309.85 968.1C1309.99 958.872 1310.19 946.199 1310.19 946.199L1278.99 943.147C1278.99 943.147 1253.36 960.373 1240.47 966.303C1235.05 968.764 1234.46 971.028 1234.05 976.614H1233.92Z" fill="#3A3A3A"/>
<path fill-rule="evenodd" clip-rule="evenodd" d="M1360.53 976.737C1359.4 976.254 1358.52 975.348 1358.05 974.215C1357.59 973.082 1357.6 971.813 1358.07 970.683L1447.52 749.214C1448 748.091 1448.91 747.202 1450.04 746.742C1451.17 746.281 1452.44 746.285 1453.57 746.754C1454.14 746.981 1454.66 747.318 1455.09 747.746C1455.53 748.173 1455.88 748.683 1456.12 749.245C1456.36 749.807 1456.49 750.411 1456.49 751.022C1456.5 751.634 1456.38 752.24 1456.16 752.807L1366.7 974.276C1366.46 974.848 1366.11 975.366 1365.67 975.8C1365.23 976.234 1364.71 976.576 1364.13 976.805C1363.56 977.035 1362.94 977.147 1362.32 977.135C1361.7 977.123 1361.09 976.988 1360.53 976.737Z" fill="#7B7B7B"/>
<path fill-rule="evenodd" clip-rule="evenodd" d="M1366.09 979.887C1364.3 980.407 1362.37 980.229 1360.71 979.389C1359.04 978.549 1357.75 977.109 1357.11 975.359L1222.31 643.155C1221.92 642.33 1221.7 641.435 1221.66 640.523C1221.62 639.611 1221.77 638.701 1222.09 637.845C1222.41 636.99 1222.89 636.207 1223.52 635.543C1224.14 634.878 1224.9 634.346 1225.73 633.977C1227.52 633.457 1229.44 633.634 1231.11 634.474C1232.78 635.314 1234.06 636.754 1234.71 638.505L1369.51 970.708C1369.9 971.533 1370.12 972.428 1370.16 973.341C1370.2 974.254 1370.06 975.166 1369.74 976.022C1369.42 976.878 1368.93 977.662 1368.31 978.326C1367.68 978.99 1366.92 979.52 1366.09 979.887Z" fill="#7B7B7B"/>
<path d="M1577.2 720.448H1400.9C1389.81 720.448 1380.82 729.438 1380.82 740.528V741.611C1380.82 752.701 1389.81 761.691 1400.9 761.691H1577.2C1588.29 761.691 1597.28 752.701 1597.28 741.611V740.528C1597.28 729.438 1588.29 720.448 1577.2 720.448Z" fill="#626262"/>
<path fill-rule="evenodd" clip-rule="evenodd" d="M1456.45 632.5C1456.45 632.5 1437.21 687.769 1438.54 698.523C1440.19 710.929 1444.83 722.75 1452.05 732.974L1546.4 732.235C1552.73 732.184 1558.98 730.756 1564.71 728.049C1570.44 725.343 1575.51 721.423 1579.57 716.561C1583.63 711.699 1586.59 706.011 1588.24 699.893C1589.88 693.774 1590.18 687.37 1589.11 681.125V680.731C1588.69 678.271 1588.3 675.662 1587.95 673.103C1586.33 661.168 1581.48 625.315 1581.48 625.315C1552.15 644.312 1499.06 652.137 1452.51 639.587L1456.45 632.5Z" fill="#CFCFCF"/>
<path fill-rule="evenodd" clip-rule="evenodd" d="M1378.83 636.29L1413.52 605.875L1439.8 572.999L1455.34 609.911C1439.04 635.28 1413.75 653.539 1384.54 661.021L1380.43 648.717L1378.83 636.29Z" fill="#B4B4B4"/>
<path fill-rule="evenodd" clip-rule="evenodd" d="M1279.54 929.097C1279.54 923.781 1309.77 808.519 1326.85 760.239C1331.52 746.866 1341.23 735.847 1353.91 729.528L1455.25 679.181L1521.48 735.459L1382.2 792.967C1376.79 829.534 1351.01 882.44 1321.56 932.615L1279.54 929.097Z" fill="#CFCFCF"/>
<path fill-rule="evenodd" clip-rule="evenodd" d="M1304.58 931.188C1308.64 897.673 1334.77 867.651 1346.58 850.918C1361.58 829.706 1352.43 794.321 1358.66 776.677C1360.43 771.755 1365.37 765.16 1371.55 758.639C1385.37 744.33 1402.74 733.938 1421.89 728.52C1447.72 720.916 1463.02 709.99 1479.13 699.335L1521.57 735.41L1382.2 792.967C1376.79 829.534 1351.01 882.441 1321.56 932.616L1304.58 931.188Z" fill="#B8B8B8"/>
<path fill-rule="evenodd" clip-rule="evenodd" d="M1018.06 978.878C1017.25 978.561 1016.51 978.083 1015.89 977.472C1015.27 976.862 1014.78 976.133 1014.45 975.328C1014.12 974.523 1013.96 973.66 1013.97 972.79C1013.98 971.92 1014.17 971.061 1014.52 970.265L1140.85 669.117C1141.54 667.47 1142.84 666.154 1144.48 665.443C1146.11 664.732 1147.96 664.682 1149.64 665.303C1150.44 665.623 1151.18 666.103 1151.8 666.713C1152.42 667.323 1152.91 668.051 1153.24 668.854C1153.57 669.658 1153.74 670.519 1153.73 671.389C1153.73 672.258 1153.55 673.117 1153.2 673.915L1026.85 975.138C1026.14 976.771 1024.84 978.071 1023.2 978.768C1021.57 979.464 1019.73 979.504 1018.06 978.878Z" fill="#626262"/>
<path fill-rule="evenodd" clip-rule="evenodd" d="M1368.92 981.979C1368.87 982.579 1368.95 983.183 1369.16 983.748C1369.37 984.313 1369.7 984.826 1370.12 985.252C1370.98 986.113 1381.02 987.491 1382.42 987.417C1394.72 986.777 1418.54 984.169 1434.95 983.332C1437.56 983.177 1440.02 982.064 1441.86 980.207C1443.69 978.43 1444.76 976.013 1444.84 973.464C1444.99 964.237 1445.16 951.564 1445.16 951.564L1410.52 950.801C1410.52 950.801 1388.38 965.565 1375.44 971.668C1370.05 974.129 1369.43 976.393 1369.01 981.954L1368.92 981.979Z" fill="#3A3A3A"/>
<path fill-rule="evenodd" clip-rule="evenodd" d="M1481.72 393.215C1481.72 393.215 1459.4 403.304 1476.8 424.098C1494.19 444.891 1481.72 393.215 1481.72 393.215Z" fill="#3A3A3A"/>
<path fill-rule="evenodd" clip-rule="evenodd" d="M1557.27 490.982C1556.99 487.023 1555.67 483.208 1553.44 479.921C1551.22 476.634 1548.17 473.99 1544.6 472.256C1535.9 468.224 1526.07 467.354 1516.8 469.795C1492.2 475.553 1483.93 479.293 1483.93 479.293L1474.66 509.979L1505.66 524.744L1566.67 479.072L1557.27 490.982Z" fill="#B4B4B4"/>
<path fill-rule="evenodd" clip-rule="evenodd" d="M1477.61 410.909C1477.76 407.214 1478.66 403.59 1480.26 400.258C1481.87 396.926 1484.14 393.958 1486.93 391.538C1489.72 389.117 1492.98 387.294 1496.51 386.181C1500.03 385.069 1503.75 384.691 1507.43 385.071C1514.36 385.726 1520.77 389.017 1525.35 394.263C1529.93 399.51 1532.32 406.314 1532.03 413.271C1531.69 421.539 1531.32 430.619 1531 438.494C1530.89 441.125 1530.25 443.707 1529.11 446.081C1527.97 448.456 1526.36 450.572 1524.38 452.3C1522.39 454.029 1520.07 455.333 1517.56 456.132C1515.05 456.932 1512.41 457.21 1509.79 456.95L1494.83 455.473C1489.76 454.969 1485.07 452.546 1481.72 448.7C1478.37 444.853 1476.62 439.874 1476.82 434.778C1477.12 427.396 1477.46 418.955 1477.81 410.909H1477.61Z" fill="#878787"/>
<path fill-rule="evenodd" clip-rule="evenodd" d="M1545.24 488.054L1525.78 437.559L1490.4 453.332L1500.22 501.981L1545.24 488.054Z" fill="#878787"/>
<path fill-rule="evenodd" clip-rule="evenodd" d="M1516.21 407.71C1516.21 407.71 1512.74 432.588 1532.15 433.031C1532.15 433.031 1541.99 410.712 1543.17 399.269C1545.29 377.984 1502.68 373.751 1485.41 382.807C1468.14 391.862 1478.74 408.226 1516.21 407.71Z" fill="#3A3A3A"/>
<path fill-rule="evenodd" clip-rule="evenodd" d="M1495.59 479.022C1507.33 496.74 1535.4 480.696 1539.88 474.421C1540.62 473.437 1552.99 480.671 1554.64 481.803C1579.24 498.832 1582.54 571.941 1586.94 598.296C1588.98 610.6 1600.5 651.793 1594.32 662.473C1592.31 666.016 1573.04 663.309 1569.25 663.998C1553.16 666.853 1481.03 672.463 1471.11 661.414C1461.2 650.366 1468.65 629.991 1466.76 617.121C1461.01 574.465 1464.11 531.083 1475.86 489.678L1495.59 479.022Z" fill="white"/>
<path fill-rule="evenodd" clip-rule="evenodd" d="M1468.92 575.312C1482.9 612.642 1587.16 572.556 1575.33 554.642C1558.77 529.616 1582.71 571.867 1586.99 598.247C1589.03 610.551 1600.55 651.744 1594.37 662.423C1592.35 665.967 1584.14 694.61 1580.27 694.733C1529.23 696.579 1450.72 699.483 1447.2 685.063C1442.28 664.761 1465.14 629.966 1466.88 616.949C1471.16 583.211 1468.92 575.312 1468.92 575.312Z" fill="#E8E8E8"/>
<path fill-rule="evenodd" clip-rule="evenodd" d="M1531.73 422.745C1528.22 421.834 1524.35 424.762 1523.3 429.266C1522.24 433.769 1524.06 438.149 1527.6 439.109C1531.14 440.068 1534.98 437.091 1536.06 432.588C1537.15 428.084 1535.28 423.704 1531.73 422.745Z" fill="#878787"/>
<path fill-rule="evenodd" clip-rule="evenodd" d="M1476.55 434.802C1475.3 432.588 1470.01 468.146 1491.31 469.942C1512.62 471.739 1521.67 463.027 1523.12 422.179C1523.12 422.179 1514.54 447.008 1502.06 447.377C1475.99 448.164 1478.03 437.534 1476.5 434.802H1476.55Z" fill="#3A3A3A"/>
<path fill-rule="evenodd" clip-rule="evenodd" d="M1566.18 727.388L1555.43 710.95L1483.07 705.733L1429.61 731.128C1421.71 734.88 1415.06 740.812 1410.42 748.223C1405.78 755.635 1403.36 764.218 1403.43 772.961L1403.8 817.624L1400.92 941.376L1448.41 940.047C1463.41 880.546 1469.29 829.928 1464.62 783.813L1566.18 727.388Z" fill="#CFCFCF"/>
<path fill-rule="evenodd" clip-rule="evenodd" d="M1483.93 479.342C1483.93 479.342 1470.84 545.931 1470.52 586.041C1470.2 626.152 1452.32 707.923 1452.32 707.923C1445.87 695.964 1422.99 699.556 1420.93 688.63C1420.93 688.63 1440.98 556.66 1444.52 522.086C1447.96 488.275 1461.03 488.496 1483.93 479.342Z" fill="#B4B4B4"/>
<path fill-rule="evenodd" clip-rule="evenodd" d="M1502.31 406.946C1502.31 406.946 1454.98 403.231 1465.97 382.339C1476.13 362.923 1509.27 403.797 1516.23 396.34L1502.31 406.946Z" fill="#3A3A3A"/>
<path fill-rule="evenodd" clip-rule="evenodd" d="M1444.52 645.026C1444.52 645.026 1432.56 636.856 1424.84 640.818C1421.2 642.712 1415.14 642.811 1409.71 645.739C1403.73 649.061 1397.28 658.215 1397.28 658.215C1397.28 658.215 1397.28 666.68 1404.79 668.058C1407.47 668.6 1415.54 661.414 1415.54 661.414C1422.92 663.998 1431.53 663.875 1441.37 661.734L1444.52 645.026Z" fill="#878787"/>
<path fill-rule="evenodd" clip-rule="evenodd" d="M1388.82 644.361C1388.82 644.361 1377.5 635.306 1369.58 638.701C1365.82 640.326 1359.74 639.981 1354.13 642.614C1347.93 645.469 1340.82 654.13 1340.82 654.13C1340.82 654.13 1340.16 662.571 1347.59 664.589C1350.22 665.302 1358.8 658.732 1358.8 658.732C1365.87 661.857 1374.55 662.448 1384.54 660.947L1388.82 644.361Z" fill="#878787"/>
<path fill-rule="evenodd" clip-rule="evenodd" d="M1444.52 645.026L1482.46 642.245L1483.93 662.473L1436.43 659.864L1444.52 645.026Z" fill="#878787"/>
<path d="M1458.94 656.419H1334.74V664.293H1458.94V656.419Z" fill="white"/>
<path fill-rule="evenodd" clip-rule="evenodd" d="M1612.87 613.971C1612.44 592.935 1610.64 571.95 1607.49 551.148C1603.38 524.793 1598.06 505.033 1588.84 494.107C1580.72 484.535 1572.99 483.083 1562.68 477.989L1544.6 472.255C1533.56 523.661 1525.93 572.679 1530.73 623.568L1470.52 635.527L1470.65 664.294H1563.82L1582.37 658.265L1600.03 648.422C1608.63 639.049 1613.24 626.689 1612.87 613.971Z" fill="#B4B4B4"/>
<path fill-rule="evenodd" clip-rule="evenodd" d="M1366.38 664.294H1223.86L1180.86 568.447H1320.11C1321.08 568.431 1322.04 568.706 1322.86 569.236C1323.68 569.766 1324.32 570.528 1324.71 571.424L1366.38 664.294Z" fill="white"/>
<path fill-rule="evenodd" clip-rule="evenodd" d="M1360.85 664.294H1218.33L1177.31 572.852C1177.1 572.372 1177.01 571.845 1177.05 571.32C1177.09 570.796 1177.27 570.291 1177.55 569.851C1177.84 569.412 1178.24 569.053 1178.71 568.807C1179.17 568.562 1179.69 568.438 1180.22 568.447H1315.87C1316.48 568.446 1317.07 568.62 1317.57 568.947C1318.08 569.275 1318.48 569.742 1318.73 570.292L1360.85 664.294Z" fill="#3A3A3A"/>
<path fill-rule="evenodd" clip-rule="evenodd" d="M1529.25 602.135C1529.25 602.135 1528.04 653.146 1516.28 676.573C1511.09 686.933 1483.93 714.543 1483.93 714.543C1483.93 714.543 1588.1 724.853 1591.42 682.823C1594.2 652.246 1598.69 621.849 1604.88 591.775L1529.25 602.135Z" fill="#B4B4B4"/>
<path fill-rule="evenodd" clip-rule="evenodd" d="M1273.26 616.973C1274.96 622.953 1270.33 627.8 1262.93 627.8C1255.52 627.8 1248.17 622.879 1246.47 616.973C1244.77 611.067 1249.4 606.146 1256.8 606.146C1264.21 606.146 1271.56 610.993 1273.26 616.973Z" fill="white"/>
<path fill-rule="evenodd" clip-rule="evenodd" d="M1390.25 1000.56C1389.42 1000.22 1388.68 999.716 1388.05 999.079C1387.43 998.443 1386.94 997.686 1386.62 996.855C1386.3 996.024 1386.15 995.136 1386.18 994.246C1386.21 993.355 1386.42 992.48 1386.8 991.674L1518.74 676.204C1519.41 674.503 1520.7 673.124 1522.36 672.354C1524.01 671.584 1525.9 671.482 1527.63 672.07C1528.45 672.416 1529.19 672.925 1529.81 673.564C1530.43 674.204 1530.91 674.962 1531.24 675.793C1531.56 676.624 1531.71 677.512 1531.68 678.402C1531.65 679.293 1531.44 680.169 1531.07 680.977L1399.18 996.448C1398.51 998.159 1397.21 999.545 1395.54 1000.31C1393.88 1001.08 1391.98 1001.17 1390.25 1000.56Z" fill="#626262"/>
<path fill-rule="evenodd" clip-rule="evenodd" d="M1612.87 613.971C1612.44 592.935 1610.64 571.95 1607.49 551.148C1603.38 524.793 1598.06 505.033 1588.84 494.107C1580.72 484.535 1572.99 483.083 1562.68 477.989L1544.6 472.255C1613.81 507.715 1591.35 583.58 1596.27 634.469C1585.15 640.4 1579.88 638.505 1554 643.672C1540.15 647.905 1526.62 654.008 1505.8 657.674C1490.18 654.377 1481.42 653.294 1470.6 656.419V664.294H1563.77L1582.32 658.265L1599.98 648.422C1608.6 639.057 1613.23 626.696 1612.87 613.971Z" fill="#B4B4B4"/>
<path fill-rule="evenodd" clip-rule="evenodd" d="M1528.86 624.036C1528.86 624.036 1558.87 613.577 1570.36 613.577C1570.36 613.577 1535.45 612.618 1529.18 614.045L1528.86 624.036Z" fill="#B4B4B4"/>
<path fill-rule="evenodd" clip-rule="evenodd" d="M1629.36 679.181H1115.36C1113.41 679.181 1111.53 678.403 1110.15 677.019C1108.76 675.634 1107.98 673.757 1107.98 671.799C1107.98 669.841 1108.76 667.963 1110.15 666.579C1111.53 665.194 1113.41 664.417 1115.36 664.417H1629.36C1631.31 664.417 1633.19 665.194 1634.58 666.579C1635.96 667.963 1636.74 669.841 1636.74 671.799C1636.74 673.757 1635.96 675.634 1634.58 677.019C1633.19 678.403 1631.31 679.181 1629.36 679.181Z" fill="#3A3A3A"/>
<path fill-rule="evenodd" clip-rule="evenodd" d="M1493.7 598.887L1510.92 593.719L1502.51 576.026C1502.51 576.026 1475.44 563.87 1471.16 572.163C1466.88 580.455 1470.55 601.323 1482.11 600.117L1493.7 598.887Z" fill="#878787"/>
<path fill-rule="evenodd" clip-rule="evenodd" d="M1485.09 581.366L1460.49 580.111C1459.19 580.034 1457.98 579.452 1457.12 578.489C1456.25 577.526 1455.8 576.261 1455.86 574.968C1455.95 573.679 1456.54 572.477 1457.51 571.621C1458.47 570.765 1459.74 570.323 1461.03 570.391L1485.63 571.67C1486.9 571.759 1488.09 572.336 1488.94 573.282C1489.79 574.227 1490.25 575.466 1490.21 576.739C1490.13 578.028 1489.55 579.234 1488.59 580.099C1487.64 580.965 1486.38 581.419 1485.09 581.366Z" fill="#878787"/>
<path fill-rule="evenodd" clip-rule="evenodd" d="M1770.97 554.346C1768.51 572.236 1796.43 608.483 1794.46 646.453L1810.92 646.305C1810.92 646.305 1815.18 569.603 1788.26 532.101C1783.71 541.821 1778.23 549.769 1770.97 554.346Z" fill="#878787"/>
<path d="M1744.9 920.086L1725.52 920.54L1726.26 952.275L1745.64 951.821L1744.9 920.086Z" fill="#878787"/>
<path d="M1665.11 918.038L1645.04 918.508L1645.86 953.22L1665.93 952.75L1665.11 918.038Z" fill="#878787"/>
<path fill-rule="evenodd" clip-rule="evenodd" d="M1728.48 581.145L1642.22 584.737C1618.38 628.588 1621.98 681.667 1621.98 681.667C1621.98 681.667 1620.45 787.997 1621.66 792.401L1642.45 927.424L1671.7 923.191C1669.58 871.097 1671.01 847.252 1667.27 811.497L1686.16 686.17C1715.54 685.555 1750.28 708.317 1753.94 659.914C1758.13 604.596 1728.48 581.145 1728.48 581.145Z" fill="#626262"/>
<path fill-rule="evenodd" clip-rule="evenodd" d="M1680.55 595.146L1699.62 786.249L1716.4 929.22L1748.58 930.548C1753.2 874.32 1758.72 841.001 1744.57 800.128L1753.99 659.101L1713.37 606.441L1680.55 595.146Z" fill="#626262"/>
<path fill-rule="evenodd" clip-rule="evenodd" d="M1725.48 947.429C1725.48 947.429 1721.42 967.804 1721.86 980.256C1722.09 982.559 1723.22 984.68 1724.99 986.166C1726.76 987.651 1729.05 988.383 1731.36 988.204L1744.25 986.358C1745.19 986.25 1746.09 985.956 1746.92 985.496C1747.74 985.036 1748.46 984.417 1749.05 983.676L1751.51 980.649C1755.39 975.58 1753.48 970.536 1750.99 963.424C1749.23 958.248 1747.75 952.983 1746.54 947.651C1743.49 945.408 1739.82 944.179 1736.04 944.14C1732.26 944.1 1728.57 945.251 1725.48 947.429Z" fill="#3A3A3A"/>
<path fill-rule="evenodd" clip-rule="evenodd" d="M1615.41 363.44C1615.41 363.44 1591.47 395.701 1623.53 423.311C1655.58 450.921 1650.88 421.49 1650.88 421.49C1650.88 421.49 1639.1 368.608 1615.41 363.44Z" fill="#3A3A3A"/>
<path fill-rule="evenodd" clip-rule="evenodd" d="M1680.78 354.04C1680.78 354.04 1689.39 362.234 1707.42 366.738C1723.04 370.626 1732.02 376.581 1741.86 392.207C1757.66 417.036 1781.79 398.826 1793.53 437.952C1800.74 461.945 1784.08 486.872 1740.44 474.519C1696.79 462.166 1651.7 511.086 1626.45 429.905C1617.55 401.188 1665.82 378.992 1665.82 378.992L1680.78 354.04Z" fill="#3A3A3A"/>
<path fill-rule="evenodd" clip-rule="evenodd" d="M1621.66 450.92L1656.32 437.854L1678.29 433.301L1706.88 439.576C1713.72 441.077 1719.79 445.031 1723.92 450.693C1728.05 456.354 1729.97 463.332 1729.32 470.311L1723.53 532.101L1731.92 583.556C1697.48 597.656 1665.23 604.915 1642.22 584.737L1625 528.558L1621.66 450.92Z" fill="#E8E8E8"/>
<path fill-rule="evenodd" clip-rule="evenodd" d="M1646.92 410.047L1654.8 443.883C1655.26 445.885 1656.25 447.728 1657.66 449.221C1659.08 450.714 1660.86 451.805 1662.83 452.381C1664.81 452.957 1666.9 452.998 1668.89 452.499C1670.89 452 1672.71 450.98 1674.18 449.543L1677.04 446.762C1679.06 444.803 1680.47 442.308 1681.12 439.57C1681.77 436.832 1681.63 433.966 1680.7 431.308L1667.12 391.936L1646.92 409.949V410.047Z" fill="#878787"/>
<path fill-rule="evenodd" clip-rule="evenodd" d="M1649.16 419.644C1649.16 419.644 1662.05 418.66 1667.27 413.099C1667.27 413.099 1662.72 428.749 1651.94 431.677L1649.16 419.644Z" fill="#878787"/>
<path fill-rule="evenodd" clip-rule="evenodd" d="M1665.69 367.673C1665.32 366 1664.61 364.417 1663.62 363.016C1662.63 361.615 1661.38 360.424 1659.92 359.509C1658.47 358.595 1656.86 357.976 1655.17 357.688C1653.47 357.4 1651.74 357.448 1650.07 357.83L1625.52 363.317C1618.48 364.892 1615.16 371.733 1615.68 378.943C1616.24 387.457 1621.36 404.215 1626.53 415.855C1629.46 422.45 1636.37 427.593 1643.4 425.993C1650.93 424.295 1671.84 412.065 1670.98 398.113C1670.07 387.812 1668.3 377.606 1665.69 367.599V367.673Z" fill="#878787"/>
<path fill-rule="evenodd" clip-rule="evenodd" d="M1699.33 373.8C1699.33 373.8 1680.87 349.192 1667.19 346.313C1647.51 342.155 1627.44 341.047 1614.18 365.606C1614.18 365.606 1626.97 406.602 1687.86 381.158L1699.33 373.8Z" fill="#3A3A3A"/>
<path fill-rule="evenodd" clip-rule="evenodd" d="M1679.84 393.88C1679.08 399.761 1674.53 404.043 1669.66 403.428C1664.78 402.813 1661.44 397.522 1662.27 391.641C1663.11 385.76 1667.59 381.478 1672.46 382.093C1677.33 382.708 1680.58 387.999 1679.84 393.88Z" fill="#878787"/>
<path fill-rule="evenodd" clip-rule="evenodd" d="M1643.99 948.758L1629.23 963.523C1625.72 967.014 1621.15 969.261 1616.24 969.921L1611.32 970.585C1610.24 970.732 1609.22 971.217 1608.43 971.973C1607.63 972.728 1607.1 973.715 1606.89 974.793C1606.76 975.512 1606.77 976.252 1606.94 976.965C1607.11 977.677 1607.42 978.346 1607.87 978.929C1608.31 979.512 1608.87 979.994 1609.51 980.346C1610.16 980.697 1610.86 980.91 1611.59 980.969L1628.32 982.397L1666.92 975.014C1666.92 975.014 1679.77 971.249 1669.16 947.183L1643.99 948.758Z" fill="#3A3A3A"/>
<path fill-rule="evenodd" clip-rule="evenodd" d="M1621.66 450.92C1621.66 450.92 1608.2 452.864 1600.15 481.36C1592.11 509.856 1571.84 550.975 1571.84 550.975C1571.84 550.975 1542.93 593.35 1593.98 591.479C1623.89 590.397 1646.36 510.52 1646.36 510.52L1650.07 483.329L1621.66 450.92Z" fill="#E8E8E8"/>
<path fill-rule="evenodd" clip-rule="evenodd" d="M1588.27 590.077L1508.17 594.137L1504.2 576.247L1571.98 556.561C1588.62 551.098 1600.74 583.654 1588.27 590.077Z" fill="#878787"/>
<path fill-rule="evenodd" clip-rule="evenodd" d="M1794.46 646.453L1790.99 682.109C1790.99 682.109 1796.82 710.9 1811.17 703.346C1825.51 695.791 1818.35 686.12 1817.05 682.109C1815.74 678.098 1823.05 668.452 1810.92 646.305L1794.46 646.453Z" fill="#878787"/>
<path fill-rule="evenodd" clip-rule="evenodd" d="M1717.53 444.35C1717.53 444.35 1756.06 468.023 1768.65 489.751C1781.25 511.48 1821.13 549.868 1811.17 572.999C1801.2 596.13 1777.76 596.893 1763 568.274C1748.24 539.656 1717.53 519.28 1717.53 519.28V444.35Z" fill="#E8E8E8"/>
<path d="M1320.5 422.893H1243.4C1221.48 422.893 1203.71 440.663 1203.71 462.585C1203.71 484.506 1221.48 502.277 1243.4 502.277H1320.5C1342.42 502.277 1360.18 484.506 1360.18 462.585C1360.18 440.663 1342.42 422.893 1320.5 422.893Z" fill="#777777"/>
<path fill-rule="evenodd" clip-rule="evenodd" d="M1326.38 498.536L1370.54 514.704L1356.76 474.224L1326.38 498.536Z" fill="#777777"/>
<path fill-rule="evenodd" clip-rule="evenodd" d="M1254.29 458.106C1254.29 459.82 1253.79 461.496 1252.83 462.921C1251.88 464.346 1250.53 465.456 1248.94 466.111C1247.36 466.766 1245.62 466.936 1243.94 466.599C1242.25 466.263 1240.71 465.436 1239.5 464.222C1238.29 463.008 1237.47 461.462 1237.14 459.781C1236.81 458.099 1236.98 456.356 1237.64 454.774C1238.3 453.192 1239.41 451.841 1240.84 450.892C1242.27 449.943 1243.94 449.439 1245.66 449.444C1246.79 449.444 1247.92 449.668 1248.97 450.104C1250.02 450.539 1250.97 451.178 1251.77 451.982C1252.58 452.787 1253.21 453.742 1253.64 454.793C1254.08 455.844 1254.3 456.969 1254.29 458.106Z" fill="white"/>
<path fill-rule="evenodd" clip-rule="evenodd" d="M1288.47 458.106C1288.47 459.819 1287.96 461.494 1287.01 462.918C1286.06 464.342 1284.7 465.453 1283.12 466.108C1281.54 466.764 1279.8 466.935 1278.12 466.601C1276.44 466.267 1274.89 465.442 1273.68 464.231C1272.47 463.019 1271.65 461.476 1271.31 459.796C1270.98 458.115 1271.15 456.374 1271.81 454.791C1272.46 453.208 1273.57 451.855 1275 450.904C1276.42 449.952 1278.09 449.444 1279.81 449.444C1280.94 449.444 1282.07 449.668 1283.12 450.103C1284.17 450.538 1285.13 451.177 1285.93 451.981C1286.73 452.785 1287.37 453.74 1287.81 454.791C1288.24 455.842 1288.47 456.968 1288.47 458.106Z" fill="white"/>
<path fill-rule="evenodd" clip-rule="evenodd" d="M1322.47 458.106C1322.47 459.82 1321.96 461.496 1321.01 462.921C1320.05 464.346 1318.7 465.456 1317.12 466.111C1315.53 466.766 1313.79 466.936 1312.11 466.599C1310.43 466.263 1308.88 465.436 1307.67 464.222C1306.46 463.008 1305.64 461.462 1305.31 459.781C1304.98 458.099 1305.15 456.356 1305.81 454.774C1306.47 453.192 1307.59 451.841 1309.01 450.892C1310.44 449.943 1312.12 449.439 1313.83 449.444C1314.97 449.444 1316.09 449.668 1317.14 450.104C1318.19 450.539 1319.14 451.178 1319.95 451.982C1320.75 452.787 1321.38 453.742 1321.82 454.793C1322.25 455.844 1322.47 456.969 1322.47 458.106Z" fill="white"/>
<path fill-rule="evenodd" clip-rule="evenodd" d="M1686.16 686.194H1662.05L1673.2 772.174L1686.16 686.194Z" fill="#3A3A3A"/>
<path fill-rule="evenodd" clip-rule="evenodd" d="M1631.57 549.991C1631.57 549.991 1606.7 536.629 1611.59 515.245C1616.49 493.861 1615.68 491.252 1615.68 491.252C1615.68 491.252 1596.54 520.486 1609.04 544.676L1621.53 568.865L1631.57 549.991Z" fill="#D1D1D1"/>
<path fill-rule="evenodd" clip-rule="evenodd" d="M1731.85 528.558L1716.1 508.429C1718.2 519.084 1714.87 529.345 1704.84 539.164C1703.11 557.472 1709.76 588.6 1699.28 595.072L1733.28 584.294L1732.76 541.871L1731.85 528.558Z" fill="#D1D1D1"/>
</g>
<defs>
<clipPath id="clip0_20_155">
<rect width="812" height="657" fill="white" transform="translate(1008 344)"/>
</clipPath>
</defs>
</svg>
