<svg width="1920" height="1080" viewBox="0 0 1920 1080" fill="none" xmlns="http://www.w3.org/2000/svg">
<g clip-path="url(#clip0_27_2799)">
<rect width="1920" height="1080" fill="white"/>
<path d="M419 486.5C419 840.791 229.19 1139.5 92.5 1139.5C-44.1905 1139.5 -155 852.291 -155 498C-155 143.709 -44.1905 -157 92.5 -157C229.19 -157 419 132.209 419 486.5Z" fill="#F2F2F2"/>
<path d="M1435.67 643.893C1434.46 643.168 1433.13 642.686 1431.74 642.476C1430.36 642.266 1428.94 642.331 1427.58 642.668C1426.22 643.005 1424.93 643.607 1423.8 644.44C1422.67 645.272 1421.72 646.319 1420.99 647.521C1420.27 648.722 1419.79 650.055 1419.58 651.443C1419.37 652.83 1419.43 654.246 1419.77 655.608C1420.11 656.971 1420.71 658.253 1421.54 659.383C1422.37 660.513 1423.42 661.468 1424.62 662.193L1458.32 682.589L1492.02 728.944C1497.06 723.945 1502.44 719.311 1508.14 715.078L1474.28 668.078C1473.45 666.917 1472.38 665.954 1471.14 665.257L1435.67 643.893Z" fill="#333333"/>
<path d="M1409.3 771.589L1370.77 830.521C1369.21 832.883 1368.65 835.769 1369.22 838.543C1369.78 841.318 1371.43 843.753 1373.79 845.314C1376.15 846.875 1379.04 847.433 1381.81 846.866C1384.59 846.299 1387.02 844.653 1388.58 842.291L1424.06 788.116H1456.87C1458.94 780.778 1461.64 773.631 1464.93 766.752H1418.33C1416.54 766.726 1414.77 767.157 1413.19 768.003C1411.61 768.849 1410.27 770.083 1409.3 771.589V771.589Z" fill="#333333"/>
<path d="M1452.43 838.34L1417.37 864.46C1416.11 865.411 1415.07 866.625 1414.34 868.018C1413.6 869.411 1413.17 870.948 1413.09 872.522L1410.11 933.388C1410.06 934.785 1410.29 936.179 1410.78 937.488C1411.27 938.797 1412.02 939.997 1412.97 941.019C1413.92 942.041 1415.07 942.865 1416.34 943.443C1417.62 944.022 1418.99 944.345 1420.39 944.392C1421.79 944.44 1423.18 944.212 1424.49 943.721C1425.8 943.23 1427 942.486 1428.02 941.532C1429.04 940.578 1429.87 939.431 1430.44 938.158C1431.02 936.885 1431.35 935.511 1431.39 934.114L1433.49 878.568L1457.67 861.074C1456.27 856.954 1455.12 852.754 1454.21 848.498C1453.32 845.435 1452.84 841.726 1452.43 838.34Z" fill="#333333"/>
<path d="M1769.1 677.187C1771.22 676.132 1772.93 674.406 1773.96 672.276C1775 670.147 1775.3 667.735 1774.82 665.417C1774.64 664.549 1774.34 663.709 1773.94 662.918C1773.33 661.654 1772.47 660.525 1771.42 659.596C1770.37 658.667 1769.14 657.957 1767.82 657.507C1766.49 657.056 1765.08 656.875 1763.68 656.974C1762.28 657.072 1760.92 657.449 1759.67 658.081L1722.42 676.139C1721.12 676.714 1719.99 677.6 1719.12 678.719L1697.03 704.032C1708.33 700.422 1719.97 697.991 1731.77 696.777L1733.71 694.52L1769.1 677.187Z" fill="#333333"/>
<path d="M1589.4 808.996C1601.29 775.487 1623.47 746.594 1652.77 726.444C1649.79 724.509 1646.8 722.575 1643.66 720.882C1644.64 717.33 1645.2 713.679 1645.35 709.998C1645.57 705.809 1645.24 701.609 1644.38 697.503C1642.66 689.377 1638.98 681.794 1633.66 675.414C1636.52 673.544 1639.22 671.441 1641.72 669.125C1654.2 657.753 1661.65 641.892 1662.44 625.028C1662.51 623.929 1662.35 622.829 1661.97 621.794C1661.6 620.759 1661.01 619.813 1660.26 619.012C1659.5 618.211 1658.59 617.574 1657.58 617.139C1656.57 616.704 1655.48 616.48 1654.38 616.482C1653.28 616.416 1652.18 616.576 1651.15 616.951C1650.11 617.327 1649.17 617.91 1648.36 618.666C1647.56 619.421 1646.93 620.332 1646.49 621.343C1646.06 622.354 1645.83 623.443 1645.84 624.544C1645.57 630.734 1644.09 636.811 1641.48 642.428C1638.86 648.045 1635.17 653.09 1630.6 657.275C1627.4 660.195 1623.82 662.664 1619.96 664.611C1613.01 660.547 1605.18 658.223 1597.14 657.839C1589.09 657.508 1581.07 659.111 1573.76 662.515C1566.66 658.104 1560.85 651.882 1556.94 644.487C1553.03 637.092 1551.16 628.79 1551.51 620.433C1551.61 618.295 1550.85 616.206 1549.41 614.626C1547.96 613.046 1545.95 612.104 1543.81 612.008C1542.76 611.961 1541.7 612.122 1540.7 612.483C1539.71 612.844 1538.79 613.398 1538.01 614.113C1536.43 615.557 1535.49 617.569 1535.39 619.707C1534.93 629.798 1536.89 639.852 1541.09 649.035C1545.3 658.218 1551.64 666.266 1559.57 672.511C1553.88 678.166 1549.65 685.121 1547.25 692.776C1544.85 700.431 1544.35 708.555 1545.79 716.448C1522.65 725.37 1502.98 741.455 1489.63 762.356C1476.29 783.256 1469.98 807.875 1471.62 832.617C1471.95 836.518 1472.51 840.395 1473.31 844.226C1481.38 881.471 1511.93 914.605 1541.19 943.063C1564.01 965.232 1569.89 972.972 1583.92 973.536C1593.11 973.536 1598.75 970.956 1609.56 962.491C1594.2 940.324 1584.35 914.807 1580.85 888.066C1577.34 861.325 1580.27 834.133 1589.4 808.754V808.996ZM1560.95 926.697C1560.32 927.253 1559.52 927.56 1558.69 927.56C1557.86 927.56 1557.05 927.253 1556.43 926.697C1533.7 903.157 1506.04 870.668 1503.63 834.23C1502.38 816.972 1505.22 799.664 1511.91 783.71C1518.61 767.755 1528.97 753.605 1542.16 742.406C1542.97 741.681 1545.55 740.391 1547.08 741.842C1548.61 743.293 1549.5 743.293 1547.64 746.196C1530.24 773.257 1522.24 805.307 1524.91 837.374C1527.01 864.542 1538.86 891.871 1561.43 922.263C1561.92 922.929 1562.14 923.754 1562.05 924.574C1561.96 925.395 1561.56 926.152 1560.95 926.697V926.697Z" fill="#333333"/>
<path d="M1886.48 914.927C1892.94 897.002 1895.77 877.973 1894.82 858.944C1893.86 839.915 1889.14 821.265 1880.91 804.078C1869.09 779.322 1850.51 758.409 1827.32 743.747C1804.13 729.086 1777.27 721.271 1749.83 721.203C1725.38 721.244 1701.34 727.461 1679.94 739.278C1658.53 751.095 1640.46 768.129 1627.4 788.797C1614.34 809.466 1606.71 833.099 1605.23 857.503C1603.74 881.907 1608.45 906.29 1618.91 928.39C1632.36 957.518 1655.19 981.293 1683.75 995.909C1712.31 1010.52 1744.94 1015.14 1776.43 1009.01L1809.41 1093.57C1811.51 1099.22 1814.78 1104.35 1819.01 1108.63C1823.24 1112.92 1828.33 1116.26 1833.94 1118.44C1839.55 1120.62 1845.56 1121.58 1851.57 1121.27C1857.59 1120.96 1863.46 1119.38 1868.82 1116.63C1874.29 1114.11 1879.17 1110.46 1883.15 1105.94C1887.13 1101.41 1890.11 1096.1 1891.91 1090.36C1893.71 1084.61 1894.29 1078.54 1893.6 1072.56C1892.91 1066.57 1890.98 1060.8 1887.93 1055.6L1843.02 977.324C1862.85 960.805 1877.86 939.251 1886.48 914.927V914.927ZM1800.38 972.648C1774.41 984.981 1744.83 987.378 1717.22 979.387C1689.61 971.396 1665.88 953.57 1650.51 929.276C1673.73 908.961 1695.49 885.824 1704.28 859.301L1741.2 891.951L1738.71 947.657C1738.78 950.362 1739.88 952.938 1741.78 954.868C1743.68 956.797 1746.23 957.937 1748.94 958.06C1751.64 958.182 1754.29 957.278 1756.36 955.528C1758.42 953.778 1759.75 951.312 1760.07 948.625L1762.65 887.759C1762.62 886.246 1762.3 884.754 1761.69 883.37C1761.08 881.986 1760.2 880.737 1759.1 879.697L1708.55 834.954C1709.13 824.497 1708.34 814.01 1706.22 803.755C1706.22 801.901 1705.41 800.128 1704.93 798.354L1758.78 802.949L1789.41 859.946C1790.6 862.251 1792.59 864.043 1795 864.986C1797.42 865.929 1800.1 865.958 1802.53 865.067C1804.97 864.177 1806.99 862.427 1808.23 860.148C1809.46 857.869 1809.83 855.217 1809.25 852.69C1809.05 851.698 1808.7 850.745 1808.2 849.868L1774.74 787.793C1773.94 786.292 1772.78 785.005 1771.38 784.038C1769.98 783.07 1768.37 782.451 1766.68 782.231L1697.27 776.265C1695.27 772.321 1693.03 768.498 1690.58 764.817C1693.48 763.205 1696.38 761.593 1699.45 760.141C1715.17 752.597 1732.39 748.684 1749.83 748.694C1776.58 748.679 1802.53 757.769 1823.43 774.467C1844.32 791.166 1858.91 814.479 1864.79 840.571C1870.68 866.663 1867.5 893.981 1855.8 918.03C1844.09 942.078 1824.54 961.426 1800.38 972.89V972.648Z" fill="#333333"/>
<path d="M1573.28 437.719H1564.53C1563.08 437.715 1561.64 438.064 1560.34 438.736C1559.05 439.408 1557.93 440.383 1557.1 441.579C1556.26 442.775 1555.72 444.155 1555.54 445.602C1555.35 447.049 1555.52 448.519 1556.02 449.888L1569.26 486.274C1569.91 488.007 1571.07 489.501 1572.6 490.556C1574.12 491.612 1575.92 492.178 1577.77 492.181H1607.68V479.658H1585.58V361.521C1585.58 360.383 1585.8 359.257 1586.24 358.207C1586.68 357.156 1587.32 356.203 1588.12 355.401C1588.93 354.6 1589.89 353.966 1590.94 353.536C1592 353.106 1593.13 352.889 1594.26 352.896H1768.85C1769.99 352.889 1771.12 353.106 1772.17 353.536C1773.23 353.966 1774.18 354.6 1774.99 355.401C1775.8 356.203 1776.44 357.156 1776.88 358.207C1777.32 359.257 1777.54 360.383 1777.54 361.521V373.866L1786.94 370.676C1791.96 369.081 1795.45 369.613 1797.69 372.094L1803.19 379.773H1807.39V368.313C1807.39 322.771 1773.64 292.351 1726.18 280.891L1681.44 317.455L1635.34 279.769C1588.71 288.807 1555.55 314.383 1555.55 368.313V397.848H1526V412.438H1573.28V437.719Z" fill="#333333"/>
<path d="M1681.56 266.065C1695.71 266.065 1709.55 261.87 1721.32 254.01C1733.09 246.15 1742.27 234.978 1747.68 221.907C1753.1 208.836 1754.52 194.453 1751.76 180.577C1748.99 166.701 1742.18 153.955 1732.17 143.951C1722.16 133.947 1709.41 127.135 1695.52 124.375C1681.64 121.614 1667.25 123.031 1654.17 128.445C1641.09 133.859 1629.91 143.028 1622.05 154.791C1614.18 166.555 1609.98 180.385 1609.98 194.533C1609.98 213.504 1617.53 231.699 1630.95 245.114C1644.37 258.529 1662.58 266.065 1681.56 266.065Z" fill="#333333"/>
<path d="M1788.77 384.557C1788.58 384.24 1788.31 383.975 1787.99 383.789C1787.67 383.603 1787.31 383.502 1786.94 383.494C1786.59 383.415 1786.22 383.415 1785.87 383.494L1769.8 392.945C1769.56 393.08 1769.35 393.261 1769.18 393.476C1769.02 393.692 1768.89 393.939 1768.82 394.203C1768.75 394.466 1768.73 394.742 1768.77 395.012C1768.8 395.283 1768.89 395.544 1769.03 395.78L1774.35 408.126C1771.71 410.79 1769.41 413.765 1767.49 416.986C1765.61 420.287 1764.13 423.796 1763.06 427.441L1749.76 428.918C1749.2 428.918 1748.66 429.142 1748.26 429.541C1747.86 429.94 1747.63 430.481 1747.63 431.045V449.474C1747.63 450.038 1747.86 450.579 1748.26 450.978C1748.66 451.377 1749.2 451.601 1749.76 451.601L1763.06 453.136C1765.17 460.345 1769.01 466.933 1774.23 472.334L1768.32 484.561C1768.04 485.047 1767.96 485.624 1768.11 486.166C1768.25 486.709 1768.6 487.172 1769.09 487.456L1785.05 496.729C1785.39 496.842 1785.76 496.842 1786.11 496.729C1786.48 496.728 1786.83 496.636 1787.15 496.46C1787.47 496.285 1787.75 496.032 1787.94 495.725L1795.92 484.975C1799.63 485.914 1803.44 486.39 1807.27 486.392C1810.93 486.405 1814.59 485.968 1818.14 485.093L1826.06 495.902C1826.23 496.228 1826.48 496.5 1826.8 496.688C1827.11 496.876 1827.47 496.972 1827.84 496.966C1828.18 497.071 1828.55 497.071 1828.9 496.966L1845.15 487.869C1845.64 487.585 1845.99 487.122 1846.13 486.58C1846.28 486.038 1846.2 485.461 1845.92 484.975L1840.66 472.629C1843.28 469.961 1845.56 466.985 1847.46 463.769C1849.38 460.503 1850.89 457.011 1851.95 453.373L1865.25 451.837C1865.53 451.845 1865.8 451.797 1866.06 451.697C1866.32 451.596 1866.55 451.445 1866.75 451.253C1866.95 451.06 1867.11 450.829 1867.21 450.575C1867.32 450.32 1867.38 450.046 1867.38 449.77V431.281C1867.38 431.005 1867.34 430.729 1867.24 430.472C1867.14 430.214 1866.98 429.979 1866.79 429.781C1866.6 429.582 1866.37 429.425 1866.11 429.317C1865.86 429.21 1865.58 429.154 1865.31 429.154L1852.01 427.619C1849.97 420.436 1846.19 413.864 1841.02 408.48L1846.45 396.253C1846.73 395.767 1846.81 395.19 1846.67 394.648C1846.52 394.106 1846.17 393.642 1845.69 393.359L1829.73 384.026C1829.38 383.947 1829.01 383.947 1828.66 384.026C1828.29 384.015 1827.92 384.109 1827.6 384.296C1827.27 384.484 1827.01 384.759 1826.83 385.089L1818.79 395.78C1815.11 394.841 1811.31 394.365 1807.51 394.363C1803.84 394.38 1800.19 394.816 1796.63 395.662L1788.77 384.557ZM1818.32 421.475C1822.06 423.667 1825.07 426.916 1826.96 430.814C1828.85 434.712 1829.55 439.084 1828.95 443.376C1828.36 447.668 1826.51 451.688 1823.63 454.929C1820.75 458.169 1816.98 460.484 1812.79 461.581C1808.59 462.679 1804.17 462.509 1800.07 461.094C1795.97 459.678 1792.39 457.081 1789.77 453.63C1787.15 450.178 1785.61 446.028 1785.35 441.703C1785.08 437.379 1786.11 433.073 1788.3 429.332C1789.74 426.798 1791.69 424.58 1794 422.808C1796.32 421.035 1798.97 419.745 1801.8 419.013C1804.63 418.281 1807.57 418.122 1810.46 418.544C1813.35 418.967 1816.12 419.964 1818.62 421.475H1818.32Z" fill="#333333"/>
<path d="M1681.56 427.441C1684.34 427.441 1687.06 426.617 1689.37 425.072C1691.69 423.527 1693.49 421.332 1694.55 418.763C1695.62 416.194 1695.9 413.367 1695.35 410.64C1694.81 407.913 1693.47 405.408 1691.5 403.442C1689.54 401.476 1687.03 400.137 1684.3 399.595C1681.57 399.052 1678.75 399.331 1676.18 400.395C1673.6 401.459 1671.41 403.261 1669.86 405.572C1668.32 407.884 1667.49 410.602 1667.49 413.383C1667.48 415.231 1667.84 417.063 1668.55 418.772C1669.25 420.481 1670.29 422.034 1671.59 423.341C1672.9 424.648 1674.46 425.683 1676.17 426.387C1677.88 427.091 1679.71 427.449 1681.56 427.441V427.441Z" fill="#333333"/>
<path d="M1624.88 532.82L1634.34 549.183C1635.32 550.868 1636.72 552.268 1638.41 553.242C1640.1 554.216 1642.02 554.731 1643.97 554.735C1645.7 554.75 1647.4 554.344 1648.93 553.554L1656.03 550.482C1659.98 553.514 1664.31 556.016 1668.91 557.925L1669.74 565.308C1669.86 568.187 1671.09 570.906 1673.17 572.899C1675.25 574.891 1678.03 576.002 1680.91 576H1699.82C1702.65 575.991 1705.38 574.905 1707.44 572.964C1709.5 571.023 1710.75 568.371 1710.93 565.545L1711.82 557.866C1714.12 556.938 1716.35 555.853 1718.5 554.617C1720.72 553.351 1722.86 551.93 1724.88 550.364L1731.68 553.258C1734.26 554.454 1737.19 554.676 1739.93 553.884C1742.67 553.092 1745.03 551.338 1746.57 548.946L1755.91 532.643C1757.33 530.175 1757.77 527.258 1757.12 524.482C1756.47 521.707 1754.79 519.282 1752.42 517.699L1746.51 513.15C1747.13 508.267 1747.13 503.325 1746.51 498.442L1752.42 494.012C1754.81 492.543 1756.54 490.218 1757.27 487.515C1758.04 484.642 1757.63 481.583 1756.15 479.009L1746.69 462.646C1745.71 460.961 1744.3 459.561 1742.61 458.587C1740.92 457.613 1739.01 457.098 1737.06 457.094C1735.34 457.088 1733.64 457.471 1732.09 458.216L1725 461.288C1720.96 458.207 1716.53 455.683 1711.82 453.786L1710.99 446.343C1710.74 443.549 1709.46 440.947 1707.39 439.047C1705.33 437.147 1702.63 436.084 1699.82 436.065H1680.91C1678.08 436.06 1675.36 437.132 1673.29 439.064C1671.23 440.995 1669.98 443.641 1669.8 446.462L1668.91 453.786C1666.59 454.721 1664.33 455.827 1662.17 457.094C1660.02 458.406 1657.97 459.866 1656.03 461.465L1649.23 458.571C1646.66 457.281 1643.7 457.009 1640.94 457.809C1638.17 458.608 1635.82 460.42 1634.34 462.883L1625 479.127C1623.57 481.604 1623.13 484.531 1623.78 487.316C1624.43 490.101 1626.11 492.537 1628.48 494.13L1634.69 498.679C1634.1 503.544 1634.1 508.462 1634.69 513.328L1628.78 517.817C1626.31 519.326 1624.53 521.733 1623.8 524.532C1623.07 527.33 1623.46 530.302 1624.88 532.82V532.82ZM1644.62 470.857L1654.37 475.051C1655.52 475.541 1656.79 475.69 1658.03 475.48C1659.27 475.271 1660.42 474.712 1661.34 473.87C1663.6 471.829 1666.05 470.028 1668.67 468.494C1671.29 466.998 1674.07 465.79 1676.95 464.891C1678.14 464.5 1679.19 463.773 1679.98 462.798C1680.76 461.824 1681.25 460.643 1681.38 459.398L1682.62 448.824H1698.11L1699.29 459.339C1699.43 460.583 1699.93 461.76 1700.72 462.725C1701.52 463.69 1702.58 464.402 1703.78 464.773C1709.51 466.67 1714.78 469.726 1719.27 473.751C1720.19 474.585 1721.33 475.135 1722.56 475.334C1723.78 475.533 1725.04 475.373 1726.18 474.874L1735.93 470.621L1743.67 484.029L1735.16 490.409C1734.2 491.172 1733.47 492.193 1733.06 493.353C1732.65 494.514 1732.58 495.767 1732.86 496.966C1734.06 502.811 1734.06 508.841 1732.86 514.686C1732.59 515.902 1732.68 517.171 1733.12 518.336C1733.56 519.501 1734.33 520.512 1735.34 521.243L1743.91 527.563L1736.17 540.972L1726.42 536.778C1725.27 536.281 1724 536.122 1722.77 536.321C1721.53 536.52 1720.38 537.068 1719.44 537.9C1717.22 539.991 1714.76 541.815 1712.11 543.335C1709.51 544.818 1706.76 546.025 1703.9 546.938C1702.7 547.326 1701.64 548.051 1700.85 549.025C1700.05 549.999 1699.55 551.181 1699.41 552.431L1698.22 562.946H1682.56L1681.38 552.431C1681.22 551.186 1680.72 550.01 1679.93 549.039C1679.13 548.067 1678.08 547.339 1676.89 546.938C1671.17 545.063 1665.9 542.027 1661.4 538.019C1660.47 537.186 1659.32 536.638 1658.08 536.439C1656.85 536.24 1655.58 536.399 1654.43 536.896L1644.74 541.09L1636.99 527.681L1645.51 521.42C1646.51 520.669 1647.27 519.647 1647.71 518.475C1648.15 517.303 1648.25 516.029 1647.99 514.804C1646.81 508.956 1646.81 502.932 1647.99 497.084C1648.24 495.859 1648.14 494.588 1647.7 493.417C1647.26 492.246 1646.5 491.223 1645.51 490.468L1636.94 484.207L1644.62 470.857Z" fill="#333333"/>
<path d="M1690.36 534.77C1696.72 534.784 1702.9 532.693 1707.93 528.824C1712.97 524.955 1716.58 519.526 1718.2 513.387C1719.2 509.738 1719.47 505.926 1718.98 502.174C1718.49 498.422 1717.26 494.804 1715.36 491.531C1713.47 488.24 1710.95 485.355 1707.94 483.041C1704.93 480.728 1701.49 479.031 1697.82 478.048C1694.15 477.066 1690.33 476.817 1686.56 477.317C1682.8 477.816 1679.17 479.053 1675.88 480.958C1672.57 482.856 1669.67 485.405 1667.37 488.45C1665.06 491.495 1663.39 494.974 1662.47 498.679C1661.3 502.956 1661.14 507.445 1662 511.794C1662.85 516.144 1664.7 520.237 1667.41 523.754C1670.11 527.271 1673.58 530.116 1677.57 532.068C1681.55 534.02 1685.93 535.025 1690.36 535.006V534.77ZM1675.06 501.809C1675.86 498.783 1677.54 496.065 1679.9 493.998C1682.25 491.932 1685.16 490.613 1688.27 490.207C1691.37 489.802 1694.53 490.329 1697.33 491.722C1700.14 493.115 1702.46 495.31 1704.02 498.029C1705.05 499.796 1705.72 501.749 1705.99 503.777C1706.27 505.804 1706.14 507.865 1705.61 509.843C1704.52 513.899 1701.86 517.36 1698.22 519.471C1694.55 521.437 1690.26 521.92 1686.23 520.821C1682.21 519.723 1678.76 517.126 1676.59 513.564C1674.59 509.989 1674.04 505.779 1675.06 501.809V501.809Z" fill="#333333"/>
<path d="M168.752 143.496H163.964V148.32C163.964 154.476 161.444 160.812 155.864 163.44L158.708 167.292C162.452 165.456 164.936 161.964 166.376 157.752C167.744 161.712 170.084 164.916 173.54 166.68L176.42 162.936C171.092 160.308 168.752 154.296 168.752 148.32V143.496ZM187.328 153.684H182.504V140.94H177.752V174.096H182.504V157.644H187.328V153.684ZM217.169 140.976H212.417V157.68H217.169V140.976ZM210.005 153.576C204.641 151.992 202.265 148.14 202.265 144.216V141.732H197.441V144.216C197.441 148.248 195.029 152.424 189.521 154.116L191.825 157.824C195.713 156.636 198.413 154.116 199.925 150.984C201.401 153.864 203.957 156.168 207.737 157.284L210.005 153.576ZM199.853 170.172V168.12H217.205V159.156H195.101V162.792H212.489V164.736H195.137V173.844H218.033V170.172H199.853ZM251.675 144.612H244.115V141.048H239.363V144.612H231.767V148.32H251.675V144.612ZM238.031 155.844C238.031 154.152 239.543 153.216 241.739 153.216C243.971 153.216 245.447 154.152 245.447 155.844C245.447 157.572 243.971 158.508 241.739 158.508C239.543 158.508 238.031 157.572 238.031 155.844ZM244.115 161.856C247.643 161.172 249.947 158.94 249.947 155.844C249.947 152.136 246.563 149.616 241.739 149.616C236.879 149.616 233.495 152.136 233.495 155.844C233.495 158.94 235.799 161.172 239.363 161.856V164.664C236.411 164.736 233.603 164.736 231.119 164.736L231.695 168.588C237.563 168.588 245.231 168.552 252.467 167.22L252.107 163.764C249.515 164.124 246.815 164.304 244.115 164.484V161.856ZM253.835 140.94V174.096H258.587V140.94H253.835ZM276.26 143.496H271.472V148.32C271.472 154.476 268.952 160.812 263.372 163.44L266.216 167.292C269.96 165.456 272.444 161.964 273.884 157.752C275.252 161.712 277.592 164.916 281.048 166.68L283.928 162.936C278.6 160.308 276.26 154.296 276.26 148.32V143.496ZM294.836 153.684H290.012V140.94H285.26V174.096H290.012V157.644H294.836V153.684ZM304.625 162.9C302.825 162.9 301.745 160.416 301.745 155.304C301.745 150.228 302.825 147.744 304.625 147.744C306.461 147.744 307.505 150.228 307.505 155.304C307.505 160.416 306.461 162.9 304.625 162.9ZM314.381 153.144H311.753C311.213 146.952 308.549 143.28 304.625 143.28C300.233 143.28 297.461 147.816 297.461 155.304C297.461 162.828 300.233 167.364 304.625 167.364C308.657 167.364 311.357 163.476 311.789 156.996H314.381V172.62H318.809V141.48H314.381V153.144ZM321.113 140.904V174.06H325.613V140.904H321.113ZM342.746 143.496H337.958V148.284C337.958 154.584 335.438 161.028 329.822 163.62L332.774 167.436C336.482 165.564 338.966 162.108 340.406 157.86C341.774 161.856 344.186 165.096 347.822 166.86L350.63 163.08C345.158 160.632 342.746 154.548 342.746 148.284V143.496ZM353.366 140.904V151.308H346.994V155.124H353.366V174.168H358.118V140.904H353.366ZM399.104 140.94H394.316V157.536H399.104V140.94ZM376.64 149.472C376.64 147.132 378.476 145.728 380.924 145.728C383.372 145.728 385.136 147.132 385.136 149.472C385.136 151.848 383.372 153.216 380.924 153.216C378.476 153.216 376.64 151.848 376.64 149.472ZM389.744 149.472C389.744 145.08 385.964 141.912 380.924 141.912C375.848 141.912 372.032 145.08 372.032 149.472C372.032 153.9 375.848 157.068 380.924 157.068C385.964 157.068 389.744 153.9 389.744 149.472ZM381.752 170.028V167.94H399.104V158.904H377V162.54H394.388V164.556H377.036V173.7H399.932V170.028H381.752ZM414.257 163.44C412.025 163.44 410.369 161.928 410.369 159.408C410.369 156.888 412.025 155.34 414.257 155.34C416.489 155.34 418.109 156.888 418.109 159.372C418.109 161.928 416.489 163.44 414.257 163.44ZM414.257 151.488C409.433 151.488 405.833 154.764 405.833 159.372C405.833 164.052 409.433 167.328 414.257 167.328C419.045 167.328 422.609 164.052 422.609 159.372C422.609 154.764 419.045 151.488 414.257 151.488ZM416.597 141.516H411.845V145.836H404.501V149.616H423.797V145.836H416.597V141.516ZM435.461 153.9H430.709V140.94H425.957V174.096H430.709V157.824H435.461V153.9ZM443.81 147.852H454.538V144H439.094V166.212H441.902C447.662 166.212 452.198 166.032 457.202 165.132L456.734 161.208C452.45 161.928 448.526 162.18 443.81 162.252V147.852ZM468.578 153.18H463.754V140.94H459.002V174.168H463.754V157.104H468.578V153.18ZM486.955 151.884H501.139V156.528H486.955V151.884ZM496.423 166.392V160.308H505.819V142.992H501.139V148.14H486.955V142.992H482.239V160.308H491.671V166.392H479.071V170.244H509.095V166.392H496.423ZM524.537 156.06H518.237V147.312H524.537V156.06ZM535.157 149.94V153.288H529.181V149.94H535.157ZM529.181 157.068H535.157V165.096H539.909V140.94H535.157V146.16H529.181V143.604H513.557V159.804H529.181V157.068ZM522.773 169.74V162.828H518.021V173.52H540.629V169.74H522.773ZM546.782 178.668C551.138 177.228 553.586 174.024 553.586 169.812C553.586 166.536 552.218 164.592 549.77 164.592C547.898 164.592 546.35 165.816 546.35 167.724C546.35 169.74 547.934 170.856 549.662 170.856C549.77 170.856 549.878 170.856 549.986 170.856C550.022 172.872 548.474 174.744 545.666 175.788L546.782 178.668ZM161.912 208.068H166.16V222.108H161.912V208.068ZM157.484 225.816H170.552V204.324H157.484V225.816ZM180.488 200.904V213.576H177.716V201.444H173.288V232.584H177.716V217.392H180.488V234.06H184.988V200.904H180.488ZM226.297 211.632C218.989 210.624 215.245 206.484 215.245 202.848V201.804H210.349V202.848C210.349 206.592 206.641 210.696 199.333 211.704L201.097 215.448C206.677 214.548 210.745 211.992 212.833 208.608C214.921 211.956 218.953 214.476 224.497 215.34L226.297 211.632ZM206.029 223.836H201.277V233.52H224.497V229.74H206.029V223.836ZM197.785 217.248V220.992H210.853V226.644H215.605V220.992H227.845V217.248H197.785ZM232.127 203.424V207.204H242.927C242.171 211.848 238.067 215.7 230.687 217.716L232.667 221.496C242.531 218.652 248.075 212.424 248.075 203.424H232.127ZM240.371 222.288H235.619V233.52H258.155V229.74H240.371V222.288ZM257.003 210.192V200.94H252.251V224.664H257.003V214.08H261.431V210.192H257.003ZM300.688 211.632C293.38 210.624 289.636 206.484 289.636 202.848V201.804H284.74V202.848C284.74 206.592 281.032 210.696 273.724 211.704L275.488 215.448C281.068 214.548 285.136 211.992 287.224 208.608C289.312 211.956 293.344 214.476 298.888 215.34L300.688 211.632ZM280.42 223.836H275.668V233.52H298.888V229.74H280.42V223.836ZM272.176 217.248V220.992H285.244V226.644H289.996V220.992H302.236V217.248H272.176ZM306.517 203.424V207.204H317.317C316.561 211.848 312.457 215.7 305.077 217.716L307.057 221.496C316.921 218.652 322.465 212.424 322.465 203.424H306.517ZM314.761 222.288H310.009V233.52H332.545V229.74H314.761V222.288ZM331.393 210.192V200.94H326.641V224.664H331.393V214.08H335.821V210.192H331.393ZM344.134 207.816H350.614V222.288H344.134V207.816ZM339.454 226.032H355.294V204.072H339.454V226.032ZM369.226 213.432H364.402V200.976H359.65V234.096H364.402V217.356H369.226V213.432ZM377.576 207.852H388.304V204H372.86V226.212H375.668C381.428 226.212 385.964 226.032 390.968 225.132L390.5 221.208C386.216 221.928 382.292 222.18 377.576 222.252V207.852ZM402.344 213.18H397.52V200.94H392.768V234.168H397.52V217.104H402.344V213.18ZM436.777 200.904V213.828H434.113V201.48H429.685V222.72C425.113 220.164 423.565 214.764 423.565 209.04V203.82H418.957V209.4C418.957 215.016 417.193 220.992 412.225 223.944L415.177 227.436C418.129 225.636 420.073 222.612 421.225 218.976C422.305 222.216 424.141 224.88 426.949 226.464L429.685 222.792V232.584H434.113V217.644H436.777V234.06H441.277V200.904H436.777ZM463.306 226.572V221.64H473.35V217.824H454.126V214.116H472.594V203.064H449.374V206.844H467.914V210.408H449.41V221.64H458.554V226.572H445.954V230.46H475.978V226.572H463.306ZM494.047 205.332C498.259 205.332 500.851 206.376 500.851 208.428C500.851 210.48 498.259 211.524 494.047 211.524C489.907 211.524 487.279 210.48 487.279 208.428C487.279 206.376 489.907 205.332 494.047 205.332ZM494.047 215.304C501.211 215.304 505.963 212.64 505.963 208.428C505.963 204.252 501.211 201.552 494.047 201.552C486.919 201.552 482.131 204.252 482.131 208.428C482.131 212.64 486.919 215.304 494.047 215.304ZM487.387 223.584H482.563V233.52H505.819V229.74H487.387V223.584ZM479.071 217.032V220.812H491.923V226.5H496.783V220.812H509.095V217.032H479.071ZM522.721 212.352L523.333 216.348L542.341 215.34C542.161 217.32 541.801 219.516 541.225 221.964L545.905 222.54C547.453 215.268 547.417 210.624 547.417 206.628V203.712H523.729V207.492H542.737C542.737 208.788 542.737 210.192 542.629 211.704L522.721 212.352ZM535.717 226.428V218.508H530.965V226.428H520.345V230.28H550.333V226.428H535.717ZM581.002 200.904H576.214V220.74H581.002V200.904ZM573.658 213.9C569.77 214.728 566.17 214.908 560.05 214.944V207.204H571.03V203.424H555.334V218.76H558.214C565.666 218.76 569.77 218.58 574.126 217.716L573.658 213.9ZM569.806 230.496C565.486 230.496 563.182 229.524 563.182 227.616C563.182 225.672 565.486 224.772 569.806 224.772C574.09 224.772 576.394 225.672 576.394 227.616C576.394 229.524 574.09 230.496 569.806 230.496ZM569.806 221.064C562.822 221.064 558.466 223.476 558.466 227.616C558.466 231.72 562.822 234.132 569.806 234.132C576.754 234.132 581.11 231.72 581.11 227.616C581.11 223.476 576.754 221.064 569.806 221.064ZM592.051 217.176H598.567V213.504H592.051V208.356H599.827V204.576H587.551V226.788H589.819C594.571 226.788 597.739 226.716 601.483 226.104L601.087 222.324C598.099 222.792 595.507 222.936 592.051 222.972V217.176ZM603.679 213H600.079V216.852H603.679V232.62H608.107V201.552H603.679V213ZM610.555 200.904V234.06H615.055V200.904H610.555ZM648.676 216.528C641.188 215.268 637.084 210.12 637.084 205.26V202.884H632.008V205.26C632.008 210.012 627.868 215.268 620.416 216.528L622.432 220.524C628.192 219.408 632.404 216.168 634.528 211.956C636.652 216.168 640.9 219.372 646.66 220.524L648.676 216.528ZM619.696 226.212V230.064H649.72V226.212H619.696ZM679.634 218.04H661.166V214.332H678.626V210.66H661.166V207.168H679.382V203.352H656.342V221.784H679.634V218.04ZM652.814 226.428V230.28H682.838V226.428H652.814ZM707.603 206.34H689.675V214.26H712.859V211.056H694.355V209.328H712.283V201.516H689.603V204.72H707.603V206.34ZM694.067 228.804H712.391V220.92H689.315V224.124H707.675V225.816H689.351V233.808H713.291V230.604H694.067V228.804ZM685.931 215.844V219.264H715.955V215.844H685.931ZM747.184 215.34C742.252 213.684 739.948 209.904 739.732 206.232H746.14V202.452H728.32V206.232H734.8C734.584 210.228 732.172 214.224 727.024 215.952L729.436 219.696C733.288 218.4 735.88 215.772 737.356 212.532C738.76 215.484 741.244 217.86 744.88 219.048L747.184 215.34ZM750.208 229.92H737.644V227.076H750.208V229.92ZM750.208 223.44H737.644V220.416H732.964V233.7H754.924V220.416H750.208V223.44ZM750.172 200.94V208.356H745.168V212.208H750.172V219.084H754.924V200.94H750.172ZM769.897 223.44C767.665 223.44 766.009 221.928 766.009 219.408C766.009 216.888 767.665 215.34 769.897 215.34C772.129 215.34 773.749 216.888 773.749 219.372C773.749 221.928 772.129 223.44 769.897 223.44ZM769.897 211.488C765.073 211.488 761.473 214.764 761.473 219.372C761.473 224.052 765.073 227.328 769.897 227.328C774.685 227.328 778.249 224.052 778.249 219.372C778.249 214.764 774.685 211.488 769.897 211.488ZM772.237 201.516H767.485V205.836H760.141V209.616H779.437V205.836H772.237V201.516ZM791.101 213.9H786.349V200.94H781.597V234.096H786.349V217.824H791.101V213.9ZM820.151 209.904H801.899V202.128H797.147V213.684H820.151V209.904ZM801.611 223.512H796.823V233.376H820.331V229.596H801.611V223.512ZM793.439 217.068V220.884H823.463V217.068H793.439ZM861.532 215.628H842.812V203.856H838.06V219.444H861.532V215.628ZM834.712 226.284V230.172H864.736V226.284H834.712ZM880.717 219.66C886.009 215.196 887.413 210.12 887.413 202.884H879.133V206.664H882.949C882.517 211.128 881.005 214.008 877.369 217.032L880.717 219.66ZM869.125 202.884V206.664H873.445C872.941 210.696 871.357 213.216 867.757 215.772L870.817 218.724C876.397 214.548 877.945 209.904 877.945 202.884H869.125ZM877.729 224.916H890.653V229.992H877.729V224.916ZM873.049 233.7H895.333V221.208H873.049V233.7ZM890.545 200.976V219.768H895.333V200.976H890.545Z" fill="#333333"/>
<path d="M916.087 238.164L918.679 237.012C915.583 231.864 914.143 225.78 914.143 219.732C914.143 213.72 915.583 207.636 918.679 202.452L916.087 201.336C912.739 206.772 910.759 212.64 910.759 219.732C910.759 226.896 912.739 232.692 916.087 238.164ZM929.604 224.052H925.86V233.16H948.288V230.136H929.604V224.052ZM929.64 209.076H944.112V212.676H929.64V209.076ZM938.712 218.76V215.628H947.784V202.524H944.112V206.196H929.64V202.524H925.968V215.628H934.968V218.76H922.116V221.748H951.6V218.76H938.712ZM982.089 201.264H978.381V224.88H982.089V201.264ZM959.553 211.56C959.553 208.572 961.677 206.628 964.557 206.628C967.401 206.628 969.561 208.572 969.561 211.56C969.561 214.512 967.401 216.492 964.557 216.492C961.677 216.492 959.553 214.512 959.553 211.56ZM973.161 211.56C973.161 206.808 969.453 203.424 964.557 203.424C959.661 203.424 955.917 206.808 955.917 211.56C955.917 216.276 959.661 219.696 964.557 219.696C969.453 219.696 973.161 216.276 973.161 211.56ZM964.593 230.136V222.504H960.849V233.16H983.025V230.136H964.593ZM996.054 207.528H1000.7V222.72C999.15 222.792 997.566 222.828 996.054 222.9V207.528ZM1004.3 207.528H1007.54V204.54H989.214V207.528H992.454V222.9C991.014 222.936 989.61 222.936 988.35 222.936L988.746 225.996C994.65 225.996 1002.32 225.888 1009.27 224.736L1009.05 222C1007.5 222.18 1005.92 222.36 1004.3 222.468V207.528ZM1011.53 201.264V233.808H1015.24V201.264H1011.53ZM1044.76 218.22H1048.47V201.228H1044.76V204.144H1038.93V207.06H1044.76V209.94H1038.93V212.856H1044.76V218.22ZM1040.69 215.088C1035.87 213.432 1033.06 209.436 1033.06 205.224V202.056H1029.35V205.224C1029.35 209.616 1026.47 213.9 1021.47 215.628L1023.34 218.436C1027.12 217.14 1029.82 214.368 1031.22 210.912C1032.63 214.116 1035.22 216.672 1038.78 217.932L1040.69 215.088ZM1031.04 230.496V227.76H1048.47V219.66H1027.3V222.54H1044.8V225.06H1027.37V233.376H1049.58V230.496H1031.04ZM1057.07 238.164C1060.45 232.692 1062.43 226.896 1062.43 219.732C1062.43 212.64 1060.45 206.772 1057.07 201.336L1054.48 202.452C1057.57 207.636 1059.01 213.72 1059.01 219.732C1059.01 225.78 1057.57 231.864 1054.48 237.012L1057.07 238.164Z" fill="#828282"/>
<path d="M907.555 219.3H1065.6V221.1H907.555V219.3Z" fill="#828282"/>
<path d="M176.096 486.432H168.68V482.904H163.892V486.432H156.548V490.14H176.06L176.096 486.432ZM162.704 497.7C162.704 495.9 164.18 494.928 166.304 494.928C168.392 494.928 169.904 495.9 169.904 497.7C169.904 499.536 168.392 500.508 166.304 500.508C164.18 500.508 162.704 499.536 162.704 497.7ZM174.44 497.7C174.44 493.956 171.056 491.328 166.304 491.328C161.552 491.328 158.168 493.956 158.168 497.7C158.168 501.516 161.552 504.108 166.304 504.108C171.056 504.108 174.44 501.516 174.44 497.7ZM166.016 505.908H161.264V515.52H183.836V511.74H166.016V505.908ZM182.648 493.056V482.94H177.896V507.744H182.648V496.98H187.04V493.056H182.648ZM199.333 486.324V490.176H210.169C209.305 497.52 205.201 502.776 197.497 506.736L200.161 510.372C211.177 504.792 214.957 496.26 214.957 486.324H199.333ZM228.421 495.576H223.777V482.904H219.025V516.024H223.777V499.5H228.421V495.576ZM243.755 490.032H250.595V486.108H232.019V490.032H238.931V491.868C238.931 497.52 236.231 503.604 230.687 506.088L233.387 509.868C237.275 508.104 239.939 504.468 241.415 500.148C242.891 504.144 245.519 507.384 249.371 509.04L251.963 505.296C246.419 502.992 243.755 497.268 243.755 491.868V490.032ZM253.655 482.94V516.096H258.407V482.94H253.655ZM279.232 513H284.56V490.788H292.12V486.324H271.744V490.788H279.232V513ZM296.008 513H301.3V492.84H296.008V513ZM298.672 489.6C300.472 489.6 301.732 488.448 301.732 486.684C301.732 484.956 300.472 483.804 298.672 483.804C296.836 483.804 295.576 484.956 295.576 486.684C295.576 488.448 296.836 489.6 298.672 489.6ZM306.942 520.74H312.234V514.62L312.054 511.308C313.602 512.712 315.294 513.504 317.058 513.504C321.486 513.504 325.626 509.508 325.626 502.596C325.626 496.404 322.674 492.336 317.706 492.336C315.546 492.336 313.458 493.488 311.766 494.928H311.658L311.262 492.84H306.942V520.74ZM315.87 509.148C314.79 509.148 313.494 508.752 312.234 507.636V498.78C313.602 497.376 314.826 496.692 316.194 496.692C318.966 496.692 320.19 498.816 320.19 502.668C320.19 507.06 318.318 509.148 315.87 509.148ZM351.53 482.904V516.168H356.282V482.904H351.53ZM338.462 485.244C333.458 485.244 329.75 489.78 329.75 497.052C329.75 504.36 333.458 508.932 338.462 508.932C343.466 508.932 347.174 504.36 347.174 497.052C347.174 489.78 343.466 485.244 338.462 485.244ZM338.462 489.528C340.91 489.528 342.602 492.156 342.602 497.052C342.602 501.984 340.91 504.612 338.462 504.612C336.014 504.612 334.322 501.984 334.322 497.052C334.322 492.156 336.014 489.528 338.462 489.528ZM381.047 495C376.871 495.684 373.271 495.828 367.835 495.864V493.524H378.203V484.452H363.083V488.052H373.523V490.212H363.119V499.5H365.927C372.623 499.5 376.763 499.392 381.407 498.6L381.047 495ZM371.111 510.228H388.031V501.408H366.359V504.972H383.351V506.88H366.431V515.844H389.219V512.28H371.111V510.228ZM388.031 489.456V482.904H383.279V500.148H388.031V493.344H392.423V489.456H388.031ZM420.232 495.612H416.524C417.316 492.912 417.604 489.996 417.604 486.864H404.608V490.644H412.888C412.312 497.124 409.396 501.912 402.772 505.872L405.472 509.22C410.152 506.484 413.176 503.208 415.048 499.428H420.232V514.62H424.66V483.66H420.232V495.612ZM427.216 482.904V516.06H431.716V482.904H427.216ZM472.018 482.94H467.23V501.696H472.018V482.94ZM453.946 488.592C456.466 488.592 458.338 490.104 458.338 492.588C458.338 495.072 456.466 496.584 453.946 496.584C451.426 496.584 449.59 495.072 449.59 492.588C449.59 490.104 451.426 488.592 453.946 488.592ZM453.946 500.544C459.13 500.544 462.982 497.232 462.982 492.588C462.982 487.944 459.13 484.632 453.946 484.632C448.834 484.632 444.946 487.944 444.946 492.588C444.946 497.232 448.834 500.544 453.946 500.544ZM468.67 503.064H463.99V504.18C463.99 506.628 462.874 509.4 460.21 511.38C457.582 509.544 456.538 506.808 456.538 504.18V503.064H451.93V504.18C451.93 507.384 450.13 510.66 445.738 512.136L448.078 515.592C451.066 514.512 453.082 512.568 454.234 510.156C455.314 512.676 457.222 514.836 460.246 515.952C463.27 514.764 465.178 512.568 466.258 510.048C467.374 512.568 469.426 514.548 472.558 515.592L474.862 512.136C470.47 510.804 468.67 507.6 468.67 504.18V503.064ZM483.607 489.852H494.335V486H478.891V508.212H481.699C487.459 508.212 491.995 508.032 496.999 507.132L496.531 503.208C492.247 503.928 488.323 504.18 483.607 504.252V489.852ZM508.375 495.18H503.551V482.94H498.799V516.168H503.551V499.104H508.375V495.18ZM523.06 498.06H516.76V489.312H523.06V498.06ZM533.68 491.94V495.288H527.704V491.94H533.68ZM527.704 499.068H533.68V507.096H538.432V482.94H533.68V488.16H527.704V485.604H512.08V501.804H527.704V499.068ZM521.296 511.74V504.828H516.544V515.52H539.152V511.74H521.296ZM545.305 520.668C549.661 519.228 552.109 516.024 552.109 511.812C552.109 508.536 550.741 506.592 548.293 506.592C546.421 506.592 544.873 507.816 544.873 509.724C544.873 511.74 546.457 512.856 548.185 512.856C548.293 512.856 548.401 512.856 548.509 512.856C548.545 514.872 546.997 516.744 544.189 517.788L545.305 520.668ZM841.883 546.9C846.707 546.9 848.975 547.584 848.975 549.06C848.975 550.608 846.707 551.256 841.883 551.256C837.095 551.256 834.827 550.608 834.827 549.06C834.827 547.584 837.095 546.9 841.883 546.9ZM841.883 554.712C849.479 554.712 853.907 552.732 853.907 549.06C853.907 545.424 849.479 543.408 841.883 543.408C834.323 543.408 829.895 545.424 829.895 549.06C829.895 552.732 834.323 554.712 841.883 554.712ZM835.079 570.408H853.223V561.876H830.327V565.368H848.543V567.132H830.363V575.844H854.087V572.28H835.079V570.408ZM826.907 556.296V560.004H856.859V556.296H826.907ZM870.017 546.36V550.14H881.069C880.385 557.484 876.713 562.668 868.253 566.736L870.737 570.48C882.509 564.792 885.929 556.512 885.929 546.36H870.017ZM891.005 542.904V576.06H895.793V542.904H891.005ZM923.258 552.516H904.754V563.712H928.694V559.932H909.47V556.224H927.938V545.172H904.718V548.952H923.258V552.516ZM901.298 568.464V572.352H931.322V568.464H901.298ZM946.763 558.06H940.463V549.312H946.763V558.06ZM957.383 551.94V555.288H951.407V551.94H957.383ZM951.407 559.068H957.383V567.096H962.135V542.94H957.383V548.16H951.407V545.604H935.783V561.804H951.407V559.068ZM944.999 571.74V564.828H940.247V575.52H962.855V571.74H944.999ZM978.425 554.676C984.797 554.244 988.937 552.228 990.665 549.348C992.393 552.228 996.569 554.244 1002.94 554.676L1004.42 551.148C998.441 550.788 995.201 549.168 994.229 547.368H1002.98V543.768H978.425V547.368H987.101C986.129 549.168 982.889 550.788 976.949 551.148L978.425 554.676ZM990.593 573.072C987.137 573.072 985.409 572.712 985.409 571.848C985.409 570.948 987.137 570.588 990.593 570.588C994.085 570.588 995.849 570.948 995.849 571.848C995.849 572.712 994.085 573.072 990.593 573.072ZM990.593 567.456C984.221 567.456 980.513 569.004 980.513 571.848C980.513 574.692 984.221 576.204 990.593 576.204C997.037 576.204 1000.74 574.692 1000.74 571.848C1000.74 569.004 997.037 567.456 990.593 567.456ZM993.005 560.616H988.253V562.956H978.389V566.484H1002.9V562.956H993.005V560.616ZM993.005 555.864V552.84H988.253V555.864H975.689V559.572H1005.75V555.864H993.005ZM1014.82 549.852H1025.55V546H1010.1V568.212H1012.91C1018.67 568.212 1023.21 568.032 1028.21 567.132L1027.74 563.208C1023.46 563.928 1019.53 564.18 1014.82 564.252V549.852ZM1039.59 555.18H1034.76V542.94H1030.01V576.168H1034.76V559.104H1039.59V555.18ZM1046.21 573.504C1048.12 573.504 1049.52 571.992 1049.52 570.048C1049.52 568.068 1048.12 566.592 1046.21 566.592C1044.34 566.592 1042.93 568.068 1042.93 570.048C1042.93 571.992 1044.34 573.504 1046.21 573.504ZM178.04 672.948H164.9V668.052H178.04V672.948ZM182.72 664.344H160.22V676.692H182.72V664.344ZM164.756 685.908H160.004V695.52H183.224V691.74H164.756V685.908ZM156.512 679.32V683.064H169.58V688.716H174.332V683.064H186.536V679.32H156.512ZM200.177 670.104H205.001V666.252H190.241V670.104H195.569V671.724C195.569 677.412 193.841 683.352 189.017 686.412L191.825 689.904C194.813 688.032 196.757 684.792 197.909 681.012C198.989 684.504 200.897 687.348 203.813 689.112L206.585 685.656C201.797 682.848 200.177 677.268 200.177 671.724V670.104ZM206.909 674.244H202.697V678.096H206.909V694.584H211.337V663.48H206.909V674.244ZM213.605 662.904V696.06H218.105V662.904H213.605ZM244.454 668.34H226.526V676.26H249.71V673.056H231.206V671.328H249.134V663.516H226.454V666.72H244.454V668.34ZM230.918 690.804H249.242V682.92H226.166V686.124H244.526V687.816H226.202V695.808H250.142V692.604H230.918V690.804ZM222.782 677.844V681.264H252.806V677.844H222.782ZM285.62 669.924C285.62 674.424 285.62 679.14 284.432 685.476L289.148 685.908C290.372 679.104 290.372 674.568 290.372 669.924V666H267.152V669.78H285.62V669.924ZM264.056 687.888V691.776H294.044V687.888H264.056ZM317.497 670.032H324.085V666.108H305.869V670.032H312.745V671.868C312.745 677.34 310.045 683.568 304.609 686.088L307.273 689.868C311.053 688.068 313.717 684.432 315.193 680.112C316.669 684.036 319.261 687.348 322.933 689.04L325.561 685.296C320.125 682.776 317.497 676.908 317.497 671.868V670.032ZM336.109 675.576H331.285V662.94H326.533V696.096H331.285V679.5H336.109V675.576ZM348.742 672.3H353.818V668.484H348.742V664.02H344.242V668.484H339.058V672.3H344.242V672.984C344.242 678.096 342.55 683.532 337.834 686.304L340.498 689.868C343.486 688.14 345.43 685.188 346.546 681.732C347.734 684.9 349.642 687.528 352.558 689.076L355.114 685.548C350.434 683.064 348.742 677.988 348.742 672.984V672.3ZM355.69 675.468H351.91V679.32H355.69V694.584H360.118V663.48H355.69V675.468ZM362.386 662.904V696.06H366.886V662.904H362.386ZM388.916 688.572V683.64H398.96V679.824H379.736V676.116H398.204V665.064H374.984V668.844H393.524V672.408H375.02V683.64H384.164V688.572H371.564V692.46H401.588V688.572H388.916ZM420.721 673.884H434.905V678.528H420.721V673.884ZM430.189 688.392V682.308H439.585V664.992H434.905V670.14H420.721V664.992H416.005V682.308H425.437V688.392H412.837V692.244H442.861V688.392H430.189ZM458.77 670.032H465.61V666.108H447.034V670.032H453.946V671.868C453.946 677.52 451.246 683.604 445.702 686.088L448.402 689.868C452.29 688.104 454.954 684.468 456.43 680.148C457.906 684.144 460.534 687.384 464.386 689.04L466.978 685.296C461.434 682.992 458.77 677.268 458.77 671.868V670.032ZM468.67 662.94V696.096H473.422V662.94H468.67ZM499.324 674.532H492.844V668.196H499.324V674.532ZM504.004 664.488H488.2V678.276H504.004V664.488ZM496.192 689.868H513.328V680.796H491.44V684.468H508.648V686.448H491.476V695.7H514.3V692.028H496.192V689.868ZM513.328 669.312V662.94H508.576V679.5H513.328V673.2H517.684V669.312H513.328ZM546.157 684.828C547.489 677.772 547.489 673.092 547.489 668.952V665.784H523.405V669.564H542.737C542.737 673.416 542.665 678.024 541.405 684.288L546.157 684.828ZM535.717 688.284V676.872H530.965V688.284H520.381V692.1H550.369V688.284H535.717ZM554.938 700.668C559.294 699.228 561.742 696.024 561.742 691.812C561.742 688.536 560.374 686.592 557.926 686.592C556.054 686.592 554.506 687.816 554.506 689.724C554.506 691.74 556.09 692.856 557.818 692.856C557.926 692.856 558.034 692.856 558.142 692.856C558.178 694.872 556.63 696.744 553.822 697.788L554.938 700.668Z" fill="#4F4F4F"/>
<path d="M171.812 550.788V555.36H178.976V562.632H184.808V542.616H178.976V550.788H171.812ZM174.368 556.476C171.056 557.088 167.996 557.304 163.856 557.376V549.492H173.144V544.92H158.06V561.984H160.832C166.808 561.984 170.732 561.84 174.908 561.084L174.368 556.476ZM173.18 572.064C169.184 572.064 167.276 571.416 167.276 569.76C167.276 568.14 169.184 567.492 173.18 567.492C177.212 567.492 179.12 568.14 179.12 569.76C179.12 571.416 177.212 572.064 173.18 572.064ZM173.18 563.1C165.98 563.1 161.444 565.548 161.444 569.76C161.444 574.008 165.98 576.456 173.18 576.456C180.416 576.456 184.952 574.008 184.952 569.76C184.952 565.548 180.416 563.1 173.18 563.1ZM198.773 564C196.721 564 195.425 561.804 195.425 557.016C195.425 552.3 196.721 550.104 198.773 550.104C200.825 550.104 202.121 552.3 202.121 557.016C202.121 561.804 200.825 564 198.773 564ZM212.237 542.544V554.388H207.521C206.729 548.412 203.273 544.812 198.773 544.812C193.661 544.812 189.881 549.492 189.881 557.016C189.881 564.612 193.661 569.292 198.773 569.292C203.453 569.292 206.981 565.404 207.593 559.032H212.237V576.528H218.069V542.544H212.237ZM230.198 558.924H240.35V545.316H224.222V549.888H234.41V554.388H224.258V568.788H227.354C233.69 568.788 238.622 568.608 243.734 567.672L243.158 562.992C238.946 563.748 235.022 564 230.198 564.072V558.924ZM245.03 542.58V576.528H250.862V542.58H245.03ZM276.852 547.908H259.32V556.44H283.224V552.588H265.08V551.472H282.612V542.976H259.32V546.828H276.852V547.908ZM264.756 571.236H282.684V562.776H258.96V566.628H276.924V567.672H258.996V576.24H283.548V572.388H264.756V571.236ZM255.648 557.484V561.624H286.212V557.484H255.648ZM300.231 562.632C306.315 561.588 310.203 558.852 312.255 555.252C314.307 558.78 318.267 561.408 324.423 562.416L326.619 557.844C319.059 556.764 316.071 553.236 315.423 549.492H324.891V544.956H299.511V549.492H308.979C308.367 553.272 305.379 556.944 297.963 558.024L300.231 562.632ZM315.171 568.068V560.976H309.339V568.068H296.955V572.712H327.555V568.068H315.171ZM331.225 544.38V548.952H341.089C340.261 552.804 336.589 556.152 329.425 557.844L331.801 562.344C341.881 559.752 347.353 553.668 347.353 544.38H331.225ZM334.033 567.996H351.061V576.42H356.893V563.46H334.033V567.996ZM361.105 550.14H356.893V542.616H351.061V562.128H356.893V554.856H361.105V550.14ZM374.692 562.632C380.776 561.588 384.664 558.852 386.716 555.252C388.768 558.78 392.728 561.408 398.884 562.416L401.08 557.844C393.52 556.764 390.532 553.236 389.884 549.492H399.352V544.956H373.972V549.492H383.44C382.828 553.272 379.84 556.944 372.424 558.024L374.692 562.632ZM389.632 568.068V560.976H383.8V568.068H371.416V572.712H402.016V568.068H389.632ZM405.685 544.38V548.952H415.549C414.721 552.804 411.049 556.152 403.885 557.844L406.261 562.344C416.341 559.752 421.813 553.668 421.813 544.38H405.685ZM408.493 567.996H425.521V576.42H431.353V563.46H408.493V567.996ZM435.565 550.14H431.353V542.616H425.521V562.128H431.353V554.856H435.565V550.14ZM452.951 544.056C445.787 544.056 440.135 548.016 440.135 554.064C440.135 560.112 445.787 564.036 452.951 564.036C460.115 564.036 465.767 560.112 465.767 554.064C465.767 548.016 460.115 544.056 452.951 544.056ZM452.951 548.772C457.163 548.772 460.043 550.644 460.043 554.064C460.043 557.448 457.163 559.32 452.951 559.32C448.739 559.32 445.859 557.448 445.859 554.064C445.859 550.644 448.739 548.772 452.951 548.772ZM437.651 567.888V572.568H468.287V567.888H437.651ZM488.984 568.248V563.856H498.884V559.284H479.912V556.44H498.128V544.632H474.116V549.204H492.368V551.976H474.152V563.856H483.152V568.248H470.804V572.928H501.368V568.248H488.984ZM514.488 562.092C517.656 560.868 519.636 558.672 520.788 556.008C522.012 558.528 524.1 560.58 527.412 561.696C530.688 560.58 532.812 558.528 534 555.972C535.116 558.78 537.132 561.084 540.336 562.308L543.216 558.06C538.752 556.332 537.276 552.912 537.132 549.312H541.884V544.74H528.06V549.312H531.264C531.12 551.868 530.076 554.532 527.412 556.26C524.712 554.532 523.632 551.868 523.488 549.312H526.764V544.74H512.904V549.312H517.692C517.548 552.804 516.036 556.152 511.608 557.808L514.488 562.092ZM530.328 562.704H524.496V568.032H512.112V572.676H542.712V568.032H530.328V562.704ZM546.489 546.684V551.256H554.193C553.545 557.592 550.809 561.84 544.581 565.656L547.965 569.652C557.253 564.108 559.953 556.62 559.953 546.684H546.489ZM568.809 542.616V554.892H566.721V543.516H561.321V575.052H566.721V559.5H568.809V576.348H574.317V542.616H568.809ZM591.558 545.028H585.69V549.312C585.69 555.828 583.782 562.38 577.662 565.152L581.262 569.796C584.862 568.032 587.238 564.936 588.606 561.048C589.974 564.684 592.242 567.564 595.77 569.22L599.226 564.648C593.25 562.02 591.558 555.864 591.558 549.312V545.028ZM601.206 542.58V552.696H595.482V557.34H601.206V576.492H607.038V542.58H601.206ZM632.758 545.1H626.89V549.348C626.89 555.72 624.982 562.164 618.898 564.936L622.354 569.652C625.99 567.924 628.402 564.756 629.806 560.904C631.138 564.468 633.298 567.348 636.646 569.04L640.138 564.432C634.378 561.624 632.758 555.504 632.758 549.348V545.1ZM650.974 555.288H646.438V542.652H640.606V576.42H646.438V560.04H650.974V555.288ZM679.483 564.864C680.887 557.448 680.887 552.588 680.887 548.376V545.208H655.903V549.78H675.055C675.055 553.56 674.911 558.132 673.687 564.252L679.483 564.864ZM668.899 568.032V556.656H663.067V568.032H652.843V572.676H683.443V568.032H668.899ZM695.572 565.152C693.7 565.152 692.368 563.964 692.368 561.624C692.368 559.284 693.7 558.096 695.572 558.096C697.48 558.096 698.776 559.284 698.776 561.624C698.776 563.964 697.48 565.152 695.572 565.152ZM695.572 553.416C690.568 553.416 686.824 556.836 686.824 561.624C686.824 566.412 690.568 569.832 695.572 569.832C700.576 569.832 704.32 566.412 704.32 561.624C704.32 556.836 700.576 553.416 695.572 553.416ZM698.488 543.264H692.656V547.404H685.78V551.976H705.328V547.404H698.488V543.264ZM717.208 555.468H712.744V542.652H706.912V576.384H712.744V560.22H717.208V555.468ZM746.329 551.184H728.437V543.804H722.605V555.756H746.329V551.184ZM728.113 565.584H722.281V575.736H746.545V571.164H728.113V565.584ZM719.077 558.708V563.28H749.677V558.708H719.077ZM789.617 551.508C781.121 550.608 778.673 546.756 778.673 543.768V543.012H772.697V543.768C772.697 546.756 770.249 550.608 761.753 551.508L763.805 556.008C769.709 555.288 773.597 553.092 775.685 550.14C777.773 553.092 781.661 555.288 787.565 556.008L789.617 551.508ZM781.445 571.596H769.565V569.436H781.445V571.596ZM781.445 565.116H769.565V562.848H763.805V576.06H787.205V562.848H781.445V565.116ZM760.385 557.016V561.552H790.985V557.016H760.385ZM811.718 557.16C812.474 553.056 812.474 549.744 812.474 547.296V545.028H794.834V549.6H806.714C806.678 551.508 806.534 553.74 806.066 556.476L811.718 557.16ZM813.446 558.168C810.53 558.564 807.362 558.816 804.23 558.996V553.056H798.506V559.176C796.49 559.212 794.582 559.212 792.89 559.212L793.394 563.748C799.154 563.712 806.858 563.568 813.806 562.236L813.446 558.168ZM803.51 565.584H797.678V575.916H821.906V571.344H803.51V565.584ZM820.862 552.552V542.616H815.03V567.816H820.862V557.268H824.462V552.552H820.862ZM165.908 745.152C164.036 745.152 162.704 743.964 162.704 741.624C162.704 739.284 164.036 738.096 165.908 738.096C167.816 738.096 169.112 739.284 169.112 741.624C169.112 743.964 167.816 745.152 165.908 745.152ZM165.908 733.416C160.904 733.416 157.16 736.836 157.16 741.624C157.16 746.412 160.904 749.832 165.908 749.832C170.912 749.832 174.656 746.412 174.656 741.624C174.656 736.836 170.912 733.416 165.908 733.416ZM168.824 723.264H162.992V727.404H156.116V731.976H175.664V727.404H168.824V723.264ZM187.544 735.468H183.08V722.652H177.248V756.384H183.08V740.22H187.544V735.468ZM196.037 725.784H190.241V748.284H193.265C198.161 748.284 203.705 747.996 209.249 746.844L208.637 742.128C204.281 742.956 199.997 743.352 196.037 743.46V725.784ZM220.481 735H216.125V722.58H210.293V756.312H216.125V739.752H220.481V735ZM233.294 724.776C228.002 724.776 223.862 728.376 223.862 733.272C223.862 738.204 228.002 741.804 233.294 741.804C238.622 741.804 242.762 738.204 242.762 733.272C242.762 728.376 238.622 724.776 233.294 724.776ZM233.294 729.708C235.418 729.708 237.074 730.896 237.074 733.272C237.074 735.684 235.418 736.872 233.294 736.872C231.206 736.872 229.55 735.684 229.55 733.272C229.55 730.896 231.206 729.708 233.294 729.708ZM245.246 722.58V756.492H251.078V722.58H245.246ZM223.286 749.94C229.046 749.94 236.786 749.832 243.986 748.392L243.59 744.252C236.57 745.224 228.47 745.296 222.638 745.296L223.286 749.94ZM284.862 732.372H273.198V728.448H284.862V732.372ZM290.586 723.948H267.474V736.872H290.586V723.948ZM273.018 746.016H267.186V755.916H291.09V751.344H273.018V746.016ZM263.838 739.032V743.568H276.726V748.644H282.558V743.568H294.438V739.032H263.838ZM313.803 733.848H310.167V738.492H313.803V744.972C309.159 741.984 308.079 736.584 308.079 731.256V730.356H312.435V725.712H297.567V730.356H302.427V731.256C302.427 736.8 301.239 742.812 296.127 746.088L299.547 750.3C302.355 748.536 304.191 745.62 305.271 742.2C306.423 745.296 308.187 747.888 310.959 749.508L313.803 745.944V754.98H319.203V723.048H313.803V733.848ZM320.643 722.616V756.348H326.151V722.616H320.643ZM351.312 727.908H333.781V736.44H357.685V732.588H339.541V731.472H357.073V722.976H333.781V726.828H351.312V727.908ZM339.217 751.236H357.145V742.776H333.421V746.628H351.385V747.672H333.457V756.24H358.009V752.388H339.217V751.236ZM330.109 737.484V741.624H360.673V737.484H330.109ZM378.796 730.068H388.228V725.496H373V748.464H375.844C381.82 748.464 385.888 748.32 390.208 747.528L389.668 742.848C386.212 743.46 383.008 743.676 378.796 743.748V730.068ZM394.276 722.616V733.956H386.788V738.6H394.276V756.528H400.108V722.616H394.276ZM433.28 737.484C428.132 735.864 426.152 732.372 425.828 728.988H431.912V724.416H413.552V728.988H419.78C419.42 732.624 417.404 736.332 412.04 738.024L415.064 742.56C418.88 741.336 421.364 738.96 422.84 735.972C424.352 738.672 426.764 740.868 430.328 741.984L433.28 737.484ZM416.684 748.896H433.748V756.456H439.58V744.324H416.684V748.896ZM443.792 730.392H439.58V722.652H433.748V743.028H439.58V735.108H443.792V730.392ZM461.177 728.088C465.281 728.088 467.585 728.88 467.585 730.608C467.585 732.372 465.281 733.128 461.177 733.128C457.073 733.128 454.769 732.372 454.769 730.608C454.769 728.88 457.073 728.088 461.177 728.088ZM461.177 737.7C468.593 737.7 473.597 735 473.597 730.608C473.597 726.252 468.593 723.552 461.177 723.552C453.761 723.552 448.757 726.252 448.757 730.608C448.757 735 453.761 737.7 461.177 737.7ZM455.273 746.016H449.441V755.916H473.021V751.344H455.273V746.016ZM445.877 739.572V744.144H476.477V739.572H445.877ZM506.085 736.152C502.845 736.872 499.785 737.088 494.133 737.16V729.744H503.601V725.172H488.337V741.768H491.253C499.029 741.768 502.809 741.588 506.625 740.724L506.085 736.152ZM497.661 744.432H491.829V755.916H515.049V751.344H497.661V744.432ZM514.041 731.4V722.616H508.209V747.024H514.041V736.116H518.253V731.4H514.041ZM531.282 728.52C533.298 728.52 534.666 729.384 534.666 731.184C534.666 732.984 533.298 733.848 531.282 733.848C529.266 733.848 527.862 732.984 527.862 731.184C527.862 729.384 529.266 728.52 531.282 728.52ZM531.282 738.528C536.394 738.528 540.246 735.468 540.246 731.184C540.246 726.9 536.394 723.84 531.282 723.84C526.134 723.84 522.282 726.9 522.282 731.184C522.282 735.468 526.134 738.528 531.282 738.528ZM541.506 738.96C534.486 740.04 526.278 740.112 520.554 740.112L521.238 744.756C523.362 744.756 525.81 744.72 528.474 744.612V755.376H534.306V744.252C536.862 744 539.382 743.712 541.902 743.172L541.506 738.96ZM543.162 722.616V756.348H548.994V722.616H543.162ZM571.671 748.248V743.856H581.571V739.284H562.599V736.44H580.815V724.632H556.803V729.204H575.055V731.976H556.839V743.856H565.839V748.248H553.491V752.928H584.055V748.248H571.671ZM588.517 761.172C593.521 759.66 596.185 756.168 596.185 751.524C596.185 747.78 594.637 745.548 591.829 745.548C589.597 745.548 587.833 746.988 587.833 749.148C587.833 751.452 589.669 752.748 591.649 752.748H591.973C592.009 754.728 590.353 756.672 587.221 757.752L588.517 761.172ZM614.8 730.068H624.232V725.496H609.004V748.464H611.848C617.824 748.464 621.892 748.32 626.212 747.528L625.672 742.848C622.216 743.46 619.012 743.676 614.8 743.748V730.068ZM630.28 722.616V733.956H622.792V738.6H630.28V756.528H636.112V722.616H630.28ZM669.284 737.484C664.136 735.864 662.156 732.372 661.832 728.988H667.916V724.416H649.556V728.988H655.784C655.424 732.624 653.408 736.332 648.044 738.024L651.068 742.56C654.884 741.336 657.368 738.96 658.844 735.972C660.356 738.672 662.768 740.868 666.332 741.984L669.284 737.484ZM652.688 748.896H669.752V756.456H675.584V744.324H652.688V748.896ZM679.796 730.392H675.584V722.652H669.752V743.028H675.584V735.108H679.796V730.392ZM697.181 728.088C701.285 728.088 703.589 728.88 703.589 730.608C703.589 732.372 701.285 733.128 697.181 733.128C693.077 733.128 690.773 732.372 690.773 730.608C690.773 728.88 693.077 728.088 697.181 728.088ZM697.181 737.7C704.597 737.7 709.601 735 709.601 730.608C709.601 726.252 704.597 723.552 697.181 723.552C689.765 723.552 684.761 726.252 684.761 730.608C684.761 735 689.765 737.7 697.181 737.7ZM691.277 746.016H685.445V755.916H709.025V751.344H691.277V746.016ZM681.881 739.572V744.144H712.481V739.572H681.881ZM742.089 736.152C738.849 736.872 735.789 737.088 730.137 737.16V729.744H739.605V725.172H724.341V741.768H727.257C735.033 741.768 738.813 741.588 742.629 740.724L742.089 736.152ZM733.665 744.432H727.833V755.916H751.053V751.344H733.665V744.432ZM750.045 731.4V722.616H744.213V747.024H750.045V736.116H754.257V731.4H750.045ZM767.286 728.52C769.302 728.52 770.67 729.384 770.67 731.184C770.67 732.984 769.302 733.848 767.286 733.848C765.27 733.848 763.866 732.984 763.866 731.184C763.866 729.384 765.27 728.52 767.286 728.52ZM767.286 738.528C772.398 738.528 776.25 735.468 776.25 731.184C776.25 726.9 772.398 723.84 767.286 723.84C762.138 723.84 758.286 726.9 758.286 731.184C758.286 735.468 762.138 738.528 767.286 738.528ZM777.51 738.96C770.49 740.04 762.282 740.112 756.558 740.112L757.242 744.756C759.366 744.756 761.814 744.72 764.478 744.612V755.376H770.31V744.252C772.866 744 775.386 743.712 777.906 743.172L777.51 738.96ZM779.166 722.616V756.348H784.998V722.616H779.166ZM807.675 748.248V743.856H817.575V739.284H798.603V736.44H816.819V724.632H792.807V729.204H811.059V731.976H792.843V743.856H801.843V748.248H789.495V752.928H820.059V748.248H807.675ZM824.52 761.172C829.524 759.66 832.188 756.168 832.188 751.524C832.188 747.78 830.64 745.548 827.832 745.548C825.6 745.548 823.836 746.988 823.836 749.148C823.836 751.452 825.672 752.748 827.652 752.748H827.976C828.012 754.728 826.356 756.672 823.224 757.752L824.52 761.172ZM850.804 730.068H860.236V725.496H845.008V748.464H847.852C853.828 748.464 857.896 748.32 862.216 747.528L861.676 742.848C858.22 743.46 855.016 743.676 850.804 743.748V730.068ZM866.284 722.616V733.956H858.796V738.6H866.284V756.528H872.116V722.616H866.284ZM905.288 737.484C900.14 735.864 898.16 732.372 897.836 728.988H903.92V724.416H885.56V728.988H891.788C891.428 732.624 889.412 736.332 884.048 738.024L887.072 742.56C890.888 741.336 893.372 738.96 894.848 735.972C896.36 738.672 898.772 740.868 902.336 741.984L905.288 737.484ZM888.692 748.896H905.756V756.456H911.588V744.324H888.692V748.896ZM915.8 730.392H911.588V722.652H905.756V743.028H911.588V735.108H915.8V730.392ZM933.185 728.088C937.289 728.088 939.593 728.88 939.593 730.608C939.593 732.372 937.289 733.128 933.185 733.128C929.081 733.128 926.777 732.372 926.777 730.608C926.777 728.88 929.081 728.088 933.185 728.088ZM933.185 737.7C940.601 737.7 945.605 735 945.605 730.608C945.605 726.252 940.601 723.552 933.185 723.552C925.769 723.552 920.765 726.252 920.765 730.608C920.765 735 925.769 737.7 933.185 737.7ZM927.281 746.016H921.449V755.916H945.029V751.344H927.281V746.016ZM917.885 739.572V744.144H948.485V739.572H917.885ZM978.093 736.152C974.853 736.872 971.793 737.088 966.141 737.16V729.744H975.609V725.172H960.345V741.768H963.261C971.037 741.768 974.817 741.588 978.633 740.724L978.093 736.152ZM969.669 744.432H963.837V755.916H987.057V751.344H969.669V744.432ZM986.049 731.4V722.616H980.217V747.024H986.049V736.116H990.261V731.4H986.049ZM1003.29 728.52C1005.31 728.52 1006.67 729.384 1006.67 731.184C1006.67 732.984 1005.31 733.848 1003.29 733.848C1001.27 733.848 999.87 732.984 999.87 731.184C999.87 729.384 1001.27 728.52 1003.29 728.52ZM1003.29 738.528C1008.4 738.528 1012.25 735.468 1012.25 731.184C1012.25 726.9 1008.4 723.84 1003.29 723.84C998.142 723.84 994.29 726.9 994.29 731.184C994.29 735.468 998.142 738.528 1003.29 738.528ZM1013.51 738.96C1006.49 740.04 998.286 740.112 992.562 740.112L993.246 744.756C995.37 744.756 997.818 744.72 1000.48 744.612V755.376H1006.31V744.252C1008.87 744 1011.39 743.712 1013.91 743.172L1013.51 738.96ZM1015.17 722.616V756.348H1021V722.616H1015.17ZM1043.68 748.248V743.856H1053.58V739.284H1034.61V736.44H1052.82V724.632H1028.81V729.204H1047.06V731.976H1028.85V743.856H1037.85V748.248H1025.5V752.928H1056.06V748.248H1043.68ZM1063.66 753.504C1065.85 753.504 1067.47 751.74 1067.47 749.508C1067.47 747.276 1065.85 745.548 1063.66 745.548C1061.42 745.548 1059.84 747.276 1059.84 749.508C1059.84 751.74 1061.42 753.504 1063.66 753.504ZM1076.28 753.504C1078.47 753.504 1080.09 751.74 1080.09 749.508C1080.09 747.276 1078.47 745.548 1076.28 745.548C1074.05 745.548 1072.46 747.276 1072.46 749.508C1072.46 751.74 1074.05 753.504 1076.28 753.504ZM1088.9 753.504C1091.09 753.504 1092.71 751.74 1092.71 749.508C1092.71 747.276 1091.09 745.548 1088.9 745.548C1086.67 745.548 1085.08 747.276 1085.08 749.508C1085.08 751.74 1086.67 753.504 1088.9 753.504ZM1101.52 753.504C1103.72 753.504 1105.34 751.74 1105.34 749.508C1105.34 747.276 1103.72 745.548 1101.52 745.548C1099.29 745.548 1097.7 747.276 1097.7 749.508C1097.7 751.74 1099.29 753.504 1101.52 753.504ZM1114.14 753.504C1116.34 753.504 1117.96 751.74 1117.96 749.508C1117.96 747.276 1116.34 745.548 1114.14 745.548C1111.91 745.548 1110.32 747.276 1110.32 749.508C1110.32 751.74 1111.91 753.504 1114.14 753.504Z" fill="#333333"/>
</g>
<defs>
<clipPath id="clip0_27_2799">
<rect width="1920" height="1080" fill="white"/>
</clipPath>
</defs>
</svg>
