<svg width="1920" height="1080" viewBox="0 0 1920 1080" fill="none" xmlns="http://www.w3.org/2000/svg">
<g clip-path="url(#clip0_18_23389)">
<rect width="1920" height="1080" fill="white"/>
<line x1="1145.5" y1="269" x2="1145.5" y2="1047" stroke="#4F4F4F" stroke-width="3" stroke-dasharray="4 4"/>
<line x1="1144" y1="321.5" x2="921" y2="321.5" stroke="#4F4F4F" stroke-width="3" stroke-dasharray="4 4"/>
<circle cx="1146" cy="320" r="11" fill="#4F4F4F" stroke="white" stroke-width="8"/>
<line y1="-1.5" x2="223" y2="-1.5" transform="matrix(1 4.37114e-08 4.37114e-08 -1 1149 515)" stroke="#4F4F4F" stroke-width="3" stroke-dasharray="4 4"/>
<circle r="11" transform="matrix(-1 0 0 1 1147 515)" fill="#4F4F4F" stroke="white" stroke-width="8"/>
<line x1="1144" y1="711.5" x2="921" y2="711.5" stroke="#4F4F4F" stroke-width="3" stroke-dasharray="4 4"/>
<circle cx="1146" cy="710" r="11" fill="#4F4F4F" stroke="white" stroke-width="8"/>
<line y1="-1.5" x2="223" y2="-1.5" transform="matrix(1 4.37114e-08 4.37114e-08 -1 1149 905)" stroke="#4F4F4F" stroke-width="3" stroke-dasharray="4 4"/>
<circle r="11" transform="matrix(-1 0 0 1 1147 905)" fill="#4F4F4F" stroke="white" stroke-width="8"/>
<g clip-path="url(#clip1_18_23389)">
<path d="M819.191 236.354C819.197 230.68 817.269 225.174 813.724 220.743C806.826 219.249 797.238 221.448 790.49 223.605C786.219 224.993 769.135 232.467 769.135 236.418C769.135 243.056 771.772 249.421 776.465 254.115C781.159 258.809 787.525 261.445 794.163 261.445C800.801 261.445 807.167 258.809 811.86 254.115C816.554 249.421 819.191 243.056 819.191 236.418V236.354Z" fill="#4F4F4F"/>
<path d="M806.848 275.817L785.493 266.421C766.38 269.945 755.169 280.28 757.283 299.094L761.34 320H783.656L780.901 302.425H785.172L790.661 320H833.904L828.203 288.096C840.11 284.474 850.943 277.976 859.744 269.176C859.234 268.411 858.804 267.595 858.462 266.741L850.113 246.134C841.444 254.882 830.233 260.667 818.08 262.663L806.848 275.817Z" fill="#4F4F4F"/>
<path d="M884.622 256.192L883.512 253.459C881.257 254.195 878.9 254.569 876.529 254.569C872.67 254.597 868.896 253.434 865.723 251.238L873.283 269.881C874.676 269.693 876.04 269.327 877.34 268.791C883.191 266.421 886.779 261.51 884.622 256.192Z" fill="#4F4F4F"/>
<path d="M836.702 228.303C838.659 230.505 840.802 232.534 843.108 234.368C841.657 236.52 840.013 238.535 838.197 240.39C841.435 240.668 844.69 240.704 847.934 240.497C849.716 240.369 851.486 240.112 853.23 239.728L863.395 264.755C864.003 265.549 864.772 266.206 865.652 266.68C866.532 267.155 867.502 267.438 868.499 267.51L856.69 238.767L858.206 238.169C857.843 235.133 858.265 232.054 859.431 229.228C860.598 226.401 862.47 223.921 864.869 222.025C866.376 220.965 868.022 220.117 869.759 219.505L861.751 199.752C861.344 198.737 860.715 197.826 859.909 197.087C859.103 196.348 858.142 195.799 857.096 195.481C857.478 195.944 857.801 196.454 858.057 196.997C858.637 198.281 858.824 199.708 858.596 201.098C858.368 202.489 857.735 203.781 856.775 204.813C854.688 207.257 851.808 208.889 848.639 209.425L855.473 226.168C854.424 226.778 853.314 227.279 852.163 227.662L844.56 208.806C843.909 208.477 843.353 207.985 842.946 207.38C842.538 206.774 842.293 206.074 842.233 205.347C841.998 201.909 845.372 199.068 850.775 198.086L851.33 201.161C847.251 201.887 845.201 203.702 845.308 205.112C845.308 206.158 846.504 206.35 846.974 206.372C848.378 206.337 849.758 206.005 851.025 205.398C852.291 204.791 853.414 203.922 854.32 202.848C854.908 202.248 855.299 201.483 855.44 200.655C855.581 199.827 855.466 198.975 855.11 198.214C853.935 195.758 851.394 194.84 847.785 196.271C841.87 198.62 838.133 203.104 840.268 208.4L848.639 228.452C846.822 228.714 844.987 228.828 843.151 228.794C841.101 228.751 839.008 228.623 836.702 228.303Z" fill="#4F4F4F"/>
<path d="M888.872 243.251C889.534 240.24 887.569 236.354 885.412 232.232C882.807 227.107 880.949 223.306 876.401 223.306C875.261 223.334 874.131 223.529 873.048 223.883C871.239 224.358 869.521 225.13 867.965 226.168C865.655 228.147 864.087 230.853 863.521 233.842C862.954 236.831 863.422 239.923 864.848 242.611C865.966 244.716 867.655 246.464 869.721 247.654C871.787 248.844 874.146 249.427 876.529 249.337C878.364 249.33 880.187 249.034 881.931 248.462C886.822 246.903 888.359 245.579 888.872 243.251Z" fill="#4F4F4F"/>
<path d="M744 218.715L753.567 218.053V232.745C753.163 233.019 752.833 233.388 752.605 233.82C752.378 234.252 752.261 234.734 752.264 235.222V244.148C752.328 244.9 752.671 245.601 753.227 246.112C753.783 246.622 754.51 246.906 755.265 246.906C756.019 246.906 756.747 246.622 757.302 246.112C757.858 245.601 758.202 244.9 758.265 244.148V235.222C758.266 234.763 758.16 234.31 757.957 233.899C757.753 233.487 757.456 233.129 757.091 232.852V217.903L763.775 217.433C766.423 225.484 764.031 218.202 768.046 230.011C772.317 225.74 780.474 221.469 788.952 218.757C795.229 216.56 801.803 215.328 808.449 215.106C809.728 215.1 811.005 215.186 812.272 215.362L808.065 202.677L824.722 192L780.944 195.011L744 218.715Z" fill="#4F4F4F"/>
</g>
<path d="M707.768 332.176H705.296V347.92H707.768V332.176ZM692.744 339.04C692.744 337.048 694.16 335.752 696.08 335.752C697.976 335.752 699.416 337.048 699.416 339.04C699.416 341.008 697.976 342.328 696.08 342.328C694.16 342.328 692.744 341.008 692.744 339.04ZM701.816 339.04C701.816 335.872 699.344 333.616 696.08 333.616C692.816 333.616 690.32 335.872 690.32 339.04C690.32 342.184 692.816 344.464 696.08 344.464C699.344 344.464 701.816 342.184 701.816 339.04ZM696.104 351.424V346.336H693.608V353.44H708.392V351.424H696.104ZM726.654 338.992H716.886V335.104H726.654V338.992ZM729.078 333.136H714.462V340.96H729.078V333.136ZM716.838 347.176H714.366V353.44H729.438V351.424H716.838V347.176ZM711.966 343.096V345.088H720.75V349.144H723.222V345.088H731.622V343.096H711.966ZM745.852 338.032H743.116C743.284 337.024 743.356 335.944 743.356 334.84H734.98V336.832H740.908C740.548 341.272 738.388 344.8 733.924 347.512L735.34 349.264C739.396 346.84 741.676 343.696 742.684 340.048H745.852V343.48H742.3V345.496H745.852V352.792H748.156V332.704H745.852V338.032ZM750.22 332.176V353.848H752.596V332.176H750.22ZM758.786 337.816C758.786 336.04 760.178 334.864 762.098 334.864C763.97 334.864 765.362 336.04 765.362 337.816C765.362 339.592 763.97 340.768 762.098 340.768C760.178 340.768 758.786 339.592 758.786 337.816ZM771.602 336.52V339.04H767.57C767.666 338.656 767.714 338.224 767.714 337.816C767.714 337.36 767.666 336.928 767.546 336.52H771.602ZM771.602 340.984V343.168H774.098V332.152H771.602V334.576H766.49C765.482 333.472 763.922 332.824 762.098 332.824C758.834 332.824 756.434 334.888 756.434 337.816C756.434 340.72 758.834 342.808 762.098 342.808C763.946 342.808 765.554 342.112 766.538 340.984H771.602ZM762.458 351.64V349.72H774.098V344.2H759.986V346.12H771.65V347.896H760.01V353.584H774.818V351.64H762.458ZM778.896 356.8C781.368 355.864 782.832 353.92 782.832 351.4C782.832 349.552 782.04 348.424 780.696 348.424C779.64 348.424 778.776 349.12 778.776 350.2C778.776 351.352 779.64 351.976 780.624 351.976C780.72 351.976 780.792 351.976 780.888 351.952C780.888 353.344 779.928 354.568 778.272 355.24L778.896 356.8ZM798.347 333.976H795.875V337.528C795.875 341.536 793.763 345.64 790.379 347.296L791.891 349.288C794.363 348.016 796.187 345.496 797.123 342.496C798.059 345.328 799.787 347.68 802.115 348.88L803.627 346.912C800.363 345.304 798.347 341.392 798.347 337.528V333.976ZM810.923 340.768H807.539V332.176H805.067V353.848H807.539V342.808H810.923V340.768ZM818.985 347.704H828.369V351.616H818.985V347.704ZM816.561 353.584H830.793V345.736H816.561V353.584ZM821.385 341.656H816.273V338.512H821.385V341.656ZM828.321 332.176V337.48H823.809V333.376H821.385V336.592H816.273V333.4H813.825V343.648H823.809V339.496H828.321V344.728H830.793V332.152L828.321 332.176ZM838.063 336.76H843.655V334.744H835.639V348.688H837.079C840.127 348.688 842.359 348.592 844.975 348.088L844.759 346.048C842.527 346.504 840.559 346.624 838.063 346.648V336.76ZM851.047 332.152V340.72H848.479V332.608H846.151V352.768H848.479V342.736H851.047V353.824H853.399V332.152H851.047ZM869.813 334.288H864.653V332.056H862.181V334.288H857.021V336.256H869.813V334.288ZM860.525 341.152C860.525 339.856 861.677 339.088 863.405 339.088C865.133 339.088 866.309 339.856 866.309 341.152C866.309 342.424 865.133 343.192 863.405 343.192C861.677 343.192 860.525 342.424 860.525 341.152ZM868.661 341.152C868.661 338.776 866.525 337.192 863.405 337.192C860.285 337.192 858.149 338.776 858.149 341.152C858.149 343.504 860.285 345.088 863.405 345.088C866.525 345.088 868.661 343.504 868.661 341.152ZM859.661 348.784H871.445V353.848H873.917V346.792H859.661V348.784ZM876.989 337.984H873.917V332.176H871.445V345.736H873.917V340.024H876.989V337.984ZM881.428 352.312C882.46 352.312 883.276 351.52 883.276 350.392C883.276 349.24 882.46 348.424 881.428 348.424C880.396 348.424 879.58 349.24 879.58 350.392C879.58 351.52 880.396 352.312 881.428 352.312ZM635.116 366.472C635.116 369.112 635.116 372.04 634.348 376L636.82 376.288C637.588 372.088 637.588 369.184 637.588 366.472V364.192H621.988V366.208H635.116V366.472ZM632.356 378.976V371.968H629.908V378.976H627.004V371.968H624.556V378.976H620.044V381.016H639.628V378.976H632.356ZM651.914 364.576C655.13 364.576 657.074 365.392 657.074 366.856C657.074 368.296 655.13 369.112 651.914 369.112C648.674 369.112 646.73 368.296 646.73 366.856C646.73 365.392 648.674 364.576 651.914 364.576ZM651.914 371.056C656.618 371.056 659.642 369.472 659.642 366.856C659.642 364.24 656.618 362.656 651.914 362.656C647.186 362.656 644.186 364.24 644.186 366.856C644.186 369.472 647.186 371.056 651.914 371.056ZM654.29 376.84H649.49V374.464H654.29V376.84ZM661.706 374.464V372.472H642.074V374.464H647.018V376.84H644.282V378.808H656.834V383.848H659.306V376.84H656.762V374.464H661.706ZM677.017 364.288H671.857V362.056H669.385V364.288H664.225V366.256H677.017V364.288ZM667.729 371.152C667.729 369.856 668.881 369.088 670.609 369.088C672.337 369.088 673.513 369.856 673.513 371.152C673.513 372.424 672.337 373.192 670.609 373.192C668.881 373.192 667.729 372.424 667.729 371.152ZM675.865 371.152C675.865 368.776 673.729 367.192 670.609 367.192C667.489 367.192 665.353 368.776 665.353 371.152C665.353 373.504 667.489 375.088 670.609 375.088C673.729 375.088 675.865 373.504 675.865 371.152ZM666.865 378.784H678.649V383.848H681.121V376.792H666.865V378.784ZM684.193 367.984H681.121V362.176H678.649V375.736H681.121V370.024H684.193V367.984ZM703.213 367.984V370.024H707.149V378.04H709.621V362.2H707.149V367.984H703.213ZM704.557 373.048C701.317 371.92 699.469 369.208 699.469 366.544V365.8H703.981V363.808H692.389V365.8H696.973V366.544C696.973 369.472 695.005 372.328 691.645 373.504L692.917 375.448C695.485 374.56 697.309 372.664 698.269 370.312C699.181 372.448 700.933 374.152 703.333 374.968L704.557 373.048ZM698.053 381.424V376.672H695.581V383.44H710.173V381.424H698.053ZM730.307 370.792C730.907 368.56 730.907 366.76 730.907 365.032V363.208H716.027V365.2H728.459C728.459 366.832 728.435 368.392 727.883 370.528L730.307 370.792ZM723.467 381.952C720.251 381.952 718.283 381.16 718.283 379.792C718.283 378.448 720.251 377.656 723.467 377.656C726.659 377.656 728.579 378.448 728.579 379.792C728.579 381.16 726.659 381.952 723.467 381.952ZM723.467 375.76C718.787 375.76 715.835 377.296 715.835 379.792C715.835 382.312 718.787 383.848 723.467 383.848C728.075 383.848 731.051 382.312 731.051 379.792C731.051 377.296 728.075 375.76 723.467 375.76ZM723.947 372.088V368.104H721.451V372.088H713.771V374.08H733.307V372.088H723.947ZM736.498 386.8C738.97 385.864 740.434 383.92 740.434 381.4C740.434 379.552 739.642 378.424 738.298 378.424C737.242 378.424 736.378 379.12 736.378 380.2C736.378 381.352 737.242 381.976 738.226 381.976C738.322 381.976 738.394 381.976 738.49 381.952C738.49 383.344 737.53 384.568 735.874 385.24L736.498 386.8ZM763.845 367.912V370.408H758.589V372.424H763.845V374.92H766.317V362.176H763.845V365.896H759.381C759.501 365.224 759.573 364.504 759.573 363.736H749.733V365.728H756.933C756.501 369.112 753.693 371.776 748.605 373.192L749.589 375.16C754.269 373.792 757.461 371.368 758.805 367.912H763.845ZM759.213 381.808C756.285 381.808 754.437 380.968 754.437 379.456C754.437 377.968 756.285 377.128 759.213 377.128C762.165 377.128 764.013 377.968 764.013 379.456C764.013 380.968 762.165 381.808 759.213 381.808ZM759.213 375.184C754.821 375.184 751.989 376.816 751.989 379.456C751.989 382.12 754.821 383.752 759.213 383.752C763.605 383.752 766.461 382.12 766.461 379.456C766.461 376.816 763.605 375.184 759.213 375.184ZM773.083 368.632C773.083 366.736 774.475 365.488 776.395 365.488C778.267 365.488 779.659 366.736 779.659 368.632C779.659 370.504 778.267 371.752 776.395 371.752C774.475 371.752 773.083 370.504 773.083 368.632ZM785.923 367.168V370.096H781.795C781.939 369.64 782.011 369.16 782.011 368.632C782.011 368.104 781.939 367.624 781.819 367.168H785.923ZM785.923 372.088V374.944H788.395V362.152H785.923V365.152H780.691C779.683 364.072 778.171 363.4 776.395 363.4C773.155 363.4 770.731 365.56 770.731 368.632C770.731 371.68 773.155 373.84 776.395 373.84C778.147 373.84 779.683 373.192 780.691 372.088H785.923ZM781.171 381.904C778.099 381.904 776.299 381.112 776.299 379.624C776.299 378.184 778.099 377.368 781.171 377.368C784.267 377.368 786.043 378.184 786.043 379.624C786.043 381.112 784.267 381.904 781.171 381.904ZM781.171 375.424C776.659 375.424 773.875 376.984 773.875 379.624C773.875 382.288 776.659 383.848 781.171 383.848C785.683 383.848 788.491 382.288 788.491 379.624C788.491 376.984 785.683 375.424 781.171 375.424ZM805.337 364.288H800.177V362.056H797.705V364.288H792.545V366.256H805.337V364.288ZM796.049 371.152C796.049 369.856 797.201 369.088 798.929 369.088C800.657 369.088 801.833 369.856 801.833 371.152C801.833 372.424 800.657 373.192 798.929 373.192C797.201 373.192 796.049 372.424 796.049 371.152ZM804.185 371.152C804.185 368.776 802.049 367.192 798.929 367.192C795.809 367.192 793.673 368.776 793.673 371.152C793.673 373.504 795.809 375.088 798.929 375.088C802.049 375.088 804.185 373.504 804.185 371.152ZM795.185 378.784H806.969V383.848H809.441V376.792H795.185V378.784ZM812.513 367.984H809.441V362.176H806.969V375.736H809.441V370.024H812.513V367.984ZM834.726 370.504H824.814V367.744H834.726V370.504ZM837.198 363.016H834.726V365.752H824.814V363.016H822.342V372.496H837.198V363.016ZM839.622 374.848H819.966V376.84H828.486V383.872H830.958V376.84H839.622V374.848ZM853.612 367.984V370.024H857.548V378.04H860.02V362.2H857.548V367.984H853.612ZM854.956 373.048C851.716 371.92 849.868 369.208 849.868 366.544V365.8H854.38V363.808H842.788V365.8H847.372V366.544C847.372 369.472 845.404 372.328 842.044 373.504L843.316 375.448C845.884 374.56 847.708 372.664 848.668 370.312C849.58 372.448 851.332 374.152 853.732 374.968L854.956 373.048ZM848.452 381.424V376.672H845.98V383.44H860.572V381.424H848.452ZM880.706 370.792C881.306 368.56 881.306 366.76 881.306 365.032V363.208H866.426V365.2H878.858C878.858 366.832 878.834 368.392 878.282 370.528L880.706 370.792ZM873.866 381.952C870.65 381.952 868.682 381.16 868.682 379.792C868.682 378.448 870.65 377.656 873.866 377.656C877.058 377.656 878.978 378.448 878.978 379.792C878.978 381.16 877.058 381.952 873.866 381.952ZM873.866 375.76C869.186 375.76 866.234 377.296 866.234 379.792C866.234 382.312 869.186 383.848 873.866 383.848C878.474 383.848 881.45 382.312 881.45 379.792C881.45 377.296 878.474 375.76 873.866 375.76ZM874.346 372.088V368.104H871.85V372.088H864.17V374.08H883.706V372.088H874.346ZM490.516 416.776L492.244 416.008C490.18 412.576 489.22 408.52 489.22 404.488C489.22 400.48 490.18 396.424 492.244 392.968L490.516 392.224C488.284 395.848 486.964 399.76 486.964 404.488C486.964 409.264 488.284 413.128 490.516 416.776ZM509.655 396.472C509.655 399.112 509.655 402.04 508.887 406L511.359 406.288C512.127 402.088 512.127 399.184 512.127 396.472V394.192H496.527V396.208H509.655V396.472ZM506.895 408.976V401.968H504.447V408.976H501.543V401.968H499.095V408.976H494.583V411.016H514.167V408.976H506.895ZM527.894 404.896V406.624H532.142V408.64H534.614V392.152H532.142V404.896H527.894ZM523.574 394.816C525.35 394.816 526.574 395.584 526.574 396.808C526.574 398.032 525.35 398.8 523.574 398.8C521.773 398.8 520.55 398.032 520.55 396.808C520.55 395.584 521.773 394.816 523.574 394.816ZM523.574 400.624C526.742 400.624 528.926 399.112 528.926 396.808C528.926 394.504 526.742 392.992 523.574 392.992C520.382 392.992 518.198 394.504 518.198 396.808C518.198 399.112 520.382 400.624 523.574 400.624ZM522.59 407.944H525.062V403.768C526.91 403.648 528.806 403.456 530.63 403.144L530.438 401.368C525.854 401.944 520.526 401.992 516.542 402.016L516.854 404.032C518.582 404.032 520.526 404.008 522.59 403.912V407.944ZM521.942 411.424V407.032H519.47V413.44H535.118V411.424H521.942ZM554.124 392.2V404.536H556.596V392.2H554.124ZM542.412 405.616V413.584H556.596V405.616H542.412ZM554.172 407.584V411.616H544.836V407.584H554.172ZM544.908 393.256C541.596 393.256 539.148 395.344 539.148 398.368C539.148 401.392 541.596 403.48 544.908 403.48C548.22 403.48 550.644 401.392 550.644 398.368C550.644 395.344 548.22 393.256 544.908 393.256ZM544.908 395.296C546.828 395.296 548.244 396.52 548.244 398.368C548.244 400.24 546.828 401.44 544.908 401.44C542.964 401.44 541.572 400.24 541.572 398.368C541.572 396.52 542.964 395.296 544.908 395.296ZM570.562 411.952C567.394 411.952 565.618 411.28 565.618 409.96C565.618 408.664 567.394 407.968 570.562 407.968C573.73 407.968 575.53 408.664 575.53 409.96C575.53 411.28 573.73 411.952 570.562 411.952ZM570.562 406.072C565.906 406.072 563.098 407.488 563.098 409.96C563.098 412.456 565.906 413.848 570.562 413.848C575.242 413.848 578.026 412.456 578.026 409.96C578.026 407.488 575.242 406.072 570.562 406.072ZM567.922 400.504C568.714 400.624 569.65 400.696 570.61 400.696C571.57 400.696 572.458 400.624 573.25 400.504V402.712H567.922V400.504ZM570.61 394.456C573.826 394.456 575.77 395.224 575.77 396.616C575.77 398.008 573.826 398.8 570.61 398.8C567.37 398.8 565.426 398.008 565.426 396.616C565.426 395.224 567.37 394.456 570.61 394.456ZM575.722 402.712V399.856C577.378 399.136 578.338 398.032 578.338 396.616C578.338 394.072 575.338 392.536 570.61 392.536C565.858 392.536 562.882 394.072 562.882 396.616C562.882 398.032 563.818 399.136 565.45 399.832V402.712H560.794V404.68H580.402V402.712H575.722ZM590.888 393.976H588.416V397.528C588.416 401.704 586.16 405.856 582.704 407.416L584.168 409.48C586.784 408.208 588.704 405.64 589.688 402.496C590.672 405.424 592.568 407.824 595.064 409L596.504 407.032C593.096 405.496 590.888 401.512 590.888 397.528V393.976ZM598.232 392.152V413.896H600.728V392.152H598.232ZM617.598 394.264H612.558V391.96H610.062V394.264H605.022V396.232H617.598V394.264ZM608.574 401.056C608.574 399.832 609.702 399.04 611.31 399.04C612.918 399.04 614.046 399.832 614.046 401.056C614.046 402.304 612.918 403.096 611.31 403.096C609.702 403.096 608.574 402.304 608.574 401.056ZM616.398 401.056C616.398 398.752 614.286 397.168 611.31 397.168C608.334 397.168 606.222 398.752 606.222 401.056C606.222 403.384 608.334 404.944 611.31 404.944C614.286 404.944 616.398 403.384 616.398 401.056ZM611.118 408.28H620.502V411.616H611.118V408.28ZM608.694 413.584H622.926V406.336H608.694V413.584ZM620.454 392.152V398.632H617.238V400.672H620.454V405.28H622.926V392.152H620.454ZM634.483 405.112L637.963 399.784C638.467 398.872 638.947 397.96 639.379 397.048H639.475C639.427 398.032 639.355 399.52 639.355 400.48V405.112H634.483ZM639.355 412H641.947V407.248H644.179V405.112H641.947V394.312H638.731L631.699 405.4V407.248H639.355V412ZM646.922 394.912V396.928H652.994C652.658 401.296 650.69 404.848 646.01 407.56L647.45 409.312C653.546 405.808 655.442 400.696 655.442 394.912H646.922ZM662.21 392.176V400.648H659.738V392.752H657.41V412.84H659.738V402.664H662.21V413.848H664.562V392.176H662.21ZM679.608 402.352V403.888H683.688V404.824H686.16V392.176H683.688V402.352H679.608ZM675.12 394.216C676.968 394.216 678.168 394.792 678.168 395.8C678.168 396.808 676.968 397.384 675.12 397.384C673.248 397.384 672.048 396.808 672.048 395.8C672.048 394.792 673.248 394.216 675.12 394.216ZM675.12 399.04C678.336 399.04 680.496 397.792 680.496 395.8C680.496 393.808 678.336 392.56 675.12 392.56C671.88 392.56 669.72 393.808 669.72 395.8C669.72 397.792 671.88 399.04 675.12 399.04ZM673.752 404.896H676.248V401.704C678.264 401.608 680.328 401.44 682.32 401.152L682.152 399.592C677.568 400.072 672.336 400.096 668.16 400.096L668.448 401.872C670.08 401.872 671.88 401.872 673.752 401.8V404.896ZM673.848 411.904V410.32H686.16V405.592H671.352V407.296H683.712V408.736H671.4V413.656H686.784V411.904H673.848ZM697.645 401.848C701.389 401.368 704.293 399.64 705.445 397.24C706.621 399.64 709.549 401.368 713.317 401.848L714.229 399.88C710.173 399.4 707.317 397.384 707.125 395.176H713.485V393.184H697.477V395.176H703.789C703.597 397.384 700.789 399.4 696.709 399.88L697.645 401.848ZM700.525 407.248H698.053V413.44H713.125V411.424H700.525V407.248ZM695.653 403.168V405.16H704.437V409.24H706.909V405.16H715.309V403.168H695.653ZM733.091 392.152V413.896H735.587V392.152H733.091ZM718.907 393.952V408.736H729.323V393.952H726.851V399.472H721.355V393.952H718.907ZM721.355 401.44H726.851V406.744H721.355V401.44ZM746.145 407.152C744.393 407.152 743.121 405.952 743.121 404.128C743.121 402.304 744.393 401.104 746.145 401.104C747.897 401.104 749.169 402.304 749.169 404.128C749.169 405.952 747.897 407.152 746.145 407.152ZM746.145 399.064C743.025 399.064 740.769 401.176 740.769 404.128C740.769 407.104 743.025 409.192 746.145 409.192C749.241 409.192 751.521 407.104 751.521 404.128C751.521 401.176 749.241 399.064 746.145 399.064ZM747.345 392.512H744.873V395.512H739.713V397.528H752.409V395.512H747.345V392.512ZM759.993 400.888H756.657V392.176H754.161V413.872H756.657V402.952H759.993V400.888ZM765.248 396.232H772.856V394.216H762.776V408.544H764.552C768.464 408.544 771.392 408.424 774.68 407.824L774.416 405.784C771.392 406.312 768.752 406.456 765.248 406.48V396.232ZM782.072 400.504H778.688V392.152H776.216V413.872H778.688V402.544H782.072V400.504ZM792.14 396.832H794.492V394.84H789.884V408.4H790.772C791.804 408.4 793.1 408.376 794.804 408.016L794.588 405.976C793.7 406.168 792.86 406.288 792.14 406.312V396.832ZM797.612 396.832H800.132V394.84H795.38V408.4H796.316C797.588 408.4 798.98 408.376 800.684 407.968L800.492 405.928C799.436 406.192 798.476 406.288 797.612 406.336V396.832ZM805.82 392.176V400.816H803.684V392.584H801.404V412.816H803.684V402.832H805.82V413.848H808.148V392.176H805.82ZM814.65 402.112H821.73V394.048H812.178V396.04H819.306V400.12H812.226V408.928H813.882C817.242 408.928 820.026 408.856 823.314 408.328L823.122 406.288C820.146 406.744 817.602 406.864 814.65 406.888V402.112ZM826.938 392.128V396.952H822.978V398.968H826.938V402.856H822.858V404.872H826.938V413.872H829.41V392.128H826.938ZM841.721 397.816H846.424V395.824H841.721V392.608H839.249V395.824H834.449V397.816H839.249V399.064C839.249 402.64 837.185 406.312 833.777 407.848L835.145 409.744C837.665 408.592 839.561 406.24 840.521 403.36C841.505 406.072 843.401 408.304 845.872 409.384L847.193 407.464C843.833 406 841.721 402.472 841.721 399.064V397.816ZM848.897 392.152V413.824H851.393V392.152H848.897ZM865.407 394.456C868.623 394.456 870.567 395.248 870.567 396.664C870.567 398.056 868.623 398.848 865.407 398.848C862.191 398.848 860.223 398.056 860.223 396.664C860.223 395.248 862.191 394.456 865.407 394.456ZM865.407 400.744C870.135 400.744 873.135 399.208 873.135 396.664C873.135 394.096 870.135 392.536 865.407 392.536C860.679 392.536 857.679 394.096 857.679 396.664C857.679 399.208 860.679 400.744 865.407 400.744ZM870.399 411.616H860.391V408.304H870.399V411.616ZM875.199 404.152V402.16H855.591V404.152H864.159V406.336H857.943V413.584H872.823V406.336H866.631V404.152H875.199ZM879.301 416.776C881.557 413.128 882.877 409.264 882.877 404.488C882.877 399.76 881.557 395.848 879.301 392.224L877.573 392.968C879.637 396.424 880.597 400.48 880.597 404.488C880.597 408.52 879.637 412.576 877.573 416.008L879.301 416.776Z" fill="#4F4F4F"/>
<path d="M1400.09 531.472V533.488H1407.53C1407.12 536.776 1404.17 539.416 1399.1 540.76L1400.06 542.728C1406.47 541.024 1410.19 537.088 1410.19 531.472H1400.09ZM1404.74 545.296H1413.7V549.592H1404.74V545.296ZM1402.3 551.584H1416.14V543.328H1402.3V551.584ZM1419.22 535.192H1416.14V530.152H1413.67V542.392H1416.14V537.232H1419.22V535.192ZM1428.89 531.976H1426.41V535.528C1426.41 539.536 1424.3 543.64 1420.92 545.296L1422.43 547.288C1424.9 546.016 1426.73 543.496 1427.66 540.496C1428.6 543.328 1430.33 545.68 1432.65 546.88L1434.17 544.912C1430.9 543.304 1428.89 539.392 1428.89 535.528V531.976ZM1441.46 538.768H1438.08V530.176H1435.61V551.848H1438.08V540.808H1441.46V538.768ZM1454.61 542.896V544.624H1458.86V546.64H1461.33V530.152H1458.86V542.896H1454.61ZM1450.29 532.816C1452.07 532.816 1453.29 533.584 1453.29 534.808C1453.29 536.032 1452.07 536.8 1450.29 536.8C1448.49 536.8 1447.27 536.032 1447.27 534.808C1447.27 533.584 1448.49 532.816 1450.29 532.816ZM1450.29 538.624C1453.46 538.624 1455.64 537.112 1455.64 534.808C1455.64 532.504 1453.46 530.992 1450.29 530.992C1447.1 530.992 1444.92 532.504 1444.92 534.808C1444.92 537.112 1447.1 538.624 1450.29 538.624ZM1449.31 545.944H1451.78V541.768C1453.63 541.648 1455.52 541.456 1457.35 541.144L1457.16 539.368C1452.57 539.944 1447.24 539.992 1443.26 540.016L1443.57 542.032C1445.3 542.032 1447.24 542.008 1449.31 541.912V545.944ZM1448.66 549.424V545.032H1446.19V551.44H1461.84V549.424H1448.66ZM1489.64 540.424C1485.37 539.704 1481.89 536.488 1481.89 533.128V531.496H1479.27V533.128C1479.27 536.464 1475.79 539.704 1471.5 540.424L1472.55 542.488C1476.08 541.792 1479.15 539.632 1480.59 536.752C1481.99 539.632 1485.06 541.792 1488.61 542.488L1489.64 540.424ZM1481.79 547.12V542.056H1479.32V547.12H1470.85V549.16H1490.48V547.12H1481.79ZM1511.38 537.064C1507.04 536.488 1503.97 534.088 1503.97 531.352V530.536H1501.42V531.352C1501.42 534.04 1498.28 536.488 1494.01 537.064L1494.92 538.984C1498.42 538.456 1501.3 536.8 1502.67 534.496C1504.06 536.824 1506.97 538.432 1510.45 538.984L1511.38 537.064ZM1495.09 546.736H1507.64V551.872H1510.11V544.744H1495.09V546.736ZM1503.92 540.88V537.808H1501.45V540.88H1492.9V542.872H1512.56V540.88H1503.92ZM1540.03 540.784V538.792H1537.1C1537.58 536.32 1537.58 534.448 1537.58 532.816V531.16H1522.84V533.152H1535.16C1535.16 534.712 1535.11 536.464 1534.63 538.792H1520.4V540.784H1528.94V544.336H1522.39V546.328H1535.2V551.848H1537.68V544.336H1531.44V540.784H1540.03ZM1543.53 532.456V534.472H1551.11C1550.61 539.464 1547.75 543.28 1542.45 545.992L1543.82 547.888C1550.9 544.312 1553.59 538.744 1553.59 532.456H1543.53ZM1562.54 538.72H1559.25V530.152H1556.78V551.824H1559.25V540.784H1562.54V538.72ZM1577.92 540.472C1574.58 539.392 1572.62 536.728 1572.62 533.968V533.56H1577.25V531.568H1565.39V533.56H1570.1V533.968C1570.1 536.896 1568.15 539.704 1564.72 540.856L1566.02 542.8C1568.61 541.888 1570.43 540.088 1571.39 537.784C1572.35 539.92 1574.18 541.6 1576.67 542.392L1577.92 540.472ZM1567.79 546.328H1579.94V551.848H1582.41V544.336H1567.79V546.328ZM1579.94 530.152V543.256H1582.41V530.152H1579.94ZM1595.43 550H1598.26C1598.55 543.088 1599.2 539.176 1603.35 534.016V532.312H1591.97V534.664H1600.28C1596.87 539.416 1595.74 543.544 1595.43 550ZM1620.4 549.592H1610.6V547.072H1620.4V549.592ZM1620.4 545.152H1610.6V542.56H1608.16V551.584H1622.87V542.56H1620.4V545.152ZM1622.36 538.84C1622.89 536.272 1622.89 534.448 1622.89 532.768V531.112H1608.18V533.104H1620.47C1620.47 534.688 1620.42 536.464 1619.92 538.84H1605.71V540.856H1625.34V538.84H1622.36ZM1634.04 531.472V533.488H1641.48C1641.07 536.776 1638.12 539.416 1633.06 540.76L1634.02 542.728C1640.43 541.024 1644.15 537.088 1644.15 531.472H1634.04ZM1638.7 545.296H1647.65V549.592H1638.7V545.296ZM1636.25 551.584H1650.1V543.328H1636.25V551.584ZM1653.17 535.192H1650.1V530.152H1647.63V542.392H1650.1V537.232H1653.17V535.192ZM1662.84 531.976H1660.37V535.528C1660.37 539.536 1658.26 543.64 1654.87 545.296L1656.38 547.288C1658.86 546.016 1660.68 543.496 1661.62 540.496C1662.55 543.328 1664.28 545.68 1666.61 546.88L1668.12 544.912C1664.86 543.304 1662.84 539.392 1662.84 535.528V531.976ZM1675.42 538.768H1672.03V530.176H1669.56V551.848H1672.03V540.808H1675.42V538.768ZM1679.3 540.784C1682.88 540.256 1685.81 538.48 1687.13 536.08C1688.45 538.48 1691.4 540.256 1694.97 540.784L1695.86 538.84C1691.73 538.288 1688.69 535.912 1688.54 533.392H1695.09V531.4H1679.13V533.392H1685.73C1685.59 535.912 1682.54 538.288 1678.41 538.84L1679.3 540.784ZM1696.94 542.368H1677.33V544.36H1685.83V551.872H1688.3V544.36H1696.92L1696.94 542.368ZM1707 531.976H1704.52V535.528C1704.52 539.536 1702.41 543.64 1699.03 545.296L1700.54 547.288C1703.01 546.016 1704.84 543.496 1705.77 540.496C1706.71 543.328 1708.44 545.68 1710.76 546.88L1712.28 544.912C1709.01 543.304 1707 539.392 1707 535.528V531.976ZM1719.57 538.768H1716.19V530.176H1713.72V551.848H1716.19V540.808H1719.57V538.768ZM1726.15 537.256H1736.42V540.808H1726.15V537.256ZM1732.51 547.168V542.8H1738.87V531.616H1736.42V535.264H1726.15V531.616H1723.7V542.8H1730.03V547.168H1721.49V549.208H1741.12V547.168H1732.51ZM1400.06 580H1410.14V577.72H1406.69V562.312H1404.6C1403.59 562.96 1402.42 563.368 1400.76 563.68V565.432H1403.93V577.72H1400.06V580ZM1428.39 576.184H1430.86V560.176H1428.39V562.816H1422.63V564.784H1428.39V566.92H1422.63V568.888H1428.39V576.184ZM1425.03 570.376C1422.03 570.904 1419.42 571.072 1416.61 571.096V561.664H1414.14V573.136H1415.82C1419.03 573.136 1421.91 572.992 1425.27 572.392L1425.03 570.376ZM1419.27 579.424V574.768H1416.8V581.44H1431.42V579.424H1419.27ZM1448.85 570.28H1443.57V564.016H1448.85V570.28ZM1451.28 562.024H1441.12V572.272H1451.28V562.024ZM1446.07 574.504H1443.57V581.44H1458.16V579.424H1446.07V574.504ZM1457.3 566.608V560.152H1454.83V576.04H1457.3V568.648H1460.37V566.608H1457.3ZM1467.33 574.912C1465.84 574.912 1464.93 572.968 1464.93 569.536C1464.93 566.104 1465.84 564.184 1467.33 564.184C1468.82 564.184 1469.73 566.104 1469.73 569.536C1469.73 572.968 1468.82 574.912 1467.33 574.912ZM1474.27 568.384H1471.94C1471.67 564.328 1469.92 561.856 1467.33 561.856C1464.52 561.856 1462.67 564.784 1462.67 569.536C1462.67 574.288 1464.52 577.24 1467.33 577.24C1469.97 577.24 1471.75 574.648 1471.96 570.424H1474.27V580.816H1476.57V560.584H1474.27V568.384ZM1478.61 560.176V581.824H1480.96V560.176H1478.61ZM1499.7 562.96C1502.79 562.96 1504.83 564.016 1504.83 565.768C1504.83 567.544 1502.79 568.6 1499.7 568.6C1496.58 568.6 1494.54 567.544 1494.54 565.768C1494.54 564.016 1496.58 562.96 1499.7 562.96ZM1499.7 570.592C1504.26 570.592 1507.38 568.72 1507.38 565.768C1507.38 562.84 1504.26 560.968 1499.7 560.968C1495.11 560.968 1491.99 562.84 1491.99 565.768C1491.99 568.72 1495.11 570.592 1499.7 570.592ZM1509.56 572.44H1489.9V574.48H1498.42V581.848H1500.9V574.48H1509.56V572.44ZM1521.8 562.24C1525.16 562.24 1526.96 562.888 1526.96 564.136C1526.96 565.384 1525.16 566.032 1521.8 566.032C1518.44 566.032 1516.64 565.384 1516.64 564.136C1516.64 562.888 1518.44 562.24 1521.8 562.24ZM1521.8 567.88C1526.65 567.88 1529.53 566.56 1529.53 564.136C1529.53 561.712 1526.65 560.392 1521.8 560.392C1516.93 560.392 1514.07 561.712 1514.07 564.136C1514.07 566.56 1516.93 567.88 1521.8 567.88ZM1531.59 571.024V569.056H1511.98V571.024H1520.53V572.776H1514.31V574.648H1526.72V576.208H1514.36V581.656H1529.77V579.76H1516.81V577.96H1529.14V572.776H1523.02V571.024H1531.59ZM1535.93 569.248C1539.72 568.84 1542.7 567.28 1543.88 565.048C1545.03 567.28 1547.98 568.84 1551.82 569.248L1552.68 567.328C1548.65 566.92 1545.84 565.192 1545.53 563.224H1551.89V561.232H1535.88V563.224H1542.2C1541.88 565.192 1539.08 566.92 1535.04 567.328L1535.93 569.248ZM1543.83 579.904C1540.66 579.904 1538.88 579.208 1538.88 577.888C1538.88 576.544 1540.66 575.848 1543.83 575.848C1547 575.848 1548.8 576.544 1548.8 577.888C1548.8 579.208 1547 579.904 1543.83 579.904ZM1543.83 573.904C1539.2 573.904 1536.36 575.368 1536.36 577.888C1536.36 580.408 1539.2 581.848 1543.83 581.848C1548.48 581.848 1551.29 580.408 1551.29 577.888C1551.29 575.368 1548.48 573.904 1543.83 573.904ZM1534.06 570.352V572.344H1553.67V570.352H1534.06ZM1565.95 562.36C1569.31 562.36 1571.11 563.008 1571.11 564.256C1571.11 565.48 1569.31 566.128 1565.95 566.128C1562.59 566.128 1560.79 565.48 1560.79 564.256C1560.79 563.008 1562.59 562.36 1565.95 562.36ZM1565.95 567.976C1570.8 567.976 1573.68 566.656 1573.68 564.256C1573.68 561.832 1570.8 560.512 1565.95 560.512C1561.08 560.512 1558.23 561.832 1558.23 564.256C1558.23 566.656 1561.08 567.976 1565.95 567.976ZM1560.96 577.96H1573.3V572.776H1558.47V574.648H1570.87V576.208H1558.51V581.656H1573.92V579.76H1560.96V577.96ZM1556.14 569.248V571.216H1575.77V569.248H1556.14ZM1586.29 566.512C1586.29 564.64 1587.66 563.392 1589.56 563.392C1591.43 563.392 1592.85 564.64 1592.85 566.512C1592.85 568.408 1591.43 569.656 1589.56 569.656C1587.66 569.656 1586.29 568.408 1586.29 566.512ZM1599.11 567.472V572.536H1601.58V560.176H1599.11V565.456H1595.1C1594.6 562.984 1592.39 561.304 1589.56 561.304C1586.34 561.304 1583.92 563.464 1583.92 566.512C1583.92 569.584 1586.34 571.744 1589.56 571.744C1592.44 571.744 1594.67 570.016 1595.1 567.472H1599.11ZM1589.82 579.592V575.656H1601.73V573.664H1587.35V581.584H1602.04V579.592H1589.82ZM1620.68 564.328C1620.68 566.92 1620.68 569.992 1619.84 574.24L1622.34 574.504C1623.18 570.016 1623.18 567.016 1623.18 564.328V562.192H1607.75V564.208H1620.68V564.328ZM1615.5 576.976V569.344H1613V576.976H1605.71V579.016H1625.29V576.976H1615.5ZM1399.06 610H1410.46V607.648H1406.04C1405.18 607.648 1404.07 607.72 1403.16 607.816C1406.9 604.24 1409.62 600.712 1409.62 597.304C1409.62 594.112 1407.53 592 1404.29 592C1401.98 592 1400.42 592.984 1398.91 594.64L1400.47 596.176C1401.41 595.096 1402.56 594.208 1403.95 594.208C1405.94 594.208 1406.95 595.528 1406.95 597.448C1406.95 600.352 1404.26 603.784 1399.06 608.392V610ZM1428.39 606.184H1430.86V590.176H1428.39V592.816H1422.63V594.784H1428.39V596.92H1422.63V598.888H1428.39V606.184ZM1425.03 600.376C1422.03 600.904 1419.42 601.072 1416.61 601.096V591.664H1414.14V603.136H1415.82C1419.03 603.136 1421.91 602.992 1425.27 602.392L1425.03 600.376ZM1419.27 609.424V604.768H1416.8V611.44H1431.42V609.424H1419.27ZM1448.85 600.28H1443.57V594.016H1448.85V600.28ZM1451.28 592.024H1441.12V602.272H1451.28V592.024ZM1446.07 604.504H1443.57V611.44H1458.16V609.424H1446.07V604.504ZM1457.3 596.608V590.152H1454.83V606.04H1457.3V598.648H1460.37V596.608H1457.3ZM1467.33 604.912C1465.84 604.912 1464.93 602.968 1464.93 599.536C1464.93 596.104 1465.84 594.184 1467.33 594.184C1468.82 594.184 1469.73 596.104 1469.73 599.536C1469.73 602.968 1468.82 604.912 1467.33 604.912ZM1474.27 598.384H1471.94C1471.67 594.328 1469.92 591.856 1467.33 591.856C1464.52 591.856 1462.67 594.784 1462.67 599.536C1462.67 604.288 1464.52 607.24 1467.33 607.24C1469.97 607.24 1471.75 604.648 1471.96 600.424H1474.27V610.816H1476.57V590.584H1474.27V598.384ZM1478.61 590.176V611.824H1480.96V590.176H1478.61ZM1496.91 591.688C1493.53 591.688 1491.03 593.824 1491.03 596.896C1491.03 599.968 1493.53 602.104 1496.91 602.104C1500.3 602.104 1502.82 599.968 1502.82 596.896C1502.82 593.824 1500.3 591.688 1496.91 591.688ZM1496.91 593.8C1498.93 593.8 1500.39 595 1500.39 596.896C1500.39 598.768 1498.93 599.992 1496.91 599.992C1494.92 599.992 1493.46 598.768 1493.46 596.896C1493.46 595 1494.92 593.8 1496.91 593.8ZM1505.26 590.152V611.872H1507.76V590.152H1505.26ZM1490.34 607.288C1494.18 607.288 1499.36 607.24 1504.14 606.328L1503.97 604.528C1499.31 605.224 1493.91 605.248 1490.02 605.248L1490.34 607.288ZM1523.24 602.896V604.624H1527.49V606.64H1529.96V590.152H1527.49V602.896H1523.24ZM1518.92 592.816C1520.69 592.816 1521.92 593.584 1521.92 594.808C1521.92 596.032 1520.69 596.8 1518.92 596.8C1517.12 596.8 1515.89 596.032 1515.89 594.808C1515.89 593.584 1517.12 592.816 1518.92 592.816ZM1518.92 598.624C1522.09 598.624 1524.27 597.112 1524.27 594.808C1524.27 592.504 1522.09 590.992 1518.92 590.992C1515.73 590.992 1513.54 592.504 1513.54 594.808C1513.54 597.112 1515.73 598.624 1518.92 598.624ZM1517.93 605.944H1520.41V601.768C1522.25 601.648 1524.15 601.456 1525.97 601.144L1525.78 599.368C1521.2 599.944 1515.87 599.992 1511.89 600.016L1512.2 602.032C1513.93 602.032 1515.87 602.008 1517.93 601.912V605.944ZM1517.29 609.424V605.032H1514.81V611.44H1530.46V609.424H1517.29ZM1542.65 600.376H1537.44V593.944H1542.65V600.376ZM1549.56 595.816V598.456H1545.05V595.816H1549.56ZM1545.05 600.448H1549.56V605.992H1552.04V590.176H1549.56V593.8H1545.05V591.976H1535.02V602.344H1545.05V600.448ZM1540.42 609.424V604.552H1537.92V611.44H1552.54V609.424H1540.42ZM1569.53 600.472C1566.19 599.392 1564.23 596.728 1564.23 593.968V593.56H1568.86V591.568H1557V593.56H1561.71V593.968C1561.71 596.896 1559.76 599.704 1556.33 600.856L1557.63 602.8C1560.22 601.888 1562.04 600.088 1563 597.784C1563.96 599.92 1565.79 601.6 1568.28 602.392L1569.53 600.472ZM1559.4 606.328H1571.55V611.848H1574.02V604.336H1559.4V606.328ZM1571.55 590.152V603.256H1574.02V590.152H1571.55Z" fill="#4F4F4F"/>
<path d="M1605.94 475.202L1576.7 469.087V473.278C1576.72 473.667 1576.72 474.058 1576.7 474.447L1597.9 478.881L1531.78 516.109L1521.2 513.892C1519.08 515.109 1516.68 515.747 1514.23 515.744H1503.92L1531.73 521.567C1532.04 521.643 1532.37 521.656 1532.69 521.606C1533 521.556 1533.31 521.443 1533.58 521.274L1606.7 480.148C1607.15 479.878 1607.52 479.477 1607.75 478.997C1607.97 478.517 1608.05 477.981 1607.97 477.456C1607.89 476.932 1607.65 476.444 1607.29 476.055C1606.93 475.666 1606.46 475.395 1605.94 475.275V475.202Z" fill="#4F4F4F"/>
<path d="M1473.43 452.885L1476.19 453.47C1476.65 452.885 1477.16 452.325 1477.65 451.789V448.304L1473.56 447.452C1472.92 447.327 1472.27 447.431 1471.7 447.744L1456.01 456.564C1458.81 456.677 1461.58 457.177 1464.25 458.05L1473.43 452.885Z" fill="#4F4F4F"/>
<path d="M1571.43 473.278V409.931C1571.47 409.182 1571.37 408.432 1571.12 407.724C1570.87 407.016 1570.49 406.364 1569.99 405.805C1569.49 405.246 1568.88 404.791 1568.21 404.466C1567.53 404.142 1566.79 403.954 1566.05 403.913L1490.42 388.15C1486.33 387.297 1483.11 390.148 1483.11 394.996V447.33C1485.04 446.082 1487.12 445.076 1489.3 444.333V396.044C1489.3 395.839 1489.35 395.637 1489.44 395.452C1489.53 395.266 1489.65 395.103 1489.81 394.972C1489.97 394.84 1490.15 394.747 1490.35 394.7C1490.55 394.653 1490.76 394.655 1490.96 394.704L1564.05 409.931C1564.36 409.998 1564.64 410.171 1564.84 410.419C1565.04 410.667 1565.15 410.977 1565.14 411.296V466.992C1565.15 467.203 1565.11 467.413 1565.02 467.605C1564.93 467.797 1564.8 467.966 1564.63 468.096C1564.47 468.227 1564.27 468.317 1564.06 468.357C1563.86 468.398 1563.64 468.39 1563.44 468.332L1524.66 459.268C1527.18 464.447 1528.03 470.276 1527.1 475.958L1543.58 479.856V475.324L1563.83 480.197C1564.81 480.422 1565.84 480.405 1566.81 480.148C1567.79 479.891 1568.69 479.402 1569.44 478.723C1570.18 478.043 1570.76 477.193 1571.1 476.245C1571.45 475.297 1571.56 474.279 1571.43 473.278Z" fill="#4F4F4F"/>
<path d="M1531.51 502.904C1532.33 503.066 1533.18 502.972 1533.95 502.636L1553.45 493.548C1553.93 493.349 1554.34 492.997 1554.62 492.544C1554.89 492.092 1555 491.563 1554.95 491.039C1554.89 490.514 1554.67 490.021 1554.31 489.635C1553.95 489.248 1553.48 488.989 1552.96 488.895L1525.3 482.511C1524.32 484.856 1523.05 487.066 1521.52 489.09C1523.68 490.403 1525.45 492.271 1526.64 494.499C1527.83 496.728 1528.4 499.235 1528.29 501.759C1528.29 501.881 1528.29 502.003 1528.29 502.124L1531.51 502.904Z" fill="#4F4F4F"/>
<path d="M1489.13 485.045C1494.27 485.362 1505.36 485.971 1512.84 486.361C1514.05 486.416 1515.25 486.596 1516.43 486.897C1518.71 484.226 1520.37 481.075 1521.28 477.677C1522.19 474.278 1522.32 470.719 1521.67 467.263C1521.01 463.807 1519.59 460.543 1517.5 457.711C1515.41 454.879 1512.72 452.553 1509.61 450.904C1506.5 449.255 1503.06 448.326 1499.55 448.185C1496.03 448.044 1492.53 448.695 1489.3 450.09C1486.07 451.485 1483.19 453.588 1480.89 456.244C1478.58 458.9 1476.9 462.04 1475.97 465.432C1477.69 467.174 1479.23 469.093 1480.55 471.158C1482.89 474.788 1486.86 481.464 1489.13 485.045Z" fill="#4F4F4F"/>
<path d="M1455.96 502.514L1448.48 496.107L1453.21 490.576L1468.49 504.951C1472.69 508.292 1477.88 510.151 1483.26 510.238H1514.23C1525.27 510.238 1526.71 492.233 1512.57 491.526C1502.46 491.014 1486.03 490.064 1486.03 490.064C1486.03 490.064 1479.28 478.857 1476.07 473.887C1473.86 470.126 1470.69 467.017 1466.89 464.877C1463.09 462.737 1458.79 461.642 1454.42 461.705C1445.71 462.025 1437.35 465.24 1430.66 470.841C1415.28 484.046 1404 512.82 1404 512.82H1450.55L1455.96 502.514Z" fill="#4F4F4F"/>
<path d="M1500.27 412.027L1513.45 414.828V410.345L1500.27 407.544V412.027Z" fill="#4F4F4F"/>
<path d="M1518.25 411.417V415.9L1523.13 416.899V412.416L1518.25 411.417Z" fill="#4F4F4F"/>
<path d="M1527.93 417.971L1538.48 420.164V415.681L1527.93 413.488V417.971Z" fill="#4F4F4F"/>
<path d="M1554.18 419.019L1543.31 416.753V421.236L1554.18 423.502V419.019Z" fill="#4F4F4F"/>
<path d="M1500.27 439.168L1513.45 441.97V437.487L1500.27 434.685V439.168Z" fill="#4F4F4F"/>
<path d="M1523.13 444.016V439.534L1518.25 438.559V443.042L1523.13 444.016Z" fill="#4F4F4F"/>
<path d="M1527.93 445.088L1538.48 447.306V442.823L1527.93 440.605V445.088Z" fill="#4F4F4F"/>
<path d="M1500.27 425.597L1507.07 427.035V422.552L1500.27 421.114V425.597Z" fill="#4F4F4F"/>
<path d="M1511.87 428.107L1525.25 430.909V426.426L1511.87 423.624V428.107Z" fill="#4F4F4F"/>
<path d="M1530.05 431.981L1540.63 434.173V429.69L1530.05 427.498V431.981Z" fill="#4F4F4F"/>
<path d="M1554.18 437.073V432.59L1545.43 430.762V435.245L1554.18 437.073Z" fill="#4F4F4F"/>
<path d="M1417.07 937.276H1420.76V917.62H1417.07V924.032H1413.71V926.972H1417.07V929.548H1413.71V932.488H1417.07V937.276ZM1413.43 920.336H1408.39V917.536H1404.69V920.336H1399.29V923.22H1413.43V920.336ZM1403.96 929.184C1403.96 927.784 1405.03 926.972 1406.54 926.972C1408.02 926.972 1409.09 927.784 1409.09 929.184C1409.09 930.64 1408.02 931.424 1406.54 931.424C1405.03 931.424 1403.96 930.64 1403.96 929.184ZM1412.56 929.184C1412.56 926.216 1410.04 924.144 1406.54 924.144C1403.01 924.144 1400.49 926.216 1400.49 929.184C1400.49 932.18 1403.01 934.28 1406.54 934.28C1410.04 934.28 1412.56 932.18 1412.56 929.184ZM1407.44 940.02V935.68H1403.74V942.96H1421.32V940.02H1407.44ZM1443.78 917.592V927.476H1441.68V918.012H1438.23V934.7C1434.43 932.712 1433.14 928.428 1433.14 923.92V923.22H1437V920.224H1425.33V923.22H1429.55V923.92C1429.55 928.876 1428.32 933.44 1424.49 935.68L1426.7 938.48C1429.11 937.024 1430.62 934.616 1431.46 931.648C1432.35 934.224 1433.87 936.296 1436.16 937.528L1438.23 934.756V942.232H1441.68V930.5H1443.78V943.38H1447.28V917.592H1443.78ZM1457.06 941H1470.95V937.528H1466.47C1465.49 937.528 1464.12 937.64 1463.08 937.752C1466.86 934.056 1469.97 930.024 1469.97 926.272C1469.97 922.408 1467.37 919.888 1463.45 919.888C1460.62 919.888 1458.77 920.98 1456.87 923.024L1459.11 925.264C1460.17 924.116 1461.4 923.136 1462.92 923.136C1464.9 923.136 1466.02 924.396 1466.02 926.496C1466.02 929.688 1462.69 933.58 1457.06 938.62V941ZM1491.42 936.576H1495.11V917.62H1491.42V920.476H1485.17V923.388H1491.42V925.292H1485.17V928.204H1491.42V936.576ZM1487.75 929.436C1484.58 929.996 1481.73 930.192 1478.62 930.248V919.244H1474.95V933.272H1477.02C1480.89 933.272 1484.3 933.132 1488.11 932.432L1487.75 929.436ZM1481.81 940.02V934.896H1478.12V942.96H1495.7V940.02H1481.81ZM1514.98 924.76H1520.1V921.82H1515.01V918.236H1511.31V921.82H1506.07V924.76H1511.31V925.656C1511.31 929.52 1509.38 933.888 1505.21 935.82L1507.19 938.648C1510.08 937.36 1512.07 934.756 1513.19 931.676C1514.25 934.532 1516.13 936.94 1518.87 938.2L1520.83 935.4C1516.8 933.468 1514.98 929.296 1514.98 925.656V924.76ZM1529.59 927.644H1525.84V917.648H1522.15V943.408H1525.84V930.696H1529.59V927.644ZM1547.83 930.248V932.656H1551.64V933.44H1555.09V918.068H1551.64V930.248H1547.83ZM1544.28 920.98C1545.73 920.98 1546.63 921.428 1546.63 922.352C1546.63 923.276 1545.73 923.696 1544.28 923.696C1542.85 923.696 1541.93 923.276 1541.93 922.352C1541.93 921.428 1542.85 920.98 1544.28 920.98ZM1544.28 926.216C1547.64 926.216 1549.91 924.732 1549.91 922.352C1549.91 919.972 1547.64 918.488 1544.28 918.488C1540.92 918.488 1538.65 919.972 1538.65 922.352C1538.65 924.732 1540.92 926.216 1544.28 926.216ZM1542.65 933.328H1546.15V929.604C1547.75 929.436 1549.35 929.212 1550.83 928.904L1550.58 926.468C1546.49 927.112 1540.95 927.168 1537.59 927.168L1537.89 929.912C1539.24 929.912 1540.89 929.912 1542.65 929.828V933.328ZM1556.4 940.272H1545.37V938.732H1556.4V940.272ZM1556.4 936.016H1545.37V934.336H1541.7V943.1H1560.07V934.336H1556.4V936.016ZM1556.54 917.62V933.468H1560.07V917.62H1556.54ZM1584.11 930.528H1578.84V922.8H1584.11V930.528ZM1575.18 930.528H1571.82V933.468H1591.19V930.528H1587.78V922.8H1591.28V919.86H1571.68V922.8H1575.18V930.528ZM1569.86 937.416V940.412H1593.21V937.416H1569.86ZM1613.48 936.604H1617.17V917.62H1613.48V923.808H1609.47V926.916H1613.48V936.604ZM1609.95 929.716C1606.87 930.192 1604.21 930.304 1600.26 930.332V927.588H1608.19V919.328H1596.57V922.268H1604.55V924.816H1596.59V933.3H1598.72C1603.59 933.3 1606.73 933.216 1610.23 932.656L1609.95 929.716ZM1603.73 940.02V935.092H1600.04V942.96H1617.82V940.02H1603.73ZM1642.23 930.92H1627.87V928.036H1641.45V925.18H1627.87V922.464H1642.04V919.496H1624.12V933.832H1642.23V930.92ZM1621.37 937.444V940.44H1644.72V937.444H1621.37ZM1669.11 917.62H1665.61V936.8H1669.11V917.62ZM1650.52 925.992C1650.52 923.864 1651.61 922.66 1653.12 922.66C1654.63 922.66 1655.73 923.864 1655.73 925.992C1655.73 928.092 1654.63 929.324 1653.12 929.324C1651.61 929.324 1650.52 928.092 1650.52 925.992ZM1660.49 927.56V936.044H1663.93V918.068H1660.49V924.592H1658.89C1658.36 921.568 1656.09 919.496 1653.12 919.496C1649.71 919.496 1647.21 922.184 1647.21 925.992C1647.21 929.828 1649.71 932.516 1653.12 932.516C1656.03 932.516 1658.27 930.528 1658.86 927.56H1660.49ZM1655.45 940.02V934.364H1651.75V942.96H1669.75V940.02H1655.45ZM1693.75 929.52H1679.3V922.744H1693.55V919.748H1675.6V932.46H1693.75V929.52ZM1672.89 937.304V940.328H1696.24V937.304H1672.89ZM1705.97 920.812V923.752H1712.49C1712.02 928.82 1709.83 932.544 1704.65 935.568L1706.81 938.144C1714.01 933.944 1716.13 928.036 1716.13 920.812H1705.97ZM1723.55 917.62V927.336H1721.26V918.292H1717.81V942.316H1721.26V930.304H1723.55V943.408H1727.08V917.62H1723.55ZM1740.21 927.168H1735.14V924.592H1740.21V927.168ZM1743.85 918.74H1740.21V921.82H1735.14V918.74H1731.5V930.052H1743.85V918.74ZM1737.72 938.732H1751.05V931.732H1734.02V934.532H1747.41V936.1H1734.05V943.212H1751.8V940.356H1737.72V938.732ZM1751.05 922.604V917.62H1747.35V930.724H1751.05V925.6H1754.43V922.604H1751.05ZM1765.97 923.136H1771.09V920.084H1756.92V923.136H1762.27V924.564C1762.27 928.82 1760.17 933.664 1755.94 935.624L1758.02 938.564C1760.96 937.164 1763.03 934.336 1764.18 930.976C1765.32 934.028 1767.34 936.604 1770.2 937.92L1772.24 935.008C1768.01 933.048 1765.97 928.484 1765.97 924.564V923.136ZM1780.44 927.448H1776.69V917.62H1773V943.408H1776.69V930.5H1780.44V927.448ZM1404.55 980.656L1407.13 979.564C1404.78 975.476 1403.71 970.772 1403.71 966.152C1403.71 961.588 1404.78 956.856 1407.13 952.768L1404.55 951.676C1401.92 955.988 1400.38 960.58 1400.38 966.152C1400.38 971.78 1401.92 976.316 1404.55 980.656ZM1425.91 954.476H1420.03V951.704H1416.34V954.476H1410.43V957.36H1425.91V954.476ZM1415.3 963.212C1415.3 961.896 1416.48 961.168 1418.19 961.168C1419.92 961.168 1421.07 961.896 1421.07 963.212C1421.07 964.556 1419.92 965.284 1418.19 965.284C1416.48 965.284 1415.3 964.556 1415.3 963.212ZM1420.03 967.888C1422.78 967.356 1424.57 965.62 1424.57 963.212C1424.57 960.328 1421.94 958.368 1418.19 958.368C1414.41 958.368 1411.77 960.328 1411.77 963.212C1411.77 965.62 1413.57 967.356 1416.34 967.888V970.072C1414.04 970.128 1411.86 970.128 1409.93 970.128L1410.37 973.124C1414.94 973.124 1420.9 973.096 1426.53 972.06L1426.25 969.372C1424.23 969.652 1422.13 969.792 1420.03 969.932V967.888ZM1427.59 951.62V977.408H1431.29V951.62H1427.59ZM1445.04 953.608H1441.31V957.36C1441.31 962.148 1439.35 967.076 1435.01 969.12L1437.22 972.116C1440.14 970.688 1442.07 967.972 1443.19 964.696C1444.25 967.776 1446.07 970.268 1448.76 971.64L1451 968.728C1446.86 966.684 1445.04 962.008 1445.04 957.36V953.608ZM1459.48 961.532H1455.73V951.62H1452.04V977.408H1455.73V964.612H1459.48V961.532ZM1483.72 963.464C1479.63 962.12 1477.73 959.096 1477.67 956.072H1482.77V953.16H1468.74V956.072H1473.92C1473.86 959.264 1471.96 962.54 1467.76 963.884L1469.63 966.768C1472.63 965.788 1474.7 963.772 1475.85 961.252C1477.03 963.548 1478.99 965.396 1481.84 966.292L1483.72 963.464ZM1471.51 971.248H1485.34V977.436H1489.07V968.308H1471.51V971.248ZM1485.34 951.62V967.16H1489.07V951.62H1485.34ZM1506.17 963.688C1502.95 962.54 1501.52 960.104 1501.52 957.5V957.416H1505.42V954.504H1501.52V951.844H1498.02V954.504H1494.1V957.416H1498.02V957.5C1498.02 960.244 1496.65 962.876 1493.38 964.108L1495.06 966.852C1497.41 965.984 1498.95 964.36 1499.82 962.372C1500.71 964.192 1502.22 965.648 1504.52 966.404L1506.17 963.688ZM1497.63 971.5H1511.69V977.436H1515.38V968.532H1497.63V971.5ZM1511.88 951.62V958.088H1509.95V952.068H1506.54V967.3H1509.95V961.056H1511.88V967.44H1515.38V951.62H1511.88ZM1522.49 964.752C1523.98 964.752 1525.07 963.604 1525.07 962.092C1525.07 960.552 1523.98 959.404 1522.49 959.404C1521.04 959.404 1519.95 960.552 1519.95 962.092C1519.95 963.604 1521.04 964.752 1522.49 964.752ZM1522.49 975.392C1523.98 975.392 1525.07 974.216 1525.07 972.704C1525.07 971.164 1523.98 970.016 1522.49 970.016C1521.04 970.016 1519.95 971.164 1519.95 972.704C1519.95 974.216 1521.04 975.392 1522.49 975.392ZM1557.18 963.38C1551.3 962.428 1548.13 958.564 1548.13 954.896V953.048H1544.19V954.896C1544.19 958.48 1540.99 962.428 1535.17 963.38L1536.68 966.432C1541.19 965.62 1544.47 963.184 1546.15 960.02C1547.83 963.212 1551.13 965.62 1555.67 966.432L1557.18 963.38ZM1548.02 971.388V965.62H1544.33V971.388H1534.61V974.356H1557.96V971.388H1548.02ZM1574.62 964.528H1569.36V956.8H1574.62V964.528ZM1565.69 964.528H1562.33V967.468H1581.7V964.528H1578.29V956.8H1581.79V953.86H1562.19V956.8H1565.69V964.528ZM1560.37 971.416V974.412H1583.72V971.416H1560.37ZM1606.99 964.92H1592.62V962.036H1606.2V959.18H1592.62V956.464H1606.79V953.496H1588.87V967.832H1606.99V964.92ZM1586.13 971.444V974.44H1609.48V971.444H1586.13ZM1618.3 955.82C1619.7 955.82 1620.7 956.576 1620.7 957.976C1620.7 959.32 1619.7 960.104 1618.3 960.104C1616.87 960.104 1615.83 959.32 1615.83 957.976C1615.83 956.576 1616.87 955.82 1618.3 955.82ZM1618.3 962.848C1621.57 962.848 1623.98 960.804 1623.98 957.976C1623.98 955.092 1621.57 953.076 1618.3 953.076C1614.99 953.076 1612.56 955.092 1612.56 957.976C1612.56 960.804 1614.99 962.848 1618.3 962.848ZM1624.51 963.576C1620.45 964.136 1614.94 964.192 1611.49 964.192L1611.88 967.188C1613.2 967.188 1614.77 967.188 1616.48 967.104V975.392H1620V966.908C1621.63 966.768 1623.31 966.544 1624.79 966.264L1624.51 963.576ZM1625.77 968.224H1621.74V970.996H1625.77V976.232H1629.22V952.068H1625.77V968.224ZM1630.92 951.648V977.408H1634.42V951.648H1630.92ZM1644.7 968.476C1642.82 968.476 1641.56 966.432 1641.56 962.596C1641.56 958.788 1642.82 956.744 1644.7 956.744C1646.6 956.744 1647.86 958.788 1647.86 962.596C1647.86 966.432 1646.6 968.476 1644.7 968.476ZM1655.59 951.592V960.888H1651.28C1650.77 956.24 1648.17 953.412 1644.7 953.412C1640.86 953.412 1638.03 956.94 1638.03 962.596C1638.03 968.28 1640.86 971.836 1644.7 971.836C1648.28 971.836 1650.91 968.812 1651.31 963.884H1655.59V977.464H1659.29V951.592H1655.59ZM1691.72 951.62H1688.22V970.8H1691.72V951.62ZM1673.13 959.992C1673.13 957.864 1674.22 956.66 1675.74 956.66C1677.25 956.66 1678.34 957.864 1678.34 959.992C1678.34 962.092 1677.25 963.324 1675.74 963.324C1674.22 963.324 1673.13 962.092 1673.13 959.992ZM1683.1 961.56V970.044H1686.54V952.068H1683.1V958.592H1681.5C1680.97 955.568 1678.7 953.496 1675.74 953.496C1672.32 953.496 1669.83 956.184 1669.83 959.992C1669.83 963.828 1672.32 966.516 1675.74 966.516C1678.65 966.516 1680.89 964.528 1681.48 961.56H1683.1ZM1678.06 974.02V968.364H1674.36V976.96H1692.37V974.02H1678.06ZM1705.47 957.136H1710.79V954.084H1696.34V957.136H1701.72V958.564C1701.72 962.96 1699.62 967.692 1695.3 969.624L1697.4 972.564C1700.43 971.192 1702.5 968.364 1703.65 965.004C1704.8 968.112 1706.84 970.632 1709.84 971.92L1711.85 969.008C1707.54 967.216 1705.47 962.764 1705.47 958.564V957.136ZM1713.17 951.62V977.408H1716.86V951.62H1713.17ZM1726.27 954.056H1722.6V971.052H1724.9C1728.82 971.052 1733.1 970.772 1737.5 969.848L1737.11 966.768C1733.33 967.524 1729.66 967.804 1726.27 967.888V954.056ZM1739.09 951.592V977.38H1742.79V951.592H1739.09ZM1754.07 968.476C1752.2 968.476 1750.94 966.432 1750.94 962.596C1750.94 958.788 1752.2 956.744 1754.07 956.744C1755.98 956.744 1757.24 958.788 1757.24 962.596C1757.24 966.432 1755.98 968.476 1754.07 968.476ZM1764.96 951.592V960.888H1760.65C1760.15 956.24 1757.54 953.412 1754.07 953.412C1750.24 953.412 1747.41 956.94 1747.41 962.596C1747.41 968.28 1750.24 971.836 1754.07 971.836C1757.66 971.836 1760.29 968.812 1760.68 963.884H1764.96V977.464H1768.66V951.592H1764.96ZM1775.57 980.656C1778.23 976.316 1779.77 971.78 1779.77 966.152C1779.77 960.58 1778.23 955.988 1775.57 951.676L1773.03 952.768C1775.38 956.856 1776.44 961.588 1776.44 966.152C1776.44 970.772 1775.38 975.476 1773.03 979.564L1775.57 980.656Z" fill="#4F4F4F"/>
<g clip-path="url(#clip2_18_23389)">
<path d="M814.72 601.957C814.72 599.387 813.96 596.875 812.536 594.738C811.112 592.602 809.089 590.939 806.722 589.958C804.356 588.978 801.753 588.725 799.243 589.231C796.733 589.738 794.43 590.981 792.625 592.804C790.819 594.626 789.593 596.946 789.103 599.468C788.612 601.991 788.878 604.603 789.867 606.974C790.856 609.344 792.524 611.367 794.659 612.785C796.795 614.203 799.301 614.952 801.861 614.938C805.28 614.926 808.554 613.552 810.965 611.118C813.375 608.685 814.726 605.39 814.72 601.957Z" fill="#4F4F4F"/>
<path d="M844.164 706.669H866.527C867.024 706.666 867.511 706.536 867.944 706.29C868.376 706.044 868.738 705.692 868.996 705.266C869.259 704.846 869.41 704.365 869.434 703.869C869.458 703.374 869.356 702.88 869.136 702.436L860.098 684.894C858.885 686.376 857.378 687.587 855.672 688.449L861.892 700.939H840.274C842.072 702.452 843.419 704.436 844.164 706.669Z" fill="#4F4F4F"/>
<path d="M837.292 651.472L841.672 660.266L844.63 653.249L841.695 647.238C841.456 646.759 841.091 646.356 840.639 646.071C840.187 645.786 839.666 645.632 839.133 645.624H824.736V636.105C824.736 623.943 819.518 619.008 809.641 618.33L801.861 624.902L793.941 618.33C784.064 619.008 778.823 623.943 778.823 636.105V645.624H763.891C763.353 645.628 762.827 645.78 762.371 646.065C761.915 646.35 761.546 646.756 761.305 647.238L758.37 653.132L761.491 659.962L765.708 651.472H779.102C780.894 646.892 784.018 642.961 788.067 640.19C792.116 637.419 796.903 635.937 801.803 635.937C806.703 635.937 811.49 637.419 815.539 640.19C819.588 642.961 822.712 646.892 824.504 651.472H837.292Z" fill="#4F4F4F"/>
<path d="M743.228 684.31L733.91 702.436C733.688 702.882 733.582 703.378 733.605 703.877C733.627 704.375 733.776 704.86 734.038 705.284C734.299 705.708 734.664 706.059 735.099 706.301C735.533 706.544 736.022 706.67 736.519 706.669H759.418C760.159 704.394 761.513 702.37 763.332 700.822H741.295L747.654 688.028C745.93 687.123 744.42 685.854 743.228 684.31Z" fill="#4F4F4F"/>
<path d="M740.293 677.48L735.355 666.487L739.454 665.365L746.653 678.813C747.237 680.281 748.242 681.542 749.539 682.437C750.837 683.332 752.37 683.821 753.944 683.842H773.348C777.658 683.842 780.174 681.737 780.174 677.831C780.299 676.565 779.972 675.296 779.251 674.25C778.529 673.205 777.461 672.451 776.237 672.124L773.232 664.429C773.049 663.959 772.728 663.556 772.312 663.272C771.897 662.988 771.405 662.837 770.902 662.839C770.598 662.842 770.297 662.906 770.017 663.026C769.704 663.128 769.416 663.295 769.172 663.517C768.928 663.739 768.733 664.01 768.601 664.313C768.469 664.615 768.402 664.943 768.406 665.273C768.409 665.604 768.482 665.93 768.619 666.23L770.646 671.446L759.628 670.089L752.942 655.097C749.751 647.192 744.137 643.777 738.033 643.777C729.671 643.777 723.358 648.712 721.587 659.892L718 686.812H735.238L740.293 677.48Z" fill="#4F4F4F"/>
<path d="M865.036 643.777C858.933 643.777 853.389 647.192 850.128 655.097L843.792 670.136C843.792 670.136 831.562 671.188 826.786 672.171C825.565 672.486 824.502 673.243 823.802 674.296C823.101 675.349 822.812 676.624 822.989 677.878C822.989 681.784 825.505 683.889 829.815 683.889H849.662C851.237 683.87 852.771 683.38 854.066 682.479C855.361 681.579 856.358 680.31 856.93 678.837L863.522 665.365L867.645 666.487L862.707 677.48L867.762 686.836H885L881.483 659.892C879.712 648.712 873.399 643.777 865.036 643.777Z" fill="#4F4F4F"/>
<path d="M801.861 641.765C798.175 641.765 794.572 642.863 791.508 644.919C788.443 646.975 786.054 649.897 784.644 653.316C783.233 656.735 782.864 660.497 783.583 664.127C784.302 667.756 786.077 671.09 788.684 673.707C791.29 676.324 794.61 678.106 798.225 678.828C801.84 679.55 805.587 679.179 808.993 677.763C812.398 676.347 815.308 673.949 817.356 670.872C819.404 667.795 820.497 664.177 820.497 660.476C820.497 655.514 818.533 650.755 815.039 647.246C811.544 643.737 806.804 641.765 801.861 641.765Z" fill="#4F4F4F"/>
<path d="M839.552 728V710.622C839.55 709.006 839.033 707.434 838.078 706.133C837.122 704.833 835.778 703.874 834.241 703.395C833.93 701.481 833.438 699.602 832.773 697.782C830.444 691.35 824.736 683.865 808.826 683.865H794.873C780.896 683.865 773.907 689.362 770.856 697.782C770.207 699.607 769.716 701.485 769.388 703.395C767.836 703.86 766.473 704.814 765.5 706.115C764.527 707.415 763.996 708.995 763.984 710.622V728H769.807V710.622C769.807 710.157 769.992 709.711 770.319 709.382C770.647 709.053 771.091 708.868 771.555 708.868H831.981C832.444 708.868 832.889 709.053 833.216 709.382C833.544 709.711 833.728 710.157 833.728 710.622V728H839.552Z" fill="#4F4F4F"/>
<path d="M765.731 627.872C765.713 624.944 764.831 622.086 763.197 619.66C761.563 617.233 759.25 615.347 756.55 614.239C753.849 613.131 750.883 612.851 748.024 613.434C745.165 614.016 742.543 615.436 740.486 617.514C738.43 619.591 737.033 622.233 736.471 625.107C735.908 627.981 736.206 630.958 737.327 633.662C738.447 636.366 740.34 638.676 742.767 640.302C745.193 641.927 748.045 642.794 750.962 642.794C752.909 642.794 754.838 642.408 756.635 641.657C758.433 640.906 760.066 639.805 761.438 638.418C762.811 637.031 763.897 635.386 764.634 633.576C765.37 631.766 765.743 629.827 765.731 627.872Z" fill="#4F4F4F"/>
<path d="M858.025 641.04C860.946 641.04 863.801 640.171 866.23 638.541C868.659 636.912 870.552 634.596 871.669 631.886C872.787 629.177 873.08 626.195 872.51 623.319C871.94 620.442 870.533 617.8 868.468 615.726C866.402 613.653 863.771 612.24 860.906 611.668C858.041 611.096 855.072 611.39 852.373 612.512C849.674 613.634 847.368 615.535 845.745 617.973C844.122 620.412 843.256 623.279 843.256 626.212C843.256 628.159 843.638 630.087 844.38 631.886C845.122 633.685 846.21 635.32 847.582 636.697C848.953 638.074 850.581 639.166 852.373 639.912C854.165 640.657 856.085 641.04 858.025 641.04Z" fill="#4F4F4F"/>
</g>
<path d="M745.079 753.76C740.807 752.992 737.327 749.656 737.327 746.2V744.568H734.711V746.2C734.711 749.632 731.23 752.968 726.959 753.76L728.015 755.8C731.543 755.08 734.591 752.824 736.007 749.848C737.423 752.824 740.471 755.08 743.999 755.8L745.079 753.76ZM726.287 760.024V762.064H745.919V760.024H726.287ZM751.725 753.112H758.973V751.12H751.725V747.088H759.381V745.048H749.253V759.784H751.005C754.893 759.784 757.773 759.664 761.109 759.136L760.869 757.12C757.821 757.624 755.181 757.744 751.725 757.768V753.112ZM768.525 751.672H765.141V743.152H762.669V764.872H765.141V753.712H768.525V751.672ZM787.891 754.624H775.387V751.648H787.243V749.704H775.387V746.92H787.723V744.928H772.867V756.616H787.891V754.624ZM770.443 760.168V762.184H790.099V760.168H770.443ZM808.025 762.592H798.833V760.192H808.025V762.592ZM808.025 758.272H798.833V755.824H796.385V764.584H810.473V755.824H808.025V758.272ZM798.473 752.248C796.553 752.248 795.185 751.024 795.185 749.2C795.185 747.352 796.553 746.176 798.473 746.176C800.345 746.176 801.737 747.352 801.737 749.2C801.737 751.024 800.345 752.248 798.473 752.248ZM808.001 743.176V748.168H803.993C803.513 745.744 801.329 744.136 798.473 744.136C795.209 744.136 792.809 746.224 792.809 749.2C792.809 752.2 795.209 754.288 798.473 754.288C801.353 754.288 803.561 752.632 803.993 750.184H808.001V754.792H810.473V743.176H808.001ZM829.782 745.648C832.83 745.648 834.822 746.536 834.822 748.072C834.822 749.608 832.83 750.496 829.782 750.496C826.71 750.496 824.718 749.608 824.718 748.072C824.718 746.536 826.71 745.648 829.782 745.648ZM829.782 752.488C834.414 752.488 837.462 750.784 837.462 748.072C837.462 745.36 834.414 743.656 829.782 743.656C825.126 743.656 822.102 745.36 822.102 748.072C822.102 750.784 825.126 752.488 829.782 752.488ZM824.886 758.032H822.39V764.44H837.462V762.424H824.886V758.032ZM819.966 753.952V755.968H828.702V760.072H831.222V755.968H839.622V753.952H819.966ZM844.708 749.632C844.708 747.736 846.1 746.488 848.02 746.488C849.892 746.488 851.284 747.736 851.284 749.632C851.284 751.504 849.892 752.752 848.02 752.752C846.1 752.752 844.708 751.504 844.708 749.632ZM857.548 748.168V751.096H853.42C853.564 750.64 853.636 750.16 853.636 749.632C853.636 749.104 853.564 748.624 853.444 748.168H857.548ZM857.548 753.088V755.944H860.02V743.152H857.548V746.152H852.316C851.308 745.072 849.796 744.4 848.02 744.4C844.78 744.4 842.356 746.56 842.356 749.632C842.356 752.68 844.78 754.84 848.02 754.84C849.772 754.84 851.308 754.192 852.316 753.088H857.548ZM852.796 762.904C849.724 762.904 847.924 762.112 847.924 760.624C847.924 759.184 849.724 758.368 852.796 758.368C855.892 758.368 857.668 759.184 857.668 760.624C857.668 762.112 855.892 762.904 852.796 762.904ZM852.796 756.424C848.284 756.424 845.5 757.984 845.5 760.624C845.5 763.288 848.284 764.848 852.796 764.848C857.308 764.848 860.116 763.288 860.116 760.624C860.116 757.984 857.308 756.424 852.796 756.424ZM877.346 752.368C874.466 752.848 871.994 752.944 867.818 752.944V750.592H875.114V748.648H867.818V746.416H875.738V744.424H865.37V754.912H867.17C871.826 754.912 874.49 754.84 877.586 754.336L877.346 752.368ZM870.242 759.064H879.578V762.616H870.242V759.064ZM867.818 764.584H882.002V757.096H867.818V764.584ZM879.53 743.176V756.088H882.002V743.176H879.53ZM432.242 793H435.026V786.304H437.69C441.53 786.304 444.338 784.528 444.338 780.664C444.338 776.68 441.53 775.312 437.594 775.312H432.242V793ZM435.026 784.072V777.568H437.33C440.138 777.568 441.602 778.336 441.602 780.664C441.602 782.992 440.258 784.072 437.426 784.072H435.026ZM447.781 793H450.565V785.872H453.421L457.429 793H460.573L456.253 785.512C458.485 784.816 459.949 783.184 459.949 780.448C459.949 776.632 457.213 775.312 453.565 775.312H447.781V793ZM450.565 783.64V777.568H453.229C455.797 777.568 457.189 778.312 457.189 780.448C457.189 782.584 455.797 783.64 453.229 783.64H450.565ZM463.099 797.8C465.571 796.864 467.035 794.92 467.035 792.4C467.035 790.552 466.243 789.424 464.899 789.424C463.843 789.424 462.979 790.12 462.979 791.2C462.979 792.352 463.843 792.976 464.827 792.976C464.923 792.976 464.995 792.976 465.091 792.952C465.091 794.344 464.131 795.568 462.475 796.24L463.099 797.8ZM477.606 779.632C477.606 777.736 478.998 776.488 480.918 776.488C482.79 776.488 484.182 777.736 484.182 779.632C484.182 781.504 482.79 782.752 480.918 782.752C478.998 782.752 477.606 781.504 477.606 779.632ZM490.446 778.168V781.096H486.318C486.462 780.64 486.534 780.16 486.534 779.632C486.534 779.104 486.462 778.624 486.342 778.168H490.446ZM490.446 783.088V785.944H492.918V773.152H490.446V776.152H485.214C484.206 775.072 482.694 774.4 480.918 774.4C477.678 774.4 475.254 776.56 475.254 779.632C475.254 782.68 477.678 784.84 480.918 784.84C482.67 784.84 484.206 784.192 485.214 783.088H490.446ZM485.694 792.904C482.622 792.904 480.822 792.112 480.822 790.624C480.822 789.184 482.622 788.368 485.694 788.368C488.79 788.368 490.566 789.184 490.566 790.624C490.566 792.112 488.79 792.904 485.694 792.904ZM485.694 786.424C481.182 786.424 478.398 787.984 478.398 790.624C478.398 793.288 481.182 794.848 485.694 794.848C490.206 794.848 493.014 793.288 493.014 790.624C493.014 787.984 490.206 786.424 485.694 786.424ZM512.548 792.592H503.356V790.192H512.548V792.592ZM512.548 788.272H503.356V785.824H500.908V794.584H514.996V785.824H512.548V788.272ZM502.996 782.248C501.076 782.248 499.708 781.024 499.708 779.2C499.708 777.352 501.076 776.176 502.996 776.176C504.868 776.176 506.26 777.352 506.26 779.2C506.26 781.024 504.868 782.248 502.996 782.248ZM512.524 773.176V778.168H508.516C508.036 775.744 505.852 774.136 502.996 774.136C499.732 774.136 497.332 776.224 497.332 779.2C497.332 782.2 499.732 784.288 502.996 784.288C505.876 784.288 508.084 782.632 508.516 780.184H512.524V784.792H514.996V773.176H512.524ZM519.794 797.8C522.266 796.864 523.73 794.92 523.73 792.4C523.73 790.552 522.938 789.424 521.594 789.424C520.538 789.424 519.674 790.12 519.674 791.2C519.674 792.352 520.538 792.976 521.522 792.976C521.618 792.976 521.69 792.976 521.786 792.952C521.786 794.344 520.826 795.568 519.17 796.24L519.794 797.8ZM534.854 777.256H540.11V787.48H534.854V777.256ZM532.406 789.448H542.557V775.288H532.406V789.448ZM551.822 781.648H548.438V773.176H545.966V794.872H548.438V783.688H551.822V781.648ZM565.404 781.552H562.524C563.052 779.704 563.244 777.736 563.244 775.672H554.868V777.664H560.868C560.796 778.72 560.628 779.704 560.388 780.688L553.812 781.072L554.148 783.208L559.716 782.608C558.684 784.984 556.812 787 553.764 788.728L555.156 790.456C558.54 788.536 560.58 786.184 561.78 783.568H565.404V793.792H567.708V773.68H565.404V781.552ZM569.892 773.152V794.848H572.268V773.152H569.892ZM593.674 773.2H591.202V786.472H593.674V773.2ZM589.018 782.632C586.138 783.112 583.666 783.208 579.49 783.208V780.88H586.786V778.936H579.49V776.704H587.41V774.712H577.042V785.176H578.842C583.498 785.176 586.162 785.104 589.258 784.6L589.018 782.632ZM586.45 792.928C583.354 792.928 581.578 792.184 581.578 790.816C581.578 789.448 583.354 788.704 586.45 788.704C589.522 788.704 591.322 789.448 591.322 790.816C591.322 792.184 589.522 792.928 586.45 792.928ZM586.45 786.784C581.89 786.784 579.106 788.272 579.106 790.816C579.106 793.36 581.89 794.848 586.45 794.848C591.01 794.848 593.794 793.36 593.794 790.816C593.794 788.272 591.01 786.784 586.45 786.784ZM598.568 797.8C601.04 796.864 602.504 794.92 602.504 792.4C602.504 790.552 601.712 789.424 600.368 789.424C599.312 789.424 598.448 790.12 598.448 791.2C598.448 792.352 599.312 792.976 600.296 792.976C600.392 792.976 600.464 792.976 600.56 792.952C600.56 794.344 599.6 795.568 597.944 796.24L598.568 797.8ZM618.427 793.312C620.707 793.312 622.507 792.4 623.923 790.768L622.435 789.016C621.379 790.168 620.155 790.888 618.523 790.888C615.403 790.888 613.435 788.32 613.435 784.12C613.435 779.968 615.547 777.424 618.595 777.424C620.035 777.424 621.139 778.072 622.051 779.008L623.563 777.232C622.483 776.056 620.755 775 618.547 775C614.083 775 610.579 778.456 610.579 784.216C610.579 790 613.987 793.312 618.427 793.312ZM631.415 793.312C635.279 793.312 637.631 791.008 637.631 788.176C637.631 785.584 636.119 784.288 634.031 783.4L631.607 782.368C630.167 781.792 628.751 781.216 628.751 779.68C628.751 778.288 629.927 777.424 631.727 777.424C633.287 777.424 634.511 778.024 635.615 779.008L637.079 777.232C635.735 775.864 633.791 775 631.727 775C628.367 775 625.919 777.088 625.919 779.872C625.919 782.44 627.815 783.784 629.519 784.504L631.967 785.56C633.599 786.28 634.799 786.784 634.799 788.392C634.799 789.88 633.599 790.888 631.463 790.888C629.759 790.888 628.031 790.072 626.759 788.8L625.127 790.72C626.735 792.352 628.991 793.312 631.415 793.312ZM662.615 779.512H650.159V775.912H662.471V773.92H647.711V781.504H662.615V779.512ZM655.007 792.928C651.839 792.928 650.063 792.232 650.063 790.888C650.063 789.568 651.839 788.848 655.007 788.848C658.175 788.848 659.975 789.568 659.975 790.888C659.975 792.232 658.175 792.928 655.007 792.928ZM655.007 786.952C650.375 786.952 647.543 788.392 647.543 790.888C647.543 793.408 650.375 794.848 655.007 794.848C659.663 794.848 662.471 793.408 662.471 790.888C662.471 788.392 659.663 786.952 655.007 786.952ZM645.287 783.304V785.344H664.871V783.304H645.287ZM679.012 788.152H676.516V794.44H691.468V792.424H679.012V788.152ZM678.676 778.168C678.676 776.632 680.644 775.768 683.86 775.768C687.052 775.768 689.02 776.632 689.02 778.168C689.02 779.704 687.052 780.568 683.86 780.568C680.644 780.568 678.676 779.704 678.676 778.168ZM685.084 784.528V782.512C689.068 782.248 691.588 780.64 691.588 778.168C691.588 775.432 688.54 773.776 683.86 773.776C679.18 773.776 676.132 775.432 676.132 778.168C676.132 780.64 678.628 782.224 682.588 782.512V784.528H674.044V786.52H693.652V784.528H685.084ZM697.082 774.472V776.464H704.474C704.09 779.656 701.282 782.224 696.098 783.52L697.01 785.488C703.49 783.856 707.162 780.112 707.162 774.472H697.082ZM713.378 788.344V786.376H699.074V788.344H704.906C704.666 790.432 702.074 792.376 698.21 792.904L699.122 794.8C702.41 794.296 705.026 792.808 706.226 790.792C707.474 792.808 710.066 794.344 713.354 794.824L714.242 792.928C710.426 792.376 707.81 790.384 707.57 788.344H713.378ZM713.066 778.432V773.128H710.594V785.368H713.066V780.472H716.138V778.432H713.066ZM740.455 792.592H731.263V790.192H740.455V792.592ZM740.455 788.272H731.263V785.824H728.815V794.584H742.903V785.824H740.455V788.272ZM730.903 782.248C728.983 782.248 727.615 781.024 727.615 779.2C727.615 777.352 728.983 776.176 730.903 776.176C732.775 776.176 734.167 777.352 734.167 779.2C734.167 781.024 732.775 782.248 730.903 782.248ZM740.431 773.176V778.168H736.423C735.943 775.744 733.759 774.136 730.903 774.136C727.639 774.136 725.239 776.224 725.239 779.2C725.239 782.2 727.639 784.288 730.903 784.288C733.783 784.288 735.991 782.632 736.423 780.184H740.431V784.792H742.903V773.176H740.431ZM761.765 780.904H751.853V776.296H761.765V780.904ZM764.213 774.328H749.405V782.896H764.213V774.328ZM766.661 785.56H747.005V787.552H755.525V794.848H757.997V787.552H766.661V785.56ZM783.819 776.872H771.603V781.744H786.651V780.016H774.027V778.48H786.267V773.704H771.555V775.408H783.819V776.872ZM773.859 791.248H786.339V786.4H771.363V788.104H783.891V789.64H771.411V794.608H786.987V792.904H773.859V791.248ZM769.083 783.112V784.936H788.739V783.112H769.083ZM804.224 788.152C802.472 788.152 801.2 786.952 801.2 785.128C801.2 783.304 802.472 782.104 804.224 782.104C805.976 782.104 807.248 783.304 807.248 785.128C807.248 786.952 805.976 788.152 804.224 788.152ZM804.224 780.064C801.104 780.064 798.848 782.176 798.848 785.128C798.848 788.104 801.104 790.192 804.224 790.192C807.32 790.192 809.6 788.104 809.6 785.128C809.6 782.176 807.32 780.064 804.224 780.064ZM805.424 773.512H802.952V776.512H797.792V778.528H810.488V776.512H805.424V773.512ZM818.072 781.888H814.736V773.176H812.24V794.872H814.736V783.952H818.072V781.888ZM825.942 776.344C827.814 776.344 829.182 777.592 829.182 779.464C829.182 781.312 827.814 782.56 825.942 782.56C824.046 782.56 822.654 781.312 822.654 779.464C822.654 777.592 824.046 776.344 825.942 776.344ZM835.47 778V780.832H831.342C831.462 780.4 831.534 779.944 831.534 779.464C831.534 778.936 831.462 778.456 831.318 778H835.47ZM835.47 782.824V785.44H837.942V773.176H835.47V776.008H830.19C829.182 774.952 827.694 774.304 825.942 774.304C822.702 774.304 820.302 776.44 820.302 779.464C820.302 782.488 822.702 784.624 825.942 784.624C827.742 784.624 829.278 783.952 830.286 782.824H835.47ZM835.734 786.16H833.31V787.36C833.31 789.016 832.422 791.08 830.502 792.4C828.606 791.2 827.766 789.232 827.766 787.36V786.16H825.366V787.36C825.366 789.496 823.926 791.8 821.142 792.784L822.366 794.608C824.358 793.84 825.774 792.424 826.542 790.72C827.214 792.496 828.486 794.008 830.526 794.776C832.518 793.96 833.79 792.4 834.486 790.672C835.23 792.424 836.646 793.864 838.734 794.608L839.958 792.784C837.15 791.848 835.734 789.64 835.734 787.36V786.16ZM851.86 774.4C847.324 774.4 843.892 776.848 843.892 780.52C843.892 784.216 847.324 786.64 851.86 786.64C856.372 786.64 859.828 784.216 859.828 780.52C859.828 776.848 856.372 774.4 851.86 774.4ZM851.86 776.44C855.052 776.44 857.428 778.024 857.428 780.52C857.428 783.016 855.052 784.6 851.86 784.6C848.644 784.6 846.292 783.016 846.292 780.52C846.292 778.024 848.644 776.44 851.86 776.44ZM842.068 790.072V792.112H861.7V790.072H842.068ZM867.362 775.288H864.89V789.448H866.69C869.954 789.448 873.314 789.208 876.986 788.488L876.698 786.448C873.41 787.12 870.29 787.36 867.362 787.384V775.288ZM884.21 781.624H880.922V773.176H878.45V794.848H880.922V783.664H884.21V781.624ZM495.741 823H498.573C498.861 816.088 499.509 812.176 503.661 807.016V805.312H492.285V807.664H500.589C497.181 812.416 496.053 816.544 495.741 823ZM506.813 805.912V807.928H512.885C512.549 812.296 510.581 815.848 505.901 818.56L507.341 820.312C513.437 816.808 515.333 811.696 515.333 805.912H506.813ZM522.101 803.176V811.648H519.629V803.752H517.301V823.84H519.629V813.664H522.101V824.848H524.453V803.176H522.101ZM539.499 813.352V814.888H543.579V815.824H546.051V803.176H543.579V813.352H539.499ZM535.011 805.216C536.859 805.216 538.059 805.792 538.059 806.8C538.059 807.808 536.859 808.384 535.011 808.384C533.139 808.384 531.939 807.808 531.939 806.8C531.939 805.792 533.139 805.216 535.011 805.216ZM535.011 810.04C538.227 810.04 540.387 808.792 540.387 806.8C540.387 804.808 538.227 803.56 535.011 803.56C531.771 803.56 529.611 804.808 529.611 806.8C529.611 808.792 531.771 810.04 535.011 810.04ZM533.643 815.896H536.139V812.704C538.155 812.608 540.219 812.44 542.211 812.152L542.043 810.592C537.459 811.072 532.227 811.096 528.051 811.096L528.339 812.872C529.971 812.872 531.771 812.872 533.643 812.8V815.896ZM533.739 822.904V821.32H546.051V816.592H531.243V818.296H543.603V819.736H531.291V824.656H546.675V822.904H533.739ZM558.904 807.232H566.512V805.216H556.432V819.544H558.208C562.12 819.544 565.048 819.424 568.336 818.824L568.072 816.784C565.048 817.312 562.408 817.456 558.904 817.48V807.232ZM575.728 811.504H572.344V803.152H569.872V824.872H572.344V813.544H575.728V811.504ZM581.366 805.288H578.918V819.376H580.766C584.126 819.376 587.63 819.112 591.35 818.344L591.086 816.28C587.678 816.976 584.438 817.24 581.366 817.264V805.288ZM593.078 803.176V824.848H595.55V803.176H593.078ZM614.7 807.328C614.7 809.92 614.7 812.992 613.86 817.24L616.356 817.504C617.196 813.016 617.196 810.016 617.196 807.328V805.192H601.764V807.208H614.7V807.328ZM609.516 819.976V812.344H607.02V819.976H599.724V822.016H619.308V819.976H609.516ZM630.409 805.288H627.937V819.448H629.737C633.001 819.448 636.361 819.208 640.033 818.488L639.745 816.448C636.457 817.12 633.337 817.36 630.409 817.384V805.288ZM647.257 811.624H643.969V803.176H641.497V824.848H643.969V813.664H647.257V811.624ZM652.991 805.288H650.543V819.376H652.391C655.751 819.376 659.255 819.112 662.975 818.344L662.711 816.28C659.303 816.976 656.063 817.24 652.991 817.264V805.288ZM664.703 803.176V824.848H667.175V803.176H664.703ZM690.396 805.696H685.092V803.224H682.62V805.696H677.292V807.688H690.396V805.696ZM680.916 812.776C680.916 811.456 682.116 810.64 683.868 810.64C685.596 810.64 686.796 811.456 686.796 812.776C686.796 814.12 685.596 814.936 683.868 814.936C682.116 814.936 680.916 814.12 680.916 812.776ZM685.092 816.736C687.54 816.352 689.148 814.888 689.148 812.776C689.148 810.352 686.988 808.744 683.868 808.744C680.724 808.744 678.564 810.352 678.564 812.776C678.564 814.864 680.172 816.352 682.62 816.736V818.848C680.58 818.92 678.588 818.92 676.86 818.92L677.172 820.96C681.108 820.96 686.244 820.888 691.02 820.072L690.852 818.272C689.004 818.536 687.036 818.656 685.092 818.776V816.736ZM692.076 803.152V824.848H694.572V803.152H692.076ZM706.402 804.976H703.93V808.528C703.93 812.536 701.818 816.64 698.434 818.296L699.946 820.288C702.418 819.016 704.242 816.496 705.178 813.496C706.114 816.328 707.842 818.68 710.17 819.88L711.682 817.912C708.418 816.304 706.402 812.392 706.402 808.528V804.976ZM718.978 811.768H715.594V803.176H713.122V824.848H715.594V813.808H718.978V811.768ZM721.952 805.456V807.472H729.536C729.032 812.464 726.176 816.28 720.872 818.992L722.24 820.888C729.32 817.312 732.008 811.744 732.008 805.456H721.952ZM740.96 811.72H737.672V803.152H735.2V824.824H737.672V813.784H740.96V811.72ZM756.837 812.296H751.557V806.752H756.837V812.296ZM759.261 804.784H749.109V814.264H759.261V804.784ZM758.301 822.904C755.277 822.904 753.525 822.136 753.525 820.72C753.525 819.28 755.277 818.512 758.301 818.512C761.325 818.512 763.077 819.28 763.077 820.72C763.077 822.136 761.325 822.904 758.301 822.904ZM758.301 816.544C753.861 816.544 751.077 818.104 751.077 820.72C751.077 823.312 753.861 824.872 758.301 824.872C762.765 824.872 765.525 823.312 765.525 820.72C765.525 818.104 762.765 816.544 758.301 816.544ZM765.285 808.336V803.176H762.813V815.872H765.285V810.376H768.357V808.336H765.285ZM775.723 817.936C774.259 817.936 773.227 816.76 773.227 814.96C773.227 813.16 774.259 811.96 775.723 811.96C777.187 811.96 778.219 813.16 778.219 814.96C778.219 816.76 777.187 817.936 775.723 817.936ZM775.723 809.92C772.987 809.92 771.019 811.96 771.019 814.96C771.019 817.936 772.987 820 775.723 820C778.459 820 780.427 817.936 780.427 814.96C780.427 811.96 778.459 809.92 775.723 809.92ZM776.947 803.8H774.499V806.704H770.395V808.696H781.003V806.704H776.947V803.8ZM786.547 803.176V812.152H784.243V803.632H781.939V823.84H784.243V814.192H786.547V824.848H788.899V803.176H786.547ZM800.369 804.928H797.873V808.504C797.873 812.56 795.761 816.736 792.377 818.392L793.937 820.36C796.409 819.088 798.185 816.568 799.145 813.496C800.081 816.4 801.833 818.776 804.281 820L805.745 818.008C802.433 816.472 800.369 812.536 800.369 808.504V804.928ZM808.025 803.128V810.256H803.393V812.272H808.025V824.872H810.521V803.128H808.025ZM822.654 809.104C822.654 807.304 824.022 806.128 825.918 806.128C827.814 806.128 829.206 807.304 829.206 809.104C829.206 810.928 827.814 812.128 825.918 812.128C824.022 812.128 822.654 810.928 822.654 809.104ZM835.47 810.088V814.648H837.942V803.2H835.47V808.048H831.438C830.958 805.672 828.774 804.088 825.918 804.088C822.678 804.088 820.278 806.152 820.278 809.104C820.278 812.104 822.678 814.168 825.918 814.168C828.798 814.168 830.982 812.536 831.462 810.088H835.47ZM827.814 822.688H824.718V820.168H827.814V822.688ZM827.814 815.896V818.344H824.718V815.896H822.414V824.584H830.094V815.896H827.814ZM836.358 815.728H833.91V817.456C833.91 819.592 832.686 821.848 830.094 822.928L831.342 824.8C833.166 824.032 834.39 822.64 835.11 821.008C835.782 822.664 837.03 824.056 838.95 824.8L840.174 822.928C837.558 821.968 836.358 819.76 836.358 817.456V815.728ZM847.9 817.84C846.052 817.84 844.78 815.824 844.78 812.392C844.78 809.032 846.052 806.992 847.9 806.992C849.772 806.992 851.044 809.032 851.044 812.392C851.044 815.824 849.772 817.84 847.9 817.84ZM857.572 803.152V811.24H853.348C853.012 807.256 850.804 804.76 847.9 804.76C844.708 804.76 842.428 807.736 842.428 812.392C842.428 817.096 844.708 820.048 847.9 820.048C850.876 820.048 853.084 817.456 853.372 813.256H857.572V824.896H860.068V803.152H857.572ZM877.49 813.208C874.178 812.128 872.21 809.536 872.21 806.824V806.56H876.842V804.568H864.986V806.56H869.69V806.824C869.69 809.68 867.746 812.488 864.314 813.592L865.61 815.536C868.178 814.672 870.026 812.848 870.986 810.568C871.97 812.68 873.794 814.336 876.266 815.152L877.49 813.208ZM870.242 818.776H879.578V822.616H870.242V818.776ZM867.818 824.584H882.002V816.808H867.818V824.584ZM879.53 803.176V815.728H882.002V803.176H879.53Z" fill="#4F4F4F"/>
<g clip-path="url(#clip3_18_23389)">
<path d="M1402.59 851.978H1471.38V860.961H1457.15V870.09H1479.97V867.57C1479.99 863.21 1481.02 858.914 1482.99 855.018C1484.96 851.122 1487.8 847.732 1491.3 845.112C1492.17 839.122 1493.97 833.305 1496.66 827.876H1407.17V728.587H1527.48C1529.12 725.347 1531.1 722.287 1533.39 719.458H1402.59C1401.37 719.458 1400.2 719.939 1399.34 720.795C1398.48 721.651 1398 722.812 1398 724.022V847.413C1398 848.624 1398.48 849.785 1399.34 850.641C1400.2 851.497 1401.37 851.978 1402.59 851.978Z" fill="#4F4F4F"/>
<path d="M1479.97 878.27H1406.26V887.399H1479.97V878.27Z" fill="#4F4F4F"/>
<path d="M1572.65 792.492C1580.85 792.492 1588.86 790.072 1595.68 785.537C1602.5 781.003 1607.81 774.559 1610.95 767.019C1614.09 759.479 1614.91 751.182 1613.31 743.177C1611.71 735.173 1607.76 727.82 1601.97 722.049C1596.17 716.279 1588.78 712.349 1580.74 710.756C1572.69 709.164 1564.36 709.981 1556.78 713.105C1549.21 716.228 1542.73 721.517 1538.17 728.302C1533.62 735.088 1531.19 743.066 1531.19 751.228C1531.18 756.648 1532.25 762.016 1534.33 767.024C1536.42 772.033 1539.47 776.584 1543.32 780.416C1547.17 784.249 1551.74 787.288 1556.78 789.36C1561.81 791.432 1567.2 792.496 1572.65 792.492Z" fill="#4F4F4F"/>
<path d="M1645.22 849.348C1644.23 837.252 1638.7 825.971 1629.73 817.745C1620.77 809.519 1609.02 804.949 1596.83 804.944H1548.43C1536.24 804.941 1524.48 809.507 1515.52 817.735C1506.55 825.963 1501.02 837.249 1500.04 849.348C1496.52 850.944 1493.53 853.514 1491.44 856.751C1489.34 859.988 1488.23 863.756 1488.22 867.607V905H1497.4V867.57C1497.4 864.665 1498.56 861.878 1500.62 859.824C1502.68 857.769 1505.48 856.615 1508.4 856.615H1636.82C1639.74 856.615 1642.54 857.769 1644.6 859.824C1646.67 861.878 1647.83 864.665 1647.83 867.57V905H1657V867.57C1656.99 863.73 1655.88 859.973 1653.79 856.743C1651.7 853.514 1648.73 850.947 1645.22 849.348Z" fill="#4F4F4F"/>
<path d="M1446.65 750.059H1423.94V757.362H1446.65V750.059Z" fill="#4F4F4F"/>
<path d="M1463.27 750.059H1453.29V757.362H1463.27V750.059Z" fill="#4F4F4F"/>
<path d="M1489.76 750.059H1469.95V757.362H1489.76V750.059Z" fill="#4F4F4F"/>
<path d="M1516.8 750.059H1496.44V757.362H1516.8V750.059Z" fill="#4F4F4F"/>
<path d="M1446.65 798.517H1423.94V805.82H1446.65V798.517Z" fill="#4F4F4F"/>
<path d="M1463.27 798.517H1453.29V805.82H1463.27V798.517Z" fill="#4F4F4F"/>
<path d="M1489.76 798.517H1469.95V805.82H1489.76V798.517Z" fill="#4F4F4F"/>
<path d="M1435.61 774.306H1423.94V781.61H1435.61V774.306Z" fill="#4F4F4F"/>
<path d="M1466.98 774.306H1442.29V781.61H1466.98V774.306Z" fill="#4F4F4F"/>
<path d="M1493.43 774.306H1473.62V781.61H1493.43V774.306Z" fill="#4F4F4F"/>
<path d="M1516.8 774.306H1500.11V781.61H1516.8V774.306Z" fill="#4F4F4F"/>
</g>
<path d="M103.656 82.28H96.12V89.288C96.12 96.872 94.536 104.936 87.672 109.16L92.28 114.968C95.976 112.664 98.376 109.016 99.864 104.6C101.256 108.536 103.416 111.848 106.872 113.96L111 107.912C104.76 103.688 103.656 96.296 103.656 88.904V82.28ZM111.096 93.176H106.44V99.368H111.096V121.688H118.296V79.112H111.096V93.176ZM120.264 78.488V123.512H127.608V78.488H120.264ZM159.668 97.736C152.276 95.576 150.068 90.488 150.068 85.448V80.984H142.148V84.728C142.148 90.392 139.796 96.392 131.876 98.936L136.004 104.984C140.948 103.352 144.212 100.136 146.18 96.104C148.052 99.56 151.124 102.248 155.636 103.688L159.668 97.736ZM153.62 117.656C148.436 117.656 145.892 116.792 145.892 114.632C145.892 112.472 148.436 111.56 153.62 111.56C158.852 111.56 161.396 112.472 161.396 114.632C161.396 116.792 158.852 117.656 153.62 117.656ZM153.62 105.656C144.212 105.656 138.164 108.968 138.164 114.632C138.164 120.248 144.212 123.608 153.62 123.608C163.076 123.608 169.124 120.248 169.124 114.632C169.124 108.968 163.076 105.656 153.62 105.656ZM168.596 88.328V78.536H160.82V104.744H168.596V94.616H174.212V88.328H168.596ZM187.121 107.48C185.249 107.48 184.289 104.744 184.289 98.072C184.289 91.4 185.249 88.664 187.121 88.664C189.041 88.664 190.001 91.4 190.001 98.072C190.001 104.744 189.041 107.48 187.121 107.48ZM199.265 94.568H196.865C196.049 86.216 192.449 81.32 187.121 81.32C181.121 81.32 177.281 87.56 177.281 98.072C177.281 108.584 181.121 114.824 187.121 114.824C192.641 114.824 196.289 109.592 196.913 100.76H199.265V121.64H206.465V79.064H199.265V94.568ZM208.577 78.44V123.464H215.921V78.44H208.577ZM238.765 81.704H230.941V87.416C230.941 96.104 228.397 104.84 220.237 108.536L225.037 114.728C229.837 112.376 233.005 108.248 234.829 103.064C236.653 107.912 239.677 111.752 244.381 113.96L248.989 107.864C241.021 104.36 238.765 96.152 238.765 87.416V81.704ZM251.629 78.44V91.928H243.997V98.12H251.629V123.656H259.405V78.44H251.629ZM316.882 88.76C311.122 87.224 309.106 83.624 309.106 79.688V79.16H301.282V79.688C301.282 82.808 300.034 85.784 296.626 87.8C293.218 85.784 291.97 82.808 291.97 79.688V79.16H284.242V79.688C284.242 83.624 282.226 87.224 276.466 88.76L279.874 94.376C283.858 93.224 286.498 91.016 288.082 88.184C289.618 91.304 292.354 93.8 296.626 95C300.946 93.752 303.682 91.256 305.218 88.088C306.802 90.968 309.442 93.224 313.474 94.376L316.882 88.76ZM288.514 115.88H312.274V103.4H280.786V109.064H304.594V110.648H280.834V123.368H313.378V117.608H288.514V115.88ZM276.274 95.768V101.672H317.074V95.768H276.274ZM332.094 87.704H349.422V98.168H332.094V87.704ZM344.718 112.376V104.216H357.054V81.656H324.462V104.216H336.942V112.376H320.478V118.568H361.23V112.376H344.718ZM413.283 78.536H405.507V103.832H413.283V78.536ZM388.563 87.032C391.395 87.032 393.507 88.568 393.507 91.592C393.507 94.616 391.395 96.152 388.563 96.152C385.731 96.152 383.619 94.616 383.619 91.592C383.619 88.568 385.731 87.032 388.563 87.032ZM388.563 102.536C395.667 102.536 401.091 97.928 401.091 91.592C401.091 85.256 395.667 80.648 388.563 80.648C381.459 80.648 376.035 85.256 376.035 91.592C376.035 97.928 381.459 102.536 388.563 102.536ZM409.011 105.656H401.379V106.616C401.379 109.832 400.131 113.288 396.915 115.832C393.747 113.384 392.643 109.976 392.643 106.616V105.656H385.107V106.616C385.107 110.984 383.091 115.304 377.091 117.272L380.835 122.84C384.771 121.496 387.411 119.048 388.947 115.928C390.483 119.192 393.027 121.88 397.011 123.32C400.947 121.832 403.491 119.048 405.027 115.784C406.515 119 409.155 121.496 413.235 122.84L417.027 117.272C410.931 115.448 409.011 111.272 409.011 106.616V105.656ZM456.095 89.912H432.239V80.072H424.463V96.008H456.095V89.912ZM431.807 109.112H424.031V122.648H456.383V116.552H431.807V109.112ZM419.759 99.944V106.04H460.559V99.944H419.759ZM512.564 78.536H504.788V110.6H512.564V78.536ZM482.9 92.84C482.9 89.528 485.06 87.896 487.844 87.896C490.628 87.896 492.788 89.528 492.788 92.84C492.788 96.104 490.628 97.784 487.844 97.784C485.06 97.784 482.9 96.104 482.9 92.84ZM500.372 92.84C500.372 86.12 494.852 81.224 487.844 81.224C480.836 81.224 475.316 86.12 475.316 92.84C475.316 99.512 480.836 104.456 487.844 104.456C494.852 104.456 500.372 99.512 500.372 92.84ZM489.716 116.792V107.48H481.94V122.888H513.62V116.792H489.716ZM520.48 81.8V87.896H534.065C533.009 93.368 528.065 97.928 518.465 100.424L521.633 106.472C535.361 102.776 542.513 94.376 542.513 81.8H520.48ZM532.817 107.192H525.041V122.888H556.001V116.792H532.817V107.192ZM554.705 90.488V78.488H546.929V110.408H554.705V96.776H560.369V90.488H554.705ZM593.053 78.392V123.704H600.829V78.392H593.053ZM576.301 81.416C569.389 81.416 564.253 87.656 564.253 97.736C564.253 107.816 569.389 114.056 576.301 114.056C583.213 114.056 588.349 107.816 588.349 97.736C588.349 87.656 583.213 81.416 576.301 81.416ZM576.301 88.472C579.085 88.472 580.909 91.4 580.909 97.736C580.909 104.072 579.085 107 576.301 107C573.517 107 571.693 104.072 571.693 97.736C571.693 91.4 573.517 88.472 576.301 88.472ZM636.898 102.2H644.914V96.104H628.834V88.424H644.626V82.328H621.058V102.2H629.122V109.016C625.426 109.064 621.778 109.064 618.466 109.064L619.33 115.256C627.634 115.304 637.33 115.256 646.93 113.72L646.402 108.104C643.33 108.44 640.162 108.68 636.898 108.824V102.2ZM648.61 78.44V123.656H656.386V78.44H648.61ZM697.998 108.152C699.87 98.264 699.87 91.784 699.87 86.168V81.944H666.558V88.04H692.094C692.094 93.08 691.902 99.176 690.27 107.336L697.998 108.152ZM683.886 112.376V97.208H676.11V112.376H662.478V118.568H703.278V112.376H683.886ZM755.283 78.536H747.507V103.496H755.283V78.536ZM745.443 96.296C737.763 94.232 735.411 89.192 735.411 84.344V80.072H727.491V84.344C727.491 89.288 724.995 94.712 717.027 96.968L720.771 103.064C726.051 101.624 729.459 98.552 731.475 94.664C733.491 98.216 736.755 100.952 741.747 102.296L745.443 96.296ZM736.947 111.176H743.043V117.08H736.947V111.176ZM750.675 117.08V111.176H755.427V105.176H724.467V111.176H729.315V117.08H724.035V123.08H755.907V117.08H750.675ZM774.239 87.032C776.927 87.032 778.895 88.616 778.895 91.592C778.895 94.616 776.927 96.152 774.239 96.152C771.551 96.152 769.583 94.616 769.583 91.592C769.583 88.616 771.551 87.032 774.239 87.032ZM791.999 94.712V103.448H799.775V78.536H791.999V88.52H785.855C784.463 83.816 779.903 80.648 774.239 80.648C767.423 80.648 762.191 85.256 762.191 91.592C762.191 97.928 767.423 102.536 774.239 102.536C779.903 102.536 784.463 99.368 785.855 94.712H791.999ZM795.887 105.176H788.207V106.328C788.207 109.592 787.055 113.192 783.791 115.88C780.575 113.336 779.471 109.784 779.471 106.328V105.176H771.935V106.328C771.935 110.84 769.967 115.304 763.919 117.368L767.759 122.888C771.647 121.544 774.239 119 775.775 115.832C777.311 119.144 779.855 121.88 783.839 123.368C787.775 121.832 790.319 119.048 791.903 115.688C793.391 119 795.983 121.544 800.063 122.888L803.903 117.368C797.759 115.448 795.887 111.128 795.887 106.328V105.176ZM826.508 89.816V95.912H836.156V111.224H843.932V78.488H836.156V89.816H826.508ZM830.635 98.312C826.124 99.128 821.996 99.416 816.284 99.512V87.368H828.908V81.272H808.556V105.656H812.3C820.412 105.656 825.644 105.464 831.26 104.408L830.635 98.312ZM821.42 116.792V108.44H813.644V122.888H844.892V116.792H821.42ZM101.208 167C98.472 167 96.744 164.072 96.744 157.688C96.744 151.4 98.472 148.472 101.208 148.472C103.944 148.472 105.672 151.4 105.672 157.688C105.672 164.072 103.944 167 101.208 167ZM119.16 138.392V154.184H112.872C111.816 146.216 107.208 141.416 101.208 141.416C94.392 141.416 89.352 147.656 89.352 157.688C89.352 167.816 94.392 174.056 101.208 174.056C107.448 174.056 112.152 168.872 112.968 160.376H119.16V183.704H126.936V138.392H119.16ZM170.564 138.536H162.788V161.864H170.564V138.536ZM160.004 154.472C155.108 155.288 150.788 155.384 142.724 155.432V153.512H156.308V140.552H134.996V146.36H148.628V148.136H135.044V161.288H139.076C149.828 161.288 155.06 161.24 160.724 160.28L160.004 154.472ZM147.956 177.56V175.928H170.564V163.304H139.988V169.016H162.644V170.552H140.036V183.368H171.524V177.56H147.956ZM215.465 158.312C208.745 156.104 206.153 151.352 205.721 146.744H213.833V140.648H189.497V146.744H197.705C197.273 151.688 194.585 156.728 187.481 158.984L191.369 165.128C196.505 163.448 199.865 160.232 201.833 156.152C203.753 159.848 206.873 162.824 211.673 164.312L215.465 158.312ZM194.921 173.144H218.249V183.608H226.025V167.048H194.921V173.144ZM218.249 138.536V148.76H212.729V154.952H218.249V165.272H226.025V138.536H218.249ZM246.518 141.368C239.462 141.368 233.942 146.168 233.942 152.696C233.942 159.272 239.462 164.072 246.518 164.072C253.622 164.072 259.142 159.272 259.142 152.696C259.142 146.168 253.622 141.368 246.518 141.368ZM246.518 147.944C249.35 147.944 251.558 149.528 251.558 152.696C251.558 155.912 249.35 157.496 246.518 157.496C243.734 157.496 241.526 155.912 241.526 152.696C241.526 149.528 243.734 147.944 246.518 147.944ZM262.454 138.44V183.656H270.23V138.44H262.454ZM233.174 174.92C240.854 174.92 251.174 174.776 260.774 172.856L260.246 167.336C250.886 168.632 240.086 168.728 232.31 168.728L233.174 174.92ZM296.123 142.712H288.395V172.712H292.427C298.955 172.712 306.347 172.328 313.739 170.792L312.923 164.504C307.115 165.608 301.403 166.136 296.123 166.28V142.712ZM328.715 155H322.907V138.44H315.131V183.416H322.907V161.336H328.715V155ZM338.167 179.672C341.095 179.672 343.255 177.32 343.255 174.344C343.255 171.368 341.095 169.064 338.167 169.064C335.191 169.064 333.079 171.368 333.079 174.344C333.079 177.32 335.191 179.672 338.167 179.672ZM354.995 179.672C357.923 179.672 360.083 177.32 360.083 174.344C360.083 171.368 357.923 169.064 354.995 169.064C352.019 169.064 349.907 171.368 349.907 174.344C349.907 177.32 352.019 179.672 354.995 179.672ZM371.823 179.672C374.751 179.672 376.911 177.32 376.911 174.344C376.911 171.368 374.751 169.064 371.823 169.064C368.847 169.064 366.735 171.368 366.735 174.344C366.735 177.32 368.847 179.672 371.823 179.672ZM388.651 179.672C391.579 179.672 393.739 177.32 393.739 174.344C393.739 171.368 391.579 169.064 388.651 169.064C385.675 169.064 383.563 171.368 383.563 174.344C383.563 177.32 385.675 179.672 388.651 179.672Z" fill="#333333"/>
</g>
<defs>
<clipPath id="clip0_18_23389">
<rect width="1920" height="1080" fill="white"/>
</clipPath>
<clipPath id="clip1_18_23389">
<rect width="145" height="128" fill="white" transform="translate(744 192)"/>
</clipPath>
<clipPath id="clip2_18_23389">
<rect width="167" height="139" fill="white" transform="translate(718 589)"/>
</clipPath>
<clipPath id="clip3_18_23389">
<rect width="259" height="195" fill="white" transform="translate(1398 710)"/>
</clipPath>
</defs>
</svg>
