<svg width="1920" height="1080" viewBox="0 0 1920 1080" fill="none" xmlns="http://www.w3.org/2000/svg">
<rect width="1920" height="1080" fill="white"/>
<path d="M89.04 87.08V92.12H102.528C102.384 93.224 102.144 94.232 101.856 95.24L86.832 95.768L87.696 100.664L99.216 99.8C96.72 102.632 92.784 104.936 86.784 106.664L89.232 111.656C103.536 107.288 109.248 99.272 109.248 87.08H89.04ZM100.176 117.08H116.784V123.656H100.176V117.08ZM93.936 128.6H123.024V112.136H93.936V128.6ZM116.688 84.92V95.96H108.96V101.096H116.688V110.12H123.024V84.92H116.688ZM154.796 101.672H145.772V91.928H154.796V101.672ZM139.436 101.672H134.108V106.712H166.412V101.672H161.084V91.928H166.748V86.888H133.82V91.928H139.436V101.672ZM170.204 110.36H130.172V115.496H139.484V129.128H145.82V115.496H154.844V129.128H161.18V115.496H170.204V110.36ZM182.681 105.848H195.353V100.904H182.681V93.704H196.841V88.616H176.393V119.192H179.993C187.433 119.192 193.097 119.048 199.481 118.04L198.905 112.952C193.481 113.816 188.633 114.056 182.681 114.104V105.848ZM205.145 84.872V100.472H197.561V105.56H205.145V129.224H211.481V84.872H205.145ZM245.68 88.328H239.296V94.76C239.296 102.968 235.936 111.416 228.496 114.92L232.288 120.056C237.28 117.608 240.592 112.952 242.512 107.336C244.336 112.616 247.456 116.888 252.064 119.24L255.904 114.248C248.8 110.744 245.68 102.728 245.68 94.76V88.328ZM270.448 101.912H264.016V84.92H257.68V129.128H264.016V107.192H270.448V101.912ZM303.852 84.872V129.224H310.188V84.872H303.852ZM286.428 87.992C279.756 87.992 274.812 94.04 274.812 103.736C274.812 113.48 279.756 119.576 286.428 119.576C293.1 119.576 298.044 113.48 298.044 103.736C298.044 94.04 293.1 87.992 286.428 87.992ZM286.428 93.704C289.692 93.704 291.948 97.208 291.948 103.736C291.948 110.312 289.692 113.816 286.428 113.816C283.164 113.816 280.908 110.312 280.908 103.736C280.908 97.208 283.164 93.704 286.428 93.704ZM324.344 98.936C324.344 95.288 326.744 93.08 329.912 93.08C333.128 93.08 335.576 95.288 335.576 98.936C335.576 102.536 333.128 104.696 329.912 104.696C326.744 104.696 324.344 102.536 324.344 98.936ZM348.344 101.624V117.224H354.68V84.968H348.344V96.536H341.384C340.28 91.208 335.624 87.608 329.912 87.608C323.384 87.608 318.296 92.36 318.296 98.936C318.296 105.416 323.384 110.216 329.912 110.216C335.576 110.216 340.136 106.76 341.288 101.624H348.344ZM331.88 123.32V114.104H325.544V128.36H355.688V123.32H331.88ZM400.517 105.704C390.533 104.024 385.061 97.16 385.061 90.68V87.512H378.293V90.68C378.293 97.016 372.773 104.024 362.837 105.704L365.525 111.032C373.205 109.544 378.821 105.224 381.653 99.608C384.484 105.224 390.149 109.496 397.829 111.032L400.517 105.704ZM361.877 118.616V123.752H401.909V118.616H361.877ZM419.356 89.48V94.52H434.092C433.18 104.312 428.284 111.224 417.004 116.648L420.316 121.64C436.012 114.056 440.572 103.016 440.572 89.48H419.356ZM447.34 84.872V129.08H453.724V84.872H447.34ZM464.616 111.944C472.536 110.888 478.152 107.624 481.08 103.112C484.008 107.624 489.624 110.888 497.544 111.944L499.8 106.952C489.72 105.752 484.872 100.808 484.344 95.96H497.64V90.92H484.248V85.496H477.912V90.92H464.52V95.96H477.816C477.288 100.808 472.44 105.752 462.36 106.952L464.616 111.944ZM484.248 118.952V110.408H477.912V118.952H461.064V124.088H501.096V118.952H484.248ZM534.116 92.12H510.212V102.68H541.124V98.408H516.452V96.104H540.356V85.688H510.116V89.96H534.116V92.12ZM516.068 122.072H540.5V111.56H509.732V115.832H534.212V118.088H509.78V128.744H541.7V124.472H516.068V122.072ZM505.22 104.792V109.352H545.252V104.792H505.22ZM584.972 105.608C579.884 106.52 575.276 106.712 568.172 106.76V102.392H581.708V97.496H568.172V93.32H582.62V88.28H561.884V111.752H565.58C574.412 111.752 579.788 111.608 585.644 110.504L584.972 105.608ZM572.876 114.68H566.54V128.36H596.636V123.32H572.876V114.68ZM595.052 98.024V84.92H588.716V117.704H595.052V103.208H600.908V98.024H595.052ZM629.128 105.608C624.04 106.52 619.432 106.712 612.328 106.76V102.392H625.864V97.496H612.328V93.32H626.776V88.28H606.04V111.752H609.736C618.568 111.752 623.944 111.608 629.8 110.504L629.128 105.608ZM617.032 114.68H610.696V128.36H640.792V123.32H617.032V114.68ZM639.208 98.024V84.92H632.872V117.704H639.208V103.208H645.064V98.024H639.208ZM662.676 114.92C659.604 114.92 657.396 112.904 657.396 109.496C657.396 106.184 659.604 104.12 662.676 104.12C665.7 104.12 667.908 106.184 667.908 109.496C667.908 112.904 665.7 114.92 662.676 114.92ZM662.676 98.984C656.148 98.984 651.348 103.352 651.348 109.496C651.348 115.736 656.148 120.104 662.676 120.104C669.156 120.104 673.956 115.736 673.956 109.496C673.956 103.352 669.156 98.984 662.676 98.984ZM665.796 85.592H659.46V91.544H649.524V96.584H675.732V91.544H665.796V85.592ZM678.852 84.872V129.08H685.188V84.872H678.852ZM711.611 94.136H725.915V89H705.323V118.616H709.067C716.747 118.616 722.795 118.376 729.467 117.176L728.843 111.944C723.131 112.904 717.899 113.24 711.611 113.336V94.136ZM744.635 101.24H738.203V84.92H731.867V129.224H738.203V106.472H744.635V101.24ZM764.36 94.28H773.24V89.144H748.952V94.28H757.976V95.816C757.976 103.976 754.472 112.616 747.224 116.216L751.256 121.064C756.2 118.376 759.56 113.288 761.336 107.144C763.304 112.712 766.712 117.512 771.464 119.96L775.112 115.064C767.912 111.32 764.36 102.824 764.36 95.816V94.28ZM778.52 84.92V97.016H771.464V102.248H778.52V106.28H771.464V111.512H778.52V129.128H784.856V84.92H778.52ZM822.655 124.904C818.191 124.904 815.887 124.424 815.887 123.128C815.887 121.832 818.191 121.304 822.655 121.304C827.167 121.304 829.471 121.832 829.471 123.128C829.471 124.424 827.167 124.904 822.655 124.904ZM822.655 117.08C814.159 117.08 809.215 119.192 809.215 123.128C809.215 127.016 814.159 129.128 822.655 129.128C831.199 129.128 836.191 127.016 836.191 123.128C836.191 119.192 831.199 117.08 822.655 117.08ZM825.871 108.008H819.535V111.08H806.383V115.832H839.071V111.08H825.871V108.008ZM826.159 101.672V98.6H838.543V93.704H814.207V85.64H807.871V98.6H819.823V101.672H802.783V106.664H842.863V101.672H826.159ZM858.795 113.816C855.483 113.816 853.275 110.312 853.275 103.736C853.275 97.208 855.483 93.704 858.795 93.704C862.059 93.704 864.315 97.208 864.315 103.736C864.315 110.312 862.059 113.816 858.795 113.816ZM858.795 87.992C852.075 87.992 847.179 94.04 847.179 103.736C847.179 113.48 852.075 119.576 858.795 119.576C865.467 119.576 870.411 113.48 870.411 103.736C870.411 94.04 865.467 87.992 858.795 87.992ZM887.979 101.576H881.547V84.92H875.211V129.128H881.547V106.808H887.979V101.576ZM902.951 113.816C899.639 113.816 897.431 110.312 897.431 103.736C897.431 97.256 899.639 93.704 902.951 93.704C906.215 93.704 908.471 97.256 908.471 103.736C908.471 110.312 906.215 113.816 902.951 113.816ZM902.951 87.992C896.231 87.992 891.335 94.04 891.335 103.736C891.335 113.48 896.231 119.576 902.951 119.576C909.623 119.576 914.567 113.48 914.567 103.736C914.567 94.04 909.623 87.992 902.951 87.992ZM931.799 100.424V95.24H925.703V84.92H919.367V129.128H925.703V113.336H931.799V108.152H925.703V100.424H931.799ZM958.895 114.92C955.919 114.92 953.711 112.904 953.711 109.544C953.711 106.184 955.919 104.12 958.895 104.12C961.871 104.12 964.031 106.184 964.031 109.496C964.031 112.904 961.871 114.92 958.895 114.92ZM958.895 98.984C952.463 98.984 947.663 103.352 947.663 109.496C947.663 115.736 952.463 120.104 958.895 120.104C965.279 120.104 970.031 115.736 970.031 109.496C970.031 103.352 965.279 98.984 958.895 98.984ZM962.015 85.688H955.679V91.448H945.887V96.488H971.615V91.448H962.015V85.688ZM987.167 102.2H980.831V84.92H974.495V129.128H980.831V107.432H987.167V102.2ZM1025.9 96.872H1001.56V86.504H995.227V101.912H1025.9V96.872ZM1001.18 115.016H994.795V128.168H1026.14V123.128H1001.18V115.016ZM990.283 106.424V111.512H1030.31V106.424H990.283ZM1075.6 84.872V129.224H1081.94V84.872H1075.6ZM1058.18 87.992C1051.51 87.992 1046.56 94.04 1046.56 103.736C1046.56 113.48 1051.51 119.576 1058.18 119.576C1064.85 119.576 1069.79 113.48 1069.79 103.736C1069.79 94.04 1064.85 87.992 1058.18 87.992ZM1058.18 93.704C1061.44 93.704 1063.7 97.208 1063.7 103.736C1063.7 110.312 1061.44 113.816 1058.18 113.816C1054.91 113.816 1052.66 110.312 1052.66 103.736C1052.66 97.208 1054.91 93.704 1058.18 93.704ZM1109.39 91.448C1115.15 91.448 1118.85 93.176 1118.85 96.296C1118.85 99.464 1115.15 101.144 1109.39 101.144C1103.58 101.144 1099.89 99.464 1099.89 96.296C1099.89 93.176 1103.58 91.448 1109.39 91.448ZM1109.39 106.184C1118.8 106.184 1125.37 102.344 1125.37 96.296C1125.37 90.296 1118.8 86.408 1109.39 86.408C1099.93 86.408 1093.41 90.296 1093.41 96.296C1093.41 102.344 1099.93 106.184 1109.39 106.184ZM1129.5 109.496H1089.47V114.632H1098.54V129.08H1104.93V114.632H1113.81V129.08H1120.24V114.632H1129.5V109.496Z" fill="#4F4F4F"/>
<path d="M938.032 665.952C941.456 664.928 943.952 662.784 945.2 660C946.48 662.656 948.976 664.704 952.368 665.664L953.84 663.104C949.584 661.952 947.024 659.072 946.832 655.808H953.136V653.152H946.832V649.824H943.536V653.152H937.264V655.808H943.504C943.344 659.2 940.816 662.208 936.528 663.392L938.032 665.952ZM946.832 665.024H943.536V669.984C940.752 670.08 938.032 670.08 935.76 670.08L936.176 672.8C941.296 672.8 948.208 672.768 954.576 671.488L954.32 669.088C951.92 669.472 949.36 669.696 946.832 669.824V665.024ZM956.08 649.536V678.528H959.408V649.536H956.08ZM990.126 663.232C984.43 662.272 979.79 657.984 979.79 653.504V651.328H976.302V653.504C976.302 657.952 971.661 662.272 965.934 663.232L967.342 665.984C972.046 665.056 976.142 662.176 978.062 658.336C979.918 662.176 984.014 665.056 988.75 665.984L990.126 663.232ZM979.662 672.16V665.408H976.366V672.16H965.07V674.88H991.246V672.16H979.662ZM1011.6 652.864H1004.72V649.568H1001.42V652.864H994.539V655.488H1011.6V652.864ZM999.211 662.304C999.211 660.48 1000.78 659.392 1003.05 659.392C1005.36 659.392 1006.92 660.48 1006.92 662.304C1006.92 664.128 1005.36 665.216 1003.05 665.216C1000.78 665.216 999.211 664.128 999.211 662.304ZM1010.06 662.304C1010.06 659.04 1007.21 656.832 1003.05 656.832C998.923 656.832 996.043 659.04 996.043 662.304C996.043 665.6 998.923 667.776 1003.05 667.776C1007.21 667.776 1010.06 665.6 1010.06 662.304ZM1002.09 669.568H998.763V677.92H1018.22V675.232H1002.09V669.568ZM1017.07 658.784V649.568H1013.77V671.232H1017.07V661.504H1021.16V658.784H1017.07ZM1033.26 651.584C1028.74 651.584 1025.42 654.432 1025.42 658.528C1025.42 662.624 1028.74 665.472 1033.26 665.472C1037.77 665.472 1041.13 662.624 1041.13 658.528C1041.13 654.432 1037.77 651.584 1033.26 651.584ZM1033.26 654.4C1035.94 654.4 1037.9 656 1037.9 658.528C1037.9 661.024 1035.94 662.656 1033.26 662.656C1030.6 662.656 1028.65 661.024 1028.65 658.528C1028.65 656 1030.6 654.4 1033.26 654.4ZM1044.39 649.536V678.496H1047.72V649.536H1044.39ZM1024.49 672.384C1029.61 672.384 1036.52 672.32 1042.89 671.104L1042.66 668.704C1036.46 669.632 1029.26 669.664 1024.07 669.664L1024.49 672.384ZM1070.68 655.168H1076.79V652.448H1061.08V655.168H1067.39V657.952C1067.39 662.752 1064.44 668.224 1060.03 670.336L1061.91 672.96C1065.24 671.328 1067.8 667.872 1069.08 663.84C1070.39 667.488 1072.86 670.688 1076.09 672.224L1077.91 669.632C1073.53 667.552 1070.68 662.432 1070.68 657.952V655.168ZM1087.45 660.96H1082.94V649.568H1079.64V678.464H1082.94V663.68H1087.45V660.96ZM1104.98 666.528V668.832H1110.65V671.52H1113.94V649.536H1110.65V666.528H1104.98ZM1099.22 653.088C1101.59 653.088 1103.22 654.112 1103.22 655.744C1103.22 657.376 1101.59 658.4 1099.22 658.4C1096.82 658.4 1095.19 657.376 1095.19 655.744C1095.19 654.112 1096.82 653.088 1099.22 653.088ZM1099.22 660.832C1103.45 660.832 1106.36 658.816 1106.36 655.744C1106.36 652.672 1103.45 650.656 1099.22 650.656C1094.97 650.656 1092.06 652.672 1092.06 655.744C1092.06 658.816 1094.97 660.832 1099.22 660.832ZM1097.91 670.592H1101.21V665.024C1103.67 664.864 1106.2 664.608 1108.63 664.192L1108.38 661.824C1102.26 662.592 1095.16 662.656 1089.85 662.688L1090.26 665.376C1092.57 665.376 1095.16 665.344 1097.91 665.216V670.592ZM1097.05 675.232V669.376H1093.75V677.92H1114.62V675.232H1097.05ZM1134.58 665.824C1135.38 660.704 1135.38 657.056 1135.38 654.528V652.608H1120.69V655.264H1132.15C1132.15 657.696 1132.08 661.056 1131.35 665.536L1134.58 665.824ZM1128.12 660.896H1124.88V669.6C1122.87 669.632 1120.92 669.664 1119.16 669.664L1119.51 672.384C1124.56 672.384 1131.19 672.256 1137.14 671.264L1136.98 668.864C1134.16 669.216 1131.12 669.408 1128.12 669.536V660.896ZM1146.1 661.44H1141.84V649.568H1138.52V678.464H1141.84V664.224H1146.1V661.44ZM1179.4 661.696H1162.69V658.784H1178.41V656.224H1162.69V653.44H1179.08V650.816H1159.4V664.32H1179.4V661.696ZM1182.21 666.912H1156.01V669.6H1167.46V678.528H1170.76V669.6H1182.21V666.912ZM1206.02 649.568V665.088H1209.32V649.568H1206.02ZM1190.44 666.432V678.112H1209.32V666.432H1206.05V669.632H1193.7V666.432H1190.44ZM1193.7 672.192H1206.05V675.456H1193.7V672.192ZM1193.73 650.88C1189.32 650.88 1186.05 653.632 1186.05 657.6C1186.05 661.568 1189.32 664.32 1193.73 664.32C1198.15 664.32 1201.38 661.568 1201.38 657.6C1201.38 653.632 1198.15 650.88 1193.73 650.88ZM1193.73 653.6C1196.32 653.6 1198.18 655.2 1198.18 657.6C1198.18 660.032 1196.32 661.6 1193.73 661.6C1191.11 661.6 1189.28 660.032 1189.28 657.6C1189.28 655.2 1191.11 653.6 1193.73 653.6ZM1228 651.2C1221.95 651.2 1217.38 654.464 1217.38 659.36C1217.38 664.288 1221.95 667.52 1228 667.52C1234.02 667.52 1238.62 664.288 1238.62 659.36C1238.62 654.464 1234.02 651.2 1228 651.2ZM1228 653.92C1232.26 653.92 1235.42 656.032 1235.42 659.36C1235.42 662.688 1232.26 664.8 1228 664.8C1223.71 664.8 1220.58 662.688 1220.58 659.36C1220.58 656.032 1223.71 653.92 1228 653.92ZM1214.94 672.096V674.816H1241.12V672.096H1214.94ZM1259.07 672.352V667.424H1268.09V664.768H1250.78V660.736H1267.45V651.584H1247.49V654.24H1264.19V658.112H1247.55V667.424H1255.77V672.352H1244.38V675.072H1270.56V672.352H1259.07ZM938.032 713.952C941.456 712.928 943.952 710.784 945.2 708C946.48 710.656 948.976 712.704 952.368 713.664L953.84 711.104C949.584 709.952 947.024 707.072 946.832 703.808H953.136V701.152H946.832V697.824H943.536V701.152H937.264V703.808H943.504C943.344 707.2 940.816 710.208 936.528 711.392L938.032 713.952ZM946.832 713.024H943.536V717.984C940.752 718.08 938.032 718.08 935.76 718.08L936.176 720.8C941.296 720.8 948.208 720.768 954.576 719.488L954.32 717.088C951.92 717.472 949.36 717.696 946.832 717.824V713.024ZM956.08 697.536V726.528H959.408V697.536H956.08ZM969.262 703.68H976.718V700.992H966.03V719.584H967.95C972.014 719.584 974.99 719.456 978.478 718.784L978.19 716.064C975.214 716.672 972.59 716.832 969.262 716.864V703.68ZM986.574 697.536V708.96H983.15V698.144H980.046V725.024H983.15V711.648H986.574V726.432H989.71V697.536H986.574ZM1011.6 700.864H1004.72V697.568H1001.42V700.864H994.539V703.488H1011.6V700.864ZM999.211 710.304C999.211 708.48 1000.78 707.392 1003.05 707.392C1005.36 707.392 1006.92 708.48 1006.92 710.304C1006.92 712.128 1005.36 713.216 1003.05 713.216C1000.78 713.216 999.211 712.128 999.211 710.304ZM1010.06 710.304C1010.06 707.04 1007.21 704.832 1003.05 704.832C998.923 704.832 996.043 707.04 996.043 710.304C996.043 713.6 998.923 715.776 1003.05 715.776C1007.21 715.776 1010.06 713.6 1010.06 710.304ZM1002.09 717.568H998.763V725.92H1018.22V723.232H1002.09V717.568ZM1017.07 706.784V697.568H1013.77V719.232H1017.07V709.504H1021.16V706.784H1017.07ZM1033.26 699.584C1028.74 699.584 1025.42 702.432 1025.42 706.528C1025.42 710.624 1028.74 713.472 1033.26 713.472C1037.77 713.472 1041.13 710.624 1041.13 706.528C1041.13 702.432 1037.77 699.584 1033.26 699.584ZM1033.26 702.4C1035.94 702.4 1037.9 704 1037.9 706.528C1037.9 709.024 1035.94 710.656 1033.26 710.656C1030.6 710.656 1028.65 709.024 1028.65 706.528C1028.65 704 1030.6 702.4 1033.26 702.4ZM1044.39 697.536V726.496H1047.72V697.536H1044.39ZM1024.49 720.384C1029.61 720.384 1036.52 720.32 1042.89 719.104L1042.66 716.704C1036.46 717.632 1029.26 717.664 1024.07 717.664L1024.49 720.384ZM1081.21 704.064V707.04H1074.14V709.6H1081.21V712.224H1084.51V697.568H1081.21V701.504H1075.23C1075.39 700.672 1075.45 699.776 1075.45 698.848H1062.52V701.504H1071.8C1071.35 705.536 1067.8 708.704 1060.95 710.176L1062.11 712.864C1068.47 711.424 1072.73 708.48 1074.52 704.064H1081.21ZM1069.05 723.552V720.896H1084.51V713.408H1065.69V716.032H1081.21V718.432H1065.75V726.208H1085.31V723.552H1069.05ZM1105.14 713.824C1105.94 708.704 1105.94 705.056 1105.94 702.528V700.608H1091.26V703.264H1102.71C1102.71 705.696 1102.65 709.056 1101.91 713.536L1105.14 713.824ZM1098.68 708.896H1095.45V717.6C1093.43 717.632 1091.48 717.664 1089.72 717.664L1090.07 720.384C1095.13 720.384 1101.75 720.256 1107.7 719.264L1107.54 716.864C1104.73 717.216 1101.69 717.408 1098.68 717.536V708.896ZM1116.66 709.44H1112.41V697.568H1109.08V726.464H1112.41V712.224H1116.66V709.44ZM1139.06 702.496H1122.77V708.992H1142.84V706.688H1126V704.64H1142.32V698.272H1122.71V700.544H1139.06V702.496ZM1125.78 721.664H1142.42V715.2H1122.45V717.472H1139.16V719.52H1122.52V726.144H1143.28V723.872H1125.78V721.664ZM1119.41 710.816V713.248H1145.62V710.816H1119.41ZM1175.69 723.488H1162.53V720.768H1175.69V723.488ZM1175.69 718.208H1162.53V715.776H1159.27V726.112H1178.95V715.776H1175.69V718.208ZM1173.29 703.36H1176.74V706.048H1173.29V703.36ZM1165 706.048H1161.48V703.36H1165V706.048ZM1170.76 711.36V708.64H1179.88V698.048H1176.74V700.864H1173.29V698.048H1170.15V708.096H1168.1V698.048H1165V700.864H1161.48V698.048H1158.34V708.64H1167.43V711.36H1156.04V714.016H1182.18V711.36H1170.76ZM1193.19 717.12C1190.66 717.12 1188.93 714.4 1188.93 709.888C1188.93 705.376 1190.66 702.656 1193.19 702.656C1195.68 702.656 1197.44 705.376 1197.44 709.888C1197.44 714.4 1195.68 717.12 1193.19 717.12ZM1193.19 699.68C1188.87 699.68 1185.76 703.648 1185.76 709.888C1185.76 716.128 1188.87 720.064 1193.19 720.064C1197.51 720.064 1200.61 716.128 1200.61 709.888C1200.61 703.648 1197.51 699.68 1193.19 699.68ZM1212.39 708.864H1207.88V697.568H1204.58V726.496H1207.88V711.584H1212.39V708.864ZM1219.52 700.896H1216.22V719.168H1218.14C1221.15 719.168 1224.48 719.008 1228.35 718.304L1228 715.488C1224.86 716.064 1222.08 716.288 1219.52 716.352V700.896ZM1236.38 697.568V709.056H1232.96V698.144H1229.86V725.024H1232.96V711.776H1236.38V726.464H1239.52V697.568H1236.38ZM1252.06 717.12C1249.53 717.12 1247.81 714.4 1247.81 709.856C1247.81 705.376 1249.53 702.656 1252.06 702.656C1254.56 702.656 1256.32 705.376 1256.32 709.856C1256.32 714.4 1254.56 717.12 1252.06 717.12ZM1252.06 699.68C1247.74 699.68 1244.64 703.648 1244.64 709.856C1244.64 716.128 1247.74 720.064 1252.06 720.064C1256.38 720.064 1259.49 716.128 1259.49 709.856C1259.49 703.648 1256.38 699.68 1252.06 699.68ZM1271.1 707.328V704.608H1266.75V697.568H1263.45V726.496H1266.75V715.872H1271.1V713.152H1266.75V707.328H1271.1ZM1298.1 700.864H1291.22V697.568H1287.92V700.864H1281.04V703.488H1298.1V700.864ZM1285.71 710.304C1285.71 708.48 1287.28 707.392 1289.55 707.392C1291.86 707.392 1293.42 708.48 1293.42 710.304C1293.42 712.128 1291.86 713.216 1289.55 713.216C1287.28 713.216 1285.71 712.128 1285.71 710.304ZM1296.56 710.304C1296.56 707.04 1293.71 704.832 1289.55 704.832C1285.42 704.832 1282.54 707.04 1282.54 710.304C1282.54 713.6 1285.42 715.776 1289.55 715.776C1293.71 715.776 1296.56 713.6 1296.56 710.304ZM1288.59 717.568H1285.26V725.92H1304.72V723.232H1288.59V717.568ZM1303.57 706.784V697.568H1300.27V719.232H1303.57V709.504H1307.66V706.784H1303.57ZM1314.89 702.976H1325.04V700.288H1311.6V719.392H1313.96C1319.18 719.392 1323.08 719.232 1327.47 718.432L1327.12 715.712C1323.08 716.416 1319.56 716.608 1314.89 716.64V702.976ZM1337.32 708.672H1332.81V697.536H1329.52V726.496H1332.81V711.392H1337.32V708.672ZM936.688 797.216V799.904H944.784C944.336 805.728 941.712 810.464 935.472 814.08L937.392 816.416C945.52 811.744 948.048 804.928 948.048 797.216H936.688ZM957.072 793.568V804.864H953.776V794.336H950.672V821.12H953.776V807.552H957.072V822.464H960.208V793.568H957.072ZM976.43 804.8H969.358V801.12H976.43V804.8ZM979.694 794.784H976.43V798.592H969.358V794.784H966.062V807.424H979.694V794.784ZM972.27 817.056H987.63V809.664H968.974V812.224H984.366V814.624H969.038V822.208H988.59V819.616H972.27V817.056ZM987.63 799.488V793.568H984.334V808.384H987.63V802.208H991.694V799.488H987.63ZM1004.62 799.168H1010.73V796.448H995.019V799.168H1001.32V801.952C1001.32 806.752 998.379 812.224 993.963 814.336L995.851 816.96C999.179 815.328 1001.74 811.872 1003.02 807.84C1004.33 811.488 1006.8 814.688 1010.03 816.224L1011.85 813.632C1007.47 811.552 1004.62 806.432 1004.62 801.952V799.168ZM1021.39 804.96H1016.88V793.568H1013.58V822.464H1016.88V807.68H1021.39V804.96ZM1040.74 806.944C1036.78 807.68 1033.29 807.808 1028.33 807.84V804.032H1038.15V795.392H1025.03V798.048H1034.89V801.536H1025.1V810.528H1027.43C1032.97 810.528 1036.74 810.4 1041.1 809.632L1040.74 806.944ZM1031.69 813.216H1028.36V821.92H1047.69V819.232H1031.69V813.216ZM1046.5 802.208V793.568H1043.21V814.88H1046.5V804.928H1050.6V802.208H1046.5ZM1061.85 795.552V798.208H1071.71C1071.32 802.112 1067.77 805.344 1060.6 806.752L1061.91 809.408C1070.52 807.584 1075.39 803.008 1075.39 795.552H1061.85ZM1067.93 817.216H1082.94V814.848H1067.93V812.544H1083.29V810.08H1064.63V822.112H1083.9V819.648H1067.93V817.216ZM1083.13 799.936V793.568H1079.83V808.864H1083.13V802.656H1087.23V799.936H1083.13ZM1103.06 797.12C1107.29 797.12 1109.94 798.304 1109.94 800.32C1109.94 802.368 1107.29 803.552 1103.06 803.552C1098.81 803.552 1096.15 802.368 1096.15 800.32C1096.15 798.304 1098.81 797.12 1103.06 797.12ZM1103.06 806.208C1109.3 806.208 1113.37 804 1113.37 800.32C1113.37 796.672 1109.3 794.464 1103.06 794.464C1096.82 794.464 1092.76 796.672 1092.76 800.32C1092.76 804 1096.82 806.208 1103.06 806.208ZM1096.6 813.504H1093.27V821.92H1113.21V819.232H1096.6V813.504ZM1089.98 808.544V811.232H1116.12V808.544H1089.98ZM1147.27 812.96H1150.57V793.568H1147.27V801.472H1141.58V804.192H1147.27V812.96ZM1128.46 795.808V798.464H1137.93C1137.38 803.104 1133.7 806.752 1127.05 808.832L1128.42 811.392C1136.87 808.704 1141.45 803.456 1141.45 795.808H1128.46ZM1142.7 810.656H1139.4V811.776C1139.4 815.584 1135.59 818.848 1130.02 819.808L1131.3 822.4C1135.75 821.6 1139.3 819.392 1141.06 816.288C1142.79 819.36 1146.31 821.536 1150.73 822.336L1152.04 819.744C1146.47 818.816 1142.7 815.552 1142.7 811.776V810.656ZM1169.13 796.48C1173.61 796.48 1176.01 797.344 1176.01 799.008C1176.01 800.64 1173.61 801.504 1169.13 801.504C1164.65 801.504 1162.25 800.64 1162.25 799.008C1162.25 797.344 1164.65 796.48 1169.13 796.48ZM1169.13 803.968C1175.59 803.968 1179.43 802.208 1179.43 799.008C1179.43 795.776 1175.59 794.016 1169.13 794.016C1162.63 794.016 1158.82 795.776 1158.82 799.008C1158.82 802.208 1162.63 803.968 1169.13 803.968ZM1162.47 817.28H1178.92V810.368H1159.14V812.864H1175.69V814.944H1159.21V822.208H1179.75V819.68H1162.47V817.28ZM1156.04 805.664V808.288H1182.21V805.664H1156.04ZM1218.84 807.68H1214.81C1215.54 803.584 1215.54 800.576 1215.54 797.856V795.328H1195.83V797.984H1212.31C1212.31 800.64 1212.31 803.648 1211.48 807.68H1192.69V810.4H1203.99V822.464H1207.32V810.4H1218.84V807.68ZM1242.77 815.616H1246.07V793.568H1242.77V801.024H1238.36V803.712H1242.77V807.168H1238.36V809.824H1242.77V815.616ZM1238.23 796.864H1231.99V793.536H1228.69V796.864H1222.2V799.488H1238.23V796.864ZM1226.8 806.432C1226.8 804.576 1228.24 803.392 1230.32 803.392C1232.44 803.392 1233.88 804.576 1233.88 806.432C1233.88 808.32 1232.44 809.44 1230.32 809.44C1228.24 809.44 1226.8 808.32 1226.8 806.432ZM1236.98 806.432C1236.98 803.072 1234.26 800.832 1230.32 800.832C1226.42 800.832 1223.7 803.072 1223.7 806.432C1223.7 809.76 1226.42 812.032 1230.32 812.032C1234.26 812.032 1236.98 809.76 1236.98 806.432ZM1230.58 819.232V813.76H1227.25V821.92H1246.74V819.232H1230.58ZM1268.66 796H1261.78V793.28H1258.48V796H1251.6V798.496H1268.66V796ZM1256.27 804.256C1256.27 802.752 1257.78 801.888 1260.11 801.888C1262.48 801.888 1263.99 802.752 1263.99 804.256C1263.99 805.728 1262.48 806.592 1260.11 806.592C1257.78 806.592 1256.27 805.728 1256.27 804.256ZM1267.12 804.256C1267.12 801.312 1264.37 799.488 1260.11 799.488C1255.89 799.488 1253.11 801.312 1253.11 804.256C1253.11 807.168 1255.89 808.96 1260.11 808.96C1264.37 808.96 1267.12 807.168 1267.12 804.256ZM1258.77 817.472H1274.13V810.656H1255.47V813.088H1270.87V815.168H1255.54V822.208H1275.09V819.744H1258.77V817.472ZM1274.13 800.096V793.504H1270.83V809.344H1274.13V802.816H1278.23V800.096H1274.13ZM1313.19 804.224C1307.36 803.392 1303.01 799.776 1303.01 796.032V794.496H1299.52V796.032C1299.52 799.84 1295.23 803.392 1289.35 804.224L1290.63 806.88C1295.43 806.112 1299.43 803.712 1301.28 800.352C1303.17 803.68 1307.11 806.112 1311.91 806.88L1313.19 804.224ZM1314.31 809.6H1288.19V812.288H1299.52V822.496H1302.82V812.288H1314.31V809.6ZM1348.63 793.6H1345.33V810.016H1348.63V793.6ZM1333.04 797.888C1335.6 797.888 1337.49 799.52 1337.49 801.984C1337.49 804.48 1335.6 806.08 1333.04 806.08C1330.48 806.08 1328.6 804.48 1328.6 801.984C1328.6 799.52 1330.48 797.888 1333.04 797.888ZM1333.04 808.8C1337.46 808.8 1340.69 806.016 1340.69 801.984C1340.69 797.952 1337.46 795.168 1333.04 795.168C1328.63 795.168 1325.36 797.952 1325.36 801.984C1325.36 806.016 1328.63 808.8 1333.04 808.8ZM1345.56 811.264H1342.32V812.544C1342.32 814.72 1341.11 817.44 1338.55 819.168C1336.02 817.568 1334.9 814.976 1334.9 812.544V811.264H1331.7V812.544C1331.7 815.36 1329.78 818.336 1326.1 819.648L1327.7 822.08C1330.39 821.088 1332.24 819.232 1333.3 816.96C1334.2 819.296 1335.89 821.28 1338.61 822.336C1341.24 821.248 1342.96 819.168 1343.89 816.896C1344.88 819.232 1346.77 821.088 1349.56 822.08L1351.19 819.648C1347.44 818.432 1345.56 815.52 1345.56 812.544V811.264ZM1377.46 801.856H1360.91V794.592H1357.62V804.544H1377.46V801.856ZM1360.72 813.312H1357.43V821.824H1377.62V819.168H1360.72V813.312ZM1354.23 808V810.656H1380.47V808H1354.23ZM960.624 852.224C954.8 851.392 950.448 847.776 950.448 844.032V842.496H946.96V844.032C946.96 847.84 942.672 851.392 936.784 852.224L938.064 854.88C942.864 854.112 946.864 851.712 948.72 848.352C950.608 851.68 954.544 854.112 959.344 854.88L960.624 852.224ZM961.744 857.6H935.632V860.288H946.96V870.496H950.256V860.288H961.744V857.6ZM983.553 852.704H976.513V846.016H983.553V852.704ZM986.785 843.392H973.249V855.328H986.785V843.392ZM978.241 858.72H975.041V869.728H976.545C978.881 869.728 981.377 869.6 984.001 868.704L983.457 866.08C981.729 866.656 979.905 866.912 978.241 867.008V858.72ZM990.209 868.192C988.737 868.192 987.649 867.52 987.649 866.4C987.649 865.248 988.737 864.608 990.209 864.608C991.649 864.608 992.737 865.248 992.737 866.4C992.737 867.52 991.649 868.192 990.209 868.192ZM990.209 862.304C987.009 862.304 984.737 863.904 984.737 866.4C984.737 868.896 987.009 870.464 990.209 870.464C993.377 870.464 995.649 868.896 995.649 866.4C995.649 863.904 993.377 862.304 990.209 862.304ZM991.809 856.672H988.609V858.976H982.945V861.408H997.441V858.976H991.809V856.672ZM994.817 847.872V841.568L991.521 841.536V856.16H994.817V850.592H998.913V847.872H994.817ZM1014.75 845.12C1018.97 845.12 1021.63 846.304 1021.63 848.32C1021.63 850.368 1018.97 851.552 1014.75 851.552C1010.49 851.552 1007.84 850.368 1007.84 848.32C1007.84 846.304 1010.49 845.12 1014.75 845.12ZM1014.75 854.208C1020.99 854.208 1025.05 852 1025.05 848.32C1025.05 844.672 1020.99 842.464 1014.75 842.464C1008.51 842.464 1004.45 844.672 1004.45 848.32C1004.45 852 1008.51 854.208 1014.75 854.208ZM1008.29 861.504H1004.96V869.92H1024.89V867.232H1008.29V861.504ZM1001.66 856.544V859.232H1027.81V856.544H1001.66ZM1058.96 849.216V852.544H1051.95V855.232H1058.96V858.56H1062.26V841.568H1058.96V846.528H1053.01C1053.17 845.632 1053.26 844.672 1053.26 843.648H1040.14V846.304H1049.74C1049.17 850.816 1045.42 854.368 1038.64 856.256L1039.95 858.88C1046.19 857.056 1050.45 853.824 1052.24 849.216H1058.96ZM1052.78 867.744C1048.88 867.744 1046.42 866.624 1046.42 864.608C1046.42 862.624 1048.88 861.504 1052.78 861.504C1056.72 861.504 1059.18 862.624 1059.18 864.608C1059.18 866.624 1056.72 867.744 1052.78 867.744ZM1052.78 858.912C1046.93 858.912 1043.15 861.088 1043.15 864.608C1043.15 868.16 1046.93 870.336 1052.78 870.336C1058.64 870.336 1062.45 868.16 1062.45 864.608C1062.45 861.088 1058.64 858.912 1052.78 858.912ZM1080.78 845.28C1084.91 845.28 1087.63 846.688 1087.63 849.024C1087.63 851.392 1084.91 852.8 1080.78 852.8C1076.62 852.8 1073.9 851.392 1073.9 849.024C1073.9 846.688 1076.62 845.28 1080.78 845.28ZM1080.78 855.456C1086.86 855.456 1091.02 852.96 1091.02 849.024C1091.02 845.12 1086.86 842.624 1080.78 842.624C1074.67 842.624 1070.51 845.12 1070.51 849.024C1070.51 852.96 1074.67 855.456 1080.78 855.456ZM1093.93 857.92H1067.73V860.64H1079.09V870.464H1082.38V860.64H1093.93V857.92ZM1106.51 843.584C1101.99 843.584 1098.67 846.432 1098.67 850.528C1098.67 854.624 1101.99 857.472 1106.51 857.472C1111.02 857.472 1114.38 854.624 1114.38 850.528C1114.38 846.432 1111.02 843.584 1106.51 843.584ZM1106.51 846.4C1109.19 846.4 1111.15 848 1111.15 850.528C1111.15 853.024 1109.19 854.656 1106.51 854.656C1103.85 854.656 1101.9 853.024 1101.9 850.528C1101.9 848 1103.85 846.4 1106.51 846.4ZM1117.64 841.536V870.496H1120.97V841.536H1117.64ZM1097.74 864.384C1102.86 864.384 1109.77 864.32 1116.14 863.104L1115.91 860.704C1109.71 861.632 1102.51 861.664 1097.32 861.664L1097.74 864.384ZM1158.81 852.224C1152.99 851.392 1148.64 847.776 1148.64 844.032V842.496H1145.15V844.032C1145.15 847.84 1140.86 851.392 1134.97 852.224L1136.25 854.88C1141.05 854.112 1145.05 851.712 1146.91 848.352C1148.8 851.68 1152.73 854.112 1157.53 854.88L1158.81 852.224ZM1159.93 857.6H1133.82V860.288H1145.15V870.496H1148.44V860.288H1159.93V857.6ZM1172.91 853.44C1177.96 852.896 1181.93 850.816 1183.5 847.84C1185.04 850.816 1189 852.896 1194.09 853.44L1195.24 850.848C1189.9 850.304 1186.19 848.064 1185.74 845.472H1194.19V842.816H1172.84V845.472H1181.23C1180.78 848.064 1177.07 850.304 1171.72 850.848L1172.91 853.44ZM1190.06 865.344C1190.06 867.008 1187.66 867.936 1183.44 867.936C1179.21 867.936 1176.84 867.008 1176.84 865.344C1176.84 863.616 1179.21 862.72 1183.44 862.72C1187.66 862.72 1190.06 863.616 1190.06 865.344ZM1196.56 857.536V854.912H1170.41V857.536H1181.84V860.192C1176.59 860.512 1173.48 862.336 1173.48 865.344C1173.48 868.608 1177.23 870.464 1183.44 870.464C1189.68 870.464 1193.39 868.608 1193.39 865.344C1193.39 862.336 1190.35 860.544 1185.13 860.224V857.536H1196.56ZM936.72 892.288V895.712H946.352C945.584 902.24 941.936 906.912 935.088 910.432L937.456 913.664C947.248 908.704 950.608 901.12 950.608 892.288H936.72ZM962.576 900.512H958.448V889.248H954.224V918.688H958.448V904H962.576V900.512ZM982.382 902.656C977.742 901.28 975.726 897.984 975.662 894.624H981.422V891.232H965.486V894.624H971.342C971.278 898.304 969.166 902.048 964.398 903.648L966.51 906.944C969.966 905.824 972.302 903.488 973.614 900.576C974.894 903.008 977.134 904.96 980.366 905.92L982.382 902.656ZM978.382 915.52C974.606 915.52 972.59 914.72 972.59 913.056C972.59 911.36 974.606 910.56 978.382 910.56C982.126 910.56 984.142 911.36 984.142 913.056C984.142 914.72 982.126 915.52 978.382 915.52ZM978.382 907.296C972.238 907.296 968.398 909.44 968.398 913.056C968.398 916.64 972.238 918.752 978.382 918.752C984.494 918.752 988.334 916.64 988.334 913.056C988.334 909.44 984.494 907.296 978.382 907.296ZM988.014 896.064V889.28H983.79V906.784H988.014V899.52H991.918V896.064H988.014ZM1004.16 906.176C1007.58 905.248 1009.92 903.264 1011.23 900.704C1012.54 903.136 1014.85 905.024 1018.24 905.888L1020.09 902.688C1015.77 901.568 1013.63 898.912 1013.34 896.096H1019.29V892.736H1013.31V889.536H1009.05V892.736H1003.13V896.096H1009.02C1008.73 899.04 1006.65 901.792 1002.27 902.944L1004.16 906.176ZM1013.31 905.312H1009.05V909.792C1006.37 909.888 1003.81 909.888 1001.63 909.888L1002.17 913.312C1007.23 913.28 1014.17 913.248 1020.51 911.968L1020.25 908.896C1018.01 909.248 1015.68 909.44 1013.31 909.6V905.312ZM1021.85 889.248V918.816H1026.08V889.248H1021.85ZM1048.7 902.72C1044.15 901.184 1042.11 897.632 1042.04 894.272H1047.77V890.912H1031.93V894.272H1037.72C1037.66 897.92 1035.51 901.664 1030.78 903.264L1032.92 906.592C1036.35 905.472 1038.65 903.104 1039.96 900.224C1041.21 902.848 1043.42 904.96 1046.65 906.016L1048.7 902.72ZM1035.48 911.488H1051.35V918.784H1055.58V908.128H1035.48V911.488ZM1051.35 889.312V896.32H1047V899.712H1051.35V906.816H1055.58V889.312H1051.35ZM1069.85 891.232C1065.24 891.232 1061.75 894.272 1061.75 898.496C1061.75 902.752 1065.24 905.76 1069.85 905.76C1074.46 905.76 1077.98 902.752 1077.98 898.496C1077.98 894.272 1074.46 891.232 1069.85 891.232ZM1069.85 894.848C1072.12 894.848 1073.85 896.192 1073.85 898.496C1073.85 900.8 1072.12 902.144 1069.85 902.144C1067.58 902.144 1065.85 900.8 1065.85 898.496C1065.85 896.192 1067.58 894.848 1069.85 894.848ZM1080.73 889.248V918.816H1084.95V889.248H1080.73ZM1061.05 912.832C1066.14 912.832 1073.05 912.768 1079.38 911.488L1079.13 908.448C1072.92 909.376 1065.69 909.408 1060.5 909.408L1061.05 912.832ZM1107.88 901.696H1102.09V898.048H1107.88V901.696ZM1112.04 891.168H1107.88V894.816H1102.09V891.168H1097.93V904.992H1112.04V891.168ZM1110.6 915.52C1106.86 915.52 1104.84 914.72 1104.84 913.056C1104.84 911.392 1106.86 910.592 1110.6 910.592C1114.38 910.592 1116.39 911.392 1116.39 913.056C1116.39 914.72 1114.38 915.52 1110.6 915.52ZM1110.6 907.296C1104.49 907.296 1100.65 909.44 1100.65 913.056C1100.65 916.64 1104.49 918.784 1110.6 918.784C1116.74 918.784 1120.58 916.64 1120.58 913.056C1120.58 909.44 1116.74 907.296 1110.6 907.296ZM1120.26 896.16V889.312H1116.04V906.656H1120.26V899.616H1124.17V896.16H1120.26ZM1146.95 915.008H1135.78V912.544H1146.95V915.008ZM1146.95 909.312H1135.78V906.688H1131.62V918.368H1151.14V906.688H1146.95V909.312ZM1137.54 901.216H1131.94V897.728H1137.54V901.216ZM1146.92 889.28V896H1141.67V890.784H1137.54V894.496H1131.94V890.784H1127.75V904.576H1141.67V899.392H1146.92V905.44H1151.14V889.28H1146.92ZM1176.13 889.248V918.816H1180.35V889.248H1176.13ZM1164.51 891.328C1160.07 891.328 1156.77 895.36 1156.77 901.824C1156.77 908.32 1160.07 912.384 1164.51 912.384C1168.96 912.384 1172.26 908.32 1172.26 901.824C1172.26 895.36 1168.96 891.328 1164.51 891.328ZM1164.51 895.136C1166.69 895.136 1168.19 897.472 1168.19 901.824C1168.19 906.208 1166.69 908.544 1164.51 908.544C1162.34 908.544 1160.83 906.208 1160.83 901.824C1160.83 897.472 1162.34 895.136 1164.51 895.136ZM1211.99 899.296H1199.86V894.048H1211.99V899.296ZM1216.11 890.72H1195.7V902.624H1216.11V890.72ZM1219.31 905.76H1192.63V909.12H1203.76V918.752H1207.99V909.12H1219.31V905.76ZM1226.48 898.432C1226.48 896.096 1228.05 894.688 1230.19 894.688C1232.37 894.688 1233.97 896.096 1233.97 898.432C1233.97 900.736 1232.37 902.144 1230.19 902.144C1228.05 902.144 1226.48 900.736 1226.48 898.432ZM1242.48 900.224V909.024H1246.7V889.28H1242.48V896.8H1237.81C1237.1 893.408 1234.03 891.104 1230.19 891.104C1225.84 891.104 1222.45 894.176 1222.45 898.432C1222.45 902.656 1225.84 905.728 1230.19 905.728C1233.97 905.728 1236.98 903.488 1237.78 900.224H1242.48ZM1239.02 907.264H1234.7V908.064C1234.7 910.944 1231.57 914.432 1225.39 915.328L1226.96 918.624C1231.7 917.92 1235.06 915.776 1236.82 912.96C1238.58 915.808 1241.97 917.92 1246.77 918.624L1248.3 915.328C1242.03 914.464 1239.02 911.136 1239.02 908.064V907.264ZM1275.98 889.312H1271.73V910.464H1275.98V889.312ZM1256.05 898.656C1256.05 896.224 1257.77 894.816 1259.95 894.816C1262.16 894.816 1263.82 896.224 1263.82 898.656C1263.82 901.024 1262.16 902.464 1259.95 902.464C1257.77 902.464 1256.05 901.024 1256.05 898.656ZM1267.95 898.656C1267.95 894.304 1264.46 891.168 1259.95 891.168C1255.44 891.168 1251.92 894.304 1251.92 898.656C1251.92 902.944 1255.44 906.112 1259.95 906.112C1264.46 906.112 1267.95 902.944 1267.95 898.656ZM1260.59 914.88V908.384H1256.37V918.24H1276.72V914.88H1260.59ZM1282.28 892.288V895.712H1291.91C1291.15 902.24 1287.5 906.912 1280.65 910.432L1283.02 913.664C1292.81 908.704 1296.17 901.12 1296.17 892.288H1282.28ZM1308.14 900.512H1304.01V889.248H1299.79V918.688H1304.01V904H1308.14V900.512ZM1330.25 894.496H1313.96V900.992H1334.02V898.688H1317.19V896.64H1333.51V890.272H1313.9V892.544H1330.25V894.496ZM1316.97 913.664H1333.61V907.2H1313.64V909.472H1330.34V911.52H1313.7V918.144H1334.47V915.872H1316.97V913.664ZM1310.6 902.816V905.248H1336.81V902.816H1310.6ZM1370.39 895.936H1353.88V889.92H1350.62V898.592H1370.39V895.936ZM1353.72 913.056H1370.2V905.888H1350.36V908.416H1366.91V910.688H1350.43V918.112H1371.1V915.552H1353.72V913.056ZM1347.23 901.024V903.68H1373.43V901.024H1347.23ZM1403.85 895.104C1403.85 898.56 1403.85 902.656 1402.73 908.32L1406.06 908.672C1407.18 902.688 1407.18 898.688 1407.18 895.104V892.256H1386.6V894.944H1403.85V895.104ZM1396.94 911.968V901.792H1393.61V911.968H1383.88V914.688H1409.99V911.968H1396.94ZM1437.13 889.6H1433.83V910.24H1437.13V889.6ZM1425.29 903.008H1418.02V894.624H1425.29V903.008ZM1428.49 891.968H1414.79V905.664H1428.49V891.968ZM1421.58 915.008V908.352H1418.25V917.664H1437.96V915.008H1421.58ZM1451.17 909.536C1448.84 909.536 1447.14 907.936 1447.14 905.504C1447.14 903.072 1448.84 901.472 1451.17 901.472C1453.51 901.472 1455.21 903.072 1455.21 905.504C1455.21 907.936 1453.51 909.536 1451.17 909.536ZM1451.17 898.752C1447.01 898.752 1444.01 901.568 1444.01 905.504C1444.01 909.472 1447.01 912.256 1451.17 912.256C1455.3 912.256 1458.34 909.472 1458.34 905.504C1458.34 901.568 1455.3 898.752 1451.17 898.752ZM1452.77 890.016H1449.48V894.016H1442.6V896.704H1459.53V894.016H1452.77V890.016ZM1469.64 901.184H1465.19V889.568H1461.86V918.496H1465.19V903.936H1469.64V901.184ZM1495.39 897.856H1478.85V890.592H1475.55V900.544H1495.39V897.856ZM1478.66 909.312H1475.36V917.824H1495.55V915.168H1478.66V909.312ZM1472.16 904V906.656H1498.4V904H1472.16ZM1526.64 903.296C1522.2 901.856 1519.57 898.304 1519.57 894.624V894.08H1525.75V891.424H1509.94V894.08H1516.21V894.624C1516.21 898.528 1513.62 902.272 1509.04 903.808L1510.77 906.4C1514.23 905.184 1516.66 902.784 1517.94 899.712C1519.22 902.56 1521.65 904.8 1524.98 905.856L1526.64 903.296ZM1513.14 911.104H1529.33V918.464H1532.63V908.448H1513.14V911.104ZM1529.33 889.536V907.008H1532.63V889.536H1529.33ZM1558.93 915.456H1546.67V912.256H1558.93V915.456ZM1558.93 909.696H1546.67V906.432H1543.41V918.112H1562.19V906.432H1558.93V909.696ZM1546.19 901.664C1543.63 901.664 1541.81 900.032 1541.81 897.6C1541.81 895.136 1543.63 893.568 1546.19 893.568C1548.69 893.568 1550.55 895.136 1550.55 897.6C1550.55 900.032 1548.69 901.664 1546.19 901.664ZM1558.9 889.568V896.224H1553.55C1552.91 892.992 1550 890.848 1546.19 890.848C1541.84 890.848 1538.64 893.632 1538.64 897.6C1538.64 901.6 1541.84 904.384 1546.19 904.384C1550.03 904.384 1552.98 902.176 1553.55 898.912H1558.9V905.056H1562.19V889.568H1558.9Z" fill="#333333"/>
<path d="M665.39 507.932L665.232 502.934L665.39 507.932ZM817.125 570.286L816.545 575.251L817.125 570.286ZM996.321 537.941L997.283 533.036L996.321 537.941ZM911.403 421.808C908.721 422.466 907.083 425.173 907.744 427.855L918.51 471.559C919.171 474.241 921.88 475.882 924.561 475.224C927.242 474.566 928.88 471.858 928.22 469.176L918.65 430.329L957.488 420.798C960.17 420.14 961.808 417.433 961.147 414.751C960.486 412.069 957.777 410.428 955.096 411.086L911.403 421.808ZM565.111 537.914L565.137 542.914L565.111 537.914ZM665.548 512.93C696.348 511.987 716.989 524.817 738.625 539.634C760.165 554.385 782.848 571.279 816.545 575.251L817.706 565.32C786.87 561.685 766.205 546.407 744.27 531.385C722.431 516.429 699.47 501.886 665.232 502.934L665.548 512.93ZM816.545 575.251C835.102 577.439 847.003 574.53 856.633 568.975C861.315 566.275 865.308 563.034 869.077 559.825C872.923 556.55 876.463 553.376 880.628 550.321C888.711 544.393 899.053 539.006 916.367 536.806C933.853 534.584 958.577 535.6 995.359 542.847L997.283 533.036C959.943 525.679 934.052 524.478 915.097 526.886C895.971 529.316 884.048 535.405 874.708 542.256C870.161 545.591 866.201 549.133 862.59 552.208C858.902 555.348 855.482 558.09 851.63 560.312C844.189 564.604 834.53 567.303 817.706 565.32L816.545 575.251ZM995.359 542.847C1013.97 546.515 1027.25 547.663 1035.95 546.502C1040.29 545.924 1044.15 544.695 1046.92 542.301C1049.98 539.653 1051.12 536.086 1050.76 532.387C1050.42 528.993 1048.84 525.587 1046.81 522.395C1044.74 519.133 1041.93 515.689 1038.63 512.158C1032.03 505.093 1023.11 497.279 1013.17 489.348C993.252 473.466 968.734 456.717 949.262 443.975C939.512 437.596 931 432.203 924.924 428.404C921.886 426.505 919.455 425.003 917.783 423.975C916.946 423.461 916.299 423.066 915.86 422.798C915.641 422.664 915.473 422.562 915.36 422.493C915.303 422.459 915.26 422.433 915.231 422.415C915.217 422.406 915.206 422.4 915.198 422.395C915.194 422.393 915.191 422.391 915.189 422.39C915.187 422.389 915.186 422.388 912.599 426.664C910.012 430.94 910.012 430.94 910.014 430.941C910.015 430.942 910.018 430.943 910.021 430.945C910.027 430.949 910.037 430.955 910.051 430.964C910.078 430.98 910.119 431.005 910.173 431.038C910.282 431.104 910.445 431.203 910.659 431.334C911.089 431.596 911.727 431.986 912.553 432.494C914.206 433.509 916.614 434.997 919.629 436.882C925.659 440.652 934.112 446.007 943.793 452.341C963.181 465.028 987.39 481.575 1006.94 497.164C1016.72 504.968 1025.21 512.432 1031.32 518.978C1034.38 522.253 1036.75 525.197 1038.37 527.755C1040.04 530.383 1040.69 532.229 1040.8 533.366C1040.89 534.198 1040.71 534.443 1040.37 534.736C1039.74 535.282 1038.13 536.122 1034.62 536.59C1027.64 537.521 1015.73 536.67 997.283 533.036L995.359 542.847ZM464.391 508.708C462.179 513.19 462.18 513.19 462.181 513.191C462.181 513.191 462.183 513.192 462.184 513.192C462.187 513.193 462.19 513.195 462.195 513.197C462.203 513.202 462.216 513.208 462.232 513.216C462.264 513.232 462.31 513.254 462.37 513.284C462.491 513.343 462.667 513.429 462.897 513.54C463.357 513.762 464.03 514.084 464.899 514.493C466.636 515.311 469.154 516.475 472.301 517.868C478.591 520.653 487.414 524.364 497.55 528.072C517.66 535.43 543.545 543.006 565.137 542.914L565.085 532.914C545.376 532.998 520.901 525.971 500.977 518.682C491.096 515.066 482.482 511.443 476.341 508.725C473.272 507.366 470.826 506.235 469.152 505.447C468.315 505.053 467.671 504.745 467.24 504.536C467.025 504.432 466.863 504.353 466.756 504.301C466.702 504.275 466.663 504.256 466.637 504.243C466.625 504.237 466.616 504.232 466.61 504.23C466.607 504.228 466.605 504.227 466.604 504.227C466.604 504.226 466.604 504.226 466.604 504.226C466.604 504.226 466.604 504.227 464.391 508.708ZM565.137 542.914C587.023 542.82 602.708 535.133 617.483 527.81C632.292 520.471 646.154 513.523 665.548 512.93L665.232 502.934C643.405 503.602 627.75 511.557 613.035 518.849C598.288 526.158 584.443 532.831 565.085 532.914L565.137 542.914Z" fill="#E6B3C2"/>
<path d="M574.138 346.884L577.651 343.329L574.138 346.884ZM681.119 250.858L679.072 246.295L679.072 246.295L681.119 250.858ZM718.414 346.854L721.309 342.78L718.414 346.854ZM802.171 299.615L801.341 294.684L802.171 299.615ZM909.881 388.464C912.623 388.791 915.11 386.834 915.435 384.092L920.734 339.41C921.059 336.668 919.1 334.18 916.358 333.852C913.615 333.525 911.129 335.482 910.804 338.224L906.093 377.941L866.371 373.196C863.629 372.869 861.142 374.826 860.817 377.568C860.492 380.31 862.451 382.798 865.194 383.126L909.881 388.464ZM474.457 373.442C478.547 376.322 478.547 376.323 478.546 376.324C478.546 376.324 478.546 376.324 478.546 376.324C478.546 376.324 478.547 376.323 478.549 376.32C478.552 376.315 478.559 376.306 478.568 376.292C478.588 376.265 478.62 376.221 478.663 376.16C478.751 376.038 478.887 375.851 479.07 375.604C479.436 375.11 479.988 374.379 480.713 373.456C482.165 371.609 484.302 369.005 487.016 366.017C492.467 360.016 500.136 352.591 509.144 346.629C518.181 340.647 528.23 336.361 538.531 336.115C548.633 335.873 559.555 339.499 570.625 350.439L577.651 343.329C564.833 330.663 551.35 325.805 538.283 326.118C525.415 326.425 513.53 331.729 503.619 338.288C493.679 344.867 485.385 352.934 479.612 359.29C476.713 362.48 474.422 365.27 472.848 367.273C472.061 368.275 471.451 369.082 471.034 369.646C470.825 369.928 470.664 370.149 470.552 370.304C470.496 370.382 470.453 370.442 470.422 370.486C470.406 370.507 470.394 370.525 470.385 370.537C470.381 370.544 470.377 370.549 470.374 370.553C470.372 370.555 470.371 370.558 470.37 370.559C470.369 370.561 470.367 370.563 474.457 373.442ZM570.625 350.439C577.004 356.743 583.341 360.631 589.761 361.961C596.322 363.321 602.371 361.886 607.794 358.684C613.098 355.551 617.829 350.724 622.139 345.145C626.472 339.537 630.572 332.912 634.532 325.925C638.491 318.941 642.399 311.433 646.283 304.096C650.19 296.716 654.089 289.478 658.115 282.838C666.327 269.295 674.469 259.317 683.166 255.421L679.072 246.295C667.285 251.574 657.785 264.089 649.563 277.648C645.372 284.559 641.355 292.024 637.444 299.411C633.511 306.842 629.699 314.166 625.832 320.988C621.966 327.809 618.134 333.966 614.223 339.028C610.29 344.119 606.468 347.849 602.703 350.072C599.057 352.225 595.523 352.945 591.782 352.169C587.9 351.365 583.216 348.828 577.651 343.329L570.625 350.439ZM683.166 255.421C687.925 253.29 690.514 253.178 691.778 253.485C692.639 253.694 693.515 254.238 694.36 256.287C695.279 258.517 695.844 261.865 696.091 266.438C696.334 270.938 696.253 276.146 696.137 281.921C695.91 293.273 695.536 306.689 697.681 318.94C699.834 331.233 704.662 343.208 715.519 350.928L721.309 342.78C713.51 337.235 709.468 328.284 707.531 317.223C705.587 306.121 705.902 293.755 706.136 282.13C706.25 276.418 706.343 270.839 706.077 265.907C705.814 261.048 705.186 256.319 703.604 252.482C701.948 248.465 699.013 244.952 694.128 243.767C689.646 242.68 684.555 243.838 679.072 246.295L683.166 255.421ZM715.519 350.928C725.876 358.292 735.231 359.666 743.868 356.182C751.88 352.95 758.394 345.82 764.177 338.676C770.268 331.15 775.687 323.442 782.151 316.873C788.487 310.435 795.147 305.862 803.001 304.547L801.341 294.684C790.533 296.495 782.057 302.706 775.02 309.856C768.112 316.876 761.92 325.562 756.402 332.38C750.575 339.58 745.48 344.746 740.121 346.907C735.387 348.817 729.609 348.681 721.309 342.78L715.519 350.928ZM803.001 304.547C810.374 303.312 820.414 306.833 832.157 314.303C843.646 321.611 855.737 332.027 866.835 342.799C877.904 353.543 887.841 364.501 895.019 372.785C898.604 376.924 901.494 380.386 903.484 382.809C904.478 384.02 905.248 384.972 905.766 385.617C906.025 385.94 906.222 386.186 906.352 386.35C906.417 386.432 906.466 386.494 906.498 386.534C906.514 386.554 906.525 386.569 906.533 386.578C906.537 386.583 906.539 386.586 906.541 386.588C906.542 386.589 906.542 386.59 906.542 386.59C906.542 386.59 906.542 386.59 910.47 383.499C914.397 380.408 914.396 380.407 914.395 380.406C914.394 380.405 914.393 380.403 914.392 380.402C914.389 380.398 914.385 380.393 914.38 380.387C914.371 380.375 914.356 380.357 914.338 380.334C914.301 380.287 914.248 380.22 914.178 380.131C914.037 379.955 913.831 379.695 913.561 379.36C913.021 378.688 912.229 377.708 911.21 376.467C909.172 373.986 906.225 370.455 902.574 366.241C895.278 357.82 885.138 346.635 873.797 335.627C862.485 324.647 849.835 313.701 837.519 305.867C825.457 298.194 812.629 292.793 801.341 294.684L803.001 304.547Z" fill="#C5AFAA"/>
<path d="M587.692 312.952L587.574 307.953L587.692 312.952ZM820.256 246.624L818.398 251.264L820.256 246.624ZM938.225 391.437C940.866 392.244 943.66 390.758 944.465 388.117L957.58 345.082C958.384 342.441 956.895 339.646 954.254 338.839C951.612 338.032 948.818 339.518 948.014 342.159L936.356 380.413L898.092 368.722C895.451 367.915 892.657 369.401 891.852 372.042C891.047 374.683 892.536 377.478 895.178 378.285L938.225 391.437ZM475.012 359.138C478.618 362.605 478.616 362.606 478.615 362.607C478.615 362.608 478.614 362.608 478.614 362.609C478.614 362.609 478.614 362.609 478.615 362.608C478.616 362.607 478.62 362.602 478.627 362.595C478.641 362.581 478.665 362.557 478.699 362.522C478.767 362.453 478.876 362.343 479.026 362.196C479.325 361.9 479.787 361.452 480.406 360.874C481.645 359.717 483.514 358.038 485.983 356.007C490.923 351.942 498.247 346.478 507.703 340.96C526.625 329.918 553.972 318.722 587.81 317.951L587.574 307.953C551.621 308.773 522.628 320.669 502.658 332.322C492.668 338.151 484.908 343.936 479.625 348.283C476.983 350.457 474.956 352.275 473.577 353.563C472.887 354.207 472.359 354.719 471.996 355.077C471.815 355.256 471.675 355.397 471.576 355.497C471.527 355.547 471.488 355.586 471.46 355.615C471.446 355.63 471.435 355.642 471.426 355.651C471.421 355.655 471.418 355.659 471.414 355.663C471.413 355.664 471.411 355.666 471.41 355.667C471.409 355.669 471.407 355.67 475.012 359.138ZM587.81 317.951C604.357 317.574 613.623 321.584 619.484 326.742C625.551 332.08 628.648 339.164 631.9 346.728C633.464 350.365 635.131 354.252 637.225 357.637C639.357 361.084 642.116 364.33 646.063 366.527C654.07 370.985 664.887 370.07 680.356 363.729L676.556 354.476C661.689 360.57 654.716 359.904 650.921 357.791C648.968 356.704 647.323 354.959 645.728 352.382C644.096 349.743 642.714 346.571 641.087 342.785C637.956 335.504 634.1 326.288 626.086 319.237C617.867 312.004 605.923 307.535 587.574 307.953L587.81 317.951ZM680.356 363.729C696.583 357.078 710.081 344.832 721.973 331.093C733.817 317.411 744.55 301.641 754.741 287.946C765.125 273.991 774.933 262.202 785.367 255.204C795.453 248.439 805.921 246.258 818.398 251.264L822.115 241.984C806.084 235.552 792.158 238.603 779.792 246.897C767.774 254.958 757.072 268.056 746.716 281.972C736.168 296.147 725.934 311.232 714.41 324.545C702.935 337.802 690.667 348.692 676.556 354.476L680.356 363.729ZM818.398 251.264C831.699 256.601 845.71 267.635 859.394 281.646C873.012 295.591 885.989 312.15 897.268 328.102C908.536 344.04 918.046 359.282 924.742 370.545C928.088 376.173 930.727 380.801 932.526 384.016C933.426 385.623 934.115 386.877 934.578 387.725C934.809 388.15 934.984 388.473 935.1 388.688C935.158 388.795 935.201 388.876 935.23 388.929C935.244 388.955 935.254 388.975 935.261 388.987C935.264 388.993 935.267 388.998 935.268 389.001C935.269 389.002 935.269 389.003 935.269 389.003C935.27 389.004 935.269 389.003 939.682 386.656C944.094 384.308 944.094 384.307 944.093 384.305C944.092 384.304 944.091 384.302 944.09 384.3C944.088 384.295 944.085 384.289 944.08 384.281C944.072 384.265 944.059 384.242 944.043 384.212C944.011 384.152 943.964 384.065 943.902 383.95C943.779 383.72 943.596 383.383 943.356 382.943C942.877 382.064 942.17 380.779 941.251 379.138C939.415 375.856 936.732 371.152 933.337 365.44C926.548 354.021 916.893 338.545 905.431 322.334C893.98 306.137 880.664 289.119 866.545 274.663C852.492 260.273 837.321 248.085 822.115 241.984L818.398 251.264Z" fill="#C1C1D0"/>
<g filter="url(#filter0_d_12_11689)">
<path d="M914.022 417.799C915.965 415.839 915.951 412.673 913.99 410.728L882.027 379.026C880.065 377.081 876.899 377.092 874.956 379.052C873.012 381.012 873.026 384.178 874.987 386.123L903.399 414.303L875.243 442.691C873.299 444.651 873.313 447.817 875.274 449.762C877.236 451.707 880.402 451.696 882.345 449.736L914.022 417.799ZM483.207 420.855L910.493 419.276L910.448 409.276L483.162 410.855L483.207 420.855Z" fill="#333333"/>
</g>
<path d="M1299.64 329.48C1305.55 328.832 1309.4 326.708 1311.52 323.972C1313.68 326.708 1317.54 328.868 1323.4 329.48L1325.42 324.908C1318.33 324.188 1315.41 321.272 1314.69 318.86H1324.16V314.324H1314.44V310.76H1308.61V314.324H1298.92V318.86H1308.39C1307.71 321.308 1304.83 324.188 1297.63 324.908L1299.64 329.48ZM1326.9 330.74H1296.3V335.384H1308.61V344.456H1314.44V335.384H1326.9V330.74ZM1347.52 320.156V324.8H1352.09V335.528H1357.93V310.652H1352.09V320.156H1347.52ZM1349.83 327.428C1344.28 325.844 1342.45 322.172 1342.3 318.824H1348.53V314.324H1342.3V310.904H1336.47V314.324H1330.28V318.824H1336.47C1336.36 322.46 1334.49 326.276 1328.95 327.932L1331.79 332.504C1335.57 331.388 1338.02 329.12 1339.46 326.276C1341.01 328.868 1343.45 330.92 1347.09 331.964L1349.83 327.428ZM1341.04 339.344V333.548H1335.21V343.916H1358.65V339.344H1341.04ZM1385.95 316.232C1389.98 316.232 1392.39 317.24 1392.39 319.292C1392.39 321.38 1389.98 322.388 1385.95 322.388C1381.92 322.388 1379.5 321.38 1379.5 319.292C1379.5 317.24 1381.92 316.232 1385.95 316.232ZM1385.95 326.96C1393.26 326.96 1398.37 323.972 1398.37 319.292C1398.37 314.648 1393.26 311.66 1385.95 311.66C1378.64 311.66 1373.53 314.648 1373.53 319.292C1373.53 323.972 1378.64 326.96 1385.95 326.96ZM1401.32 329.192H1370.76V333.836H1377.13V344.348H1383.03V333.836H1388.83V344.348H1394.73V333.836H1401.32V329.192ZM1431.34 324.152H1413.23V322.424H1430.33V318.068H1413.23V316.376H1431.02V311.876H1407.44V328.652H1431.34V324.152ZM1434.4 330.38H1403.8V335.024H1410.43V344.42H1416.26V335.024H1422.13V344.42H1427.96V335.024H1434.4V330.38ZM1436.99 335.924V340.604H1467.56V335.924H1436.99ZM1440.02 312.704V330.956H1464.42V312.704H1458.66V317.744H1445.78V312.704H1440.02ZM1445.78 322.208H1458.66V326.384H1445.78V322.208ZM1475.15 328.328C1477.34 328.328 1478.96 326.6 1478.96 324.368C1478.96 322.136 1477.34 320.408 1475.15 320.408C1472.92 320.408 1471.33 322.136 1471.33 324.368C1471.33 326.6 1472.92 328.328 1475.15 328.328ZM1475.15 341.504C1477.34 341.504 1478.96 339.74 1478.96 337.508C1478.96 335.276 1477.34 333.548 1475.15 333.548C1472.92 333.548 1471.33 335.276 1471.33 337.508C1471.33 339.74 1472.92 341.504 1475.15 341.504ZM1513.64 327.428H1519.47V310.58H1513.64V314.828H1506.22V319.4H1513.64V327.428ZM1510.4 321.164C1506.18 321.92 1502.15 322.208 1498.52 322.316V311.876H1492.72V327.068H1495.67C1500.24 327.068 1505.54 326.816 1511.08 325.808L1510.4 321.164ZM1502.69 339.56V338.408H1519.47V328.58H1496.82V333.08H1513.64V334.16H1496.86V344.06H1520.12V339.56H1502.69ZM1546.75 327.428H1552.59V310.58H1546.75V314.828H1539.34V319.4H1546.75V327.428ZM1543.51 321.164C1539.3 321.92 1535.27 322.208 1531.63 322.316V311.876H1525.84V327.068H1528.79C1533.36 327.068 1538.65 326.816 1544.2 325.808L1543.51 321.164ZM1535.81 339.56V338.408H1552.59V328.58H1529.94V333.08H1546.75V334.16H1529.98V344.06H1553.23V339.56H1535.81ZM1576.99 313.856H1569.97V310.58H1564.14V313.856H1557.12V318.356H1576.99V313.856ZM1564.21 325.844C1564.21 324.332 1565.4 323.612 1567.05 323.612C1568.71 323.612 1569.9 324.332 1569.9 325.844C1569.9 327.392 1568.71 328.112 1567.05 328.112C1565.4 328.112 1564.21 327.392 1564.21 325.844ZM1575.48 325.844C1575.48 321.992 1571.95 319.22 1567.05 319.22C1562.16 319.22 1558.63 321.992 1558.63 325.844C1558.63 329.768 1562.16 332.504 1567.05 332.504C1571.95 332.504 1575.48 329.768 1575.48 325.844ZM1567.59 334.052H1561.76V343.916H1584.98V339.344H1567.59V334.052ZM1583.97 320.516V310.616H1578.14V335.888H1583.97V325.268H1588.19V320.516H1583.97ZM1599.76 314.684V319.256H1607.46C1606.81 325.592 1604.08 329.84 1597.85 333.656L1601.23 337.652C1610.52 332.108 1613.22 324.62 1613.22 314.684H1599.76ZM1622.08 310.616V322.892H1619.99V311.516H1614.59V343.052H1619.99V327.5H1622.08V344.348H1627.59V310.616H1622.08ZM1643.17 322.496H1638.13V320.012H1643.17V322.496ZM1648.93 312.164H1643.17V315.692H1638.13V312.164H1632.37V326.96H1648.93V312.164ZM1641.44 338.516H1658.44V328.76H1635.65V333.152H1652.68V334.412H1635.68V344.24H1659.3V339.812H1641.44V338.516ZM1658.44 316.7V310.616H1652.6V327.644H1658.44V321.38H1662.61V316.7H1658.44ZM1677.73 318.5H1683.99V313.748H1665.27V318.5H1671.86V319.112C1671.86 324.548 1669.84 330.812 1663.9 333.584L1667.14 338.156C1670.96 336.392 1673.48 333.044 1674.88 328.976C1676.4 332.612 1678.81 335.672 1682.48 337.292L1685.65 332.72C1679.74 330.056 1677.73 324.08 1677.73 319.112V318.5ZM1696.02 323.108H1691.48V310.652H1685.65V344.42H1691.48V327.86H1696.02V323.108ZM1713.1 341H1719.54V319.544H1726.81V314.18H1705.86V319.544H1713.1V341ZM1735.55 341H1743.29L1751.32 314.18H1744.76L1741.74 326.42C1740.98 329.3 1740.44 332.036 1739.65 334.988H1739.47C1738.72 332.036 1738.18 329.3 1737.38 326.42L1734.32 314.18H1727.52L1735.55 341Z" fill="#8C7E7E"/>
<path d="M1280.54 310.823C1279.73 307.744 1277.36 305.319 1274.35 304.496C1268.89 303 1247 303 1247 303C1247 303 1225.11 303 1219.65 304.496C1216.64 305.319 1214.27 307.744 1213.46 310.823C1212 316.405 1212 328.051 1212 328.051C1212 328.051 1212 339.696 1213.46 345.278C1214.27 348.357 1216.64 350.681 1219.65 351.504C1225.11 353 1247 353 1247 353C1247 353 1268.89 353 1274.35 351.504C1277.36 350.681 1279.73 348.357 1280.54 345.278C1282 339.696 1282 328.051 1282 328.051C1282 328.051 1282 316.405 1280.54 310.823ZM1239.84 338.624V317.477L1258.14 328.051L1239.84 338.624Z" fill="#991313"/>
<path d="M1505.61 366.176H1503.11V381.728H1505.61V366.176ZM1500.19 372.152H1492.36V369.224H1500.14V367.232H1489.89V374.144H1500.19V372.152ZM1493.27 381.488H1495.72V377.864C1497.81 377.744 1499.92 377.576 1501.94 377.312L1501.82 375.512C1497.26 375.968 1492.05 376.016 1487.85 376.016L1488.19 378.032C1489.75 378.032 1491.47 378.008 1493.27 377.96V381.488ZM1500.14 380.048H1497.62V380.912C1497.62 383.312 1494.83 385.352 1490.56 385.88L1491.47 387.776C1494.86 387.32 1497.57 385.904 1498.89 383.864C1500.19 385.904 1502.87 387.32 1506.26 387.776L1507.17 385.88C1502.87 385.352 1500.14 383.312 1500.14 380.912V380.048ZM1521.3 374.552C1521.83 372.056 1521.83 370.112 1521.83 368.72V367.424H1510.96V369.44H1519.41C1519.38 370.712 1519.31 372.272 1518.9 374.336L1521.3 374.552ZM1523.13 375.704C1520.99 375.992 1518.66 376.136 1516.41 376.232V372.2H1513.96V376.304C1512.45 376.328 1510.96 376.328 1509.64 376.328L1509.9 378.344C1513.77 378.344 1518.78 378.224 1523.3 377.48L1523.13 375.704ZM1519.77 385.88C1516.77 385.88 1514.99 385.16 1514.99 383.816C1514.99 382.472 1516.77 381.752 1519.77 381.752C1522.82 381.752 1524.59 382.472 1524.59 383.816C1524.59 385.16 1522.82 385.88 1519.77 385.88ZM1519.77 379.808C1515.28 379.808 1512.47 381.296 1512.47 383.816C1512.47 386.336 1515.28 387.824 1519.77 387.824C1524.3 387.824 1527.11 386.336 1527.11 383.816C1527.11 381.296 1524.3 379.808 1519.77 379.808ZM1526.94 371.84V366.152H1524.45V379.568H1526.94V373.88H1529.82V371.84H1526.94ZM1546.93 370.328C1546.93 372.92 1546.93 375.992 1546.09 380.24L1548.59 380.504C1549.43 376.016 1549.43 373.016 1549.43 370.328V368.192H1534V370.208H1546.93V370.328ZM1541.75 382.976V375.344H1539.25V382.976H1531.96V385.016H1551.54V382.976H1541.75ZM1565.19 380.84C1563.29 380.84 1562 378.8 1562 375.416C1562 372.032 1563.29 369.992 1565.19 369.992C1567.06 369.992 1568.38 372.032 1568.38 375.416C1568.38 378.8 1567.06 380.84 1565.19 380.84ZM1565.19 367.76C1561.95 367.76 1559.62 370.736 1559.62 375.416C1559.62 380.096 1561.95 383.048 1565.19 383.048C1568.43 383.048 1570.76 380.096 1570.76 375.416C1570.76 370.736 1568.43 367.76 1565.19 367.76ZM1579.59 374.648H1576.2V366.176H1573.73V387.872H1576.2V376.688H1579.59V374.648ZM1594.8 374.048C1591.63 374.696 1588.71 374.936 1585.27 374.96V367.424H1582.8V377.024H1584.6C1588.42 377.024 1591.63 376.76 1595.09 376.04L1594.8 374.048ZM1587.6 381.344H1596.94V385.592H1587.6V381.344ZM1585.15 387.584H1599.36V379.376H1585.15V387.584ZM1596.87 366.176V378.392H1599.36V366.176H1596.87ZM1611.66 372.488C1611.66 370.64 1613.08 369.416 1615.02 369.416C1616.94 369.416 1618.36 370.64 1618.36 372.488C1618.36 374.36 1616.94 375.584 1615.02 375.584C1613.08 375.584 1611.66 374.36 1611.66 372.488ZM1620.78 372.488C1620.78 369.464 1618.33 367.376 1615.02 367.376C1611.69 367.376 1609.24 369.464 1609.24 372.488C1609.24 375.512 1611.69 377.624 1615.02 377.624C1618.33 377.624 1620.78 375.512 1620.78 372.488ZM1617.18 381.392H1621.14V385.544H1617.18V381.392ZM1623.59 381.392H1626.4V379.424H1611.93V381.392H1614.76V385.544H1611.73V387.512H1626.66V385.544H1623.59V381.392ZM1625.89 371.216V366.176H1623.42V378.32H1625.89V373.256H1628.97V371.216H1625.89ZM1642.48 374.552C1643 372.056 1643 370.112 1643 368.72V367.424H1632.13V369.44H1640.58C1640.56 370.712 1640.48 372.272 1640.08 374.336L1642.48 374.552ZM1644.3 375.704C1642.16 375.992 1639.84 376.136 1637.58 376.232V372.2H1635.13V376.304C1633.62 376.328 1632.13 376.328 1630.81 376.328L1631.08 378.344C1634.94 378.344 1639.96 378.224 1644.47 377.48L1644.3 375.704ZM1640.94 385.88C1637.94 385.88 1636.16 385.16 1636.16 383.816C1636.16 382.472 1637.94 381.752 1640.94 381.752C1643.99 381.752 1645.76 382.472 1645.76 383.816C1645.76 385.16 1643.99 385.88 1640.94 385.88ZM1640.94 379.808C1636.45 379.808 1633.64 381.296 1633.64 383.816C1633.64 386.336 1636.45 387.824 1640.94 387.824C1645.48 387.824 1648.28 386.336 1648.28 383.816C1648.28 381.296 1645.48 379.808 1640.94 379.808ZM1648.12 371.84V366.152H1645.62V379.568H1648.12V373.88H1651V371.84H1648.12ZM1668.11 370.328C1668.11 372.92 1668.11 375.992 1667.27 380.24L1669.76 380.504C1670.6 376.016 1670.6 373.016 1670.6 370.328V368.192H1655.17V370.208H1668.11V370.328ZM1662.92 382.976V375.344H1660.43V382.976H1653.13V385.016H1672.71V382.976H1662.92ZM1686.22 383.216V378.104H1692.63V376.112H1680.08V369.8H1692.44V367.808H1677.61V378.104H1683.75V383.216H1675.21V385.256H1694.84V383.216H1686.22ZM1708.44 380.84C1706.54 380.84 1705.25 378.8 1705.25 375.416C1705.25 372.032 1706.54 369.992 1708.44 369.992C1710.31 369.992 1711.63 372.032 1711.63 375.416C1711.63 378.8 1710.31 380.84 1708.44 380.84ZM1708.44 367.76C1705.2 367.76 1702.87 370.736 1702.87 375.416C1702.87 380.096 1705.2 383.048 1708.44 383.048C1711.68 383.048 1714.01 380.096 1714.01 375.416C1714.01 370.736 1711.68 367.76 1708.44 367.76ZM1722.84 374.648H1719.45V366.176H1716.98V387.872H1719.45V376.688H1722.84V374.648ZM1738.05 374.048C1734.88 374.696 1731.96 374.936 1728.52 374.96V367.424H1726.05V377.024H1727.85C1731.67 377.024 1734.88 376.76 1738.34 376.04L1738.05 374.048ZM1730.85 381.344H1740.19V385.592H1730.85V381.344ZM1728.4 387.584H1742.61V379.376H1728.4V387.584ZM1740.12 366.176V378.392H1742.61V366.176H1740.12ZM1503.14 398.152V419.896H1505.63V398.152H1503.14ZM1494.09 399.76C1490.87 399.76 1488.52 402.736 1488.52 407.392C1488.52 412.096 1490.87 415.048 1494.09 415.048C1497.33 415.048 1499.68 412.096 1499.68 407.392C1499.68 402.736 1497.33 399.76 1494.09 399.76ZM1494.09 401.992C1495.99 401.992 1497.31 404.032 1497.31 407.392C1497.31 410.8 1495.99 412.84 1494.09 412.84C1492.22 412.84 1490.9 410.8 1490.9 407.392C1490.9 404.032 1492.22 401.992 1494.09 401.992ZM1522.85 399.976H1520.38V403.528C1520.38 407.536 1518.27 411.64 1514.89 413.296L1516.4 415.288C1518.87 414.016 1520.69 411.496 1521.63 408.496C1522.57 411.328 1524.29 413.68 1526.62 414.88L1528.13 412.912C1524.87 411.304 1522.85 407.392 1522.85 403.528V399.976ZM1535.43 406.768H1532.05V398.176H1529.57V419.848H1532.05V408.808H1535.43V406.768ZM1549.95 407.416C1546.97 407.968 1544.36 408.088 1540.64 408.112V405.544H1548.01V399.304H1538.17V401.32H1545.56V403.648H1538.21V410.128H1539.97C1544.12 410.128 1546.95 410.008 1550.21 409.432L1549.95 407.416ZM1542.85 414.04H1551.85V417.616H1542.85V414.04ZM1540.42 419.584H1554.27V412.096H1540.42V419.584ZM1557.34 403.552H1554.27V398.2H1551.8V411.088H1554.27V405.592H1557.34V403.552ZM1570.78 410.368C1571.38 406.528 1571.38 403.792 1571.38 401.896V400.456H1560.36V402.448H1568.96C1568.96 404.272 1568.91 406.792 1568.36 410.152L1570.78 410.368ZM1565.93 406.672H1563.51V413.2C1562 413.224 1560.53 413.248 1559.21 413.248L1559.48 415.288C1563.27 415.288 1568.24 415.192 1572.7 414.448L1572.58 412.648C1570.47 412.912 1568.19 413.056 1565.93 413.152V406.672ZM1579.42 407.08H1576.23V398.176H1573.73V419.848H1576.23V409.168H1579.42V407.08ZM1592.66 412.84C1590.76 412.84 1589.46 410.8 1589.46 407.416C1589.46 404.032 1590.76 401.992 1592.66 401.992C1594.53 401.992 1595.85 404.032 1595.85 407.416C1595.85 410.8 1594.53 412.84 1592.66 412.84ZM1592.66 399.76C1589.42 399.76 1587.09 402.736 1587.09 407.416C1587.09 412.096 1589.42 415.048 1592.66 415.048C1595.9 415.048 1598.22 412.096 1598.22 407.416C1598.22 402.736 1595.9 399.76 1592.66 399.76ZM1607.06 406.648H1603.67V398.176H1601.2V419.872H1603.67V408.688H1607.06V406.648ZM1623.71 405.904H1613.8V401.296H1623.71V405.904ZM1626.16 399.328H1611.35V407.896H1626.16V399.328ZM1628.61 410.56H1608.95V412.552H1617.47V419.848H1619.94V412.552H1628.61V410.56ZM1646.53 414.112H1649V398.176H1646.53V403.648H1642.79V405.736H1646.53V414.112ZM1643.17 408.664C1640.44 409.12 1638.06 409.216 1634.34 409.24V406.264H1641.56V399.64H1631.84V401.632H1639.09V404.368H1631.89V411.256H1633.6C1637.82 411.256 1640.39 411.16 1643.39 410.68L1643.17 408.664ZM1637.32 417.424V412.912H1634.84V419.44H1649.6V417.424H1637.32ZM1669.97 407.464C1670.5 404.656 1670.5 402.52 1670.5 401.056V399.808H1659.6V401.824H1668.07C1668.05 403.168 1667.98 404.872 1667.54 407.2L1669.97 407.464ZM1671.77 408.544C1669.63 408.88 1667.3 409.024 1665.05 409.12V404.752H1662.6V409.192C1661.06 409.24 1659.58 409.24 1658.28 409.24L1658.54 411.256C1662.31 411.256 1667.42 411.136 1671.94 410.344L1671.77 408.544ZM1664.04 413.008H1661.54V419.44H1676.28V417.424H1664.04V413.008ZM1675.58 405.04V398.176H1673.09V414.448H1675.58V407.08H1678.46V405.04H1675.58ZM1696.08 414.16H1698.55V398.2H1696.08V401.656H1692.19V403.672H1696.08V406.528H1692.19V408.52H1696.08V414.16ZM1691.88 408.808C1689.38 409.24 1687.3 409.336 1683.89 409.36V406.312H1690.82V399.688H1681.39V401.68H1688.35V404.416H1681.44V411.376H1683.05C1687.06 411.376 1689.38 411.28 1692.14 410.8L1691.88 408.808ZM1686.82 417.352V412.96H1684.32V419.368H1699.15V417.352H1686.82ZM1710.73 404.104C1710.73 402.304 1712.1 401.128 1714 401.128C1715.89 401.128 1717.28 402.304 1717.28 404.104C1717.28 405.928 1715.89 407.128 1714 407.128C1712.1 407.128 1710.73 405.928 1710.73 404.104ZM1723.55 405.088V409.648H1726.02V398.2H1723.55V403.048H1719.52C1719.04 400.672 1716.85 399.088 1714 399.088C1710.76 399.088 1708.36 401.152 1708.36 404.104C1708.36 407.104 1710.76 409.168 1714 409.168C1716.88 409.168 1719.06 407.536 1719.54 405.088H1723.55ZM1715.89 417.688H1712.8V415.168H1715.89V417.688ZM1715.89 410.896V413.344H1712.8V410.896H1710.49V419.584H1718.17V410.896H1715.89ZM1724.44 410.728H1721.99V412.456C1721.99 414.592 1720.76 416.848 1718.17 417.928L1719.42 419.8C1721.24 419.032 1722.47 417.64 1723.19 416.008C1723.86 417.664 1725.11 419.056 1727.03 419.8L1728.25 417.928C1725.64 416.968 1724.44 414.76 1724.44 412.456V410.728ZM1739.94 398.632C1735.21 398.632 1732.21 400.192 1732.21 402.784C1732.21 405.352 1735.21 406.936 1739.94 406.936C1744.67 406.936 1747.67 405.352 1747.67 402.784C1747.67 400.192 1744.67 398.632 1739.94 398.632ZM1739.94 400.552C1743.15 400.552 1745.1 401.344 1745.1 402.784C1745.1 404.2 1743.15 404.992 1739.94 404.992C1736.72 404.992 1734.75 404.2 1734.75 402.784C1734.75 401.344 1736.72 400.552 1739.94 400.552ZM1732.47 412.336V419.584H1747.35V412.336H1732.47ZM1744.93 414.304V417.616H1734.92V414.304H1744.93ZM1730.12 408.52V410.488H1749.73V408.52H1730.12ZM1276.9 434.232H1284.5V432.216H1274.42V446.544H1276.2C1280.11 446.544 1283.04 446.424 1286.33 445.824L1286.06 443.784C1283.04 444.312 1280.4 444.456 1276.9 444.48V434.232ZM1293.72 438.504H1290.34V430.152H1287.86V451.872H1290.34V440.544H1293.72V438.504ZM1304.11 440.28H1298.83V434.016H1304.11V440.28ZM1306.53 432.024H1296.38V442.272H1306.53V432.024ZM1301.33 444.504H1298.83V451.44H1313.42V449.424H1301.33V444.504ZM1312.56 436.608V430.152H1310.09V446.04H1312.56V438.648H1315.63V436.608H1312.56ZM1328.05 445.368H1325.55V451.44H1340.51V449.424H1328.05V445.368ZM1328.07 435.384H1337.72V437.784H1328.07V435.384ZM1334.12 441.84V439.752H1340.17V431.016H1337.72V433.464H1328.07V431.016H1325.63V439.752H1331.63V441.84H1323.06V443.832H1342.71V441.84H1334.12ZM1363.04 430.176H1360.57V445.92H1363.04V430.176ZM1348.02 437.04C1348.02 435.048 1349.43 433.752 1351.35 433.752C1353.25 433.752 1354.69 435.048 1354.69 437.04C1354.69 439.008 1353.25 440.328 1351.35 440.328C1349.43 440.328 1348.02 439.008 1348.02 437.04ZM1357.09 437.04C1357.09 433.872 1354.62 431.616 1351.35 431.616C1348.09 431.616 1345.59 433.872 1345.59 437.04C1345.59 440.184 1348.09 442.464 1351.35 442.464C1354.62 442.464 1357.09 440.184 1357.09 437.04ZM1351.38 449.424V444.336H1348.88V451.44H1363.66V449.424H1351.38ZM1382.6 430.152V451.896H1385.1V430.152H1382.6ZM1373.55 431.76C1370.34 431.76 1367.98 434.736 1367.98 439.392C1367.98 444.096 1370.34 447.048 1373.55 447.048C1376.79 447.048 1379.14 444.096 1379.14 439.392C1379.14 434.736 1376.79 431.76 1373.55 431.76ZM1373.55 433.992C1375.45 433.992 1376.77 436.032 1376.77 439.392C1376.77 442.8 1375.45 444.84 1373.55 444.84C1371.68 444.84 1370.36 442.8 1370.36 439.392C1370.36 436.032 1371.68 433.992 1373.55 433.992ZM1410.07 430.152V451.896H1412.56V430.152H1410.07ZM1401.02 431.76C1397.8 431.76 1395.45 434.736 1395.45 439.392C1395.45 444.096 1397.8 447.048 1401.02 447.048C1404.26 447.048 1406.61 444.096 1406.61 439.392C1406.61 434.736 1404.26 431.76 1401.02 431.76ZM1401.02 433.992C1402.92 433.992 1404.24 436.032 1404.24 439.392C1404.24 442.8 1402.92 444.84 1401.02 444.84C1399.15 444.84 1397.83 442.8 1397.83 439.392C1397.83 436.032 1399.15 433.992 1401.02 433.992ZM1431.97 432.96C1435.06 432.96 1437.1 434.016 1437.1 435.744C1437.1 437.496 1435.06 438.552 1431.97 438.552C1428.85 438.552 1426.81 437.496 1426.81 435.744C1426.81 434.016 1428.85 432.96 1431.97 432.96ZM1431.97 440.544C1436.53 440.544 1439.65 438.672 1439.65 435.744C1439.65 432.84 1436.53 430.968 1431.97 430.968C1427.38 430.968 1424.26 432.84 1424.26 435.744C1424.26 438.672 1427.38 440.544 1431.97 440.544ZM1441.83 442.392H1422.18V444.432H1426.98V451.848H1429.5V444.432H1434.44V451.848H1436.96V444.432H1441.86L1441.83 442.392ZM1461.77 439.248H1449.25V437.064H1461.05V435.168H1449.25V433.104H1461.56V431.136H1446.77V441.24H1461.77V439.248ZM1463.91 443.112H1444.23V445.152H1449.1V451.848H1451.57V445.152H1456.59V451.848H1459.06V445.152H1463.91V443.112ZM1466.36 447.096V449.136H1485.99V447.096H1466.36ZM1468.56 431.664V443.088H1483.73V431.664H1481.28V435.456H1471.01V431.664H1468.56ZM1471.01 437.424H1481.28V441.096H1471.01V437.424ZM1503.15 433.872H1490.93V438.744H1505.98V437.016H1493.35V435.48H1505.59V430.704H1490.88V432.408H1503.15V433.872ZM1493.19 448.248H1505.67V443.4H1490.69V445.104H1503.22V446.64H1490.74V451.608H1506.31V449.904H1493.19V448.248ZM1488.41 440.112V441.936H1508.07V440.112H1488.41ZM1520.56 437.256H1530.83V440.808H1520.56V437.256ZM1526.92 447.168V442.8H1533.28V431.616H1530.83V435.264H1520.56V431.616H1518.11V442.8H1524.45V447.168H1515.9V449.208H1535.54V447.168H1526.92ZM1552.96 434.328C1552.96 436.92 1552.96 439.992 1552.12 444.24L1554.61 444.504C1555.45 440.016 1555.45 437.016 1555.45 434.328V432.192H1540.02V434.208H1552.96V434.328ZM1547.77 446.976V439.344H1545.28V446.976H1537.98V449.016H1557.57V446.976H1547.77ZM1582.01 438.792C1582.61 436.56 1582.61 434.76 1582.61 433.032V431.208H1567.73V433.2H1580.16C1580.16 434.832 1580.14 436.392 1579.59 438.528L1582.01 438.792ZM1575.17 449.952C1571.95 449.952 1569.99 449.16 1569.99 447.792C1569.99 446.448 1571.95 445.656 1575.17 445.656C1578.36 445.656 1580.28 446.448 1580.28 447.792C1580.28 449.16 1578.36 449.952 1575.17 449.952ZM1575.17 443.76C1570.49 443.76 1567.54 445.296 1567.54 447.792C1567.54 450.312 1570.49 451.848 1575.17 451.848C1579.78 451.848 1582.75 450.312 1582.75 447.792C1582.75 445.296 1579.78 443.76 1575.17 443.76ZM1575.65 440.088V436.104H1573.15V440.088H1565.47V442.08H1585.01V440.088H1575.65ZM1602.26 438.504H1592.35V435.744H1602.26V438.504ZM1604.74 431.016H1602.26V433.752H1592.35V431.016H1589.88V440.496H1604.74V431.016ZM1607.16 442.848H1587.5V444.84H1596.02V451.872H1598.5V444.84H1607.16V442.848ZM1624.32 433.872H1612.1V438.744H1627.15V437.016H1614.53V435.48H1626.77V430.704H1612.05V432.408H1624.32V433.872ZM1614.36 448.248H1626.84V443.4H1611.86V445.104H1624.39V446.64H1611.91V451.608H1627.49V449.904H1614.36V448.248ZM1609.58 440.112V441.936H1629.24V440.112H1609.58ZM1645.55 438.528H1640.27V433.512H1645.55V438.528ZM1647.97 431.544H1637.82V440.496H1647.97V431.544ZM1641.56 443.04H1639.16V451.296H1640.29C1642.04 451.296 1643.92 451.2 1645.88 450.528L1645.48 448.56C1644.18 448.992 1642.81 449.184 1641.56 449.256V443.04ZM1650.54 450.144C1649.44 450.144 1648.62 449.64 1648.62 448.8C1648.62 447.936 1649.44 447.456 1650.54 447.456C1651.62 447.456 1652.44 447.936 1652.44 448.8C1652.44 449.64 1651.62 450.144 1650.54 450.144ZM1650.54 445.728C1648.14 445.728 1646.44 446.928 1646.44 448.8C1646.44 450.672 1648.14 451.848 1650.54 451.848C1652.92 451.848 1654.62 450.672 1654.62 448.8C1654.62 446.928 1652.92 445.728 1650.54 445.728ZM1651.74 441.504H1649.34V443.232H1645.09V445.056H1655.96V443.232H1651.74V441.504ZM1654 434.904V430.176L1651.52 430.152V441.12H1654V436.944H1657.07V434.904H1654ZM1674.49 430.152V451.896H1676.99V430.152H1674.49ZM1665.44 431.76C1662.23 431.76 1659.87 434.736 1659.87 439.392C1659.87 444.096 1662.23 447.048 1665.44 447.048C1668.68 447.048 1671.03 444.096 1671.03 439.392C1671.03 434.736 1668.68 431.76 1665.44 431.76ZM1665.44 433.992C1667.34 433.992 1668.66 436.032 1668.66 439.392C1668.66 442.8 1667.34 444.84 1665.44 444.84C1663.57 444.84 1662.25 442.8 1662.25 439.392C1662.25 436.032 1663.57 433.992 1665.44 433.992ZM1691.9 444.936C1690.44 444.936 1689.41 443.76 1689.41 441.96C1689.41 440.16 1690.44 438.96 1691.9 438.96C1693.37 438.96 1694.4 440.16 1694.4 441.96C1694.4 443.76 1693.37 444.936 1691.9 444.936ZM1691.9 436.92C1689.17 436.92 1687.2 438.96 1687.2 441.96C1687.2 444.936 1689.17 447 1691.9 447C1694.64 447 1696.61 444.936 1696.61 441.96C1696.61 438.96 1694.64 436.92 1691.9 436.92ZM1693.13 430.8H1690.68V433.704H1686.57V435.696H1697.18V433.704H1693.13V430.8ZM1702.73 430.176V439.152H1700.42V430.632H1698.12V450.84H1700.42V441.192H1702.73V451.848H1705.08V430.176H1702.73ZM1716.55 431.928H1714.05V435.504C1714.05 439.56 1711.94 443.736 1708.56 445.392L1710.12 447.36C1712.59 446.088 1714.36 443.568 1715.32 440.496C1716.26 443.4 1718.01 445.776 1720.46 447L1721.92 445.008C1718.61 443.472 1716.55 439.536 1716.55 435.504V431.928ZM1724.2 430.128V437.256H1719.57V439.272H1724.2V451.872H1726.7V430.128H1724.2ZM1733.13 450.312C1734.16 450.312 1734.98 449.52 1734.98 448.392C1734.98 447.24 1734.16 446.424 1733.13 446.424C1732.1 446.424 1731.28 447.24 1731.28 448.392C1731.28 449.52 1732.1 450.312 1733.13 450.312ZM1740.28 450.312C1741.31 450.312 1742.13 449.52 1742.13 448.392C1742.13 447.24 1741.31 446.424 1740.28 446.424C1739.25 446.424 1738.43 447.24 1738.43 448.392C1738.43 449.52 1739.25 450.312 1740.28 450.312ZM1747.43 450.312C1748.46 450.312 1749.28 449.52 1749.28 448.392C1749.28 447.24 1748.46 446.424 1747.43 446.424C1746.4 446.424 1745.58 447.24 1745.58 448.392C1745.58 449.52 1746.4 450.312 1747.43 450.312Z" fill="#777777"/>
<path d="M1486.58 378.2H1751.01V379.4H1486.58V378.2ZM1486.58 410.2H1751V411.4H1486.58V410.2ZM1272.34 442.2H1751V443.4H1272.34V442.2Z" fill="#777777"/>
<g clip-path="url(#clip0_12_11689)">
<path d="M218.15 615.82C233.515 637.736 242.252 648.521 268.826 653.752C305.699 660.989 335.861 613.55 360.733 588.289C371.862 576.977 356.375 557.393 345.105 568.807C324.976 589.242 298.482 608.502 268.218 602.035C247.948 597.716 243.894 597.818 232.197 581.275C222.954 568.118 204.832 594.878 213.954 608.015L218.15 615.82Z" fill="#737373"/>
<path d="M316.118 454L304.584 456.656L402.552 645.521L412.201 640.006L330.591 496.371L316.118 454Z" fill="#7C7C7C"/>
<path d="M387.714 483.112C385.688 481.601 383.346 480.567 380.864 480.09C378.382 479.612 375.825 479.703 373.383 480.355C364.565 482.382 342.977 531.646 342.977 531.646C342.977 531.646 379.687 538.559 379.829 536.978C379.97 535.397 387.714 483.112 387.714 483.112Z" fill="#6F6F6F"/>
<path d="M412.201 640.006L341.375 589.323L387.714 483.112L458.56 533.795L412.201 640.006Z" fill="#6F6F6F"/>
<path d="M328.341 581.052L260.191 550.845L316.118 454L375.328 480.092L328.341 581.052Z" fill="#6F6F6F"/>
<path d="M402.552 645.521L331.706 594.838L378.044 488.627L448.89 539.31L402.552 645.521Z" fill="#828282"/>
<path d="M403.282 634.046L391.748 634.208L340.524 589.141L381.572 495.033C401.842 505.534 422.924 521.003 444.411 539.938L403.282 634.046Z" fill="#E7E7E7"/>
<path d="M331.706 594.838L256.319 559.076L304.584 456.656L378.044 488.627L331.706 594.838Z" fill="#828282"/>
<path d="M376.18 493.188C357.612 484.917 334.949 473.908 309.084 463.123L306.631 468.333L264.955 556.623C292.178 568.077 313.604 581.539 331.969 587.965L334.402 582.755L376.18 493.188Z" fill="#E7E7E7"/>
<path d="M432.795 540.1C416.532 524.466 398.099 511.26 378.065 500.892L337.017 595C358.544 606.495 377.335 619.328 391.747 634.208L432.795 540.1Z" fill="white"/>
<path d="M375.044 495.073C355.362 487.775 334.625 476.483 312.307 466.955L309.996 471.82L271.056 554.413C292.016 568.834 312.895 578.612 333.692 583.748L335.983 578.862L375.044 495.073Z" fill="white"/>
<path d="M378.855 524.267L414.37 548.574" stroke="#DADADA" stroke-width="1.73" stroke-linecap="round" stroke-linejoin="round"/>
<path d="M372.632 536.552L408.126 560.86" stroke="#DADADA" stroke-width="1.73" stroke-linecap="round" stroke-linejoin="round"/>
<path d="M366.389 548.838L401.903 573.145" stroke="#DADADA" stroke-width="1.73" stroke-linecap="round" stroke-linejoin="round"/>
<path d="M360.288 564.61L395.802 588.918" stroke="#DADADA" stroke-width="1.73" stroke-linecap="round" stroke-linejoin="round"/>
<path d="M354.206 580.403L389.7 604.711" stroke="#DADADA" stroke-width="1.73" stroke-linecap="round" stroke-linejoin="round"/>
<path d="M318.753 484.795L358.889 503.446" stroke="#DADADA" stroke-width="1.83" stroke-linecap="round" stroke-linejoin="round"/>
<path d="M311.658 500.203L351.814 518.874" stroke="#DADADA" stroke-width="1.83" stroke-linecap="round" stroke-linejoin="round"/>
<path d="M304.584 515.63L344.72 534.302" stroke="#DADADA" stroke-width="1.83" stroke-linecap="round" stroke-linejoin="round"/>
<g style="mix-blend-mode:multiply" opacity="0.4">
<path d="M156.1 806.51C153.635 781.855 191.85 757.847 241.454 752.887C291.059 747.926 333.27 763.892 335.735 788.547C338.2 813.202 299.985 837.21 250.381 842.171C200.776 847.131 158.565 831.166 156.1 806.51Z" fill="#C0C0C0"/>
</g>
<path d="M317.861 750.759C317.861 750.759 317.557 786.237 228.671 812.572L223.279 804.26L298.523 729.37L317.861 750.759Z" fill="#8A8A8A"/>
<path d="M230.272 813.869L215.738 820.559C207.062 828.364 203.413 833.311 198.082 832.135L196.562 831.811C191.231 830.635 190.339 825.851 194.535 821.188L211.197 796.475C213.333 794.254 216.084 792.723 219.097 792.08C222.11 791.436 225.247 791.71 228.103 792.866C228.103 792.866 231.306 794.326 232.522 804.361C233.272 810.078 233.677 810.159 230.272 813.869Z" fill="#373737"/>
<path d="M340.463 759.537C340.463 759.537 368.274 783.297 247.583 831.932L239.678 816.322L316.138 756.232L340.463 759.537Z" fill="#8A8A8A"/>
<path d="M194.211 707.009L303.043 713.233C303.043 713.233 376.95 754.611 317.233 778.756L234.022 806.855C216.184 813.058 199.825 812.815 187.704 796.86C177.021 782.811 176.697 750.455 183.873 736.04L194.211 707.009Z" fill="#373737"/>
<path d="M248.394 831.77L233.839 838.46C225.164 846.266 221.535 851.212 216.184 850.036L214.684 849.712C209.332 848.516 208.461 843.752 212.657 839.089L229.299 814.376C231.434 812.155 234.186 810.624 237.199 809.981C240.212 809.338 243.348 809.611 246.204 810.767C246.204 810.767 249.407 812.227 250.623 822.262C251.373 827.979 251.799 828.06 248.394 831.77Z" fill="#373737"/>
<path d="M267.488 554.636C260.475 572.476 246.427 570.408 236.008 557.312C225.589 544.216 222.751 525.118 229.765 507.278C236.778 489.437 250.968 485.565 261.326 498.601C271.684 511.637 274.502 536.796 267.488 554.636Z" fill="#949494"/>
<path d="M283.624 551.534C276.975 568.483 257.698 573.004 247.806 560.596C237.914 548.189 235.279 524.368 241.948 507.42C248.617 490.471 262.016 486.802 271.908 499.311C281.8 511.819 290.293 534.606 283.624 551.534Z" fill="#8A8A8A"/>
<path d="M233.333 601.082L231.853 600.474C226.866 598.446 227.596 591.33 230.333 584.762L243.103 547.743C245.819 541.195 252.144 537.505 257.13 539.634L258.61 540.242C263.617 542.269 265.461 549.385 262.664 555.954L251.88 593.155C249.245 599.683 238.339 603.15 233.333 601.082Z" fill="#8A8A8A"/>
<path d="M225.021 542.371C225.021 542.371 225.184 552.041 243.265 555.67C260.434 559.116 260.961 532.559 277.948 531.342C296.617 530.105 299.8 510.339 293.394 500.932C286.989 491.526 267.144 485.038 251.86 490.106C236.576 495.175 219.893 498.378 225.021 542.371Z" fill="#373737"/>
<path d="M193.278 620.868L185.17 713.436C185.17 713.436 182.92 739.041 236.576 744.575C277.867 748.853 283.198 716.538 285.53 711.652L301.483 641.04L339.551 663.341C335.343 646.911 327.806 631.521 317.409 618.123C307.011 604.725 293.974 593.605 279.104 585.451C269.901 580.484 256.34 574.585 245.252 570.003C228.792 563.171 221.414 565.948 206.515 575.659C198.467 580.91 193.278 620.868 193.278 620.868Z" fill="#737373"/>
<path d="M416.64 601.062C415.548 598.879 415.362 596.354 416.121 594.035C416.88 591.715 418.523 589.789 420.694 588.675L429.147 584.478C431.329 583.386 433.854 583.2 436.173 583.959C438.492 584.718 440.418 586.362 441.532 588.533C442.085 589.62 442.418 590.806 442.513 592.022C442.607 593.239 442.461 594.462 442.083 595.621C441.704 596.781 441.101 597.855 440.307 598.781C439.514 599.708 438.546 600.469 437.458 601.021L428.985 605.218C426.794 606.289 424.27 606.454 421.959 605.676C419.648 604.898 417.737 603.24 416.64 601.062Z" fill="#8A8A8A"/>
<path d="M260.211 576.47C260.211 576.47 244.542 564.651 232.988 566.84C232.988 566.84 233.961 582.329 260.211 576.47Z" fill="white"/>
<path d="M270.286 488.951C263.149 486.259 255.478 485.287 247.895 486.115C240.313 486.943 233.032 489.547 226.643 493.715C203.17 508.231 213.143 523.76 214.704 547.115C216.265 570.469 206.211 567.388 221.211 570.834C236.211 574.281 262.137 554.028 272.374 532.822C282.611 511.616 288.388 504.683 288.388 504.683L270.286 488.951Z" fill="#373737"/>
<path d="M274.705 543.526C274.122 545.025 273.106 546.316 271.787 547.236C270.468 548.156 268.906 548.663 267.298 548.693C265.69 548.722 264.11 548.273 262.758 547.402C261.406 546.531 260.344 545.278 259.706 543.802C259.068 542.326 258.884 540.693 259.176 539.112C259.468 537.53 260.224 536.071 261.347 534.92C262.47 533.77 263.91 532.979 265.484 532.648C267.057 532.318 268.694 532.463 270.185 533.065C271.173 533.45 272.074 534.027 272.837 534.762C273.601 535.498 274.21 536.378 274.631 537.351C275.051 538.324 275.274 539.371 275.287 540.431C275.3 541.491 275.102 542.543 274.705 543.526Z" fill="#8A8A8A"/>
<path d="M274.644 624.092L321.469 673.335C325.192 677.251 329.773 680.25 334.85 682.097C339.928 683.944 345.364 684.588 350.733 683.979C356.101 683.37 361.255 681.524 365.79 678.587C370.325 675.65 374.117 671.701 376.869 667.051L427.545 604.711L412.14 594.838L358.24 637.411C356.988 638.92 355.426 640.141 353.661 640.994C351.896 641.847 349.968 642.312 348.008 642.356C346.049 642.4 344.102 642.023 342.3 641.251C340.498 640.478 338.883 639.328 337.564 637.878C323.902 622.794 300.854 598.446 293.253 597.169C282.246 595.304 274.644 624.092 274.644 624.092Z" fill="#737373"/>
<path d="M226.643 493.715C226.643 493.715 186.893 508.92 184.987 522.098C183.082 535.275 162.345 536.816 174.507 551.473C186.67 566.131 174.609 583.708 186.67 587.965C198.731 592.222 210.508 611.299 223.988 594.838C237.468 578.376 247.218 585.553 248.637 575.639C250.056 565.725 257.049 539.593 257.049 539.593L270.935 508.494L226.643 493.715Z" fill="#373737"/>
<g style="mix-blend-mode:multiply" opacity="0.4">
<path d="M535.06 837.791L457.85 793.19C457.635 793.062 457.39 792.994 457.14 792.994C456.89 792.994 456.645 793.062 456.431 793.19L442.525 801.3L442.221 801.421L336.388 862.525C336.169 862.648 335.986 862.828 335.859 863.045C335.732 863.262 335.665 863.51 335.665 863.761C335.665 864.013 335.732 864.26 335.859 864.478C335.986 864.695 336.169 864.874 336.388 864.998L413.599 909.599C413.816 909.718 414.06 909.78 414.308 909.78C414.556 909.78 414.8 909.718 415.018 909.599L428.923 901.49L429.227 901.348L535.06 840.265C535.28 840.141 535.462 839.962 535.589 839.744C535.716 839.527 535.783 839.28 535.783 839.028C535.783 838.776 535.716 838.529 535.589 838.312C535.462 838.094 535.28 837.915 535.06 837.791Z" fill="#C0C0C0"/>
</g>
<path d="M370.24 877.101V877.365L473.621 817.64C473.842 817.521 474.089 817.459 474.34 817.459C474.591 817.459 474.839 817.521 475.06 817.64L552.25 862.241C553.203 862.788 543.088 862.241 552.25 864.714L446.417 925.818C446.203 925.946 445.958 926.014 445.708 926.014C445.458 926.014 445.213 925.946 444.998 925.818L367.808 881.217C367.628 881.113 367.474 880.97 367.358 880.798C367.242 880.625 367.167 880.429 367.139 880.223V877.101H370.24Z" fill="#ACACAC"/>
<path d="M552.757 862.606H549.939V859.788H552.757V862.606Z" fill="#656565"/>
<path d="M445.039 923.182L367.849 878.581C367.629 878.458 367.447 878.278 367.32 878.061C367.193 877.843 367.126 877.596 367.126 877.344C367.126 877.093 367.193 876.845 367.32 876.628C367.447 876.411 367.629 876.231 367.849 876.108L473.661 815.004C473.883 814.885 474.13 814.823 474.381 814.823C474.632 814.823 474.879 814.885 475.101 815.004L552.291 859.605C552.018 859.96 551.87 860.395 551.87 860.842C551.87 861.289 552.018 861.724 552.291 862.079L446.458 923.182C446.244 923.311 445.999 923.379 445.749 923.379C445.499 923.379 445.253 923.311 445.039 923.182Z" fill="#ACACAC"/>
<path d="M374.234 845.82V851.942V869.438V875.56L441.471 914.525V908.403V890.907V884.785L374.234 845.82Z" fill="#E2E2E2"/>
<path d="M367.118 843.083H370.24V843.245L473.62 783.52C473.842 783.401 474.089 783.339 474.34 783.339C474.591 783.339 474.838 783.401 475.059 783.52L552.25 828.121C551.155 828.709 550.365 830.148 552.25 830.594L446.417 891.698C446.203 891.826 445.958 891.894 445.708 891.894C445.458 891.894 445.212 891.826 444.998 891.698L367.808 847.097C367.585 846.971 367.401 846.788 367.273 846.567C367.144 846.346 367.077 846.095 367.078 845.84L367.118 843.083Z" fill="#ACACAC"/>
<path d="M552.98 829.216H549.858V827.128H552.98V829.216Z" fill="#ACACAC"/>
<path d="M445.039 889.062L367.848 844.461C367.629 844.338 367.447 844.158 367.32 843.941C367.192 843.724 367.126 843.476 367.126 843.225C367.126 842.973 367.192 842.726 367.32 842.508C367.447 842.291 367.629 842.111 367.848 841.988L473.661 780.885C473.882 780.766 474.13 780.703 474.381 780.703C474.632 780.703 474.879 780.766 475.1 780.885L552.291 825.486C552.51 825.609 552.693 825.789 552.82 826.006C552.947 826.223 553.014 826.471 553.014 826.722C553.014 826.974 552.947 827.221 552.82 827.438C552.693 827.656 552.51 827.835 552.291 827.959L446.458 889.062C446.244 889.191 445.998 889.259 445.748 889.259C445.498 889.259 445.253 889.191 445.039 889.062Z" fill="#C1C1C1"/>
<path d="M446.539 889.143V926L551.642 865.059C552.736 864.43 553.02 862.423 553 861.187L552.757 850.361V842.677L553 826.702L446.539 889.143Z" fill="#D0D0D0"/>
<path d="M370.24 834.264V834.527L473.621 774.803C473.839 774.674 474.087 774.607 474.34 774.607C474.593 774.607 474.842 774.674 475.06 774.803L552.25 819.404C553.203 819.951 543.088 819.404 552.25 821.877L446.417 882.98C446.2 883.099 445.956 883.162 445.708 883.162C445.46 883.162 445.216 883.099 444.998 882.98L367.808 838.379C367.63 838.274 367.477 838.13 367.362 837.958C367.246 837.786 367.17 837.591 367.139 837.386V834.264H370.24Z" fill="#535353"/>
<path d="M552.757 819.748H549.939V816.93H552.757V819.748Z" fill="#656565"/>
<path d="M445.039 880.345L367.849 835.744C367.629 835.62 367.447 835.441 367.32 835.223C367.193 835.006 367.126 834.759 367.126 834.507C367.126 834.255 367.193 834.008 367.32 833.791C367.447 833.574 367.629 833.394 367.849 833.271L473.661 772.289C473.879 772.16 474.128 772.093 474.381 772.093C474.634 772.093 474.882 772.16 475.101 772.289L552.291 816.89C552.023 817.243 551.878 817.673 551.878 818.116C551.878 818.559 552.023 818.99 552.291 819.343L446.458 880.345C446.241 880.464 445.997 880.526 445.749 880.526C445.501 880.526 445.257 880.464 445.039 880.345Z" fill="#535353"/>
<path d="M374.234 802.962V809.085V826.601V832.723L441.471 871.688V865.566V848.05V841.927L374.234 802.962Z" fill="#E2E2E2"/>
<path d="M445.039 848.84L367.849 804.239C367.629 804.116 367.447 803.936 367.32 803.719C367.193 803.501 367.126 803.254 367.126 803.003C367.126 802.751 367.193 802.504 367.32 802.286C367.447 802.069 367.629 801.889 367.849 801.766L473.661 740.663C473.879 740.534 474.128 740.467 474.381 740.467C474.634 740.467 474.882 740.534 475.101 740.663L552.291 785.264C551.196 785.851 550.406 787.189 552.291 787.737L446.458 848.84C446.241 848.959 445.997 849.021 445.749 849.021C445.501 849.021 445.257 848.959 445.039 848.84Z" fill="#535353"/>
<path d="M370.261 803.023H367.139V800.245H370.261V803.023Z" fill="#535353"/>
<path d="M552.98 786.379H549.858V784.291H552.98V786.379Z" fill="#ACACAC"/>
<path d="M445.039 846.225L367.849 801.624C367.629 801.501 367.447 801.321 367.32 801.104C367.193 800.886 367.126 800.639 367.126 800.387C367.126 800.136 367.193 799.888 367.32 799.671C367.447 799.454 367.629 799.274 367.849 799.151L473.661 738.047C473.879 737.919 474.128 737.851 474.381 737.851C474.634 737.851 474.882 737.919 475.1 738.047L552.291 782.648C552.505 782.773 552.683 782.952 552.807 783.167C552.931 783.383 552.996 783.627 552.996 783.875C552.996 784.123 552.931 784.367 552.807 784.582C552.683 784.798 552.505 784.977 552.291 785.101L446.458 846.225C446.24 846.344 445.996 846.406 445.749 846.406C445.501 846.406 445.257 846.344 445.039 846.225Z" fill="#828282"/>
<path d="M446.539 846.306V883.142L551.642 822.222C552.736 821.593 553.02 819.586 553 818.349L552.757 807.524V799.82L553 783.844L446.539 846.306Z" fill="#6F6F6F"/>
<path d="M458.884 848.07L482.053 834.649C482.175 834.649 482.276 834.487 482.378 834.426L507.959 819.647C508.299 819.453 508.659 819.297 509.033 819.181L509.419 818.917L509.723 818.694L535.304 803.996C538.223 802.334 540.595 804.118 540.595 808.051V813.565C540.574 815.552 540.084 817.506 539.164 819.267C538.245 821.029 536.922 822.548 535.304 823.701L512.074 837.122L511.77 837.345L486.107 852.003C485.767 852.197 485.407 852.353 485.033 852.469L484.709 852.652C484.609 852.737 484.5 852.812 484.384 852.875L458.884 867.573C455.985 869.235 453.614 867.451 453.614 863.518V858.004C453.667 856.054 454.17 854.142 455.084 852.419C455.999 850.696 457.299 849.207 458.884 848.07Z" fill="white"/>
<path d="M458.884 890.887L482.053 877.466C482.169 877.404 482.278 877.329 482.378 877.243L507.959 862.484C508.295 862.282 508.656 862.125 509.033 862.018L509.358 861.815L509.662 861.592L535.304 846.833C538.223 845.151 540.595 846.955 540.595 850.888V856.402C540.567 858.388 540.074 860.34 539.156 862.1C538.237 863.861 536.917 865.381 535.304 866.539L512.074 879.737L511.77 879.96L486.107 894.82C485.767 895.014 485.407 895.17 485.033 895.286L484.709 895.469C484.609 895.554 484.5 895.629 484.384 895.692L458.803 910.471C455.904 912.153 453.532 910.349 453.532 906.416V900.922C453.586 898.949 454.097 897.015 455.025 895.274C455.954 893.532 457.275 892.03 458.884 890.887Z" fill="white"/>
</g>
<defs>
<filter id="filter0_d_12_11689" x="463.162" y="357.574" width="492.308" height="133.639" filterUnits="userSpaceOnUse" color-interpolation-filters="sRGB">
<feFlood flood-opacity="0" result="BackgroundImageFix"/>
<feColorMatrix in="SourceAlpha" type="matrix" values="0 0 0 0 0 0 0 0 0 0 0 0 0 0 0 0 0 0 127 0" result="hardAlpha"/>
<feOffset dx="10" dy="10"/>
<feGaussianBlur stdDeviation="15"/>
<feComposite in2="hardAlpha" operator="out"/>
<feColorMatrix type="matrix" values="0 0 0 0 0.666667 0 0 0 0 0.666667 0 0 0 0 0.666667 0 0 0 1 0"/>
<feBlend mode="normal" in2="BackgroundImageFix" result="effect1_dropShadow_12_11689"/>
<feBlend mode="normal" in="SourceGraphic" in2="effect1_dropShadow_12_11689" result="shape"/>
</filter>
<clipPath id="clip0_12_11689">
<rect width="397" height="472" fill="white" transform="matrix(-1 0 0 1 553 454)"/>
</clipPath>
</defs>
</svg>
