<svg width="1920" height="1080" viewBox="0 0 1920 1080" fill="none" xmlns="http://www.w3.org/2000/svg">
<rect width="1920" height="1080" fill="white"/>
<path d="M150.712 133.056C151.512 130.08 151.512 127.68 151.512 125.376V122.944H131.672V125.6H148.248C148.248 127.776 148.216 129.856 147.48 132.704L150.712 133.056ZM141.592 147.936C137.304 147.936 134.68 146.88 134.68 145.056C134.68 143.264 137.304 142.208 141.592 142.208C145.848 142.208 148.408 143.264 148.408 145.056C148.408 146.88 145.848 147.936 141.592 147.936ZM141.592 139.68C135.352 139.68 131.416 141.728 131.416 145.056C131.416 148.416 135.352 150.464 141.592 150.464C147.736 150.464 151.704 148.416 151.704 145.056C151.704 141.728 147.736 139.68 141.592 139.68ZM142.232 134.784V129.472H138.904V134.784H128.664V137.44H154.712V134.784H142.232ZM177.718 131.872H164.502V125.728H177.718V131.872ZM180.982 123.104H161.238V134.528H180.982V123.104ZM184.246 138.08H158.038V140.736H169.398V150.464H172.694V140.736H184.246V138.08ZM202.483 138.528V140.832H208.147V143.52H211.443V121.536H208.147V138.528H202.483ZM196.723 125.088C199.091 125.088 200.723 126.112 200.723 127.744C200.723 129.376 199.091 130.4 196.723 130.4C194.323 130.4 192.691 129.376 192.691 127.744C192.691 126.112 194.323 125.088 196.723 125.088ZM196.723 132.832C200.947 132.832 203.859 130.816 203.859 127.744C203.859 124.672 200.947 122.656 196.723 122.656C192.467 122.656 189.555 124.672 189.555 127.744C189.555 130.816 192.467 132.832 196.723 132.832ZM195.411 142.592H198.707V137.024C201.171 136.864 203.699 136.608 206.131 136.192L205.875 133.824C199.763 134.592 192.659 134.656 187.347 134.688L187.763 137.376C190.067 137.376 192.659 137.344 195.411 137.216V142.592ZM194.547 147.232V141.376H191.251V149.92H212.115V147.232H194.547ZM234.244 123.968H230.948V128.704C230.948 134.048 228.132 139.52 223.62 141.728L225.636 144.384C228.932 142.688 231.364 139.328 232.612 135.328C233.86 139.104 236.164 142.24 239.268 143.84L241.284 141.216C236.932 139.072 234.244 133.856 234.244 128.704V123.968ZM251.012 133.024H246.5V121.568H243.204V150.464H246.5V135.744H251.012V133.024ZM271.778 124.928H264.706V121.632H261.41V124.928H254.306V127.584H271.778V124.928ZM259.138 134.368C259.138 132.608 260.738 131.52 263.074 131.52C265.378 131.52 266.978 132.608 266.978 134.368C266.978 136.16 265.378 137.248 263.074 137.248C260.738 137.248 259.138 136.16 259.138 134.368ZM264.706 139.648C267.97 139.136 270.114 137.184 270.114 134.368C270.114 131.136 267.234 128.992 263.074 128.992C258.882 128.992 256.002 131.136 256.002 134.368C256.002 137.152 258.146 139.136 261.41 139.648V142.464C258.69 142.56 256.034 142.56 253.73 142.56L254.146 145.28C259.394 145.28 266.242 145.184 272.61 144.096L272.386 141.696C269.922 142.048 267.298 142.208 264.706 142.368V139.648ZM274.018 121.536V150.464H277.346V121.536H274.018ZM306.207 130.528H289.535V125.376H305.983V122.72H286.271V133.216H306.207V130.528ZM289.535 141.376H286.239V149.888H306.431V147.232H289.535V141.376ZM283.039 136V138.688H309.183V136H283.039ZM344.688 135.68C338.992 134.656 334.352 130.208 334.352 125.6V123.424H330.864V125.6C330.864 130.176 326.224 134.624 320.528 135.68L321.936 138.4C326.64 137.44 330.704 134.432 332.592 130.464C334.48 134.432 338.544 137.44 343.248 138.4L344.688 135.68ZM319.632 144.032V146.752H345.808V144.032H319.632ZM353.55 134.816H363.214V132.16H353.55V126.784H363.758V124.064H350.254V143.712H352.59C357.774 143.712 361.614 143.552 366.062 142.848L365.742 140.16C361.678 140.832 358.158 140.992 353.55 141.024V134.816ZM375.95 132.896H371.438V121.536H368.142V150.496H371.438V135.616H375.95V132.896ZM401.771 136.832H385.099V132.864H400.907V130.272H385.099V126.56H401.547V123.904H381.739V139.488H401.771V136.832ZM378.507 144.224V146.912H404.715V144.224H378.507ZM428.617 147.456H416.361V144.256H428.617V147.456ZM428.617 141.696H416.361V138.432H413.097V150.112H431.881V138.432H428.617V141.696ZM415.881 133.664C413.321 133.664 411.497 132.032 411.497 129.6C411.497 127.136 413.321 125.568 415.881 125.568C418.377 125.568 420.233 127.136 420.233 129.6C420.233 132.032 418.377 133.664 415.881 133.664ZM428.585 121.568V128.224H423.241C422.601 124.992 419.689 122.848 415.881 122.848C411.529 122.848 408.329 125.632 408.329 129.6C408.329 133.6 411.529 136.384 415.881 136.384C419.721 136.384 422.665 134.176 423.241 130.912H428.585V137.056H431.881V121.568H428.585ZM457.83 121.536V150.528H461.158V121.536H457.83ZM445.766 123.68C441.478 123.68 438.342 127.648 438.342 133.856C438.342 140.128 441.478 144.064 445.766 144.064C450.086 144.064 453.222 140.128 453.222 133.856C453.222 127.648 450.086 123.68 445.766 123.68ZM445.766 126.656C448.294 126.656 450.054 129.376 450.054 133.856C450.054 138.4 448.294 141.12 445.766 141.12C443.27 141.12 441.51 138.4 441.51 133.856C441.51 129.376 443.27 126.656 445.766 126.656ZM490.02 130.528H473.348V125.376H489.796V122.72H470.084V133.216H490.02V130.528ZM473.348 141.376H470.052V149.888H490.244V147.232H473.348V141.376ZM466.852 136V138.688H492.996V136H466.852ZM527.253 121.536H523.957V136.224H527.253V121.536ZM507.189 129.024C507.189 126.72 509.045 125.216 511.541 125.216C514.069 125.216 515.957 126.72 515.957 129.024C515.957 131.328 514.069 132.832 511.541 132.832C509.045 132.832 507.189 131.328 507.189 129.024ZM519.157 129.024C519.157 125.216 515.925 122.496 511.541 122.496C507.189 122.496 503.989 125.216 503.989 129.024C503.989 132.832 507.189 135.52 511.541 135.52C515.925 135.52 519.157 132.832 519.157 129.024ZM511.605 147.52V144.96H527.253V137.536H508.309V140.128H523.989V142.528H508.373V150.112H528.117V147.52H511.605ZM549.426 133.888C545.938 134.624 542.834 134.784 537.362 134.816V126.624H546.93V123.936H534.066V137.536H536.402C542.61 137.536 546.002 137.344 549.746 136.544L549.426 133.888ZM540.466 140.352H537.138V149.92H556.594V147.232H540.466V140.352ZM555.442 129.824V121.536H552.146V142.464H555.442V132.544H559.538V129.824H555.442ZM586.115 132.064C581.859 132.928 577.859 133.216 574.083 133.28V122.976H570.787V136H573.123C577.347 136 581.699 135.712 586.531 134.752L586.115 132.064ZM576.835 141.984H588.835V147.456H576.835V141.984ZM573.603 150.112H592.067V139.36H573.603V150.112ZM596.163 127.968H592.067V121.568H588.771V137.888H592.067V130.688H596.163V127.968ZM608.257 123.584C603.745 123.584 600.417 126.432 600.417 130.528C600.417 134.624 603.745 137.472 608.257 137.472C612.769 137.472 616.128 134.624 616.128 130.528C616.128 126.432 612.769 123.584 608.257 123.584ZM608.257 126.4C610.945 126.4 612.897 128 612.897 130.528C612.897 133.024 610.945 134.656 608.257 134.656C605.601 134.656 603.649 133.024 603.649 130.528C603.649 128 605.601 126.4 608.257 126.4ZM619.393 121.536V150.496H622.721V121.536H619.393ZM599.489 144.384C604.609 144.384 611.521 144.32 617.889 143.104L617.665 140.704C611.457 141.632 604.257 141.664 599.073 141.664L599.489 144.384ZM642.098 141.504H638.802V149.92H658.994V147.232H642.098V141.504ZM650.29 136.544V133.216H658.77V130.56H642.098V125.664H658.514V123.008H638.834V133.216H646.962V136.544H635.602V139.232H661.714V136.544H650.29ZM678.063 124.48C682.543 124.48 684.943 125.344 684.943 127.008C684.943 128.64 682.543 129.504 678.063 129.504C673.583 129.504 671.183 128.64 671.183 127.008C671.183 125.344 673.583 124.48 678.063 124.48ZM678.063 131.968C684.527 131.968 688.367 130.208 688.367 127.008C688.367 123.776 684.527 122.016 678.063 122.016C671.567 122.016 667.759 123.776 667.759 127.008C667.759 130.208 671.567 131.968 678.063 131.968ZM671.407 145.28H687.855V138.368H668.079V140.864H684.623V142.944H668.143V150.208H688.687V147.68H671.407V145.28ZM664.975 133.664V136.288H691.151V133.664H664.975ZM713.024 135.552H706.208V130.848H713.024V135.552ZM716.256 132.192H722.272V142.976H725.568V121.568H722.272V129.504H716.256V123.488H713.024V128.256H706.208V123.488H702.944V138.24H716.256V132.192ZM710.08 147.232V140.864H706.752V149.92H726.24V147.232H710.08ZM735.518 126.976H745.662V124.288H732.222V143.392H734.59C739.806 143.392 743.71 143.232 748.094 142.432L747.742 139.712C743.71 140.416 740.19 140.608 735.518 140.64V126.976ZM757.95 132.672H753.438V121.536H750.142V150.496H753.438V135.392H757.95V132.672ZM783.707 129.856H767.163V122.592H763.867V132.544H783.707V129.856ZM766.971 141.312H763.675V149.824H783.867V147.168H766.971V141.312ZM760.475 136V138.656H786.715V136H760.475ZM812.076 130.24V132.96H817.772V142.848H821.068V121.568H817.772V130.24H812.076ZM798.988 123.776V126.464H808.684C808.076 131.2 803.852 135.04 797.484 137.12L798.924 139.744C807.148 137.056 812.236 131.392 812.236 123.776H798.988ZM805.836 147.232V140.704H802.54V149.92H821.804V147.232H805.836ZM849.277 127.776V130.464H854.365V136.384H857.693V121.568H854.365V127.776H849.277ZM850.813 133.664C846.557 132.32 844.061 129.12 844.061 125.856V125.536H850.109V122.88H834.653V125.536H840.733V125.824C840.733 129.248 838.109 132.832 833.693 134.304L835.293 136.864C838.685 135.776 841.149 133.408 842.429 130.528C843.677 133.12 846.045 135.2 849.277 136.224L850.813 133.664ZM842.173 147.584V145.024H857.693V137.696H838.877V140.288H854.429V142.592H838.909V150.176H858.653V147.584H842.173ZM867.387 127.68H874.843V124.992H864.155V143.584H866.075C870.139 143.584 873.115 143.456 876.603 142.784L876.315 140.064C873.339 140.672 870.715 140.832 867.387 140.864V127.68ZM884.699 121.536V132.96H881.275V122.144H878.171V149.024H881.275V135.648H884.699V150.432H887.835V121.536H884.699ZM917.964 129.568C913.708 128.672 911.212 126.304 911.212 123.584V122.304H907.788V123.584C907.788 126.464 905.356 129.024 901.004 129.984L902.411 132.512C905.868 131.712 908.3 129.856 909.548 127.424C910.796 129.664 913.228 131.296 916.588 132.064L917.964 129.568ZM908.14 140.256H911.436V136.384C913.868 136.256 916.332 135.968 918.732 135.552L918.476 133.184C912.332 133.984 905.228 134.016 899.884 134.016L900.268 136.704C902.636 136.704 905.324 136.704 908.14 136.576V140.256ZM920.268 147.488H907.5V144.864H920.268V147.488ZM920.268 142.304H907.5V139.552H904.236V150.112H923.564V139.552H920.268V142.304ZM920.236 121.568V138.208H923.564V121.568H920.236ZM939.913 127.168H946.345V124.448H930.153V127.168H936.585V129.92C936.585 134.88 933.609 140.256 929.129 142.336L931.017 144.96C934.409 143.328 937.001 139.904 938.281 135.872C939.625 139.616 942.217 142.752 945.577 144.224L947.401 141.632C942.889 139.712 939.913 134.72 939.913 129.92V127.168ZM949.705 121.568V150.464H953.033V121.568H949.705ZM969.434 129.824C969.434 127.424 971.322 125.792 973.818 125.792C976.314 125.792 978.202 127.424 978.202 129.824C978.202 132.192 976.314 133.824 973.818 133.824C971.322 133.824 969.434 132.192 969.434 129.824ZM981.402 129.824C981.402 125.888 978.17 123.104 973.818 123.104C969.466 123.104 966.234 125.888 966.234 129.824C966.234 133.728 969.466 136.544 973.818 136.544C978.17 136.544 981.402 133.728 981.402 129.824ZM971.866 138.848H968.666V149.728H970.17C972.506 149.728 975.002 149.6 977.626 148.704L977.082 146.08C975.354 146.656 973.53 146.912 971.866 147.008V138.848ZM983.834 148.192C982.362 148.192 981.274 147.52 981.274 146.4C981.274 145.248 982.362 144.608 983.834 144.608C985.274 144.608 986.362 145.248 986.362 146.4C986.362 147.52 985.274 148.192 983.834 148.192ZM983.834 142.304C980.634 142.304 978.362 143.904 978.362 146.4C978.362 148.896 980.634 150.496 983.834 150.496C987.002 150.496 989.274 148.896 989.274 146.4C989.274 143.904 987.002 142.304 983.834 142.304ZM985.434 136.64H982.234V139.008H976.57V141.408H991.066V139.008H985.434V136.64ZM988.442 127.84V121.568H985.146V135.872H988.442V130.56H992.538V127.84H988.442ZM1008.38 125.12C1012.6 125.12 1015.26 126.304 1015.26 128.32C1015.26 130.368 1012.6 131.552 1008.38 131.552C1004.12 131.552 1001.46 130.368 1001.46 128.32C1001.46 126.304 1004.12 125.12 1008.38 125.12ZM1008.38 134.208C1014.62 134.208 1018.68 132 1018.68 128.32C1018.68 124.672 1014.62 122.464 1008.38 122.464C1002.14 122.464 998.072 124.672 998.072 128.32C998.072 132 1002.14 134.208 1008.38 134.208ZM1001.91 141.504H998.584V149.92H1018.52V147.232H1001.91V141.504ZM995.288 136.544V139.232H1021.43V136.544H995.288ZM1055.75 121.536H1052.46V136.224H1055.75V121.536ZM1035.69 129.024C1035.69 126.72 1037.54 125.216 1040.04 125.216C1042.57 125.216 1044.46 126.72 1044.46 129.024C1044.46 131.328 1042.57 132.832 1040.04 132.832C1037.54 132.832 1035.69 131.328 1035.69 129.024ZM1047.66 129.024C1047.66 125.216 1044.42 122.496 1040.04 122.496C1035.69 122.496 1032.49 125.216 1032.49 129.024C1032.49 132.832 1035.69 135.52 1040.04 135.52C1044.42 135.52 1047.66 132.832 1047.66 129.024ZM1040.1 147.52V144.96H1055.75V137.536H1036.81V140.128H1052.49V142.528H1036.87V150.112H1056.62V147.52H1040.1ZM1081.89 121.568V137.088H1085.19V121.568H1081.89ZM1066.31 138.432V150.112H1085.19V138.432H1081.93V141.632H1069.57V138.432H1066.31ZM1069.57 144.192H1081.93V147.456H1069.57V144.192ZM1069.61 122.88C1065.19 122.88 1061.93 125.632 1061.93 129.6C1061.93 133.568 1065.19 136.32 1069.61 136.32C1074.02 136.32 1077.25 133.568 1077.25 129.6C1077.25 125.632 1074.02 122.88 1069.61 122.88ZM1069.61 125.6C1072.2 125.6 1074.05 127.2 1074.05 129.6C1074.05 132.032 1072.2 133.6 1069.61 133.6C1066.98 133.6 1065.16 132.032 1065.16 129.6C1065.16 127.2 1066.98 125.6 1069.61 125.6ZM1095.78 124.384H1092.52V143.168H1094.98C1099.46 143.168 1104.13 142.816 1109.09 141.792L1108.74 139.04C1104.2 139.968 1099.88 140.32 1095.78 140.352V124.384ZM1111.4 121.568V150.464H1114.69V121.568H1111.4ZM1124.71 126.976H1134.85V124.288H1121.41V143.392H1123.78C1128.99 143.392 1132.9 143.232 1137.28 142.432L1136.93 139.712C1132.9 140.416 1129.38 140.608 1124.71 140.64V126.976ZM1147.14 132.672H1142.63V121.536H1139.33V150.496H1142.63V135.392H1147.14V132.672ZM1152.83 148.416C1154.21 148.416 1155.29 147.36 1155.29 145.856C1155.29 144.32 1154.21 143.232 1152.83 143.232C1151.45 143.232 1150.37 144.32 1150.37 145.856C1150.37 147.36 1151.45 148.416 1152.83 148.416Z" fill="#333333"/>
<path d="M168.376 263.984C156.904 262.064 153.016 254.96 153.016 249.008V245.84H144.712V249.008C144.712 254.816 140.68 262.064 129.352 263.984L132.568 270.416C140.728 268.928 145.96 264.8 148.84 259.568C151.672 264.8 156.952 268.928 165.16 270.416L168.376 263.984ZM128.728 277.136V283.376H169.48V277.136H128.728ZM182.292 265.52H195.348V259.52H182.292V253.232H195.78V247.04H174.516V278.72H178.404C185.796 278.72 192.036 278.576 198.804 277.616L198.132 271.472C192.66 272.288 187.812 272.528 182.292 272.576V265.52ZM214.548 260.048H208.5V243.488H200.724V288.56H208.5V266.384H214.548V260.048ZM253.665 266.096H229.473V262.208H252.273V256.304H229.473V252.608H253.377V246.512H221.553V272.144H253.665V266.096ZM217.041 277.52V283.712H257.841V277.52H217.041ZM291.533 281.984H276.413V278.912H291.533V281.984ZM291.533 273.056H276.413V269.552H268.733V288.08H299.213V269.552H291.533V273.056ZM273.677 260.72C270.989 260.72 269.021 259.136 269.021 256.16C269.021 253.184 270.989 251.648 273.677 251.648C276.365 251.648 278.333 253.184 278.333 256.16C278.333 259.136 276.365 260.72 273.677 260.72ZM291.437 243.536V252.992H285.245C283.805 248.384 279.293 245.264 273.677 245.264C266.861 245.264 261.629 249.872 261.629 256.16C261.629 262.496 266.861 267.104 273.677 267.104C279.389 267.104 283.949 263.888 285.293 259.184H291.437V267.776H299.213V243.536H291.437ZM320.738 266.912C325.922 265.952 329.33 263.744 331.298 260.816C333.266 263.408 336.53 265.328 341.426 266.192L344.402 260.24C337.826 259.232 335.378 256.496 335.09 253.52H343.25V247.616H335.042V243.584H327.266V247.616H319.01V253.52H327.218C326.978 256.736 324.482 259.808 317.666 260.96L320.738 266.912ZM344.498 266.864C335.282 268.064 324.53 268.112 316.562 268.112L317.426 274.304C320.402 274.304 323.666 274.304 327.122 274.16V287.168H334.898V273.776C338.258 273.488 341.666 273.056 345.026 272.432L344.498 266.864ZM346.706 243.488V288.512H354.482V243.488H346.706ZM390.814 281.984H375.694V278.912H390.814V281.984ZM390.814 273.056H375.694V269.552H368.014V288.08H398.494V269.552H390.814V273.056ZM372.958 260.72C370.27 260.72 368.302 259.136 368.302 256.16C368.302 253.184 370.27 251.648 372.958 251.648C375.646 251.648 377.614 253.184 377.614 256.16C377.614 259.136 375.646 260.72 372.958 260.72ZM390.718 243.536V252.992H384.526C383.086 248.384 378.574 245.264 372.958 245.264C366.142 245.264 360.91 249.872 360.91 256.16C360.91 262.496 366.142 267.104 372.958 267.104C378.67 267.104 383.23 263.888 384.574 259.184H390.718V267.776H398.494V243.536H390.718ZM445.843 256.064V259.28H437.011V265.424H445.843V268.832H453.619V243.488H445.843V249.968H438.931C439.075 248.864 439.123 247.616 439.123 246.416H418.339V252.512H430.675C429.859 257.744 425.779 261.92 415.795 264.368L418.771 270.464C428.803 267.776 434.851 263.072 437.491 256.064H445.843ZM438.547 282.368C433.603 282.368 430.819 281.264 430.819 278.864C430.819 276.464 433.603 275.36 438.547 275.36C443.443 275.36 446.227 276.464 446.227 278.864C446.227 281.264 443.443 282.368 438.547 282.368ZM438.547 269.456C429.379 269.456 423.139 273.104 423.139 278.864C423.139 284.624 429.379 288.272 438.547 288.272C447.667 288.272 453.907 284.624 453.907 278.864C453.907 273.104 447.667 269.456 438.547 269.456ZM486.399 246.992H476.991V243.152H469.215V246.992H459.855V252.992H486.399V246.992ZM469.551 262.208C469.551 260.48 470.991 259.712 473.151 259.712C475.311 259.712 476.751 260.48 476.751 262.208C476.751 263.936 475.311 264.704 473.151 264.704C470.991 264.704 469.551 263.936 469.551 262.208ZM484.143 262.208C484.143 257.408 479.535 254.048 473.151 254.048C466.767 254.048 462.159 257.408 462.159 262.208C462.159 266.96 466.767 270.32 473.151 270.32C479.535 270.32 484.143 266.96 484.143 262.208ZM474.927 278.336H490.191V282.08H474.927V278.336ZM467.295 288.08H497.775V272.336H467.295V288.08ZM489.999 243.488V256.4H485.391V262.592H489.999V270.704H497.775V243.488H489.999ZM529.02 260.144C524.7 261.056 520.62 261.344 513.084 261.44V252.272H525.516V246.176H505.355V267.584H509.243C519.612 267.584 524.652 267.344 529.74 266.192L529.02 260.144ZM517.404 276.32H532.044V282.08H517.404V276.32ZM509.772 288.08H539.628V270.32H509.772V288.08ZM545.244 253.136H539.628V243.488H531.852V268.592H539.628V259.376H545.244V253.136Z" fill="black"/>
<path d="M1588.81 480H1263.59C1254.75 480 1247.59 487.161 1247.59 495.994V677.132C1247.59 685.965 1254.75 693.125 1263.59 693.125H1588.81C1597.64 693.125 1604.8 685.965 1604.8 677.132V495.994C1604.8 487.161 1597.64 480 1588.81 480Z" fill="#E8E8E8"/>
<path d="M1552.85 615.201H1420.01C1414.08 615.201 1409.27 620.01 1409.27 625.943V660.258C1409.27 666.19 1414.08 671 1420.01 671H1552.85C1558.79 671 1563.6 666.19 1563.6 660.258V625.943C1563.6 620.01 1558.79 615.201 1552.85 615.201Z" fill="#D1D1D1"/>
<path d="M1379.57 505.438H1287.59C1281.66 505.438 1276.85 510.247 1276.85 516.18V550.495C1276.85 556.428 1281.66 561.237 1287.59 561.237H1379.57C1385.5 561.237 1390.31 556.428 1390.31 550.495V516.18C1390.31 510.247 1385.5 505.438 1379.57 505.438Z" fill="#D1D1D1"/>
<path d="M1379.57 582.825H1287.59C1281.66 582.825 1276.85 587.635 1276.85 593.567V659.571C1276.85 665.504 1281.66 670.313 1287.59 670.313H1379.57C1385.5 670.313 1390.31 665.504 1390.31 659.571V593.567C1390.31 587.635 1385.5 582.825 1379.57 582.825Z" fill="#D1D1D1"/>
<path d="M1350.33 974.985C1586.7 974.985 1778.33 965.426 1778.33 953.635C1778.33 941.844 1586.7 932.285 1350.33 932.285C1113.95 932.285 922.324 941.844 922.324 953.635C922.324 965.426 1113.95 974.985 1350.33 974.985Z" fill="#E8E8E8"/>
<path d="M1201.58 828.177H1201.57C1194.22 828.177 1188.26 834.135 1188.26 841.485V859.105C1188.26 866.455 1194.22 872.413 1201.57 872.413H1201.58C1208.93 872.413 1214.89 866.455 1214.89 859.105V841.485C1214.89 834.135 1208.93 828.177 1201.58 828.177Z" fill="#7B7B7B"/>
<path d="M1200.98 927.407C1199.56 927.407 1198.19 926.839 1197.18 925.829C1196.17 924.819 1195.6 923.449 1195.6 922.021V822.821C1195.6 822.114 1195.74 821.413 1196.01 820.76C1196.28 820.106 1196.68 819.513 1197.18 819.013C1197.68 818.512 1198.27 818.116 1198.92 817.845C1199.58 817.574 1200.28 817.435 1200.98 817.435C1202.41 817.435 1203.79 818.002 1204.8 819.012C1205.81 820.021 1206.38 821.391 1206.39 822.821V922.021C1206.39 922.729 1206.25 923.431 1205.97 924.086C1205.7 924.74 1205.3 925.334 1204.8 925.835C1204.3 926.335 1203.71 926.731 1203.05 927.001C1202.4 927.271 1201.69 927.409 1200.98 927.407Z" fill="#7B7B7B"/>
<path d="M1160.64 937.179C1159.99 937.179 1159.34 937.05 1158.73 936.798C1158.13 936.547 1157.58 936.179 1157.11 935.714C1156.65 935.25 1156.28 934.699 1156.04 934.093C1155.79 933.486 1155.66 932.837 1155.66 932.181V928.033C1155.66 927.378 1155.79 926.73 1156.04 926.124C1156.29 925.519 1156.65 924.969 1157.12 924.505C1157.58 924.042 1158.13 923.675 1158.73 923.426C1159.34 923.176 1159.99 923.048 1160.64 923.05C1161.96 923.05 1163.23 923.575 1164.17 924.51C1165.1 925.444 1165.63 926.712 1165.63 928.033V932.181C1165.63 933.504 1165.1 934.773 1164.17 935.71C1163.23 936.647 1161.97 937.175 1160.64 937.179Z" fill="#3A3A3A"/>
<path d="M1241.34 937.179C1240.68 937.179 1240.03 937.05 1239.43 936.799C1238.82 936.547 1238.27 936.179 1237.81 935.715C1237.34 935.251 1236.97 934.7 1236.72 934.094C1236.47 933.487 1236.34 932.837 1236.34 932.181V928.033C1236.34 927.378 1236.47 926.729 1236.72 926.123C1236.98 925.517 1237.34 924.967 1237.81 924.505C1238.27 924.042 1238.82 923.675 1239.43 923.425C1240.04 923.176 1240.69 923.048 1241.34 923.05C1242.66 923.05 1243.93 923.575 1244.86 924.51C1245.8 925.444 1246.32 926.712 1246.32 928.033V932.181C1246.32 933.504 1245.8 934.773 1244.87 935.71C1243.93 936.647 1242.66 937.175 1241.34 937.179Z" fill="#3A3A3A"/>
<path d="M1201.6 937.179C1200.27 937.179 1199 936.653 1198.06 935.715C1197.12 934.778 1196.6 933.507 1196.6 932.181V928.033C1196.6 927.378 1196.73 926.729 1196.98 926.123C1197.23 925.517 1197.6 924.967 1198.06 924.505C1198.53 924.042 1199.08 923.675 1199.68 923.425C1200.29 923.176 1200.94 923.048 1201.6 923.05C1202.92 923.05 1204.19 923.575 1205.12 924.51C1206.05 925.444 1206.58 926.712 1206.58 928.033V932.181C1206.58 933.504 1206.05 934.773 1205.12 935.71C1204.19 936.647 1202.92 937.175 1201.6 937.179Z" fill="#3A3A3A"/>
<path d="M1247.13 931.778H1156.35C1155.77 931.778 1155.2 931.665 1154.67 931.445C1154.14 931.226 1153.66 930.904 1153.26 930.498C1152.85 930.092 1152.53 929.61 1152.31 929.08C1152.09 928.549 1151.98 927.981 1151.98 927.407C1151.98 926.25 1152.44 925.142 1153.26 924.325C1154.08 923.509 1155.19 923.05 1156.35 923.05H1247.13C1248.29 923.05 1249.4 923.509 1250.22 924.325C1251.03 925.142 1251.5 926.25 1251.5 927.407C1251.5 928.566 1251.04 929.678 1250.22 930.498C1249.4 931.318 1248.29 931.778 1247.13 931.778Z" fill="#7B7B7B"/>
<path d="M1180.26 815.928L1159.2 739.6L1141.2 747.328L1160.6 823.746C1162.22 829.639 1178.5 831.832 1184.59 831.832H1227.65V821.388H1187.36C1185.75 821.37 1184.18 820.828 1182.9 819.843C1181.62 818.858 1180.69 817.484 1180.26 815.928Z" fill="#7B7B7B"/>
<path d="M1160.12 841.351H1250.23C1254.24 841.347 1258.08 839.753 1260.92 836.92C1263.75 834.087 1265.34 830.245 1265.35 826.238C1265.35 822.229 1263.75 818.385 1260.92 815.551C1258.09 812.716 1254.24 811.124 1250.23 811.124H1160.12C1156.11 811.124 1152.27 812.716 1149.43 815.551C1146.6 818.385 1145.01 822.229 1145.01 826.238C1145.01 830.245 1146.61 834.087 1149.44 836.92C1152.27 839.753 1156.11 841.347 1160.12 841.351Z" fill="#3A3A3A"/>
<path d="M1196.3 681.503H1147.59C1137.7 681.503 1129.69 689.519 1129.69 699.406V773.392C1129.69 783.28 1137.7 791.296 1147.59 791.296H1196.3C1206.19 791.296 1214.2 783.28 1214.2 773.392V699.406C1214.2 689.519 1206.19 681.503 1196.3 681.503Z" fill="#3A3A3A"/>
<path fill-rule="evenodd" clip-rule="evenodd" d="M1247.22 674.401C1247.22 674.401 1259.83 695.005 1262.14 731.991C1262.14 731.991 1253.01 731.125 1253.04 729.812C1253.07 728.5 1247.22 674.401 1247.22 674.401Z" fill="#B4B4B4"/>
<path fill-rule="evenodd" clip-rule="evenodd" d="M1333.06 937.985L1351.55 936.732L1345.43 916.709L1327.74 917.918L1333.06 937.985Z" fill="#878787"/>
<path fill-rule="evenodd" clip-rule="evenodd" d="M1249.99 937.836L1269.79 936.493L1267.3 917.321L1247.5 918.664L1249.99 937.836Z" fill="#878787"/>
<path fill-rule="evenodd" clip-rule="evenodd" d="M1377.11 949.846C1377.13 950.192 1377.08 950.539 1376.95 950.862C1376.83 951.185 1376.63 951.475 1376.37 951.711C1375.85 952.203 1369.77 952.979 1368.92 952.949C1361.46 952.591 1347.01 951.099 1337.06 950.622C1335.5 950.537 1334.02 949.909 1332.87 948.846C1332.33 948.353 1331.89 947.758 1331.58 947.095C1331.27 946.432 1331.1 945.713 1331.07 944.982C1330.98 939.73 1330.87 932.494 1330.87 932.494L1349.77 930.764C1349.77 930.764 1365.32 940.536 1373.15 943.967C1376.42 945.459 1376.79 946.653 1377.05 949.846H1377.11Z" fill="#3A3A3A"/>
<path fill-rule="evenodd" clip-rule="evenodd" d="M1242.16 751.953C1242.16 751.953 1253.81 785.462 1253.01 791.997C1252.01 799.517 1249.2 806.683 1244.83 812.884L1187.6 812.437C1183.76 812.403 1179.97 811.536 1176.5 809.894C1173.03 808.252 1169.95 805.875 1167.49 802.928C1165.03 799.981 1163.23 796.534 1162.24 792.825C1161.24 789.116 1161.05 785.235 1161.7 781.449V781.225C1161.97 779.733 1162.21 778.137 1162.42 776.6C1163.39 769.349 1166.34 747.611 1166.34 747.611C1184.11 759.129 1216.32 763.889 1244.55 756.265L1242.16 751.953Z" fill="#CFCFCF"/>
<path fill-rule="evenodd" clip-rule="evenodd" d="M1289.23 754.251L1268.18 735.81L1252.25 715.878L1242.82 738.257C1252.7 753.639 1268.04 764.709 1285.76 769.245L1288.26 761.785L1289.23 754.251Z" fill="#B4B4B4"/>
<path fill-rule="evenodd" clip-rule="evenodd" d="M1349.49 922.752C1349.49 919.768 1331.14 854.122 1320.8 826.461C1317.81 818.695 1311.89 812.413 1304.32 808.961L1242.82 780.255L1202.66 812.347L1287.17 845.17C1290.47 866.058 1306.11 896.18 1323.96 924.796L1349.49 922.752Z" fill="#CFCFCF"/>
<path fill-rule="evenodd" clip-rule="evenodd" d="M1334.24 923.945C1331.8 904.818 1315.94 887.721 1308.78 878.202C1299.69 866.102 1305.24 845.961 1301.45 835.875C1300.38 833.026 1297.38 829.311 1293.63 825.596C1285.1 817.345 1274.59 811.426 1263.11 808.408C1247.44 804.082 1238.16 797.86 1228.39 791.788L1202.66 812.347L1287.17 845.17C1290.47 866.057 1306.11 896.18 1323.96 924.796L1334.24 923.945Z" fill="#B8B8B8"/>
<path fill-rule="evenodd" clip-rule="evenodd" d="M1295.23 952.949C1295.26 953.297 1295.21 953.648 1295.08 953.975C1294.96 954.301 1294.76 954.593 1294.5 954.829C1293.98 955.321 1287.89 956.097 1287.04 956.067C1279.58 955.694 1265.15 954.217 1255.2 953.74C1253.64 953.656 1252.15 953.022 1251.01 951.949C1250.46 951.461 1250.02 950.869 1249.71 950.208C1249.4 949.547 1249.22 948.83 1249.19 948.1C1249.11 942.848 1248.99 935.612 1248.99 935.612L1270.02 935.18C1270.02 935.18 1283.44 943.639 1291.28 947.115C1294.56 948.607 1294.92 949.801 1295.17 952.979L1295.23 952.949Z" fill="#3A3A3A"/>
<path fill-rule="evenodd" clip-rule="evenodd" d="M1226.82 606.816C1226.82 606.816 1240.36 612.933 1229.81 625.54C1219.26 638.147 1226.82 606.816 1226.82 606.816Z" fill="#3A3A3A"/>
<path fill-rule="evenodd" clip-rule="evenodd" d="M1181.01 666.151C1181.18 663.752 1181.98 661.441 1183.33 659.451C1184.68 657.46 1186.53 655.86 1188.69 654.812C1193.96 652.361 1199.93 651.834 1205.55 653.32C1220.47 656.811 1225.48 659.079 1225.48 659.079L1231.11 677.684L1212.32 686.635L1175.32 658.945L1181.01 666.151Z" fill="#B4B4B4"/>
<path fill-rule="evenodd" clip-rule="evenodd" d="M1229.33 617.603C1229.24 615.368 1228.69 613.176 1227.73 611.16C1226.76 609.145 1225.39 607.348 1223.7 605.882C1222.01 604.415 1220.04 603.308 1217.91 602.63C1215.78 601.951 1213.53 601.716 1211.31 601.937C1207.11 602.345 1203.23 604.343 1200.45 607.522C1197.68 610.7 1196.23 614.819 1196.39 619.035C1196.6 624.063 1196.82 629.479 1197.02 634.327C1197.08 635.923 1197.48 637.487 1198.17 638.926C1198.86 640.364 1199.84 641.646 1201.05 642.694C1202.25 643.741 1203.66 644.532 1205.18 645.017C1206.7 645.502 1208.3 645.673 1209.89 645.517L1218.96 644.622C1222.04 644.32 1224.88 642.851 1226.91 640.518C1228.94 638.184 1230 635.163 1229.87 632.075C1229.69 627.599 1229.48 622.481 1229.29 617.603H1229.33Z" fill="#878787"/>
<path fill-rule="evenodd" clip-rule="evenodd" d="M1188.32 664.376L1200.12 633.761L1221.56 643.324L1215.61 672.82L1188.32 664.376Z" fill="#878787"/>
<path fill-rule="evenodd" clip-rule="evenodd" d="M1205.92 615.663C1205.92 615.663 1208.01 630.672 1196.24 631.015C1196.24 631.015 1190.27 617.498 1189.56 610.546C1188.29 597.64 1214.13 595.074 1224.59 600.565C1235.05 606.055 1228.64 615.977 1205.92 615.663Z" fill="#3A3A3A"/>
<path fill-rule="evenodd" clip-rule="evenodd" d="M1218.41 658.915C1211.29 669.642 1194.27 659.915 1191.56 656.11C1191.12 655.514 1183.6 659.9 1182.6 660.586C1167.68 670.91 1165.7 715.251 1163.02 731.215C1161.78 738.675 1154.81 763.65 1158.54 770.14C1159.76 772.274 1171.44 770.633 1173.76 771.05C1183.51 772.781 1227.26 776.183 1233.25 769.558C1239.25 762.934 1234.75 750.506 1235.91 742.703C1239.4 716.836 1237.51 690.527 1230.38 665.42L1218.41 658.915Z" fill="white"/>
<path fill-rule="evenodd" clip-rule="evenodd" d="M1234.61 717.295C1226.12 739.928 1162.9 715.624 1170.09 704.763C1180.11 689.589 1165.61 715.206 1163 731.2C1161.76 738.66 1154.79 763.635 1158.52 770.125C1159.75 772.258 1164.75 789.625 1167.07 789.699C1198.03 790.818 1245.64 792.579 1247.77 783.836C1250.76 771.527 1236.91 750.446 1235.84 742.554C1233.23 722.084 1234.61 717.295 1234.61 717.295Z" fill="#E8E8E8"/>
<path fill-rule="evenodd" clip-rule="evenodd" d="M1196.49 624.719C1198.63 624.167 1200.97 625.943 1201.63 628.673C1202.28 631.403 1201.15 634.059 1199.02 634.641C1196.88 635.223 1194.54 633.402 1193.88 630.672C1193.23 627.942 1194.36 625.286 1196.49 624.704V624.719Z" fill="#878787"/>
<path fill-rule="evenodd" clip-rule="evenodd" d="M1229.96 632.089C1230.72 630.747 1233.94 652.305 1221.01 653.395C1208.07 654.484 1202.61 649.202 1201.73 624.451C1201.73 624.451 1206.92 639.49 1214.5 639.713C1230.32 640.191 1229.08 633.746 1229.99 632.089H1229.96Z" fill="#3A3A3A"/>
<path fill-rule="evenodd" clip-rule="evenodd" d="M1175.61 807.737L1182.13 798.368L1226 795.384L1258.48 809.9C1263.18 811.889 1267.18 815.211 1270 819.454C1272.82 823.698 1274.34 828.676 1274.36 833.772L1274.15 859.239L1275.89 929.809L1247.1 929.048C1238.01 895.121 1234.43 866.266 1237.28 839.963L1175.61 807.737Z" fill="#CFCFCF"/>
<path fill-rule="evenodd" clip-rule="evenodd" d="M1225.48 659.034C1225.48 659.034 1233.42 699.421 1233.61 723.74C1233.81 748.059 1244.65 797.651 1244.65 797.651C1248.56 790.386 1262.45 792.564 1263.69 785.94C1263.69 785.94 1251.53 705.941 1249.4 684.964C1247.29 664.51 1239.37 664.644 1225.48 659.034Z" fill="#B4B4B4"/>
<path fill-rule="evenodd" clip-rule="evenodd" d="M1214.34 615.201C1214.34 615.201 1243.06 612.948 1236.39 600.281C1230.21 588.51 1210.12 613.306 1205.89 608.77L1214.34 615.201Z" fill="#3A3A3A"/>
<path fill-rule="evenodd" clip-rule="evenodd" d="M1249.4 759.547C1249.4 759.547 1256.65 754.594 1261.33 756.996C1263.54 758.145 1267.23 758.204 1270.52 759.98C1274.13 761.994 1278.06 767.544 1278.06 767.544C1278.06 767.544 1278.06 772.676 1273.49 773.512C1271.87 773.825 1266.97 769.469 1266.97 769.469C1262.5 771.035 1257.29 770.96 1251.31 769.662L1249.4 759.547Z" fill="#878787"/>
<path fill-rule="evenodd" clip-rule="evenodd" d="M1283.16 759.144C1283.16 759.144 1290.04 753.654 1294.83 755.728C1297.11 756.712 1300.79 756.504 1304.21 758.085C1307.97 759.831 1312.27 765.067 1312.27 765.067C1312.27 765.067 1312.67 770.185 1308.18 771.408C1306.57 771.841 1301.38 767.857 1301.38 767.857C1297.08 769.752 1291.83 770.11 1285.76 769.2L1283.16 759.144Z" fill="#878787"/>
<path fill-rule="evenodd" clip-rule="evenodd" d="M1249.4 759.562L1226.39 757.861L1225.48 770.125L1254.29 768.544L1249.4 759.562Z" fill="#878787"/>
<path d="M1240.65 771.229H1315.97V766.455H1240.65V771.229Z" fill="white"/>
<path fill-rule="evenodd" clip-rule="evenodd" d="M1147.29 740.719C1147.55 727.965 1148.65 715.242 1150.56 702.629C1153.05 686.65 1156.27 674.67 1161.88 668.046C1166.79 662.242 1171.47 661.362 1177.74 658.273L1188.69 654.812C1195.39 685.964 1200.01 715.684 1197.11 746.537L1233.7 753.788L1233.61 771.229H1177.13L1165.86 767.574L1155.15 761.606C1149.92 755.93 1147.1 748.438 1147.29 740.719Z" fill="#B4B4B4"/>
<path fill-rule="evenodd" clip-rule="evenodd" d="M1296.78 771.229H1383.21L1409.27 713.118H1324.83C1324.24 713.118 1323.66 713.288 1323.17 713.608C1322.67 713.929 1322.28 714.385 1322.04 714.923L1296.78 771.229Z" fill="white"/>
<path fill-rule="evenodd" clip-rule="evenodd" d="M1300.14 771.229H1386.55L1411.43 715.728C1411.56 715.44 1411.62 715.123 1411.6 714.807C1411.57 714.492 1411.47 714.188 1411.3 713.922C1411.12 713.656 1410.89 713.438 1410.61 713.287C1410.33 713.136 1410.02 713.057 1409.7 713.058H1327.44C1327.07 713.055 1326.71 713.16 1326.41 713.359C1326.1 713.558 1325.86 713.842 1325.71 714.177L1300.14 771.229Z" fill="#3A3A3A"/>
<path fill-rule="evenodd" clip-rule="evenodd" d="M1198 733.543C1198 733.543 1198.73 764.471 1205.86 778.674C1209.03 784.955 1225.48 801.71 1225.48 801.71C1225.48 801.71 1162.31 807.946 1160.31 782.479C1158.63 763.94 1155.9 745.51 1152.15 727.276L1198 733.543Z" fill="#B4B4B4"/>
<path fill-rule="evenodd" clip-rule="evenodd" d="M1353.24 742.584C1352.21 746.209 1355.01 749.148 1359.5 749.148C1363.99 749.148 1368.45 746.164 1369.5 742.584C1370.54 739.003 1367.72 736.019 1363.23 736.019C1358.74 736.019 1354.26 738.913 1353.24 742.584Z" fill="white"/>
<path fill-rule="evenodd" clip-rule="evenodd" d="M1147.29 740.719C1147.55 727.965 1148.65 715.242 1150.56 702.629C1153.05 686.65 1156.27 674.67 1161.88 668.046C1166.79 662.242 1171.47 661.362 1177.74 658.273L1188.69 654.812C1146.72 676.296 1160.34 722.293 1157.36 753.147C1164.1 756.742 1167.28 755.593 1182.99 758.727C1191.38 761.293 1199.6 764.993 1212.2 767.216C1221.68 765.216 1227 764.56 1233.55 766.455V771.229H1177.13L1165.86 767.574L1155.15 761.606C1149.92 755.93 1147.1 748.438 1147.29 740.719Z" fill="#B4B4B4"/>
<path d="M1021.7 719.264C1035.13 711.044 1042.78 707.418 1056.13 698.854L1063.24 703.256C1039.02 724.456 1033.01 735.676 1019.63 738.645C999.933 725.352 1016.09 740.286 1021.7 719.264Z" fill="#878787"/>
<path d="M1020.03 717.877C1028.29 718.832 1032.62 733.527 1029.7 736.019L1006.05 743.732L988.043 727.157L981.404 695.154L1006.05 721.428L1020.03 717.877Z" fill="#B8B8B8"/>
<path fill-rule="evenodd" clip-rule="evenodd" d="M948.164 891.257C944.641 891.226 941.272 889.812 938.783 887.319C936.293 884.827 934.883 881.456 934.856 877.934V860.329C934.864 856.802 936.268 853.421 938.762 850.927C941.256 848.433 944.637 847.028 948.164 847.021C951.686 847.048 955.057 848.458 957.549 850.948C960.041 853.437 961.455 856.806 961.487 860.329V877.934C961.459 881.459 960.047 884.832 957.554 887.324C955.062 889.817 951.689 891.23 948.164 891.257Z" fill="#7B7B7B"/>
<path d="M947.537 946.25C946.115 946.234 944.757 945.658 943.757 944.647C942.757 943.636 942.196 942.271 942.196 940.849V841.649C942.196 840.221 942.763 838.851 943.774 837.841C944.784 836.831 946.153 836.263 947.582 836.263C949.012 836.263 950.383 836.83 951.396 837.84C952.408 838.849 952.979 840.219 952.983 841.649V940.849C952.983 941.562 952.842 942.268 952.567 942.926C952.293 943.585 951.891 944.182 951.385 944.684C950.879 945.186 950.278 945.583 949.618 945.852C948.957 946.121 948.25 946.256 947.537 946.25Z" fill="#7B7B7B"/>
<path d="M907.196 956.008C906.54 956.008 905.891 955.878 905.285 955.627C904.68 955.376 904.13 955.007 903.667 954.543C903.204 954.079 902.837 953.528 902.588 952.921C902.338 952.315 902.211 951.665 902.213 951.01V946.862C902.213 946.208 902.341 945.56 902.592 944.955C902.842 944.351 903.209 943.801 903.672 943.338C904.135 942.876 904.684 942.509 905.289 942.258C905.893 942.008 906.541 941.879 907.196 941.879C908.516 941.883 909.781 942.409 910.715 943.343C911.648 944.276 912.175 945.542 912.179 946.862V951.01C912.179 952.333 911.654 953.602 910.72 954.539C909.786 955.475 908.519 956.004 907.196 956.008Z" fill="#3A3A3A"/>
<path d="M987.894 956.007C986.568 956.007 985.297 955.481 984.36 954.543C983.422 953.606 982.896 952.335 982.896 951.009V946.862C982.9 945.539 983.428 944.271 984.365 943.337C985.302 942.403 986.571 941.879 987.894 941.879C988.551 941.875 989.203 942 989.812 942.249C990.421 942.497 990.975 942.864 991.442 943.327C991.909 943.789 992.28 944.34 992.534 944.947C992.788 945.553 992.919 946.204 992.921 946.862V951.009C992.921 951.668 992.791 952.321 992.538 952.929C992.285 953.537 991.914 954.089 991.447 954.554C990.98 955.019 990.425 955.386 989.815 955.635C989.206 955.885 988.552 956.011 987.894 956.007Z" fill="#3A3A3A"/>
<path d="M948.164 956.008C947.508 956.008 946.859 955.878 946.253 955.627C945.648 955.376 945.098 955.007 944.635 954.543C944.172 954.079 943.805 953.528 943.556 952.921C943.306 952.315 943.179 951.665 943.181 951.01V946.862C943.181 946.208 943.31 945.56 943.56 944.955C943.81 944.351 944.177 943.801 944.64 943.338C945.103 942.876 945.652 942.509 946.257 942.258C946.861 942.008 947.509 941.879 948.164 941.879C949.484 941.883 950.749 942.409 951.683 943.343C952.617 944.276 953.143 945.542 953.147 946.862V951.01C953.147 952.333 952.622 953.602 951.688 954.539C950.754 955.475 949.487 956.004 948.164 956.008Z" fill="#3A3A3A"/>
<path d="M993.682 950.607H902.899C901.742 950.607 900.632 950.148 899.813 949.332C898.994 948.515 898.531 947.407 898.528 946.25C898.528 945.676 898.641 945.108 898.86 944.577C899.08 944.047 899.402 943.565 899.808 943.159C900.214 942.753 900.696 942.431 901.226 942.212C901.756 941.992 902.325 941.879 902.899 941.879H993.682C994.256 941.879 994.825 941.992 995.355 942.212C995.885 942.431 996.367 942.753 996.773 943.159C997.179 943.565 997.501 944.047 997.721 944.577C997.941 945.108 998.054 945.676 998.054 946.25C998.05 947.407 997.587 948.515 996.768 949.332C995.949 950.148 994.839 950.607 993.682 950.607Z" fill="#7B7B7B"/>
<path d="M885.697 834.771L864.616 758.369H854.173L876.88 840.62C877.675 843.488 879.388 846.016 881.756 847.819C884.124 849.621 887.018 850.599 889.994 850.601H933.125V840.157H892.843C891.23 840.153 889.661 839.626 888.373 838.655C887.084 837.684 886.146 836.321 885.697 834.771Z" fill="#7B7B7B"/>
<path d="M906.673 860.179H996.785C1000.79 860.175 1004.63 858.582 1007.47 855.748C1010.3 852.915 1011.89 849.073 1011.9 845.066C1011.89 841.058 1010.3 837.217 1007.47 834.383C1004.63 831.55 1000.79 829.956 996.785 829.952H906.673C902.668 829.956 898.827 831.55 895.996 834.384C893.165 837.218 891.575 841.06 891.575 845.066C891.575 849.071 893.165 852.913 895.996 855.747C898.827 858.581 902.668 860.175 906.673 860.179Z" fill="#3A3A3A"/>
<path d="M849.966 700.495L880.893 810.9C881.839 814.264 884.081 817.115 887.128 818.827C890.174 820.539 893.775 820.972 897.14 820.031C898.809 819.562 900.369 818.77 901.731 817.698C903.094 816.626 904.231 815.297 905.079 813.785C905.927 812.273 906.469 810.609 906.673 808.888C906.878 807.167 906.741 805.422 906.271 803.754L875.343 693.349C874.394 689.989 872.15 687.142 869.103 685.436C866.057 683.729 862.457 683.302 859.096 684.248C857.429 684.715 855.871 685.505 854.51 686.575C853.149 687.644 852.012 688.971 851.164 690.48C850.316 691.989 849.774 693.65 849.568 695.368C849.363 697.087 849.498 698.829 849.966 700.495Z" fill="#3A3A3A"/>
<path d="M875.845 786.143L867.818 788.349C865.345 789.029 862.704 788.698 860.476 787.431C858.247 786.163 856.613 784.062 855.933 781.59L848.562 754.774C847.883 752.302 848.213 749.661 849.481 747.432C850.748 745.203 852.85 743.569 855.322 742.89L863.349 740.683L875.845 786.143Z" fill="#3A3A3A"/>
<path d="M1073.37 937.075L1087.46 937.627L1036.63 809.005L932.797 799.681L940.257 818.942C1025.82 823.209 1023.25 834.965 1023.25 834.965C1021.01 866.281 1041.47 889.496 1073.37 937.075Z" fill="#7B7B7B"/>
<path d="M1016.39 937.88L1027.3 937.671L1035.77 841.739C1042.38 789.521 1017.87 809.468 934.811 804.619L934.915 816.749C1019.66 821.046 1013.87 838.188 1013.87 838.188C1005.75 869.743 1011.81 880.977 1016.39 937.88Z" fill="#878787"/>
<path d="M931.022 837.741L1014.94 841.978L1036.63 808.558L941.405 779.137C931.842 779.137 921.235 774.303 921.235 786.492L915.267 815.66C915.222 827.864 921.473 837.741 931.022 837.741Z" fill="#999999"/>
<path d="M938.615 831.355C925.308 830.609 924.293 813.243 931.753 787.342L934.736 778.584C927.65 777.779 921.578 777.257 921.578 786.477L915.61 815.645C912.701 828.833 921.861 837.725 931.409 837.725L1015.3 841.978L1017.3 838.889L938.615 831.355Z" fill="#898989"/>
<path d="M1050.97 753.385L1061.31 752.162C1063.39 751.939 1065.47 752.469 1067.19 753.654L1079.21 761.755L1074.28 765.276L1061.19 766.082C1058.13 766.203 1055.12 765.242 1052.69 763.367L1048.38 760.174L1050.97 753.385Z" fill="#878787"/>
<path d="M1011.09 752.863C1026.88 753.027 1035.25 753.982 1051.11 753.788L1054.81 761.248C1023.04 766.41 1012 772.751 999.068 768.186C989.4 746.508 995.204 767.723 1011.09 752.863Z" fill="#878787"/>
<path d="M1058 706.314L1068.37 707.239C1070.44 707.433 1072.51 706.865 1074.2 705.643L1081.05 700.734C1081.6 700.338 1082.05 699.815 1082.35 699.209C1082.66 698.603 1082.81 697.932 1082.8 697.253C1082.79 696.574 1082.62 695.908 1082.29 695.312C1081.97 694.715 1081.51 694.205 1080.94 693.826L1067.85 693.409C1064.77 693.383 1061.79 694.439 1059.42 696.393L1055.21 699.735L1058 706.314Z" fill="#878787"/>
<path d="M971.557 618.394C971.557 618.394 1000.14 609.8 995.995 636.804C992.31 660.676 978.509 671.671 978.509 671.671L966.41 621.736L971.557 618.394Z" fill="#3A3A3A"/>
<path d="M953.952 687.158L969.961 694.379L984.447 663.003L968.782 655.11L953.952 687.158Z" fill="#878787"/>
<path d="M958.861 644.025C958.861 630.344 959.443 627.912 970.587 623.406C982.075 619.93 975.153 625.6 987.849 625.958C995.308 626.152 996.681 632.776 997.129 641.355C997.278 644.339 999.143 646.815 1002.34 649.531C1003.42 651.41 1000.4 653.514 999.605 654.573C998.814 655.633 999.889 664.39 997.203 666.285C995.04 667.777 982.045 669.851 982.045 669.851C967.32 665.524 966.395 637.983 966.395 637.983C964.739 633.567 958.846 647.666 958.861 644.025Z" fill="#878787"/>
<path d="M969.051 618.393C969.051 618.393 943.27 622.586 955.892 652.604C957.334 656.242 959.554 659.522 962.397 662.212C964.754 664.405 966.872 664.659 970.125 664.017C970.998 663.847 971.824 663.493 972.55 662.978C973.275 662.464 973.883 661.801 974.332 661.033C979.986 648.277 978.957 651.306 981.284 631.194L989.938 625.495L980.359 618.378L969.051 618.393Z" fill="#3A3A3A"/>
<path d="M977.047 654.081C977.047 654.081 967.633 636.461 973.258 630.061L991.236 622.422C991.236 622.422 992.921 643.22 977.047 654.081Z" fill="#3A3A3A"/>
<path d="M975.794 681.071L990.713 708.105C995.995 715.326 998.725 727.59 997.8 736.452L980.3 753.833L973.168 773.781C975.227 781.061 978.703 788.059 972.512 788.7L919.653 786.895C922.801 722.084 933.543 684.398 959.398 674.789C963.083 673.417 968.469 677.206 975.794 681.071Z" fill="#CFCFCF"/>
<path d="M981.21 682.413L958.577 668.926L952.953 675.162L983.97 693.394L981.21 682.413Z" fill="#D1D1D1"/>
<path d="M999.128 768.946C1007.38 766.395 1012.66 761.487 1013.51 752.863L978.301 706.061C975.749 701.868 971.811 696.273 967.096 695.363C960.935 694.17 953.878 697.855 957.563 710.566C960.741 721.487 984.82 753.639 999.128 768.946Z" fill="#CFCFCF"/>
<path fill-rule="evenodd" clip-rule="evenodd" d="M1087.46 936.135L1099.98 944.102C1102.52 946.026 1114.72 948.041 1115.17 949.413C1115.78 951.308 1114.21 955.694 1109.01 955.784L1102.17 956.008L1077.08 954.516C1077.08 954.516 1068.61 953.173 1073.37 937.03L1087.46 936.135Z" fill="#3A3A3A"/>
<path fill-rule="evenodd" clip-rule="evenodd" d="M1030.5 936.135L1043.02 944.102C1045.54 946.026 1057.76 948.041 1058.21 949.413C1058.82 951.308 1057.25 955.694 1052.03 955.784L1045.21 956.008L1020.1 954.516C1020.1 954.516 1011.64 953.173 1016.39 937.03L1030.5 936.135Z" fill="#3A3A3A"/>
<path d="M1411.91 588.092C1411.91 588.092 1420.3 574.366 1435.78 574.292C1447.64 574.292 1441.42 576.843 1455.64 574.008C1464.03 572.322 1477 552.792 1497.71 551.375C1535.19 548.779 1548.15 511.6 1564.48 520.805L1564.69 600.192L1411.91 600.028V588.092Z" fill="#B4B4B4"/>
<path d="M1410.96 600.311H1410.81C1410.55 600.27 1410.31 600.141 1410.13 599.946C1409.96 599.75 1409.85 599.5 1409.84 599.237L1409.27 508.481C1409.27 508.364 1409.29 508.247 1409.34 508.14C1409.39 508.033 1409.46 507.938 1409.55 507.862C1409.64 507.786 1409.75 507.731 1409.86 507.702C1409.98 507.672 1410.1 507.668 1410.21 507.69C1410.47 507.731 1410.7 507.858 1410.88 508.051C1411.05 508.244 1411.15 508.491 1411.17 508.75L1411.75 599.505C1411.75 599.61 1411.73 599.715 1411.69 599.812C1411.65 599.91 1411.6 599.999 1411.52 600.074C1411.45 600.149 1411.36 600.209 1411.26 600.249C1411.17 600.29 1411.06 600.311 1410.96 600.311Z" fill="#3A3A3A"/>
<path d="M1564.89 601.132H1564.73C1564.47 601.094 1564.24 600.967 1564.06 600.774C1563.89 600.58 1563.79 600.332 1563.78 600.072L1563.6 508.481C1563.59 508.362 1563.62 508.244 1563.67 508.135C1563.72 508.027 1563.79 507.931 1563.88 507.855C1563.97 507.779 1564.08 507.725 1564.2 507.696C1564.31 507.668 1564.43 507.666 1564.55 507.691C1564.81 507.731 1565.04 507.859 1565.22 508.051C1565.39 508.244 1565.49 508.491 1565.51 508.75L1565.67 600.341C1565.67 600.444 1565.65 600.546 1565.62 600.642C1565.58 600.738 1565.52 600.825 1565.45 600.899C1565.38 600.973 1565.29 601.031 1565.19 601.071C1565.1 601.111 1565 601.132 1564.89 601.132Z" fill="#3A3A3A"/>
<path d="M1518.48 599.968H1518.32C1518.06 599.927 1517.83 599.8 1517.65 599.607C1517.48 599.414 1517.38 599.168 1517.36 598.908L1517.11 504.751C1517.11 504.632 1517.13 504.514 1517.18 504.405C1517.23 504.297 1517.3 504.201 1517.39 504.125C1517.49 504.049 1517.59 503.995 1517.71 503.966C1517.83 503.938 1517.95 503.936 1518.06 503.961C1518.32 503.999 1518.56 504.125 1518.73 504.318C1518.9 504.512 1519.01 504.76 1519.02 505.02L1519.27 599.177C1519.27 599.387 1519.19 599.588 1519.04 599.736C1518.89 599.884 1518.69 599.968 1518.48 599.968Z" fill="#3A3A3A"/>
<path d="M1462.21 601.803H1462.06C1461.8 601.766 1461.56 601.64 1461.38 601.446C1461.21 601.253 1461.1 601.005 1461.09 600.744L1460.49 505.035C1460.49 504.917 1460.51 504.801 1460.56 504.693C1460.61 504.586 1460.68 504.491 1460.77 504.416C1460.86 504.34 1460.97 504.285 1461.08 504.255C1461.19 504.226 1461.31 504.222 1461.43 504.244C1461.69 504.285 1461.92 504.412 1462.09 504.605C1462.27 504.798 1462.37 505.044 1462.38 505.303L1463 600.997C1463 601.103 1462.98 601.208 1462.94 601.307C1462.91 601.406 1462.85 601.495 1462.77 601.571C1462.7 601.646 1462.61 601.706 1462.51 601.746C1462.42 601.786 1462.31 601.805 1462.21 601.803Z" fill="#3A3A3A"/>
<path d="M1411.7 574.232C1411.41 574.227 1411.13 574.158 1410.87 574.029C1410.61 573.9 1410.39 573.714 1410.21 573.486C1410.06 573.33 1409.95 573.146 1409.88 572.945C1409.8 572.744 1409.77 572.529 1409.78 572.315C1409.8 572.101 1409.85 571.892 1409.95 571.701C1410.05 571.51 1410.18 571.34 1410.35 571.203L1436.84 552.181L1437.11 552.031L1462.32 541.14C1462.43 541.095 1462.55 541.064 1462.67 541.051L1506.86 533.591L1556.87 500.887C1557.26 500.668 1557.72 500.605 1558.16 500.71C1558.6 500.815 1558.99 501.08 1559.24 501.454C1559.39 501.611 1559.5 501.799 1559.57 502.004C1559.65 502.209 1559.67 502.428 1559.65 502.644C1559.62 502.86 1559.55 503.068 1559.44 503.254C1559.33 503.44 1559.18 503.6 1559 503.722L1508.65 536.545C1508.48 536.654 1508.29 536.725 1508.1 536.754L1463.77 544.214L1438.86 554.971L1412.52 573.993C1412.28 574.159 1412 574.243 1411.7 574.232Z" fill="#777777"/>
<path d="M1553.45 512.54C1553.04 512.536 1552.65 512.405 1552.32 512.167C1551.94 511.931 1551.67 511.561 1551.55 511.132C1551.44 510.702 1551.49 510.245 1551.71 509.854L1555.82 503.588L1549.3 504.2C1548.85 504.221 1548.39 504.085 1548.02 503.813C1547.65 503.542 1547.39 503.151 1547.27 502.708C1547.21 502.508 1547.2 502.298 1547.23 502.092C1547.26 501.886 1547.34 501.69 1547.46 501.518C1547.57 501.346 1547.73 501.203 1547.91 501.099C1548.09 500.995 1548.29 500.933 1548.5 500.917L1558.87 499.933C1559.21 499.906 1559.56 499.972 1559.87 500.124C1560.18 500.276 1560.44 500.509 1560.63 500.798C1560.82 501.056 1560.94 501.368 1560.96 501.692C1560.98 502.016 1560.9 502.339 1560.73 502.618L1554.61 511.913C1554.49 512.106 1554.32 512.264 1554.11 512.374C1553.91 512.483 1553.68 512.54 1553.45 512.54Z" fill="#777777"/>
<path fill-rule="evenodd" clip-rule="evenodd" d="M1587.56 956.843C1586.57 957.219 1585.47 957.202 1584.5 956.793C1583.52 956.385 1582.74 955.618 1582.32 954.65L1510.95 779.689C1510.76 779.21 1510.66 778.697 1510.68 778.182C1510.69 777.666 1510.81 777.159 1511.02 776.69C1511.23 776.22 1511.54 775.799 1511.92 775.45C1512.3 775.102 1512.74 774.833 1513.23 774.661C1514.21 774.281 1515.31 774.298 1516.28 774.707C1517.25 775.115 1518.03 775.885 1518.45 776.854L1589.82 951.815C1590.01 952.293 1590.11 952.805 1590.1 953.32C1590.08 953.834 1589.97 954.341 1589.76 954.81C1589.55 955.28 1589.24 955.701 1588.86 956.051C1588.49 956.4 1588.04 956.669 1587.56 956.843Z" fill="#7B7B7B"/>
<path fill-rule="evenodd" clip-rule="evenodd" d="M1180.9 961.602C1179.9 961.974 1178.79 961.942 1177.81 961.513C1176.83 961.085 1176.05 960.294 1175.64 959.305L1102.23 779.167C1102.03 778.684 1101.93 778.165 1101.94 777.642C1101.94 777.119 1102.05 776.603 1102.26 776.123C1102.47 775.644 1102.77 775.212 1103.15 774.853C1103.53 774.494 1103.98 774.215 1104.47 774.034C1105.48 773.664 1106.59 773.698 1107.57 774.129C1108.55 774.56 1109.33 775.355 1109.74 776.347L1183.14 956.47C1183.34 956.953 1183.44 957.471 1183.44 957.994C1183.43 958.516 1183.32 959.032 1183.11 959.511C1182.9 959.99 1182.6 960.422 1182.22 960.781C1181.84 961.14 1181.39 961.42 1180.9 961.602Z" fill="#7B7B7B"/>
<path fill-rule="evenodd" clip-rule="evenodd" d="M966.186 964.422C965.695 964.23 965.248 963.94 964.872 963.57C964.495 963.2 964.198 962.758 963.997 962.27C963.796 961.782 963.697 961.259 963.704 960.731C963.711 960.204 963.824 959.683 964.038 959.2L1040.57 776.571C1040.99 775.572 1041.78 774.774 1042.77 774.343C1043.76 773.912 1044.88 773.881 1045.9 774.258C1046.39 774.452 1046.84 774.743 1047.21 775.113C1047.59 775.483 1047.88 775.925 1048.09 776.411C1048.29 776.898 1048.39 777.421 1048.39 777.948C1048.38 778.475 1048.27 778.996 1048.06 779.48L971.512 962.11C971.095 963.108 970.307 963.906 969.314 964.337C968.322 964.768 967.201 964.799 966.186 964.422Z" fill="#626262"/>
<path fill-rule="evenodd" clip-rule="evenodd" d="M1388 974.135C1387.5 973.928 1387.05 973.622 1386.67 973.236C1386.29 972.85 1386 972.391 1385.8 971.888C1385.61 971.385 1385.52 970.847 1385.53 970.308C1385.55 969.768 1385.68 969.238 1385.91 968.749L1465.86 777.525C1466.27 776.493 1467.05 775.657 1468.06 775.19C1469.06 774.723 1470.21 774.662 1471.26 775.019C1471.76 775.229 1472.21 775.537 1472.59 775.925C1472.96 776.313 1473.26 776.773 1473.45 777.277C1473.65 777.78 1473.74 778.318 1473.72 778.858C1473.7 779.398 1473.58 779.929 1473.35 780.42L1393.38 971.643C1392.98 972.674 1392.2 973.509 1391.19 973.973C1390.19 974.438 1389.04 974.496 1388 974.135Z" fill="#626262"/>
<path fill-rule="evenodd" clip-rule="evenodd" d="M1546.42 779.286H1028.88C1027.69 779.286 1026.55 778.814 1025.71 777.975C1024.87 777.135 1024.4 775.997 1024.4 774.81C1024.4 773.623 1024.87 772.484 1025.71 771.645C1026.55 770.806 1027.69 770.334 1028.88 770.334H1546.42C1547.61 770.334 1548.75 770.806 1549.59 771.645C1550.43 772.484 1550.9 773.623 1550.9 774.81C1550.9 775.997 1550.43 777.135 1549.59 777.975C1548.75 778.814 1547.61 779.286 1546.42 779.286Z" fill="#3A3A3A"/>
<path fill-rule="evenodd" clip-rule="evenodd" d="M1742.13 918.097L1727.81 923.483L1735.18 943.057L1749.5 937.672L1742.13 918.097Z" fill="#878787"/>
<path fill-rule="evenodd" clip-rule="evenodd" d="M1638.36 920.021L1653.65 920.857L1652.51 941.729L1637.24 940.894L1638.36 920.021Z" fill="#878787"/>
<path fill-rule="evenodd" clip-rule="evenodd" d="M1670.57 758.145C1685.65 807.484 1718.74 915.277 1723.96 928.123C1734.14 929.809 1741.45 926.512 1746.83 919.843C1744.55 911.98 1736.91 846.588 1725.95 816.972C1718.61 779.211 1712.52 747.134 1709.73 732.185C1709.54 729.708 1709.33 727.56 1709.07 726.053C1708.82 724.546 1708.6 722.92 1708.4 721.353L1704.57 692.021C1687.04 701.316 1663.42 703.703 1635.72 692.648L1630.88 692.32L1630.2 757.608H1630.09L1635.78 927.884C1639.25 929.581 1643.06 930.493 1646.92 930.555C1650.79 930.616 1654.63 929.827 1658.15 928.242C1662.3 892.301 1666.7 850.109 1664.87 827.7L1669.51 758.13L1670.57 758.145Z" fill="#7A7A7A"/>
<path fill-rule="evenodd" clip-rule="evenodd" d="M1653.56 937.85L1653.04 946.474C1652.9 948.797 1651.95 950.998 1650.35 952.693C1648.76 954.389 1646.62 955.472 1644.31 955.754L1613.19 959.528C1612.49 959.615 1611.78 959.504 1611.14 959.209C1610.5 958.914 1609.95 958.446 1609.56 957.857L1609.17 957.26C1608.62 956.434 1608.42 955.425 1608.6 954.449C1608.79 953.474 1609.35 952.608 1610.16 952.039L1623.11 946.339L1637.57 933.553C1640.38 932.859 1643.32 932.889 1646.12 933.64C1648.91 934.392 1651.47 935.84 1653.56 937.85Z" fill="#3A3A3A"/>
<path fill-rule="evenodd" clip-rule="evenodd" d="M1752.13 950.935L1742.95 967.421C1742.53 968.185 1741.89 968.811 1741.12 969.226C1740.35 969.64 1739.47 969.827 1738.6 969.763L1736.63 969.614C1736.02 969.566 1735.42 969.395 1734.88 969.113C1734.34 968.831 1733.86 968.442 1733.46 967.971C1733.07 967.499 1732.78 966.954 1732.6 966.368C1732.43 965.781 1732.37 965.165 1732.44 964.556L1734.09 949.428L1731.93 935.493C1735.03 929.525 1739.48 926.198 1746.77 928.481L1752.61 942.505C1753.17 943.856 1753.42 945.315 1753.33 946.774C1753.25 948.234 1752.84 949.656 1752.13 950.935Z" fill="#3A3A3A"/>
<path fill-rule="evenodd" clip-rule="evenodd" d="M1700.46 727.798C1700.46 727.798 1655.16 749.327 1630.34 748.999L1630.61 723.636L1700.46 727.798Z" fill="#7A7A7A"/>
<path fill-rule="evenodd" clip-rule="evenodd" d="M1735.09 734.96C1735.5 736.787 1735.28 738.698 1734.47 740.384C1733.66 742.07 1732.3 743.434 1730.62 744.255C1729.9 744.679 1729.1 744.933 1728.26 744.998C1727.43 745.063 1726.6 744.936 1725.83 744.628C1725.05 744.319 1724.36 743.837 1723.8 743.219C1723.24 742.601 1722.83 741.863 1722.6 741.062C1722.19 739.235 1722.41 737.323 1723.23 735.636C1724.04 733.949 1725.4 732.585 1727.08 731.767C1727.8 731.345 1728.6 731.094 1729.43 731.03C1730.26 730.967 1731.09 731.095 1731.87 731.403C1732.64 731.711 1733.33 732.191 1733.89 732.808C1734.45 733.424 1734.86 734.16 1735.09 734.96Z" fill="white"/>
<path fill-rule="evenodd" clip-rule="evenodd" d="M1583.44 651.574L1593.81 680.026L1619.63 662.555L1628.15 731.185C1628.15 731.185 1664.52 737.481 1710.46 723.621L1705.98 659.467C1705.98 659.467 1706.6 613.873 1685.01 610.516C1663.42 607.159 1629.42 610.173 1616.38 626.137L1583.44 651.574Z" fill="#777777"/>
<path fill-rule="evenodd" clip-rule="evenodd" d="M1668.85 616.588L1665.15 586.749L1643.98 590.494L1642.73 618.035C1649.89 612.44 1659 613.306 1668.85 616.543V616.588Z" fill="#878787"/>
<path fill-rule="evenodd" clip-rule="evenodd" d="M1653.11 630.12C1653.16 630.525 1653.09 630.936 1652.91 631.3C1652.72 631.665 1652.44 631.966 1652.08 632.167C1651.73 632.368 1651.32 632.459 1650.91 632.428C1650.51 632.398 1650.12 632.247 1649.8 631.995C1649.48 631.743 1649.24 631.402 1649.11 631.014C1648.98 630.627 1648.98 630.21 1649.09 629.817C1649.2 629.425 1649.42 629.074 1649.73 628.809C1650.04 628.544 1650.42 628.378 1650.83 628.33C1651.1 628.297 1651.37 628.317 1651.63 628.389C1651.89 628.461 1652.13 628.584 1652.34 628.75C1652.55 628.917 1652.73 629.123 1652.86 629.358C1653 629.594 1653.08 629.853 1653.11 630.12Z" fill="#3A3A3A"/>
<path fill-rule="evenodd" clip-rule="evenodd" d="M1654.42 640.698C1654.47 641.102 1654.4 641.512 1654.22 641.876C1654.04 642.24 1653.75 642.541 1653.4 642.742C1653.04 642.943 1652.64 643.034 1652.23 643.004C1651.82 642.975 1651.44 642.825 1651.12 642.575C1650.79 642.325 1650.55 641.985 1650.43 641.598C1650.3 641.212 1650.29 640.796 1650.4 640.404C1650.5 640.011 1650.73 639.66 1651.03 639.393C1651.34 639.127 1651.72 638.958 1652.13 638.908C1652.39 638.874 1652.67 638.894 1652.93 638.966C1653.19 639.038 1653.43 639.161 1653.65 639.327C1653.86 639.493 1654.04 639.7 1654.17 639.935C1654.31 640.17 1654.39 640.43 1654.42 640.698Z" fill="#3A3A3A"/>
<path fill-rule="evenodd" clip-rule="evenodd" d="M1655.74 651.276C1655.79 651.68 1655.72 652.09 1655.53 652.454C1655.35 652.818 1655.06 653.119 1654.71 653.32C1654.36 653.521 1653.95 653.612 1653.54 653.583C1653.14 653.553 1652.75 653.403 1652.43 653.153C1652.11 652.903 1651.87 652.563 1651.74 652.177C1651.61 651.79 1651.6 651.374 1651.71 650.982C1651.82 650.589 1652.04 650.238 1652.35 649.971C1652.66 649.705 1653.04 649.536 1653.44 649.486C1653.71 649.453 1653.98 649.472 1654.24 649.544C1654.5 649.616 1654.75 649.739 1654.96 649.905C1655.17 650.071 1655.35 650.278 1655.48 650.513C1655.62 650.749 1655.7 651.008 1655.74 651.276Z" fill="#3A3A3A"/>
<path fill-rule="evenodd" clip-rule="evenodd" d="M1642.61 604.011L1634.55 614.589L1642.32 626.525C1645.4 622.409 1648.85 618.588 1652.63 615.111L1642.61 604.011Z" fill="#E8E8E8"/>
<path fill-rule="evenodd" clip-rule="evenodd" d="M1652.47 615.156L1668.06 601.729L1678.12 609.8C1671.33 613.276 1665.24 629.33 1665.24 629.33C1665.24 629.33 1657.86 618.05 1652.47 615.156Z" fill="#E8E8E8"/>
<path fill-rule="evenodd" clip-rule="evenodd" d="M1655.08 594.03C1655.08 594.03 1644.77 603.265 1646.35 606.965L1643.37 603.653L1643.74 595.194C1647.55 596.06 1651.53 595.651 1655.08 594.03Z" fill="#7B7B7B"/>
<path fill-rule="evenodd" clip-rule="evenodd" d="M1661.54 731.453C1661.54 731.453 1700.46 707.478 1704.97 653.529L1713.52 722.233C1698.45 728.231 1679.47 729.484 1661.54 731.453Z" fill="#616161"/>
<path fill-rule="evenodd" clip-rule="evenodd" d="M1592.52 681.473L1620.27 662.376L1619.63 650.127L1592.46 670.821L1592.52 681.473Z" fill="#616161"/>
<path fill-rule="evenodd" clip-rule="evenodd" d="M1540.84 606.115C1540.84 606.115 1530.86 601.266 1531.89 597.074C1532.92 592.881 1548.65 603.668 1548.65 603.668L1545.42 610.65L1540.84 606.115Z" fill="#878787"/>
<path fill-rule="evenodd" clip-rule="evenodd" d="M1554.08 626.957C1554.08 626.957 1547.38 621.944 1541.17 616.931C1534.37 611.441 1534.73 607.726 1541.01 603.504C1542.77 602.34 1548.69 603.593 1548.69 603.593L1557.46 611.889C1557.46 611.889 1568.73 619.99 1564.92 625.316C1561.12 630.642 1554.08 626.957 1554.08 626.957Z" fill="#878787"/>
<path fill-rule="evenodd" clip-rule="evenodd" d="M1594.7 666.225L1563.37 617.886L1552.39 625.868C1552.39 625.868 1574.28 679.981 1579.53 681.891C1584.78 683.801 1602.04 685.337 1594.7 666.225Z" fill="#878787"/>
<path fill-rule="evenodd" clip-rule="evenodd" d="M1638.92 556.671C1638.92 556.671 1624.87 562.759 1635.6 575.933C1646.32 589.106 1638.92 556.671 1638.92 556.671Z" fill="#3A3A3A"/>
<path fill-rule="evenodd" clip-rule="evenodd" d="M1636.16 567.756C1636.29 565.453 1636.89 563.201 1637.92 561.137C1638.95 559.073 1640.39 557.241 1642.15 555.755C1643.91 554.268 1645.96 553.158 1648.17 552.492C1650.38 551.826 1652.7 551.618 1654.99 551.882C1659.31 552.378 1663.28 554.509 1666.08 557.839C1668.88 561.168 1670.3 565.443 1670.04 569.785C1669.76 574.963 1668.85 576.902 1668.55 581.826C1668.17 585.788 1666.45 589.503 1663.67 592.359C1661.14 594.507 1658.99 597.267 1655.68 596.835L1646.38 595.79C1643.21 595.423 1640.31 593.859 1638.25 591.419C1636.2 588.979 1635.15 585.846 1635.33 582.661C1635.6 578.185 1635.89 572.784 1636.18 567.742L1636.16 567.756Z" fill="#878787"/>
<path fill-rule="evenodd" clip-rule="evenodd" d="M1660.33 566.13C1660.33 566.13 1657.93 581.572 1670.06 582.124C1670.06 582.124 1671.03 566.31 1672.36 559.238C1673.68 552.166 1652.2 544.766 1641.31 550.286C1630.42 555.806 1636.83 566.101 1660.33 566.145V566.13Z" fill="#3A3A3A"/>
<path fill-rule="evenodd" clip-rule="evenodd" d="M1667.72 576.082C1665.46 575.843 1663.39 578.007 1663.09 580.901C1662.79 583.795 1664.4 586.317 1666.67 586.541C1668.94 586.764 1671.01 584.616 1671.3 581.722C1671.58 578.827 1669.98 576.306 1667.72 576.082Z" fill="#878787"/>
<path d="M1759.13 676.054L1696.91 708.776C1693.9 710.36 1692.74 714.086 1694.33 717.098L1713.37 753.305C1714.95 756.317 1718.68 757.475 1721.69 755.891L1783.91 723.169C1786.92 721.585 1788.08 717.859 1786.49 714.847L1767.45 678.639C1765.87 675.627 1762.14 674.47 1759.13 676.054Z" fill="#3A3A3A"/>
<path fill-rule="evenodd" clip-rule="evenodd" d="M1747.83 711.103C1748.74 712.834 1749.11 714.793 1748.9 716.735C1748.69 718.676 1747.91 720.513 1746.66 722.013C1745.41 723.513 1743.75 724.61 1741.88 725.165C1740.01 725.72 1738.01 725.709 1736.15 725.132C1734.28 724.556 1732.63 723.441 1731.39 721.926C1730.16 720.412 1729.4 718.567 1729.22 716.624C1729.03 714.68 1729.43 712.725 1730.35 711.004C1731.27 709.284 1732.68 707.875 1734.41 706.956C1735.56 706.342 1736.82 705.963 1738.12 705.839C1739.42 705.716 1740.73 705.851 1741.98 706.236C1743.23 706.622 1744.39 707.25 1745.39 708.085C1746.4 708.921 1747.23 709.946 1747.83 711.103Z" fill="white"/>
<path fill-rule="evenodd" clip-rule="evenodd" d="M1753.71 720.861C1753.71 720.861 1760.56 733.632 1760.65 736.899C1760.74 740.166 1759.16 741.285 1753.96 742.598C1748.77 743.911 1744.37 745.985 1742.85 740.674C1741.33 735.362 1742.6 740.017 1742.6 740.017C1742.6 740.017 1737.33 737.033 1736.76 731.379C1736.2 725.724 1738.73 724.292 1738.45 719.309C1738.17 714.326 1753.71 720.861 1753.71 720.861Z" fill="#878787"/>
<path fill-rule="evenodd" clip-rule="evenodd" d="M1693.77 615.514C1693.77 615.514 1731.57 645.965 1739.85 665.42C1748.13 684.875 1753.04 722.01 1753.04 722.01L1737.81 724.084C1737.81 724.084 1726.42 682.891 1719.61 671.999C1712.79 661.108 1686.14 635.939 1686.14 635.939L1693.77 615.514Z" fill="#878787"/>
<path fill-rule="evenodd" clip-rule="evenodd" d="M1683.41 636.103C1683.41 636.103 1717.17 668.001 1721.49 681.1C1730.86 678.639 1736.26 676.893 1741.49 666.613C1741.49 666.613 1715.97 623.347 1688.69 611.59C1673.94 605.205 1683.41 636.103 1683.41 636.103Z" fill="#777777"/>
<path fill-rule="evenodd" clip-rule="evenodd" d="M1721.49 681.1C1717.16 672.97 1711.78 665.446 1705.49 658.721L1695.05 647.531C1695.05 647.531 1722.11 660.481 1728.04 679.116L1721.49 681.1Z" fill="#616161"/>
<path fill-rule="evenodd" clip-rule="evenodd" d="M1669.57 758.145L1657.06 759.338L1666.43 805.186L1669.57 758.145Z" fill="#4B4B4B"/>
<path d="M983.746 649.784C984.596 654.051 982.94 657.796 980.031 658.139C977.122 658.482 974.063 655.319 973.198 651.037C972.333 646.755 974.004 643.026 976.913 642.668C979.822 642.309 982.881 645.502 983.746 649.784Z" fill="#878787"/>
<path d="M959.845 628.673C959.845 628.673 934.736 619.796 930.917 651.217C927.814 677.057 939.555 686.844 934.677 697.318C934.405 697.945 934.319 698.637 934.43 699.311C934.54 699.986 934.842 700.614 935.3 701.122C935.757 701.63 936.351 701.996 937.01 702.175C937.669 702.355 938.366 702.342 939.018 702.137C948.731 699.153 961.74 692.469 960.8 678.266C959.308 655.797 959.741 640.191 961.054 639.729C962.367 639.266 959.845 628.673 959.845 628.673Z" fill="#3A3A3A"/>
<path d="M969.871 732.05C954.281 752.818 953.952 788.118 953.952 788.118L972.512 788.744C978.703 788.058 975.227 781.061 973.168 773.825L976.152 765.395L980.27 753.878L983.97 750.207L969.871 732.05Z" fill="#B8B8B8"/>
<path d="M1051.64 769.782H1112.81V762.636H1044.51C1044.51 763.574 1044.69 764.502 1045.05 765.369C1045.41 766.236 1045.93 767.024 1046.6 767.688C1047.26 768.352 1048.04 768.879 1048.91 769.238C1049.78 769.597 1050.71 769.782 1051.64 769.782Z" fill="#D1D1D1"/>
<path d="M1114.47 767.896L1139.77 706.888C1140.45 705.244 1139.68 703.358 1138.03 702.676L1137.4 702.413C1135.75 701.731 1133.87 702.511 1133.19 704.155L1107.88 765.163C1107.2 766.807 1107.98 768.693 1109.62 769.375L1110.25 769.637C1111.9 770.319 1113.78 769.54 1114.47 767.896Z" fill="#D1D1D1"/>
<path fill-rule="evenodd" clip-rule="evenodd" d="M1016.39 937.075C1016.39 937.075 1031.44 952.084 1043.71 944.534L1026.41 933.345L1016.39 937.075Z" fill="#878787"/>
<path fill-rule="evenodd" clip-rule="evenodd" d="M1073.26 937.075C1073.26 937.075 1088.31 952.084 1100.58 944.534L1083.29 933.345L1073.26 937.075Z" fill="#7B7B7B"/>
</svg>
