<svg width="1920" height="1080" viewBox="0 0 1920 1080" fill="none" xmlns="http://www.w3.org/2000/svg">
<rect width="1920" height="1080" fill="white"/>
<g filter="url(#filter0_d_20_55)">
<rect x="213" y="185" width="368" height="221" fill="white"/>
</g>
<path d="M321.236 350.528C321.236 349.112 322.196 348.392 323.588 348.392C324.98 348.392 325.94 349.112 325.94 350.528C325.94 351.968 324.98 352.688 323.588 352.688C322.196 352.688 321.236 351.968 321.236 350.528ZM332.468 351.296H329.564C329.588 351.056 329.612 350.792 329.612 350.528C329.612 350.264 329.588 350 329.54 349.736H332.468V351.296ZM332.468 354.248V355.88H336.356V344.768H332.468V346.784H327.908C326.828 345.824 325.316 345.272 323.588 345.272C320.156 345.272 317.564 347.48 317.564 350.528C317.564 353.576 320.156 355.784 323.588 355.784C325.34 355.784 326.852 355.232 327.932 354.248H332.468ZM325.124 364.088V363.224H336.356V356.72H321.26V359.648H332.516V360.464H321.284V367.04H336.908V364.088H325.124ZM353.347 353.768C349.507 352.712 348.331 350.168 348.331 347.696V345.56H344.371V347.696C344.371 350.192 343.123 352.976 339.139 354.128L341.011 357.152C343.651 356.408 345.355 354.872 346.363 352.928C347.371 354.704 349.003 356.072 351.499 356.768L353.347 353.768ZM346.843 361.328H354.475V364.04H346.843V361.328ZM343.027 367.04H358.267V358.328H343.027V367.04ZM354.379 344.768V357.44H358.267V344.768H354.379ZM368.585 359.768C367.313 359.768 366.449 358.976 366.449 357.416C366.449 355.856 367.313 355.064 368.585 355.064C369.881 355.064 370.769 355.856 370.769 357.416C370.769 358.976 369.881 359.768 368.585 359.768ZM368.585 351.944C365.249 351.944 362.729 354.224 362.729 357.416C362.729 360.608 365.249 362.888 368.585 362.888C371.969 362.888 374.489 360.608 374.489 357.416C374.489 354.224 371.969 351.944 368.585 351.944ZM370.529 345.128H366.641V347.984H361.961V351.032H375.209V347.984H370.529V345.128ZM376.433 344.744V367.232H380.321V344.744H376.433ZM390.579 352.256L391.035 355.496L403.539 354.848C403.371 356.072 403.155 357.44 402.819 358.928L406.635 359.336C407.739 354.272 407.715 351.032 407.715 348.32V346.448H391.275V349.496H403.875C403.875 350.24 403.851 351.032 403.803 351.896L390.579 352.256ZM399.771 361.856V356.696H395.883V361.856H389.043V364.952H409.443V361.856H399.771ZM429.985 344.72H426.097V357.968H429.985V344.72ZM424.633 353.36C422.257 353.864 420.025 354.008 416.209 354.032V349.424H423.073V346.376H412.345V357.104H414.361C419.497 357.104 422.233 357.008 424.993 356.432L424.633 353.36ZM422.281 364.376C419.641 364.376 418.369 363.92 418.369 362.816C418.369 361.712 419.641 361.28 422.281 361.28C424.945 361.28 426.217 361.712 426.217 362.816C426.217 363.92 424.945 364.376 422.281 364.376ZM422.281 358.304C417.529 358.304 414.505 359.96 414.505 362.816C414.505 365.672 417.529 367.328 422.281 367.328C427.057 367.328 430.081 365.672 430.081 362.816C430.081 359.96 427.057 358.304 422.281 358.304ZM439.631 359.768C438.383 359.768 437.495 358.976 437.495 357.416C437.495 355.856 438.383 355.064 439.631 355.064C440.903 355.064 441.767 355.856 441.767 357.416C441.767 358.976 440.903 359.768 439.631 359.768ZM439.631 351.944C436.295 351.944 433.799 354.224 433.799 357.416C433.799 360.608 436.295 362.888 439.631 362.888C442.967 362.888 445.463 360.608 445.463 357.416C445.463 354.224 442.967 351.944 439.631 351.944ZM441.575 345.176H437.687V347.936H433.103V350.984H446.135V347.936H441.575V345.176ZM454.055 353.312H451.079V344.768H447.191V367.256H451.079V356.48H454.055V353.312ZM456.526 347.024V350.072H463.534C463.03 354.8 460.822 357.944 455.229 360.632L457.246 363.656C465.502 359.72 467.494 354.128 467.494 347.024H456.526ZM470.326 344.744V367.232H474.214V344.744H470.326Z" fill="black"/>
<g clip-path="url(#clip0_20_55)">
<path d="M447.109 253.709L419.731 236.372C421.386 242.476 420.543 248.984 417.387 254.471L427.161 262.148C422.744 265.717 407.899 267.224 396.227 267.224C385.192 267.224 371.543 265.337 366.855 262.148L375.689 255.232C372.347 249.928 371.242 243.528 372.611 237.419L346.891 253.709C345.824 254.428 344.927 255.369 344.262 256.467C343.598 257.565 343.182 258.794 343.044 260.069C342.906 261.343 343.049 262.632 343.463 263.846C343.876 265.06 344.551 266.169 345.44 267.097L364.096 286.608V292.128H351.627V296.649H364.096V301.407H361.401C361.045 301.405 360.692 301.486 360.373 301.643C360.053 301.801 359.775 302.031 359.561 302.315C359.347 302.599 359.203 302.928 359.14 303.278C359.078 303.627 359.099 303.986 359.201 304.326L362.39 315.334C362.54 315.8 362.836 316.205 363.235 316.491C363.634 316.776 364.115 316.927 364.606 316.921H427.959C428.448 316.926 428.926 316.775 429.322 316.489C429.719 316.204 430.012 315.799 430.159 315.334L433.348 304.326C433.45 303.986 433.471 303.627 433.409 303.278C433.346 302.928 433.202 302.599 432.988 302.315C432.774 302.031 432.496 301.801 432.176 301.643C431.857 301.486 431.504 301.405 431.148 301.407H428.485V296.649H441.146V292.128H428.485V288.035L448.56 267.097C449.449 266.169 450.124 265.06 450.537 263.846C450.951 262.632 451.094 261.343 450.956 260.069C450.818 258.794 450.402 257.565 449.738 256.467C449.073 255.369 448.176 254.428 447.109 253.709ZM424.69 313.225H367.891V274.061H424.69V313.225Z" fill="#333333"/>
<path d="M376.629 242.574C376.629 246.445 377.783 250.23 379.946 253.449C382.108 256.668 385.181 259.177 388.776 260.658C392.372 262.14 396.328 262.527 400.145 261.772C403.962 261.017 407.468 259.153 410.22 256.415C412.972 253.678 414.846 250.19 415.605 246.393C416.364 242.596 415.975 238.66 414.485 235.083C412.996 231.507 410.474 228.45 407.238 226.299C404.002 224.148 400.198 223 396.306 223C391.088 223 386.083 225.062 382.393 228.733C378.702 232.404 376.629 237.383 376.629 242.574Z" fill="#333333"/>
<path d="M396.291 298.267C397.208 298.267 398.105 297.996 398.869 297.489C399.632 296.982 400.226 296.261 400.578 295.417C400.929 294.574 401.021 293.646 400.842 292.75C400.663 291.855 400.221 291.032 399.572 290.387C398.923 289.741 398.096 289.302 397.196 289.123C396.296 288.945 395.363 289.037 394.515 289.386C393.667 289.736 392.942 290.327 392.432 291.086C391.923 291.845 391.65 292.738 391.65 293.651C391.65 294.875 392.139 296.049 393.009 296.915C393.88 297.78 395.06 298.267 396.291 298.267Z" fill="#333333"/>
</g>
<path d="M223.963 464.848H220.123V461.752H223.963V464.848ZM226.267 456.568H223.963V459.808H220.123V456.568H217.795V466.84H226.267V456.568ZM220.555 471.352H232.795V476.872H235.267V469.384H220.555V471.352ZM232.915 455.176V460.672H230.635V455.584H228.307V468.112H230.635V462.688H232.915V468.184H235.267V455.176H232.915ZM251.417 462.208C248.225 462.832 245.249 463.048 242.441 463.096V456.112H239.969V465.136H241.721C244.865 465.136 248.105 464.92 251.705 464.224L251.417 462.208ZM244.457 472.6H255.929V466.96H241.937V468.928H253.457V470.752H241.985V476.584H256.649V474.616H244.457V472.6ZM255.929 459.448V455.152H253.457V466H255.929V461.488H259.001V459.448H255.929ZM277.206 465.664C274.494 464.68 273.078 462.4 273.078 459.976V459.808H276.63V457.84H273.078V455.392H270.702V457.84H267.054V459.808H270.702V459.976C270.702 462.52 269.31 464.968 266.55 466.048L267.726 467.896C269.79 467.056 271.182 465.496 271.926 463.576C272.718 465.352 274.086 466.744 276.078 467.512L277.206 465.664ZM270.126 471.52H282.342V476.872H284.814V469.528H270.126V471.52ZM282.462 455.2V460.816H280.23V455.56H277.902V468.352H280.23V462.832H282.462V468.472H284.814V455.2H282.462ZM297.028 465.28H291.748V459.016H297.028V465.28ZM299.452 457.024H289.3V467.272H299.452V457.024ZM294.244 469.504H291.748V476.44H306.34V474.424H294.244V469.504ZM305.476 461.608V455.152H303.004V471.04H305.476V463.648H308.548V461.608H305.476ZM319.577 461.848H325.505V464.8H319.577V461.848ZM323.801 466.792H327.953V456.928H325.505V459.904H319.577V456.928H317.129V466.792H321.329V470.464C319.337 470.512 317.441 470.536 315.761 470.536L316.121 472.576C319.841 472.6 324.785 472.552 329.345 471.736L329.129 469.936C327.425 470.176 325.601 470.296 323.801 470.368V466.792ZM336.041 464.104H332.873V455.152H330.401V476.848H332.873V466.144H336.041V464.104ZM343.863 469.84C341.967 469.84 340.671 467.8 340.671 464.392C340.671 461.032 341.967 458.992 343.863 458.992C345.735 458.992 347.055 461.032 347.055 464.392C347.055 467.8 345.735 469.84 343.863 469.84ZM343.863 456.76C340.623 456.76 338.295 459.736 338.295 464.392C338.295 469.096 340.623 472.048 343.863 472.048C347.103 472.048 349.431 469.096 349.431 464.392C349.431 459.736 347.103 456.76 343.863 456.76ZM358.143 462.496V460.456H354.879V455.176H352.407V476.872H354.879V468.904H358.143V466.864H354.879V462.496H358.143ZM366.364 457.912V459.928H372.436C372.1 464.296 370.132 467.848 365.452 470.56L366.892 472.312C372.988 468.808 374.884 463.696 374.884 457.912H366.364ZM381.652 455.176V463.648H379.18V455.752H376.852V475.84H379.18V465.664H381.652V476.848H384.004V455.176H381.652ZM396.17 463.6H390.866V460.84H396.17V463.6ZM398.618 456.088H396.17V458.944H390.866V456.088H388.394V465.568H398.618V456.088ZM393.05 472.792H404.57V467.248H390.578V469.168H402.122V470.968H390.626V476.656H405.29V474.712H393.05V472.792ZM404.57 459.616V455.176H402.098V466.288H404.57V461.656H407.618V459.616H404.57ZM432.975 455.176H430.479V466.288H432.975V455.176ZM428.295 463.864C424.959 462.832 423.015 460.192 423.015 457.384V455.752H420.495V457.384C420.495 460.312 418.551 463.12 415.119 464.248L416.343 466.216C418.959 465.328 420.807 463.528 421.791 461.2C422.775 463.336 424.599 464.992 427.095 465.808L428.295 463.864ZM421.239 474.712V472.816H432.975V467.32H418.767V469.24H430.527V471.016H418.815V476.656H433.623V474.712H421.239ZM448.453 465.208C446.101 465.616 444.109 465.712 440.485 465.712V462.904H447.421V456.424H438.013V458.416H444.973V461.008H438.061V467.728H439.645C443.893 467.728 446.101 467.656 448.717 467.2L448.453 465.208ZM440.485 471.616H452.677V476.896H455.149V469.6H440.485V471.616ZM452.677 455.176V458.296H448.789V460.288H452.677V462.832H448.789V464.824H452.677V468.52H455.149V455.176H452.677ZM467.353 462.04C467.353 460.072 468.793 458.776 470.689 458.776C472.585 458.776 474.049 460.072 474.049 462.04C474.049 464.032 472.585 465.328 470.689 465.328C468.793 465.328 467.353 464.032 467.353 462.04ZM476.473 462.04C476.473 458.872 473.977 456.64 470.689 456.64C467.425 456.64 464.929 458.872 464.929 462.04C464.929 465.208 467.425 467.464 470.689 467.464C473.977 467.464 476.473 465.208 476.473 462.04ZM470.353 469.432H467.857V476.44H482.449V474.424H470.353V469.432ZM481.585 461.608V455.176H479.113V471.064H481.585V463.648H484.657V461.608H481.585ZM509.534 460.6H497.174V455.488H494.702V462.592H509.534V460.6ZM506.798 474.592H497.15V472.312H506.798V474.592ZM506.798 470.392H497.15V468.256H494.702V476.584H509.246V468.256H506.798V470.392ZM492.134 464.656V466.648H511.766V464.656H492.134ZM517.932 457.288H515.484V471.376H517.332C520.692 471.376 524.196 471.112 527.916 470.344L527.652 468.28C524.244 468.976 521.004 469.24 517.932 469.264V457.288ZM529.644 455.176V476.848H532.116V455.176H529.644ZM539.626 459.232H547.234V457.216H537.154V471.544H538.93C542.842 471.544 545.77 471.424 549.058 470.824L548.794 468.784C545.77 469.312 543.13 469.456 539.626 469.48V459.232ZM556.45 463.504H553.066V455.152H550.594V476.872H553.066V465.544H556.45V463.504ZM560.721 475.312C561.753 475.312 562.569 474.52 562.569 473.392C562.569 472.24 561.753 471.424 560.721 471.424C559.689 471.424 558.873 472.24 558.873 473.392C558.873 474.52 559.689 475.312 560.721 475.312ZM198.116 495.664C195.404 494.68 193.988 492.4 193.988 489.976V489.808H197.54V487.84H193.988V485.392H191.612V487.84H187.964V489.808H191.612V489.976C191.612 492.52 190.22 494.968 187.46 496.048L188.636 497.896C190.7 497.056 192.092 495.496 192.836 493.576C193.628 495.352 194.996 496.744 196.988 497.512L198.116 495.664ZM191.036 501.52H203.252V506.872H205.724V499.528H191.036V501.52ZM203.372 485.2V490.816H201.14V485.56H198.812V498.352H201.14V492.832H203.372V498.472H205.724V485.2H203.372ZM219.258 487.36C222.618 487.36 224.418 488.008 224.418 489.256C224.418 490.48 222.618 491.128 219.258 491.128C215.898 491.128 214.098 490.48 214.098 489.256C214.098 488.008 215.898 487.36 219.258 487.36ZM219.258 492.976C224.106 492.976 226.986 491.656 226.986 489.256C226.986 486.832 224.106 485.512 219.258 485.512C214.386 485.512 211.53 486.832 211.53 489.256C211.53 491.656 214.386 492.976 219.258 492.976ZM214.266 502.96H226.602V497.776H211.77V499.648H224.178V501.208H211.818V506.656H227.226V504.76H214.266V502.96ZM209.442 494.248V496.216H229.074V494.248H209.442ZM241.591 492.256H251.863V495.808H241.591V492.256ZM247.951 502.168V497.8H254.311V486.616H251.863V490.264H241.591V486.616H239.143V497.8H245.479V502.168H236.935V504.208H256.567V502.168H247.951ZM262.541 489.184H269.909V487.168H260.069V501.592H261.773C265.805 501.592 268.445 501.448 271.445 500.872L271.205 498.88C268.445 499.384 266.069 499.504 262.541 499.528V489.184ZM274.541 485.152V492.856H268.733V494.896H274.541V506.896H277.013V485.152H274.541ZM284.403 495.16H291.819V487.096H281.907V489.112H289.371V493.168H281.955V501.736H283.731C287.739 501.736 290.643 501.592 293.979 500.992L293.715 498.976C290.667 499.528 287.955 499.672 284.403 499.696V495.16ZM301.251 493.6H297.915V485.128H295.419V506.872H297.915V495.664H301.251V493.6ZM314.185 502.216V497.104H320.593V495.112H308.041V488.8H320.401V486.808H305.569V497.104H311.713V502.216H303.169V504.256H322.801V502.216H314.185ZM339.998 496.864C340.118 496.144 340.166 495.4 340.166 494.56C340.166 493.72 340.118 492.952 339.998 492.232H342.494V496.864H339.998ZM335.51 499.912C334.022 499.912 333.086 497.992 333.086 494.56C333.086 491.128 334.022 489.184 335.51 489.184C336.998 489.184 337.934 491.128 337.934 494.56C337.934 497.992 336.998 499.912 335.51 499.912ZM342.494 490.192H339.494C338.75 488.056 337.31 486.856 335.51 486.856C332.702 486.856 330.854 489.784 330.854 494.56C330.854 499.312 332.702 502.24 335.51 502.24C337.334 502.24 338.75 500.992 339.518 498.88H342.494V505.816H344.798V485.584H342.494V490.192ZM346.79 485.176V506.824H349.142V485.176H346.79ZM359.292 489.568H362.868V487.528H353.076V489.568H356.892V491.128C356.892 494.992 355.452 498.904 352.38 500.824L353.868 502.648C355.956 501.328 357.348 499 358.116 496.264C358.884 498.784 360.228 500.92 362.268 502.12L363.708 500.32C360.684 498.568 359.292 494.824 359.292 491.128V489.568ZM364.476 492.784H361.284V494.8H364.476V505.792H366.804V485.584H364.476V492.784ZM368.844 485.152V506.824H371.196V485.152H368.844ZM392.194 491.392H379.786V485.944H377.314V493.408H392.194V491.392ZM379.642 499.984H377.17V506.368H392.314V504.376H379.642V499.984ZM374.77 496V497.992H394.45V496H374.77ZM410.783 495.616H405.479V492.04H410.783V495.616ZM413.231 486.736H410.783V490.12H405.479V486.736H403.007V497.608H413.231V486.736ZM407.951 499.576H405.455V506.44H420.047V504.424H407.951V499.576ZM419.183 491.56V485.2H416.711V501.112H419.183V493.6H422.255V491.56H419.183ZM441.765 495.4H429.213V489.088H441.597V487.072H426.741V497.392H441.765V495.4ZM424.341 502.024V504.064H443.997V502.024H424.341ZM454.411 486.976H451.939V490.528C451.939 494.704 449.683 498.856 446.227 500.416L447.691 502.48C450.307 501.208 452.227 498.64 453.211 495.496C454.195 498.424 456.091 500.824 458.587 502L460.027 500.032C456.619 498.496 454.411 494.512 454.411 490.528V486.976ZM461.755 485.152V506.896H464.251V485.152H461.755ZM487.256 495.472C483.92 494.392 481.952 491.728 481.952 488.968V488.56H486.584V486.568H474.728V488.56H479.432V488.968C479.432 491.896 477.488 494.704 474.056 495.856L475.352 497.8C477.944 496.888 479.768 495.088 480.728 492.784C481.688 494.92 483.512 496.6 486.008 497.392L487.256 495.472ZM477.128 501.328H489.272V506.848H491.744V499.336H477.128V501.328ZM489.272 485.152V498.256H491.744V485.152H489.272ZM508.854 494.968C505.614 493.84 503.766 491.152 503.766 488.464V488.344H508.278V486.328H496.686V488.344H501.27V488.488C501.27 491.392 499.302 494.272 495.942 495.424L497.214 497.368C499.782 496.48 501.606 494.584 502.566 492.256C503.502 494.344 505.23 496.048 507.63 496.912L508.854 494.968ZM511.446 504.592H502.278V502.264H511.446V504.592ZM511.446 500.32H502.278V497.968H499.83V506.584H513.918V497.968H511.446V500.32ZM511.422 485.176V490.24H507.606V492.28H511.422V497.008H513.918V485.176H511.422ZM532.186 495.112H539.434V493.12H532.186V489.088H539.842V487.048H529.714V501.784H531.466C535.354 501.784 538.234 501.664 541.57 501.136L541.33 499.12C538.282 499.624 535.642 499.744 532.186 499.768V495.112ZM548.986 493.672H545.602V485.152H543.13V506.872H545.602V495.712H548.986V493.672ZM566.24 485.152V506.896H568.736V485.152H566.24ZM557.192 486.76C553.976 486.76 551.624 489.736 551.624 494.392C551.624 499.096 553.976 502.048 557.192 502.048C560.432 502.048 562.784 499.096 562.784 494.392C562.784 489.736 560.432 486.76 557.192 486.76ZM557.192 488.992C559.088 488.992 560.408 491.032 560.408 494.392C560.408 497.8 559.088 499.84 557.192 499.84C555.32 499.84 554 497.8 554 494.392C554 491.032 555.32 488.992 557.192 488.992ZM590.838 485.2H588.366V498.376H590.838V485.2ZM578.262 488.944H581.238V494.92C580.254 494.992 579.222 495.016 578.262 495.04V488.944ZM586.518 494.464C585.582 494.584 584.622 494.68 583.638 494.752V488.944H585.558V486.928H573.918V488.944H575.886V495.064C574.998 495.088 574.134 495.088 573.342 495.088L573.63 497.128C577.254 497.128 582.294 497.032 586.686 496.264L586.518 494.464ZM583.662 504.928C580.542 504.928 578.766 504.184 578.766 502.816C578.766 501.448 580.542 500.728 583.662 500.728C586.758 500.728 588.51 501.448 588.51 502.816C588.51 504.184 586.758 504.928 583.662 504.928ZM583.662 498.808C579.078 498.808 576.318 500.272 576.318 502.816C576.318 505.36 579.078 506.848 583.662 506.848C588.198 506.848 590.982 505.36 590.982 502.816C590.982 500.272 588.198 498.808 583.662 498.808ZM208.221 525.472C204.885 524.392 202.917 521.728 202.917 518.968V518.56H207.549V516.568H195.693V518.56H200.397V518.968C200.397 521.896 198.453 524.704 195.021 525.856L196.317 527.8C198.909 526.888 200.733 525.088 201.693 522.784C202.653 524.92 204.477 526.6 206.973 527.392L208.221 525.472ZM198.093 531.328H210.237V536.848H212.709V529.336H198.093V531.328ZM210.237 515.152V528.256H212.709V515.152H210.237ZM229.819 524.968C226.579 523.84 224.731 521.152 224.731 518.464V518.344H229.243V516.328H217.651V518.344H222.235V518.488C222.235 521.392 220.267 524.272 216.907 525.424L218.179 527.368C220.747 526.48 222.571 524.584 223.531 522.256C224.467 524.344 226.195 526.048 228.595 526.912L229.819 524.968ZM232.411 534.592H223.243V532.264H232.411V534.592ZM232.411 530.32H223.243V527.968H220.795V536.584H234.883V527.968H232.411V530.32ZM232.387 515.176V520.24H228.571V522.28H232.387V527.008H234.883V515.176H232.387ZM246.056 522.88L246.392 524.968L259.184 524.272C259.064 525.688 258.824 527.272 258.44 529.072L260.888 529.36C261.848 524.776 261.824 521.776 261.824 519.136V517.144H246.68V519.136H259.376C259.376 520.12 259.376 521.2 259.328 522.376L246.056 522.88ZM254.192 532.096V526.648H251.696V532.096H244.376V534.136H263.984V532.096H254.192ZM283.902 525.4H271.35V519.088H283.734V517.072H268.878V527.392H283.902V525.4ZM266.478 532.024V534.064H286.134V532.024H266.478ZM305.227 519.232H307.411V517.216H301.411V519.232H302.851V521.152C302.851 523.72 302.563 526.888 301.003 529.192C299.395 526.864 299.107 523.624 299.107 521.152V519.232H300.571V517.216H294.307V519.232H296.779V521.152C296.779 524.464 296.203 528.448 293.563 530.512L295.099 532.288C296.563 531.136 297.451 529.312 297.979 527.224C298.483 529.36 299.419 531.28 300.979 532.48C302.563 531.28 303.499 529.36 304.027 527.224C304.531 529.312 305.443 531.136 306.907 532.288L308.443 530.512C305.803 528.472 305.227 524.56 305.227 521.152V519.232ZM314.059 523.6H311.347V515.176H308.875V536.872H311.347V525.64H314.059V523.6ZM333.425 521.392H321.017V515.944H318.545V523.408H333.425V521.392ZM320.873 529.984H318.401V536.368H333.545V534.376H320.873V529.984ZM316.001 526V527.992H335.681V526H316.001ZM358.974 534.568H349.806V532.288H358.974V534.568ZM358.974 530.344H349.806V528.04H347.358V536.56H361.446V528.04H358.974V530.344ZM352.038 524.296H346.926V521.248H352.038V524.296ZM358.974 515.152V520.336H354.462V516.28H352.038V519.328H346.926V516.256H344.478V526.312H354.462V522.352H358.974V527.056H361.446V515.176L358.974 515.152ZM375.364 517.36C378.724 517.36 380.524 518.008 380.524 519.256C380.524 520.48 378.724 521.128 375.364 521.128C372.004 521.128 370.204 520.48 370.204 519.256C370.204 518.008 372.004 517.36 375.364 517.36ZM375.364 522.976C380.212 522.976 383.092 521.656 383.092 519.256C383.092 516.832 380.212 515.512 375.364 515.512C370.492 515.512 367.636 516.832 367.636 519.256C367.636 521.656 370.492 522.976 375.364 522.976ZM370.372 532.96H382.708V527.776H367.876V529.648H380.284V531.208H367.924V536.656H383.332V534.76H370.372V532.96ZM365.548 524.248V526.216H385.18V524.248H365.548ZM404.824 521.032H402.088C402.256 520.024 402.328 518.944 402.328 517.84H393.952V519.832H399.88C399.52 524.272 397.36 527.8 392.896 530.512L394.312 532.264C398.368 529.84 400.648 526.696 401.656 523.048H404.824V526.48H401.272V528.496H404.824V535.792H407.128V515.704H404.824V521.032ZM409.192 515.176V536.848H411.568V515.176H409.192ZM433.575 522.064C429.231 521.488 426.159 519.088 426.159 516.352V515.536H423.615V516.352C423.615 519.04 420.471 521.488 416.199 522.064L417.111 523.984C420.615 523.456 423.495 521.8 424.863 519.496C426.255 521.824 429.159 523.432 432.639 523.984L433.575 522.064ZM417.279 531.736H429.831V536.872H432.303V529.744H417.279V531.736ZM426.111 525.88V522.808H423.639V525.88H415.095V527.872H434.751V525.88H426.111ZM445.827 529.096V531.112H457.971V536.872H460.443V529.096H445.827ZM457.971 515.176V527.992H460.443V515.176H457.971ZM448.755 516.424C445.443 516.424 442.995 518.56 442.995 521.632C442.995 524.704 445.443 526.84 448.755 526.84C452.043 526.84 454.491 524.704 454.491 521.632C454.491 518.56 452.043 516.424 448.755 516.424ZM448.755 518.512C450.675 518.512 452.091 519.736 452.091 521.632C452.091 523.528 450.675 524.752 448.755 524.752C446.811 524.752 445.419 523.528 445.419 521.632C445.419 519.736 446.811 518.512 448.755 518.512ZM477.241 518.512H472.249V515.464H469.777V518.512H464.665V520.528H477.241V518.512ZM471.001 530.104C469.345 530.104 468.145 528.928 468.145 527.128C468.145 525.328 469.345 524.128 471.001 524.128C472.681 524.128 473.881 525.328 473.881 527.128C473.881 528.928 472.681 530.104 471.001 530.104ZM471.001 522.064C468.073 522.064 465.889 524.152 465.889 527.128C465.889 530.104 468.073 532.168 471.001 532.168C473.953 532.168 476.137 530.104 476.137 527.128C476.137 524.152 473.953 522.064 471.001 522.064ZM480.169 515.176V522.352H476.881V524.392H480.169V527.728H476.929V529.768H480.169V536.872H482.665V515.176H480.169ZM492.504 529.84C490.608 529.84 489.312 527.8 489.312 524.392C489.312 521.032 490.608 518.992 492.504 518.992C494.376 518.992 495.696 521.032 495.696 524.392C495.696 527.8 494.376 529.84 492.504 529.84ZM492.504 516.76C489.264 516.76 486.936 519.736 486.936 524.392C486.936 529.096 489.264 532.048 492.504 532.048C495.744 532.048 498.072 529.096 498.072 524.392C498.072 519.736 495.744 516.76 492.504 516.76ZM506.784 522.496V520.456H503.52V515.176H501.048V536.872H503.52V528.904H506.784V526.864H503.52V522.496H506.784ZM527.028 517.24H521.868V514.984H519.396V517.24H514.236V519.232H527.028V517.24ZM517.74 523.84C517.74 522.616 518.892 521.872 520.62 521.872C522.348 521.872 523.524 522.616 523.524 523.84C523.524 525.088 522.348 525.832 520.62 525.832C518.892 525.832 517.74 525.088 517.74 523.84ZM525.876 523.84C525.876 521.56 523.764 520.024 520.62 520.024C517.5 520.024 515.364 521.56 515.364 523.84C515.364 526.144 517.5 527.68 520.62 527.68C523.764 527.68 525.876 526.144 525.876 523.84ZM528.684 534.616H519.732V532.624H528.684V534.616ZM528.684 530.704H519.732V528.712H517.284V536.584H531.132V528.712H528.684V530.704ZM534.204 520.576H531.132V515.176H528.66V527.824H531.132V522.616H534.204V520.576ZM540.01 517.288H537.562V531.376H539.41C542.77 531.376 546.274 531.112 549.994 530.344L549.73 528.28C546.322 528.976 543.082 529.24 540.01 529.264V517.288ZM551.722 515.176V536.848H554.194V515.176H551.722ZM561.705 519.232H569.313V517.216H559.233V531.544H561.009C564.921 531.544 567.849 531.424 571.137 530.824L570.873 528.784C567.849 529.312 565.209 529.456 561.705 529.48V519.232ZM578.529 523.504H575.145V515.152H572.673V536.872H575.145V525.544H578.529V523.504ZM582.799 535.312C583.831 535.312 584.647 534.52 584.647 533.392C584.647 532.24 583.831 531.424 582.799 531.424C581.767 531.424 580.951 532.24 580.951 533.392C580.951 534.52 581.767 535.312 582.799 535.312Z" fill="black"/>
<g filter="url(#filter1_d_20_55)">
<rect x="772" y="185" width="368" height="221" fill="white"/>
</g>
<path d="M902.315 344.696V367.352H906.203V344.696H902.315ZM893.939 346.208C890.483 346.208 887.915 349.328 887.915 354.368C887.915 359.408 890.483 362.528 893.939 362.528C897.395 362.528 899.963 359.408 899.963 354.368C899.963 349.328 897.395 346.208 893.939 346.208ZM893.939 349.736C895.331 349.736 896.243 351.2 896.243 354.368C896.243 357.536 895.331 359 893.939 359C892.547 359 891.635 357.536 891.635 354.368C891.635 351.2 892.547 349.736 893.939 349.736ZM915.802 360.944H911.914V367.616H927.97V364.568H915.802V360.944ZM921.586 356.984V355.712H927.85V352.808H915.754V351.728H927.442V345.104H911.89V348.008H923.602V349.04H911.914V355.712H917.698V356.984H909.442V360.032H929.842V356.984H921.586ZM940.916 350.528C940.916 349.112 941.876 348.392 943.268 348.392C944.66 348.392 945.62 349.112 945.62 350.528C945.62 351.968 944.66 352.688 943.268 352.688C941.876 352.688 940.916 351.968 940.916 350.528ZM952.148 351.296H949.244C949.268 351.056 949.292 350.792 949.292 350.528C949.292 350.264 949.268 350 949.22 349.736H952.148V351.296ZM952.148 354.248V355.88H956.036V344.768H952.148V346.784H947.588C946.508 345.824 944.996 345.272 943.268 345.272C939.836 345.272 937.244 347.48 937.244 350.528C937.244 353.576 939.836 355.784 943.268 355.784C945.02 355.784 946.532 355.232 947.612 354.248H952.148ZM944.804 364.088V363.224H956.036V356.72H940.94V359.648H952.196V360.464H940.964V367.04H956.588V364.088H944.804ZM976.458 353.576C977.106 351.224 977.106 349.256 977.106 347.504V345.68H961.362V348.704H973.218C973.194 350.024 973.074 351.416 972.642 353.168L976.458 353.576ZM969.138 364.424C966.354 364.424 964.938 363.992 964.938 363.008C964.938 362 966.354 361.568 969.138 361.568C971.898 361.568 973.338 362 973.338 363.008C973.338 363.992 971.898 364.424 969.138 364.424ZM969.138 358.664C964.266 358.664 961.074 360.32 961.074 363.008C961.074 365.672 964.266 367.328 969.138 367.328C974.01 367.328 977.202 365.672 977.202 363.008C977.202 360.32 974.01 358.664 969.138 358.664ZM970.074 354.584V350.888H966.186V354.584H959.154V357.608H979.41V354.584H970.074ZM987.592 359.768C986.344 359.768 985.456 358.976 985.456 357.416C985.456 355.856 986.344 355.064 987.592 355.064C988.864 355.064 989.728 355.856 989.728 357.416C989.728 358.976 988.864 359.768 987.592 359.768ZM987.592 351.944C984.256 351.944 981.76 354.224 981.76 357.416C981.76 360.608 984.256 362.888 987.592 362.888C990.928 362.888 993.424 360.608 993.424 357.416C993.424 354.224 990.928 351.944 987.592 351.944ZM989.536 345.176H985.648V347.936H981.064V350.984H994.096V347.936H989.536V345.176ZM1002.02 353.312H999.04V344.768H995.152V367.256H999.04V356.48H1002.02V353.312ZM1004.49 347.024V350.072H1011.49C1010.99 354.8 1008.78 357.944 1003.19 360.632L1005.21 363.656C1013.46 359.72 1015.45 354.128 1015.45 347.024H1004.49ZM1018.29 344.744V367.232H1022.17V344.744H1018.29Z" fill="black"/>
<path d="M980.737 294.307C981.676 293.774 982.696 293.4 983.758 293.201C984.839 293.061 985.929 293 987.019 293.017C986.494 289.371 986.012 285.541 985.856 283.002C984.835 267.725 972.371 262.15 955.723 262.15C939.075 262.15 926.554 266.406 925.604 283.002C925.49 285.172 924.98 289.158 924.427 293.017C924.427 293.017 926.157 293.173 927.518 293.456C928.541 293.693 929.525 294.075 930.439 294.591C930.24 292.713 930.518 290.815 931.248 289.073C930.905 288.191 930.727 287.254 930.723 286.307V281.725C930.745 279.686 931.571 277.738 933.02 276.304C934.47 274.87 936.427 274.065 938.465 274.066H969.662C970.977 274.069 972.238 274.594 973.168 275.524C974.098 276.454 974.622 277.715 974.625 279.03C974.598 279.986 974.314 280.917 973.803 281.725C973.557 282.565 973.424 283.433 973.406 284.307H977.305C978.622 284.307 979.884 284.83 980.815 285.761C981.746 286.692 982.269 287.955 982.269 289.272C982.275 290.281 981.978 291.269 981.418 292.109C980.989 292.763 980.753 293.525 980.737 294.307Z" fill="#333333"/>
<path d="M955.723 223C952.237 223 948.829 224.034 945.93 225.972C943.032 227.909 940.772 230.663 939.438 233.884C938.104 237.106 937.755 240.651 938.435 244.072C939.115 247.492 940.794 250.634 943.259 253.099C945.724 255.565 948.865 257.245 952.284 257.925C955.703 258.605 959.247 258.256 962.468 256.922C965.689 255.587 968.442 253.327 970.379 250.428C972.315 247.528 973.349 244.119 973.349 240.632C973.351 238.316 972.896 236.022 972.011 233.882C971.126 231.742 969.828 229.798 968.191 228.16C966.554 226.522 964.61 225.224 962.47 224.338C960.331 223.453 958.038 222.998 955.723 223Z" fill="#333333"/>
<path d="M977.305 287.598H969.648C969.172 286.576 968.92 285.463 968.91 284.335C968.944 283.042 969.149 281.759 969.52 280.52H969.648C970.058 280.509 970.447 280.338 970.733 280.044C971.02 279.75 971.18 279.355 971.179 278.945C971.179 278.523 971.012 278.117 970.715 277.817C970.418 277.517 970.014 277.346 969.591 277.342H938.394C937.246 277.361 936.151 277.831 935.347 278.652C934.542 279.472 934.094 280.576 934.098 281.725V286.307C934.114 287.355 934.507 288.362 935.204 289.144C934.306 290.069 933.799 291.303 933.786 292.591V296.095H934.027C935.082 296.274 936.093 296.654 937.005 297.215C936.998 297.121 936.998 297.026 937.005 296.932V292.634C937.005 292.147 937.197 291.68 937.54 291.335C937.882 290.989 938.347 290.793 938.834 290.79H973.845C973.471 292.038 973.266 293.331 973.236 294.634C973.231 295.75 973.379 296.862 973.675 297.939C974.512 297.242 975.475 296.712 976.511 296.378C976.433 295.8 976.391 295.217 976.384 294.634C976.393 293.307 976.683 291.997 977.234 290.79H977.348C977.745 290.752 978.114 290.568 978.382 290.273C978.651 289.978 978.8 289.593 978.8 289.194C978.8 288.795 978.651 288.41 978.382 288.115C978.114 287.82 977.745 287.635 977.348 287.598H977.305ZM966.202 287.484H938.465C938.153 287.484 937.854 287.36 937.633 287.14C937.412 286.919 937.288 286.619 937.288 286.307V281.725C937.288 281.413 937.412 281.114 937.633 280.893C937.854 280.672 938.153 280.548 938.465 280.548H966.259C965.982 281.803 965.82 283.08 965.777 284.364C965.801 285.421 965.963 286.47 966.259 287.484H966.202Z" fill="#333333"/>
<path d="M941.188 310.322C941.058 311.411 940.806 312.482 940.437 313.514H971.009C970.627 312.483 970.361 311.412 970.215 310.322H941.188Z" fill="#333333"/>
<path d="M940.436 302.237H971.009C971.402 301.024 972.007 299.89 972.796 298.889H938.763C939.491 299.911 940.056 301.041 940.436 302.237Z" fill="#333333"/>
<path d="M930.921 299.159C928.766 299.159 926.213 297.74 927.263 295.811C927.263 295.811 921.888 296.308 922.002 304.776C922.144 314.592 923.817 317.06 928.624 317.004C933.431 316.947 937.77 315.202 937.6 307.698C937.43 300.194 933.672 299.201 930.921 299.159Z" fill="#333333"/>
<path d="M984.197 295.811C985.232 297.783 982.694 299.116 980.538 299.159C977.787 299.159 974.058 300.18 973.874 307.67C973.689 315.16 978.128 316.918 982.836 316.975C987.544 317.032 989.316 314.564 989.458 304.748C989.571 296.308 984.197 295.811 984.197 295.811Z" fill="#333333"/>
<path d="M794.934 459.664C794.934 462.472 794.934 465.664 794.094 469.936L796.59 470.2C797.406 465.616 797.406 462.568 797.406 459.664V457.336H782.406V459.328H794.934V459.664ZM780.318 471.784V473.824H799.926V471.784H780.318ZM817.876 466.984H820.348V455.176H817.876V459.184H814.132V461.176H817.876V466.984ZM814.516 463.216C811.66 463.72 809.188 463.84 805.684 463.864V461.776H812.908V456.112H803.188V458.008H810.436V460H803.236V465.784H804.94C808.948 465.784 811.612 465.688 814.732 465.136L814.516 463.216ZM813.196 475.144C810.724 475.144 809.476 474.712 809.476 473.824C809.476 472.936 810.724 472.504 813.196 472.504C815.644 472.504 816.916 472.936 816.916 473.824C816.916 474.712 815.644 475.144 813.196 475.144ZM813.196 470.776C809.308 470.776 807.076 471.832 807.076 473.824C807.076 475.816 809.308 476.872 813.196 476.872C817.06 476.872 819.292 475.816 819.292 473.824C819.292 471.832 817.06 470.776 813.196 470.776ZM814.42 468.112V466.288H811.948V468.112H805.588V469.984H820.756V468.112H814.42ZM827.81 459.232H835.418V457.216H825.338V471.544H827.114C831.026 471.544 833.954 471.424 837.242 470.824L836.978 468.784C833.954 469.312 831.314 469.456 827.81 469.48V459.232ZM844.634 463.504H841.25V455.152H838.778V476.872H841.25V465.544H844.634V463.504ZM861.528 459.328C861.528 461.92 861.528 464.992 860.688 469.24L863.184 469.504C864.024 465.016 864.024 462.016 864.024 459.328V457.192H848.592V459.208H861.528V459.328ZM856.344 471.976V464.344H853.848V471.976H846.552V474.016H866.136V471.976H856.344ZM875.677 462.88L876.013 464.968L888.805 464.272C888.685 465.688 888.445 467.272 888.061 469.072L890.509 469.36C891.469 464.776 891.445 461.776 891.445 459.136V457.144H876.301V459.136H888.997C888.997 460.12 888.997 461.2 888.949 462.376L875.677 462.88ZM883.813 472.096V466.648H881.317V472.096H873.997V474.136H893.605V472.096H883.813ZM913.955 455.176H911.483V468.328H913.955V455.176ZM909.539 463.84C906.683 464.416 904.163 464.536 899.843 464.56V458.848H907.595V456.832H897.371V466.576H899.195C903.995 466.576 906.731 466.456 909.779 465.832L909.539 463.84ZM906.707 474.928C903.635 474.928 901.835 474.112 901.835 472.648C901.835 471.208 903.635 470.392 906.707 470.392C909.779 470.392 911.579 471.208 911.579 472.648C911.579 474.112 909.779 474.928 906.707 474.928ZM906.707 468.448C902.171 468.448 899.363 470.008 899.363 472.648C899.363 475.312 902.171 476.872 906.707 476.872C911.219 476.872 914.051 475.312 914.051 472.648C914.051 470.008 911.219 468.448 906.707 468.448ZM926.649 465.28H921.369V459.016H926.649V465.28ZM929.073 457.024H918.921V467.272H929.073V457.024ZM923.865 469.504H921.369V476.44H935.961V474.424H923.865V469.504ZM935.097 461.608V455.152H932.625V471.04H935.097V463.648H938.169V461.608H935.097ZM947.614 465.784C951.19 465.256 954.118 463.48 955.438 461.08C956.758 463.48 959.71 465.256 963.286 465.784L964.174 463.84C960.046 463.288 956.998 460.912 956.854 458.392H963.406V456.4H947.446V458.392H954.046C953.902 460.912 950.854 463.288 946.726 463.84L947.614 465.784ZM965.254 467.368H945.646V469.36H954.142V476.872H956.614V469.36H965.23L965.254 467.368ZM973.484 469.84C971.588 469.84 970.292 467.8 970.292 464.392C970.292 461.032 971.588 458.992 973.484 458.992C975.356 458.992 976.676 461.032 976.676 464.392C976.676 467.8 975.356 469.84 973.484 469.84ZM973.484 456.76C970.244 456.76 967.916 459.736 967.916 464.392C967.916 469.096 970.244 472.048 973.484 472.048C976.724 472.048 979.052 469.096 979.052 464.392C979.052 459.736 976.724 456.76 973.484 456.76ZM987.764 462.496V460.456H984.5V455.176H982.028V476.872H984.5V468.904H987.764V466.864H984.5V462.496H987.764ZM1002.52 465.376C999.21 464.32 997.41 461.8 997.41 459.112V458.704H1001.95V456.712H990.306V458.704H994.914V459.136C994.914 462.088 993.018 464.872 989.61 466.048L990.858 467.992C993.45 467.104 995.274 465.256 996.234 462.952C997.17 464.968 998.898 466.528 1001.32 467.296L1002.52 465.376ZM999.738 474.904C996.714 474.904 994.962 474.136 994.962 472.744C994.962 471.328 996.714 470.584 999.738 470.584C1002.76 470.584 1004.51 471.328 1004.51 472.744C1004.51 474.136 1002.76 474.904 999.738 474.904ZM999.738 468.64C995.274 468.64 992.514 470.152 992.514 472.744C992.514 475.312 995.274 476.848 999.738 476.848C1004.2 476.848 1006.96 475.312 1006.96 472.744C1006.96 470.152 1004.2 468.64 999.738 468.64ZM1006.72 460.456V455.176H1004.25V468.136H1006.72V462.496H1009.79V460.456H1006.72ZM1023.38 461.68V463.72H1027.36V471.304H1029.83V455.2H1027.36V461.68H1023.38ZM1024.77 466.528C1021.43 465.496 1019.51 462.976 1019.51 460.312V459.904H1024.07V457.912H1019.54V455.32H1017.04V457.912H1012.48V459.904H1017.04V460.312C1017.04 463.168 1015.17 465.808 1011.83 466.936L1013.06 468.856C1015.58 468.016 1017.38 466.288 1018.34 464.08C1019.3 466.12 1021.12 467.704 1023.57 468.472L1024.77 466.528ZM1018.26 474.424V469.912H1015.79V476.44H1030.38V474.424H1018.26ZM1045.66 470.152C1043.91 470.152 1042.64 468.952 1042.64 467.128C1042.64 465.304 1043.91 464.104 1045.66 464.104C1047.41 464.104 1048.69 465.304 1048.69 467.128C1048.69 468.952 1047.41 470.152 1045.66 470.152ZM1045.66 462.064C1042.54 462.064 1040.29 464.176 1040.29 467.128C1040.29 470.104 1042.54 472.192 1045.66 472.192C1048.76 472.192 1051.04 470.104 1051.04 467.128C1051.04 464.176 1048.76 462.064 1045.66 462.064ZM1046.86 455.512H1044.39V458.512H1039.23V460.528H1051.93V458.512H1046.86V455.512ZM1059.51 463.888H1056.17V455.176H1053.68V476.872H1056.17V465.952H1059.51V463.888ZM1076.4 459.328C1076.4 461.92 1076.4 464.992 1075.56 469.24L1078.06 469.504C1078.9 465.016 1078.9 462.016 1078.9 459.328V457.192H1063.47V459.208H1076.4V459.328ZM1071.22 471.976V464.344H1068.72V471.976H1061.43V474.016H1081.01V471.976H1071.22ZM1106.75 455.2H1104.28V467.512H1106.75V455.2ZM1095.06 458.416C1096.98 458.416 1098.4 459.64 1098.4 461.488C1098.4 463.36 1096.98 464.56 1095.06 464.56C1093.14 464.56 1091.73 463.36 1091.73 461.488C1091.73 459.64 1093.14 458.416 1095.06 458.416ZM1095.06 466.6C1098.38 466.6 1100.8 464.512 1100.8 461.488C1100.8 458.464 1098.38 456.376 1095.06 456.376C1091.75 456.376 1089.3 458.464 1089.3 461.488C1089.3 464.512 1091.75 466.6 1095.06 466.6ZM1104.45 468.448H1102.02V469.408C1102.02 471.04 1101.11 473.08 1099.19 474.376C1097.3 473.176 1096.46 471.232 1096.46 469.408V468.448H1094.06V469.408C1094.06 471.52 1092.62 473.752 1089.86 474.736L1091.06 476.56C1093.07 475.816 1094.46 474.424 1095.26 472.72C1095.93 474.472 1097.2 475.96 1099.24 476.752C1101.21 475.936 1102.5 474.376 1103.2 472.672C1103.94 474.424 1105.36 475.816 1107.45 476.56L1108.67 474.736C1105.86 473.824 1104.45 471.64 1104.45 469.408V468.448ZM1120.77 456.4C1116.23 456.4 1112.8 458.848 1112.8 462.52C1112.8 466.216 1116.23 468.64 1120.77 468.64C1125.28 468.64 1128.73 466.216 1128.73 462.52C1128.73 458.848 1125.28 456.4 1120.77 456.4ZM1120.77 458.44C1123.96 458.44 1126.33 460.024 1126.33 462.52C1126.33 465.016 1123.96 466.6 1120.77 466.6C1117.55 466.6 1115.2 465.016 1115.2 462.52C1115.2 460.024 1117.55 458.44 1120.77 458.44ZM1110.97 472.072V474.112H1130.61V472.072H1110.97ZM1141.62 465.376H1136.41V458.944H1141.62V465.376ZM1148.53 460.816V463.456H1144.02V460.816H1148.53ZM1144.02 465.448H1148.53V470.992H1151V455.176H1148.53V458.8H1144.02V456.976H1133.99V467.344H1144.02V465.448ZM1139.39 474.424V469.552H1136.89V476.44H1151.51V474.424H1139.39ZM823.565 492.76H825.845V498.496H828.197V485.2H825.845V490.744H823.565V485.584H821.237V497.8H823.565V492.76ZM820.733 495.112C817.925 494.008 816.509 491.632 816.509 489.232V486.496H814.109V489.232C814.109 491.704 812.645 494.416 809.741 495.736L811.037 497.632C813.125 496.72 814.541 495.04 815.333 493.048C816.149 494.776 817.493 496.216 819.413 496.96L820.733 495.112ZM820.973 504.952C817.925 504.952 816.101 504.208 816.101 502.888C816.101 501.544 817.925 500.8 820.973 500.8C824.021 500.8 825.845 501.544 825.845 502.888C825.845 504.208 824.021 504.952 820.973 504.952ZM820.973 498.904C816.461 498.904 813.629 500.392 813.629 502.888C813.629 505.36 816.461 506.848 820.973 506.848C825.485 506.848 828.317 505.36 828.317 502.888C828.317 500.392 825.485 498.904 820.973 498.904ZM832.803 486.472V488.464H840.267C839.835 491.776 836.859 494.464 831.771 495.76L832.779 497.704C839.163 496 842.883 492.088 842.883 486.472H832.803ZM834.603 500.776H846.387V506.872H848.859V498.784H834.603V500.776ZM851.931 490.48H848.859V485.152H846.387V497.824H848.859V492.52H851.931V490.48ZM858.889 499.912C857.401 499.912 856.489 497.968 856.489 494.536C856.489 491.104 857.401 489.184 858.889 489.184C860.377 489.184 861.289 491.104 861.289 494.536C861.289 497.968 860.377 499.912 858.889 499.912ZM865.825 493.384H863.497C863.233 489.328 861.481 486.856 858.889 486.856C856.081 486.856 854.233 489.784 854.233 494.536C854.233 499.288 856.081 502.24 858.889 502.24C861.529 502.24 863.305 499.648 863.521 495.424H865.825V505.816H868.129V485.584H865.825V493.384ZM870.169 485.176V506.824H872.521V485.176H870.169ZM899.318 485.152H896.846V496.936H899.318V485.152ZM882.974 486.616V488.608H890.414C890.006 491.728 887.054 494.296 881.87 495.448L882.854 497.392C889.214 495.88 893.078 492.208 893.078 486.616H882.974ZM890.246 500.008H894.422V504.544H890.246V500.008ZM896.846 504.544V500.008H899.606V498.04H885.038V500.008H887.798V504.544H884.822V506.512H899.846V504.544H896.846ZM918.9 485.152V506.896H921.396V485.152H918.9ZM909.852 486.76C906.636 486.76 904.284 489.736 904.284 494.392C904.284 499.096 906.636 502.048 909.852 502.048C913.092 502.048 915.444 499.096 915.444 494.392C915.444 489.736 913.092 486.76 909.852 486.76ZM909.852 488.992C911.748 488.992 913.068 491.032 913.068 494.392C913.068 497.8 911.748 499.84 909.852 499.84C907.98 499.84 906.66 497.8 906.66 494.392C906.66 491.032 907.98 488.992 909.852 488.992ZM926.698 487.456V489.472H934.282C933.778 494.464 930.922 498.28 925.618 500.992L926.986 502.888C934.066 499.312 936.754 493.744 936.754 487.456H926.698ZM945.706 493.72H942.418V485.152H939.946V506.824H942.418V495.784H945.706V493.72ZM966.815 492.76H969.095V498.496H971.447V485.2H969.095V490.744H966.815V485.584H964.487V497.8H966.815V492.76ZM963.983 495.112C961.175 494.008 959.759 491.632 959.759 489.232V486.496H957.359V489.232C957.359 491.704 955.895 494.416 952.991 495.736L954.287 497.632C956.375 496.72 957.791 495.04 958.583 493.048C959.399 494.776 960.743 496.216 962.663 496.96L963.983 495.112ZM964.223 504.952C961.175 504.952 959.351 504.208 959.351 502.888C959.351 501.544 961.175 500.8 964.223 500.8C967.271 500.8 969.095 501.544 969.095 502.888C969.095 504.208 967.271 504.952 964.223 504.952ZM964.223 498.904C959.711 498.904 956.879 500.392 956.879 502.888C956.879 505.36 959.711 506.848 964.223 506.848C968.735 506.848 971.567 505.36 971.567 502.888C971.567 500.392 968.735 498.904 964.223 498.904ZM993.045 485.176H990.573V496.168H993.045V485.176ZM976.629 486.112V488.128H983.853C983.541 491.176 980.901 493.504 975.525 494.608L976.389 496.6C982.965 495.16 986.565 491.8 986.565 486.112H976.629ZM981.357 504.688V502.672H993.045V497.128H978.837V499.048H990.573V500.872H978.885V506.656H993.693V504.688H981.357ZM1021.4 493.168C1017.03 492.544 1013.77 489.832 1013.77 487.024V485.872H1011.15V487.024C1011.15 489.88 1007.94 492.544 1003.52 493.168L1004.48 495.16C1008.08 494.584 1011.08 492.784 1012.47 490.264C1013.89 492.76 1016.84 494.584 1020.44 495.16L1021.4 493.168ZM1022.24 497.2H1002.66V499.216H1011.15V506.872H1013.63V499.216H1022.24V497.2ZM1032.79 491.104C1032.79 489.304 1034.16 488.128 1036.05 488.128C1037.95 488.128 1039.34 489.304 1039.34 491.104C1039.34 492.928 1037.95 494.128 1036.05 494.128C1034.16 494.128 1032.79 492.928 1032.79 491.104ZM1045.61 492.088V496.648H1048.08V485.2H1045.61V490.048H1041.57C1041.09 487.672 1038.91 486.088 1036.05 486.088C1032.81 486.088 1030.41 488.152 1030.41 491.104C1030.41 494.104 1032.81 496.168 1036.05 496.168C1038.93 496.168 1041.12 494.536 1041.6 492.088H1045.61ZM1037.95 504.688H1034.85V502.168H1037.95V504.688ZM1037.95 497.896V500.344H1034.85V497.896H1032.55V506.584H1040.23V497.896H1037.95ZM1046.49 497.728H1044.05V499.456C1044.05 501.592 1042.82 503.848 1040.23 504.928L1041.48 506.8C1043.3 506.032 1044.53 504.64 1045.25 503.008C1045.92 504.664 1047.17 506.056 1049.09 506.8L1050.31 504.928C1047.69 503.968 1046.49 501.76 1046.49 499.456V497.728ZM1070.76 491.656C1066.46 491.104 1063.27 488.728 1063.27 486.232V485.392H1060.72V486.232C1060.72 488.752 1057.58 491.104 1053.24 491.656L1054.15 493.576C1057.68 493.096 1060.6 491.464 1062 489.208C1063.41 491.464 1066.34 493.096 1069.87 493.576L1070.76 491.656ZM1066.82 504.616H1057.05V502.288H1066.82V504.616ZM1066.82 500.392H1057.05V498.184H1054.6V506.584H1069.29V498.184H1066.82V500.392ZM1052.18 494.872V496.84H1071.81V494.872H1052.18ZM1078 487.288H1075.55V501.376H1077.4C1080.76 501.376 1084.27 501.112 1087.99 500.344L1087.72 498.28C1084.31 498.976 1081.07 499.24 1078 499.264V487.288ZM1089.71 485.176V506.848H1092.19V485.176H1089.71ZM1099.7 489.232H1107.3V487.216H1097.22V501.544H1099C1102.91 501.544 1105.84 501.424 1109.13 500.824L1108.86 498.784C1105.84 499.312 1103.2 499.456 1099.7 499.48V489.232ZM1116.52 493.504H1113.14V485.152H1110.66V506.872H1113.14V495.544H1116.52V493.504ZM1120.79 505.312C1121.82 505.312 1122.64 504.52 1122.64 503.392C1122.64 502.24 1121.82 501.424 1120.79 501.424C1119.76 501.424 1118.94 502.24 1118.94 503.392C1118.94 504.52 1119.76 505.312 1120.79 505.312ZM800.423 515.152V536.896H802.919V515.152H800.423ZM791.375 516.76C788.159 516.76 785.807 519.736 785.807 524.392C785.807 529.096 788.159 532.048 791.375 532.048C794.615 532.048 796.967 529.096 796.967 524.392C796.967 519.736 794.615 516.76 791.375 516.76ZM791.375 518.992C793.271 518.992 794.591 521.032 794.591 524.392C794.591 527.8 793.271 529.84 791.375 529.84C789.503 529.84 788.183 527.8 788.183 524.392C788.183 521.032 789.503 518.992 791.375 518.992ZM812.133 530.68H809.661V536.8H824.805V534.808H812.133V530.68ZM818.205 527.392V525.328H824.757V523.432H812.061V521.416H824.325V515.776H809.589V517.672H821.877V519.64H809.637V525.328H815.733V527.392H807.117V529.384H826.797V527.392H818.205ZM851.194 523.792C851.794 521.56 851.794 519.76 851.794 518.032V516.208H836.914V518.2H849.346C849.346 519.832 849.322 521.392 848.77 523.528L851.194 523.792ZM844.354 534.952C841.138 534.952 839.17 534.16 839.17 532.792C839.17 531.448 841.138 530.656 844.354 530.656C847.546 530.656 849.466 531.448 849.466 532.792C849.466 534.16 847.546 534.952 844.354 534.952ZM844.354 528.76C839.674 528.76 836.722 530.296 836.722 532.792C836.722 535.312 839.674 536.848 844.354 536.848C848.962 536.848 851.938 535.312 851.938 532.792C851.938 530.296 848.962 528.76 844.354 528.76ZM844.834 525.088V521.104H842.338V525.088H834.658V527.08H854.194V525.088H844.834ZM871.448 523.504H861.536V520.744H871.448V523.504ZM873.92 516.016H871.448V518.752H861.536V516.016H859.064V525.496H873.92V516.016ZM876.344 527.848H856.688V529.84H865.208V536.872H867.68V529.84H876.344V527.848ZM889.806 532.216V527.104H896.214V525.112H883.662V518.8H896.022V516.808H881.19V527.104H887.334V532.216H878.79V534.256H898.422V532.216H889.806ZM919.075 517.456H913.915V515.032H911.443V517.456H906.283V519.424H919.075V517.456ZM909.787 524.2C909.787 522.928 910.939 522.16 912.667 522.16C914.395 522.16 915.571 522.928 915.571 524.2C915.571 525.424 914.395 526.216 912.667 526.216C910.939 526.216 909.787 525.424 909.787 524.2ZM917.923 524.2C917.923 521.848 915.811 520.336 912.667 520.336C909.547 520.336 907.411 521.848 907.411 524.2C907.411 526.528 909.547 528.04 912.667 528.04C915.811 528.04 917.923 526.528 917.923 524.2ZM916.267 534.952C913.291 534.952 911.563 534.304 911.563 533.032C911.563 531.784 913.291 531.136 916.267 531.136C919.243 531.136 920.971 531.784 920.971 533.032C920.971 534.304 919.243 534.952 916.267 534.952ZM916.267 529.24C911.851 529.24 909.115 530.656 909.115 533.032C909.115 535.432 911.851 536.848 916.267 536.848C920.683 536.848 923.419 535.432 923.419 533.032C923.419 530.656 920.683 529.24 916.267 529.24ZM923.179 520.984V515.176H920.707V529.024H923.179V523.024H926.251V520.984H923.179ZM940.937 525.088C937.721 524.032 935.873 521.392 935.873 518.608V516.28H933.377V518.416C933.377 521.536 931.529 524.488 928.121 525.664L929.441 527.632C931.937 526.72 933.713 524.848 934.673 522.496C935.585 524.536 937.313 526.192 939.641 527.032L940.937 525.088ZM938.273 534.904C935.249 534.904 933.497 534.16 933.497 532.768C933.497 531.424 935.249 530.656 938.273 530.656C941.297 530.656 943.049 531.424 943.049 532.768C943.049 534.16 941.297 534.904 938.273 534.904ZM938.273 528.712C933.809 528.712 931.049 530.224 931.049 532.768C931.049 535.336 933.809 536.848 938.273 536.848C942.761 536.848 945.497 535.336 945.497 532.768C945.497 530.224 942.761 528.712 938.273 528.712ZM945.257 520.528V515.152H942.785V528.184H945.257V522.568H948.329V520.528H945.257ZM965.574 535.144C963.03 535.144 961.614 534.76 961.614 533.896C961.614 533.032 963.03 532.648 965.574 532.648C968.142 532.648 969.534 533.032 969.534 533.896C969.534 534.76 968.142 535.144 965.574 535.144ZM965.574 530.944C961.398 530.944 958.998 531.976 958.998 533.896C958.998 535.84 961.398 536.848 965.574 536.848C969.75 536.848 972.126 535.84 972.126 533.896C972.126 531.976 969.75 530.944 965.574 530.944ZM966.822 526.456H964.326V528.208H957.582V530.104H973.59V528.208H966.822V526.456ZM966.918 523.72V521.848H973.254V519.904H960.846V515.512H958.374V521.848H964.446V523.72H955.758V525.712H975.438V523.72H966.918ZM985.876 519.376H990.7V517.336H978.556V519.376H983.38V521.44C983.38 525.16 981.148 529.192 977.788 530.752L979.204 532.72C981.748 531.496 983.692 528.928 984.652 525.904C985.66 528.712 987.604 531.064 990.124 532.168L991.492 530.224C988.108 528.784 985.876 525.04 985.876 521.44V519.376ZM993.22 515.176V536.848H995.716V515.176H993.22ZM1008.02 521.368C1008.02 519.568 1009.43 518.344 1011.3 518.344C1013.18 518.344 1014.59 519.568 1014.59 521.368C1014.59 523.144 1013.18 524.368 1011.3 524.368C1009.43 524.368 1008.02 523.144 1008.02 521.368ZM1016.99 521.368C1016.99 518.416 1014.57 516.328 1011.3 516.328C1008.04 516.328 1005.62 518.416 1005.62 521.368C1005.62 524.296 1008.04 526.408 1011.3 526.408C1014.57 526.408 1016.99 524.296 1016.99 521.368ZM1009.84 528.136H1007.44V536.296H1008.57C1010.32 536.296 1012.19 536.2 1014.16 535.528L1013.75 533.56C1012.46 533.992 1011.09 534.184 1009.84 534.256V528.136ZM1018.82 535.144C1017.71 535.144 1016.9 534.64 1016.9 533.8C1016.9 532.936 1017.71 532.456 1018.82 532.456C1019.9 532.456 1020.71 532.936 1020.71 533.8C1020.71 534.64 1019.9 535.144 1018.82 535.144ZM1018.82 530.728C1016.42 530.728 1014.71 531.928 1014.71 533.8C1014.71 535.672 1016.42 536.872 1018.82 536.872C1021.19 536.872 1022.9 535.672 1022.9 533.8C1022.9 531.928 1021.19 530.728 1018.82 530.728ZM1020.02 526.48H1017.62V528.256H1013.37V530.056H1024.24V528.256H1020.02V526.48ZM1022.27 519.88V515.176H1019.8V525.904H1022.27V521.92H1025.34V519.88H1022.27ZM1033.19 529.84C1031.3 529.84 1030 527.8 1030 524.416C1030 521.032 1031.3 518.992 1033.19 518.992C1035.06 518.992 1036.38 521.032 1036.38 524.416C1036.38 527.8 1035.06 529.84 1033.19 529.84ZM1033.19 516.76C1029.95 516.76 1027.62 519.736 1027.62 524.416C1027.62 529.096 1029.95 532.048 1033.19 532.048C1036.43 532.048 1038.76 529.096 1038.76 524.416C1038.76 519.736 1036.43 516.76 1033.19 516.76ZM1047.59 523.648H1044.21V515.176H1041.74V536.872H1044.21V525.688H1047.59V523.648ZM1055.27 529.84C1053.37 529.84 1052.08 527.8 1052.08 524.392C1052.08 521.032 1053.37 518.992 1055.27 518.992C1057.14 518.992 1058.46 521.032 1058.46 524.392C1058.46 527.8 1057.14 529.84 1055.27 529.84ZM1055.27 516.76C1052.03 516.76 1049.7 519.736 1049.7 524.392C1049.7 529.096 1052.03 532.048 1055.27 532.048C1058.51 532.048 1060.84 529.096 1060.84 524.392C1060.84 519.736 1058.51 516.76 1055.27 516.76ZM1069.55 522.496V520.456H1066.29V515.176H1063.81V536.872H1066.29V528.904H1069.55V526.864H1066.29V522.496H1069.55ZM1089.79 517.24H1084.63V514.984H1082.16V517.24H1077V519.232H1089.79V517.24ZM1080.51 523.84C1080.51 522.616 1081.66 521.872 1083.39 521.872C1085.11 521.872 1086.29 522.616 1086.29 523.84C1086.29 525.088 1085.11 525.832 1083.39 525.832C1081.66 525.832 1080.51 525.088 1080.51 523.84ZM1088.64 523.84C1088.64 521.56 1086.53 520.024 1083.39 520.024C1080.27 520.024 1078.13 521.56 1078.13 523.84C1078.13 526.144 1080.27 527.68 1083.39 527.68C1086.53 527.68 1088.64 526.144 1088.64 523.84ZM1091.45 534.616H1082.5V532.624H1091.45V534.616ZM1091.45 530.704H1082.5V528.712H1080.05V536.584H1093.9V528.712H1091.45V530.704ZM1096.97 520.576H1093.9V515.176H1091.43V527.824H1093.9V522.616H1096.97V520.576ZM1102.78 517.288H1100.33V531.376H1102.18C1105.54 531.376 1109.04 531.112 1112.76 530.344L1112.5 528.28C1109.09 528.976 1105.85 529.24 1102.78 529.264V517.288ZM1114.49 515.176V536.848H1116.96V515.176H1114.49ZM1124.47 519.232H1132.08V517.216H1122V531.544H1123.77C1127.69 531.544 1130.61 531.424 1133.9 530.824L1133.64 528.784C1130.61 529.312 1127.97 529.456 1124.47 529.48V519.232ZM1141.29 523.504H1137.91V515.152H1135.44V536.872H1137.91V525.544H1141.29V523.504ZM1145.56 535.312C1146.6 535.312 1147.41 534.52 1147.41 533.392C1147.41 532.24 1146.6 531.424 1145.56 531.424C1144.53 531.424 1143.72 532.24 1143.72 533.392C1143.72 534.52 1144.53 535.312 1145.56 535.312Z" fill="black"/>
<g filter="url(#filter2_d_20_55)">
<rect x="1331" y="185" width="368" height="221" fill="white"/>
</g>
<path d="M1429.25 354.92H1425.89V352.208H1429.25V354.92ZM1433.09 346.352H1429.25V349.28H1425.89V346.352H1422.05V357.944H1433.09V346.352ZM1428.5 359.648H1424.62V366.944H1440.1V363.896H1428.5V359.648ZM1439.42 350.864V344.768H1435.54V361.352H1439.42V354.008H1442.23V350.864H1439.42ZM1458.77 357.872H1462.65V344.768H1458.77V348.512H1455.09V351.608H1458.77V357.872ZM1457.35 354.32C1453.63 353.168 1452.57 350.432 1452.57 347.552V345.872H1448.61V347.744C1448.61 350.624 1447.39 353.672 1443.33 354.92L1445.35 358.016C1447.97 357.176 1449.67 355.544 1450.65 353.432C1451.59 355.232 1453.1 356.6 1455.38 357.344L1457.35 354.32ZM1454.93 364.352C1452.24 364.352 1450.97 363.92 1450.97 362.84C1450.97 361.784 1452.24 361.352 1454.93 361.352C1457.59 361.352 1458.86 361.784 1458.86 362.84C1458.86 363.92 1457.59 364.352 1454.93 364.352ZM1454.93 358.4C1450.1 358.4 1447.08 360.032 1447.08 362.84C1447.08 365.672 1450.1 367.304 1454.93 367.304C1459.73 367.304 1462.75 365.672 1462.75 362.84C1462.75 360.032 1459.73 358.4 1454.93 358.4ZM1477.75 357.512C1478.35 353.984 1478.35 351.416 1478.35 349.04V346.856H1466.61V349.904H1474.53C1474.53 351.968 1474.46 354.248 1473.98 357.176L1477.75 357.512ZM1473 353.312H1469.18V359.816C1467.88 359.84 1466.66 359.84 1465.53 359.84L1465.84 362.936C1469.73 362.936 1474.65 362.84 1479.14 362.048L1478.97 359.24C1477.08 359.48 1475.01 359.624 1473 359.72V353.312ZM1486.39 353.6H1483.68V344.744H1479.79V367.232H1483.68V356.768H1486.39V353.6ZM1508.41 357.872H1512.29V344.768H1508.41V348.512H1504.73V351.608H1508.41V357.872ZM1506.99 354.32C1503.27 353.168 1502.21 350.432 1502.21 347.552V345.872H1498.25V347.744C1498.25 350.624 1497.03 353.672 1492.97 354.92L1494.99 358.016C1497.61 357.176 1499.31 355.544 1500.29 353.432C1501.23 355.232 1502.74 356.6 1505.02 357.344L1506.99 354.32ZM1504.57 364.352C1501.88 364.352 1500.61 363.92 1500.61 362.84C1500.61 361.784 1501.88 361.352 1504.57 361.352C1507.23 361.352 1508.5 361.784 1508.5 362.84C1508.5 363.92 1507.23 364.352 1504.57 364.352ZM1504.57 358.4C1499.74 358.4 1496.72 360.032 1496.72 362.84C1496.72 365.672 1499.74 367.304 1504.57 367.304C1509.37 367.304 1512.39 365.672 1512.39 362.84C1512.39 360.032 1509.37 358.4 1504.57 358.4ZM1528.95 353.408C1525.54 352.736 1524.2 351.08 1523.98 349.472H1528.11V346.472H1523.96V344.696H1520.07V346.472H1515.94V349.472H1520.04C1519.85 351.248 1518.56 353.024 1515.05 353.744L1516.73 356.696C1519.37 356.144 1521.1 354.896 1522.08 353.24C1523.14 354.704 1524.82 355.832 1527.34 356.336L1528.95 353.408ZM1521.89 363.512H1533.22V357.152H1518.03V360.056H1529.38V360.824H1518.05V367.184H1533.8V364.28H1521.89V363.512ZM1533.22 348.992V344.768H1529.33V356.336H1533.22V352.112H1536V348.992H1533.22ZM1544.62 346.184C1541.09 346.184 1538.33 348.584 1538.33 351.848C1538.33 355.136 1541.09 357.536 1544.62 357.536C1548.17 357.536 1550.93 355.136 1550.93 351.848C1550.93 348.584 1548.17 346.184 1544.62 346.184ZM1544.62 349.472C1546.03 349.472 1547.14 350.264 1547.14 351.848C1547.14 353.456 1546.03 354.248 1544.62 354.248C1543.23 354.248 1542.12 353.456 1542.12 351.848C1542.12 350.264 1543.23 349.472 1544.62 349.472ZM1552.59 344.72V367.328H1556.47V344.72H1552.59ZM1537.95 362.96C1541.79 362.96 1546.95 362.888 1551.75 361.928L1551.48 359.168C1546.8 359.816 1541.4 359.864 1537.51 359.864L1537.95 362.96ZM1574.15 346.4H1570.24V349.232C1570.24 353.672 1568.84 358.04 1564.62 359.792L1566.9 363.008C1569.59 361.808 1571.27 359.6 1572.23 356.888C1573.21 359.36 1574.82 361.304 1577.32 362.408L1579.55 359.288C1575.42 357.56 1574.15 353.456 1574.15 349.232V346.4ZM1579.93 344.72V367.352H1583.82V344.72H1579.93ZM1587.8 346.4V349.448H1594.59C1594.07 352.184 1591.59 354.464 1586.79 355.712L1588.38 358.736C1595.24 356.888 1598.82 352.688 1598.82 346.4H1587.8ZM1593.97 359.096H1590.08V366.944H1605.56V363.896H1593.97V359.096ZM1604.91 350.744V344.744H1601.03V360.704H1604.91V353.888H1607.75V350.744H1604.91Z" fill="black"/>
<g clip-path="url(#clip1_20_55)">
<path d="M1533.41 267.351H1487.68L1486.92 257.342H1483.26L1487.32 310.664C1487.39 311.572 1487.8 312.419 1488.48 313.037C1489.15 313.655 1490.03 313.999 1490.94 314H1534.07C1534.99 313.995 1535.87 313.648 1536.54 313.028C1537.21 312.407 1537.63 311.558 1537.7 310.648L1541.76 257.342H1538.07L1534.03 310.327H1490.99L1490.05 298.083H1531.06L1533.41 267.351Z" fill="#333333"/>
<path d="M1543.68 253.669C1544.03 253.669 1544.36 253.53 1544.61 253.284C1544.86 253.037 1545 252.702 1545 252.353V246.858C1545 246.684 1544.97 246.512 1544.9 246.35C1544.84 246.189 1544.74 246.042 1544.62 245.918C1544.5 245.794 1544.35 245.696 1544.19 245.629C1544.03 245.562 1543.85 245.527 1543.68 245.527H1540.71L1538.97 237.201C1538.97 236.889 1538.85 236.589 1538.63 236.368C1538.41 236.147 1538.11 236.023 1537.79 236.023H1487.22C1487.07 236.021 1486.91 236.05 1486.77 236.108C1486.62 236.167 1486.49 236.254 1486.38 236.363C1486.27 236.473 1486.19 236.604 1486.13 236.748C1486.07 236.892 1486.04 237.046 1486.04 237.201L1484.3 245.527H1481.34C1480.98 245.527 1480.64 245.667 1480.39 245.917C1480.14 246.167 1480 246.505 1480 246.858V252.383C1480 252.734 1480.15 253.069 1480.4 253.315C1480.65 253.562 1480.99 253.7 1481.34 253.7L1543.68 253.669Z" fill="#333333"/>
<path d="M1524.1 228.034C1524.31 228.913 1524.71 229.738 1525.26 230.453C1525.82 231.168 1526.52 231.757 1527.32 232.181C1527.43 232.209 1527.54 232.209 1527.65 232.181C1527.76 232.184 1527.87 232.16 1527.98 232.109C1528.08 232.058 1528.17 231.983 1528.23 231.891C1528.34 231.76 1528.4 231.595 1528.4 231.424C1528.4 231.253 1528.34 231.087 1528.23 230.957C1527.61 230.156 1527.33 229.145 1527.45 228.141C1527.65 226.488 1529.18 224.682 1531.72 223.014C1535.72 220.473 1535.96 217.627 1535.49 215.652C1534.46 211.597 1529.23 208.184 1526.26 208C1526.09 207.99 1525.93 208.037 1525.79 208.134C1525.65 208.231 1525.54 208.373 1525.5 208.536C1525.45 208.701 1525.47 208.876 1525.54 209.031C1525.61 209.187 1525.73 209.315 1525.88 209.393C1526.71 209.806 1527.45 210.385 1528.05 211.093C1528.64 211.801 1529.09 212.623 1529.35 213.51C1529.77 215.438 1528.98 217.611 1527.03 219.968C1524.57 222.922 1523.57 225.646 1524.1 228.034Z" fill="#333333"/>
</g>
<path d="M1372.01 459.232H1379.61V457.216H1369.53V471.544H1371.31C1375.22 471.544 1378.15 471.424 1381.44 470.824L1381.17 468.784C1378.15 469.312 1375.51 469.456 1372.01 469.48V459.232ZM1388.83 463.504H1385.45V455.152H1382.97V476.872H1385.45V465.544H1388.83V463.504ZM1405.46 459.664H1393.22V465.352H1408.34V463.456H1395.64V461.44H1407.91V455.8H1393.17V457.696H1405.46V459.664ZM1395.72 470.536H1393.24V476.44H1408.39V474.424H1395.72V470.536ZM1390.7 467.056V469.048H1410.38V467.056H1390.7ZM1425.8 456.976H1423.33V460.528C1423.33 464.536 1421.22 468.64 1417.83 470.296L1419.34 472.288C1421.82 471.016 1423.64 468.496 1424.58 465.496C1425.51 468.328 1427.24 470.68 1429.57 471.88L1431.08 469.912C1427.82 468.304 1425.8 464.392 1425.8 460.528V456.976ZM1438.38 463.768H1434.99V455.176H1432.52V476.848H1434.99V465.808H1438.38V463.768ZM1452.89 464.416C1449.92 464.968 1447.3 465.088 1443.58 465.112V462.544H1450.95V456.304H1441.11V458.32H1448.5V460.648H1441.16V467.128H1442.91C1447.06 467.128 1449.89 467.008 1453.16 466.432L1452.89 464.416ZM1445.79 471.04H1454.79V474.616H1445.79V471.04ZM1443.37 476.584H1457.21V469.096H1443.37V476.584ZM1460.29 460.552H1457.21V455.2H1454.74V468.088H1457.21V462.592H1460.29V460.552ZM1472.16 457.84C1475.33 457.84 1477.32 458.728 1477.32 460.24C1477.32 461.776 1475.33 462.664 1472.16 462.664C1468.97 462.664 1466.98 461.776 1466.98 460.24C1466.98 458.728 1468.97 457.84 1472.16 457.84ZM1472.16 464.656C1476.84 464.656 1479.89 463 1479.89 460.24C1479.89 457.504 1476.84 455.848 1472.16 455.848C1467.48 455.848 1464.44 457.504 1464.44 460.24C1464.44 463 1467.48 464.656 1472.16 464.656ZM1467.32 470.128H1464.82V476.44H1479.77V474.424H1467.32V470.128ZM1462.35 466.408V468.424H1481.96V466.408H1462.35ZM1495.67 469.84C1493.83 469.84 1492.55 467.824 1492.55 464.392C1492.55 461.032 1493.83 458.992 1495.67 458.992C1497.55 458.992 1498.82 461.032 1498.82 464.392C1498.82 467.824 1497.55 469.84 1495.67 469.84ZM1505.35 455.152V463.24H1501.12C1500.79 459.256 1498.58 456.76 1495.67 456.76C1492.48 456.76 1490.2 459.736 1490.2 464.392C1490.2 469.096 1492.48 472.048 1495.67 472.048C1498.65 472.048 1500.86 469.456 1501.15 465.256H1505.35V476.896H1507.84V455.152H1505.35ZM1524.23 459.544V461.416H1527.64V466.72H1530.11V455.176H1527.64V459.544H1524.23ZM1525.72 462.88C1524.35 463.192 1523.18 463.288 1521.45 463.312V458.104H1525.05V456.16H1519.02V465.256H1520.13C1522.74 465.256 1524.16 465.208 1525.91 464.824L1525.72 462.88ZM1518.14 462.904C1516.94 463.168 1515.83 463.264 1514.8 463.288V458.104H1517.9V456.16H1512.35V465.256H1513.36C1514.94 465.256 1516.46 465.232 1518.33 464.848L1518.14 462.904ZM1522.58 475.168C1520.3 475.168 1518.98 474.712 1518.98 473.8C1518.98 472.864 1520.3 472.408 1522.58 472.408C1524.86 472.408 1526.18 472.864 1526.18 473.8C1526.18 474.712 1524.86 475.168 1522.58 475.168ZM1522.58 470.704C1518.66 470.704 1516.36 471.808 1516.36 473.8C1516.36 475.792 1518.66 476.872 1522.58 476.872C1526.51 476.872 1528.79 475.792 1528.79 473.8C1528.79 471.808 1526.51 470.704 1522.58 470.704ZM1523.85 467.968V466.072H1521.35V467.968H1514.78V469.864H1530.42V467.968H1523.85ZM1545.61 463.792H1542.42C1543.05 461.944 1543.33 459.952 1543.33 457.84H1534.91V459.832H1540.89C1540.53 464.272 1538.39 467.824 1533.88 470.512L1535.29 472.264C1538.29 470.464 1540.36 468.28 1541.63 465.784H1545.61V475.816H1547.94V455.704H1545.61V463.792ZM1550.15 455.176V476.848H1552.53V455.176H1550.15ZM1581.07 465.76H1578.05C1578.6 462.688 1578.6 460.432 1578.6 458.392V456.496H1563.82V458.488H1576.18C1576.18 460.48 1576.18 462.736 1575.55 465.76H1561.47V467.8H1569.94V476.848H1572.43V467.8H1581.07V465.76ZM1599.02 471.712H1601.5V455.176H1599.02V460.768H1595.71V462.784H1599.02V465.376H1595.71V467.368H1599.02V471.712ZM1595.62 457.648H1590.94V455.152H1588.46V457.648H1583.59V459.616H1595.62V457.648ZM1587.05 464.824C1587.05 463.432 1588.13 462.544 1589.69 462.544C1591.27 462.544 1592.35 463.432 1592.35 464.824C1592.35 466.24 1591.27 467.08 1589.69 467.08C1588.13 467.08 1587.05 466.24 1587.05 464.824ZM1594.68 464.824C1594.68 462.304 1592.64 460.624 1589.69 460.624C1586.76 460.624 1584.72 462.304 1584.72 464.824C1584.72 467.32 1586.76 469.024 1589.69 469.024C1592.64 469.024 1594.68 467.32 1594.68 464.824ZM1589.88 474.424V470.32H1587.38V476.44H1602V474.424H1589.88ZM1619.4 462.976H1621.61V468.568H1623.96V455.2H1621.61V460.96H1619.4V455.512H1617.07V468.28H1619.4V462.976ZM1616.3 457.504H1612.13V455.296H1609.7V457.504H1605.5V459.448H1616.3V457.504ZM1610.93 462.136C1612.39 462.136 1613.37 462.88 1613.37 464.056C1613.37 465.256 1612.39 466 1610.93 466C1609.46 466 1608.5 465.256 1608.5 464.056C1608.5 462.88 1609.46 462.136 1610.93 462.136ZM1610.93 467.8C1613.66 467.8 1615.58 466.312 1615.58 464.056C1615.58 461.848 1613.66 460.336 1610.93 460.336C1608.21 460.336 1606.29 461.848 1606.29 464.056C1606.29 466.312 1608.21 467.8 1610.93 467.8ZM1621.46 469.24H1619.04V469.84C1619.04 471.376 1618.13 473.272 1616.23 474.472C1614.38 473.344 1613.52 471.568 1613.52 469.84V469.24H1611.12V469.84C1611.12 471.784 1609.65 473.896 1606.92 474.76L1608.09 476.584C1610.11 475.888 1611.5 474.544 1612.29 472.936C1612.97 474.592 1614.24 476.056 1616.28 476.8C1618.25 476.008 1619.52 474.496 1620.21 472.84C1620.93 474.544 1622.37 475.888 1624.49 476.584L1625.66 474.76C1622.9 473.944 1621.46 471.928 1621.46 469.84V469.24ZM1630.92 457.288H1628.44V471.448H1630.24C1633.51 471.448 1636.87 471.208 1640.54 470.488L1640.25 468.448C1636.96 469.12 1633.84 469.36 1630.92 469.384V457.288ZM1647.76 463.624H1644.48V455.176H1642V476.848H1644.48V465.664H1647.76V463.624ZM1385.54 499.84C1383.69 499.84 1382.42 497.824 1382.42 494.392C1382.42 491.032 1383.69 488.992 1385.54 488.992C1387.41 488.992 1388.68 491.032 1388.68 494.392C1388.68 497.824 1387.41 499.84 1385.54 499.84ZM1395.21 485.152V493.24H1390.99C1390.65 489.256 1388.44 486.76 1385.54 486.76C1382.35 486.76 1380.07 489.736 1380.07 494.392C1380.07 499.096 1382.35 502.048 1385.54 502.048C1388.52 502.048 1390.72 499.456 1391.01 495.256H1395.21V506.896H1397.71V485.152H1395.21ZM1414.05 491.032V493.024H1417.51V500.92H1419.98V485.2H1417.51V491.032H1414.05ZM1415.59 495.208C1414.27 495.52 1413.09 495.616 1411.36 495.64V488.896H1414.94V486.928H1408.91V497.656H1410.04C1412.63 497.656 1414.05 497.608 1415.8 497.2L1415.59 495.208ZM1408 495.232C1406.8 495.472 1405.72 495.568 1404.67 495.616V488.896H1407.81V486.928H1402.22V497.656H1403.23C1404.88 497.656 1406.37 497.632 1408.22 497.248L1408 495.232ZM1407.74 504.424V499.624H1405.27V506.44H1420.51V504.424H1407.74ZM1442.96 492.76H1445.24V498.496H1447.59V485.2H1445.24V490.744H1442.96V485.584H1440.63V497.8H1442.96V492.76ZM1440.13 495.112C1437.32 494.008 1435.9 491.632 1435.9 489.232V486.496H1433.5V489.232C1433.5 491.704 1432.04 494.416 1429.14 495.736L1430.43 497.632C1432.52 496.72 1433.94 495.04 1434.73 493.048C1435.54 494.776 1436.89 496.216 1438.81 496.96L1440.13 495.112ZM1440.37 504.952C1437.32 504.952 1435.5 504.208 1435.5 502.888C1435.5 501.544 1437.32 500.8 1440.37 500.8C1443.42 500.8 1445.24 501.544 1445.24 502.888C1445.24 504.208 1443.42 504.952 1440.37 504.952ZM1440.37 498.904C1435.86 498.904 1433.02 500.392 1433.02 502.888C1433.02 505.36 1435.86 506.848 1440.37 506.848C1444.88 506.848 1447.71 505.36 1447.71 502.888C1447.71 500.392 1444.88 498.904 1440.37 498.904ZM1452.2 486.472V488.464H1459.66C1459.23 491.776 1456.25 494.464 1451.17 495.76L1452.17 497.704C1458.56 496 1462.28 492.088 1462.28 486.472H1452.2ZM1454 500.776H1465.78V506.872H1468.25V498.784H1454V500.776ZM1471.33 490.48H1468.25V485.152H1465.78V497.824H1468.25V492.52H1471.33V490.48ZM1483.2 486.4C1478.67 486.4 1475.24 488.848 1475.24 492.52C1475.24 496.216 1478.67 498.64 1483.2 498.64C1487.72 498.64 1491.17 496.216 1491.17 492.52C1491.17 488.848 1487.72 486.4 1483.2 486.4ZM1483.2 488.44C1486.4 488.44 1488.77 490.024 1488.77 492.52C1488.77 495.016 1486.4 496.6 1483.2 496.6C1479.99 496.6 1477.64 495.016 1477.64 492.52C1477.64 490.024 1479.99 488.44 1483.2 488.44ZM1473.41 502.072V504.112H1493.04V502.072H1473.41ZM1506.51 502.264V498.568H1513.27V496.576H1500.29V493.552H1512.79V486.688H1497.82V488.68H1510.35V491.584H1497.87V498.568H1504.03V502.264H1495.49V504.304H1515.12V502.264H1506.51ZM1533.97 502.264V498.568H1540.74V496.576H1527.76V493.552H1540.26V486.688H1525.29V488.68H1537.81V491.584H1525.33V498.568H1531.5V502.264H1522.96V504.304H1542.59V502.264H1533.97ZM1558.4 495.472C1555.07 494.392 1553.1 491.728 1553.1 488.968V488.56H1557.73V486.568H1545.88V488.56H1550.58V488.968C1550.58 491.896 1548.64 494.704 1545.2 495.856L1546.5 497.8C1549.09 496.888 1550.92 495.088 1551.88 492.784C1552.84 494.92 1554.66 496.6 1557.16 497.392L1558.4 495.472ZM1548.28 501.328H1560.42V506.848H1562.89V499.336H1548.28V501.328ZM1560.42 485.152V498.256H1562.89V485.152H1560.42ZM1576.91 487.36C1580.27 487.36 1582.07 488.008 1582.07 489.256C1582.07 490.48 1580.27 491.128 1576.91 491.128C1573.55 491.128 1571.75 490.48 1571.75 489.256C1571.75 488.008 1573.55 487.36 1576.91 487.36ZM1576.91 492.976C1581.75 492.976 1584.63 491.656 1584.63 489.256C1584.63 486.832 1581.75 485.512 1576.91 485.512C1572.03 485.512 1569.18 486.832 1569.18 489.256C1569.18 491.656 1572.03 492.976 1576.91 492.976ZM1571.91 502.96H1584.25V497.776H1569.42V499.648H1581.83V501.208H1569.47V506.656H1584.87V504.76H1571.91V502.96ZM1567.09 494.248V496.216H1586.72V494.248H1567.09ZM1595.54 497.032C1597.13 496.168 1598.14 494.752 1598.74 493.12C1599.22 494.752 1600.08 496.312 1601.64 497.248C1603.2 496.288 1604.09 494.752 1604.57 493.096C1605.14 494.728 1606.13 496.168 1607.74 497.032L1609.01 495.256C1606.56 493.96 1605.72 491.248 1605.72 488.944V488.608H1608.14V486.592H1602.07V488.608H1603.37V488.944C1603.37 490.648 1603.03 492.832 1601.66 494.416C1600.25 492.808 1599.91 490.6 1599.91 488.944V488.608H1601.26V486.592H1595.04V488.608H1597.58V488.944C1597.58 491.2 1596.72 493.936 1594.27 495.256L1595.54 497.032ZM1610.02 498.496H1607.59V499.336C1607.59 500.992 1606.73 503.032 1604.86 504.352C1602.98 503.08 1602.14 501.04 1602.14 499.336V498.496H1599.74V499.336C1599.74 501.448 1598.28 503.752 1595.52 504.784L1596.74 506.584C1598.78 505.816 1600.15 504.376 1600.94 502.648C1601.62 504.4 1602.89 505.96 1604.86 506.776C1606.85 505.96 1608.1 504.352 1608.77 502.6C1609.54 504.376 1610.93 505.84 1613.02 506.584L1614.24 504.784C1611.46 503.776 1610.02 501.544 1610.02 499.336V498.496ZM1612.03 490.336V485.152H1609.56V497.632H1612.03V492.376H1614.5V490.336H1612.03ZM1619.88 487.288H1617.41V501.448H1619.21C1622.47 501.448 1625.83 501.208 1629.5 500.488L1629.21 498.448C1625.93 499.12 1622.81 499.36 1619.88 499.384V487.288ZM1636.73 493.624H1633.44V485.176H1630.97V506.848H1633.44V495.664H1636.73V493.624ZM1353.14 517.312H1347.98V515.008H1345.51V517.312H1340.35V519.28H1353.14V517.312ZM1343.85 524.056C1343.85 522.808 1345 522.04 1346.73 522.04C1348.46 522.04 1349.63 522.808 1349.63 524.056C1349.63 525.328 1348.46 526.096 1346.73 526.096C1345 526.096 1343.85 525.328 1343.85 524.056ZM1351.99 524.056C1351.99 521.728 1349.87 520.168 1346.73 520.168C1343.61 520.168 1341.47 521.728 1341.47 524.056C1341.47 526.408 1343.61 527.944 1346.73 527.944C1349.87 527.944 1351.99 526.408 1351.99 524.056ZM1345.84 531.28H1354.82V534.616H1345.84V531.28ZM1343.39 536.584H1357.24V529.336H1343.39V536.584ZM1360.31 520.744H1357.24V515.176H1354.77V528.232H1357.24V522.784H1360.31V520.744ZM1362.83 517.696V519.712H1365.59C1365.42 523.84 1364.73 527.488 1362.28 530.896L1364.18 531.976C1367.1 527.704 1367.68 522.712 1367.68 517.696H1362.83ZM1374.57 523.504H1372.22C1372.43 521.536 1372.48 519.568 1372.48 517.696H1368.38V519.712H1370.37C1370.3 523.936 1369.79 528.328 1367.08 532.144L1369 533.224C1370.61 530.848 1371.47 528.208 1371.95 525.52H1374.57V535.792H1376.9V515.68H1374.57V523.504ZM1378.67 515.152V536.872H1381.02V515.152H1378.67ZM1396.85 516.688C1393.47 516.688 1390.97 518.824 1390.97 521.896C1390.97 524.968 1393.47 527.104 1396.85 527.104C1400.24 527.104 1402.76 524.968 1402.76 521.896C1402.76 518.824 1400.24 516.688 1396.85 516.688ZM1396.85 518.8C1398.87 518.8 1400.33 520 1400.33 521.896C1400.33 523.768 1398.87 524.992 1396.85 524.992C1394.86 524.992 1393.4 523.768 1393.4 521.896C1393.4 520 1394.86 518.8 1396.85 518.8ZM1405.2 515.152V536.872H1407.7V515.152H1405.2ZM1390.28 532.288C1394.12 532.288 1399.3 532.24 1404.08 531.328L1403.91 529.528C1399.25 530.224 1393.85 530.248 1389.96 530.248L1390.28 532.288ZM1427.43 521.512V524.368H1422.1V526.384H1427.43V531.256H1429.9V515.176H1427.43V519.496H1423.08C1423.27 518.656 1423.37 517.792 1423.37 516.856H1413.39V518.848H1420.71C1420.25 522.424 1417.06 525.304 1412.26 526.816L1413.31 528.808C1417.68 527.392 1420.9 524.872 1422.41 521.512H1427.43ZM1418.47 534.424V529.672H1416V536.44H1430.45V534.424H1418.47ZM1443.82 517.36C1447.18 517.36 1448.98 518.008 1448.98 519.256C1448.98 520.48 1447.18 521.128 1443.82 521.128C1440.46 521.128 1438.66 520.48 1438.66 519.256C1438.66 518.008 1440.46 517.36 1443.82 517.36ZM1443.82 522.976C1448.66 522.976 1451.54 521.656 1451.54 519.256C1451.54 516.832 1448.66 515.512 1443.82 515.512C1438.94 515.512 1436.09 516.832 1436.09 519.256C1436.09 521.656 1438.94 522.976 1443.82 522.976ZM1438.82 532.96H1451.16V527.776H1436.33V529.648H1448.74V531.208H1436.38V536.656H1451.78V534.76H1438.82V532.96ZM1434 524.248V526.216H1453.63V524.248H1434ZM1464.71 517.288H1462.24V531.448H1464.04C1467.3 531.448 1470.66 531.208 1474.33 530.488L1474.05 528.448C1470.76 529.12 1467.64 529.36 1464.71 529.384V517.288ZM1481.56 523.624H1478.27V515.176H1475.8V536.848H1478.27V525.664H1481.56V523.624ZM1501.02 522.208H1488.52V516.184H1486.04V524.2H1501.02V522.208ZM1503.2 527.104H1483.55V529.144H1492.04V536.872H1494.54V529.144H1503.2V527.104ZM1523.05 521.392H1510.64V515.944H1508.17V523.408H1523.05V521.392ZM1510.5 529.984H1508.03V536.368H1523.17V534.376H1510.5V529.984ZM1505.63 526V527.992H1525.31V526H1505.63ZM1548.6 529.72H1551.07V515.176H1548.6V521.104H1544.33V523.144H1548.6V529.72ZM1534.49 516.856V518.848H1541.59C1541.18 522.328 1538.42 525.064 1533.43 526.624L1534.46 528.544C1540.8 526.528 1544.23 522.592 1544.23 516.856H1534.49ZM1545.17 527.992H1542.69V528.832C1542.69 531.688 1539.84 534.136 1535.66 534.856L1536.62 536.8C1539.96 536.2 1542.62 534.544 1543.94 532.216C1545.24 534.52 1547.88 536.152 1551.19 536.752L1552.17 534.808C1548 534.112 1545.17 531.664 1545.17 528.832V527.992ZM1566.21 532.216V527.104H1572.62V525.112H1560.07V518.8H1572.43V516.808H1557.6V527.104H1563.74V532.216H1555.2V534.256H1574.83V532.216H1566.21ZM1584.37 522.928C1588.26 522.616 1591.31 521.224 1592.46 519.136C1593.61 521.224 1596.66 522.616 1600.52 522.928L1601.31 521.056C1597.4 520.768 1594.59 519.4 1594.16 517.696H1600.47V515.8H1584.44V517.696H1590.73C1590.3 519.4 1587.49 520.768 1583.6 521.056L1584.37 522.928ZM1592.43 535.288C1589.82 535.288 1588.43 534.904 1588.43 534.088C1588.43 533.272 1589.82 532.888 1592.43 532.888C1595.05 532.888 1596.44 533.272 1596.44 534.088C1596.44 534.904 1595.05 535.288 1592.43 535.288ZM1592.43 531.232C1588.23 531.232 1585.86 532.192 1585.86 534.088C1585.86 535.984 1588.23 536.944 1592.43 536.944C1596.61 536.944 1598.99 535.984 1598.99 534.088C1598.99 532.192 1596.61 531.232 1592.43 531.232ZM1593.68 526.672H1591.19V528.472H1584.44V530.368H1600.45V528.472H1593.68V526.672ZM1593.66 523.936V521.632H1591.19V523.936H1582.64V525.904H1602.3V523.936H1593.66ZM1623.3 521.656C1619 521.104 1615.81 518.728 1615.81 516.232V515.392H1613.26V516.232C1613.26 518.752 1610.12 521.104 1605.78 521.656L1606.69 523.576C1610.22 523.096 1613.14 521.464 1614.54 519.208C1615.95 521.464 1618.88 523.096 1622.41 523.576L1623.3 521.656ZM1619.36 534.616H1609.59V532.288H1619.36V534.616ZM1619.36 530.392H1609.59V528.184H1607.14V536.584H1621.83V528.184H1619.36V530.392ZM1604.72 524.872V526.84H1624.35V524.872H1604.72ZM1630.54 517.288H1628.09V531.376H1629.94C1633.3 531.376 1636.81 531.112 1640.53 530.344L1640.26 528.28C1636.85 528.976 1633.61 529.24 1630.54 529.264V517.288ZM1642.25 515.176V536.848H1644.73V515.176H1642.25ZM1652.24 519.232H1659.84V517.216H1649.76V531.544H1651.54C1655.45 531.544 1658.38 531.424 1661.67 530.824L1661.4 528.784C1658.38 529.312 1655.74 529.456 1652.24 529.48V519.232ZM1669.06 523.504H1665.68V515.152H1663.2V536.872H1665.68V525.544H1669.06V523.504ZM1673.33 535.312C1674.36 535.312 1675.18 534.52 1675.18 533.392C1675.18 532.24 1674.36 531.424 1673.33 531.424C1672.3 531.424 1671.48 532.24 1671.48 533.392C1671.48 534.52 1672.3 535.312 1673.33 535.312Z" fill="black"/>
<path d="M685.888 755V761.192H699.616C698.368 770.744 693.136 777.128 683.2 782.312L687.52 788.168C702.736 780.488 707.488 768.92 707.488 755H685.888ZM725.488 767.096H719.68V750.44H711.904V795.464H719.68V773.432H725.488V767.096ZM755.436 770.168C748.572 768.2 746.028 763.88 745.548 759.464H753.708V753.368H729.228V759.464H737.532C737.1 764.36 734.412 769.496 727.26 771.8L731.148 777.896C736.38 776.264 739.788 772.904 741.756 768.776C743.724 772.136 746.892 774.824 751.74 776.216L755.436 770.168ZM748.956 789.704C743.772 789.704 741.228 788.792 741.228 786.584C741.228 784.376 743.772 783.512 748.956 783.512C754.188 783.512 756.732 784.376 756.732 786.584C756.732 788.792 754.188 789.704 748.956 789.704ZM748.956 777.56C739.548 777.56 733.5 780.92 733.5 786.584C733.5 792.248 739.548 795.608 748.956 795.608C758.412 795.608 764.46 792.248 764.46 786.584C764.46 780.92 758.412 777.56 748.956 777.56ZM763.932 760.28V750.536H756.156V776.984H763.932V766.568H769.548V760.28H763.932ZM807.585 784.52V776.216H819.969V770.12H795.633V759.464H819.681V753.368H787.857V776.216H799.809V784.52H783.345V790.76H824.145V784.52H807.585ZM847.853 756.872C853.469 756.872 856.397 757.736 856.397 759.8C856.397 761.864 853.469 762.776 847.853 762.776C842.285 762.776 839.309 761.864 839.309 759.8C839.309 757.736 842.285 756.872 847.853 756.872ZM847.853 768.584C857.837 768.584 864.413 765.272 864.413 759.8C864.413 754.376 857.837 751.016 847.853 751.016C837.869 751.016 831.293 754.376 831.293 759.8C831.293 765.272 837.869 768.584 847.853 768.584ZM855.773 789.08H839.693V785.528H855.773V789.08ZM868.205 776.312V770.264H827.453V776.312H843.965V779.528H832.061V795.08H863.405V779.528H851.741V776.312H868.205ZM901.514 750.392V795.704H909.29V750.392H901.514ZM884.762 753.416C877.85 753.416 872.714 759.656 872.714 769.736C872.714 779.816 877.85 786.056 884.762 786.056C891.674 786.056 896.81 779.816 896.81 769.736C896.81 759.656 891.674 753.416 884.762 753.416ZM884.762 760.472C887.546 760.472 889.37 763.4 889.37 769.736C889.37 776.072 887.546 779 884.762 779C881.978 779 880.154 776.072 880.154 769.736C880.154 763.4 881.978 760.472 884.762 760.472ZM945.359 774.2H953.375V768.104H937.295V760.424H953.087V754.328H929.519V774.2H937.583V781.016C933.887 781.064 930.239 781.064 926.927 781.064L927.791 787.256C936.095 787.304 945.791 787.256 955.391 785.72L954.863 780.104C951.791 780.44 948.623 780.68 945.359 780.824V774.2ZM957.071 750.44V795.656H964.847V750.44H957.071ZM1007.27 761.912H983.419V752.072H975.643V768.008H1007.27V761.912ZM982.987 781.112H975.211V794.648H1007.56V788.552H982.987V781.112ZM970.939 771.944V778.04H1011.74V771.944H970.939ZM1052.46 753.992H1043.1V750.248H1035.33V753.992H1025.97V759.992H1052.46V753.992ZM1035.42 769.352C1035.42 767.528 1036.96 766.76 1039.22 766.76C1041.47 766.76 1043.01 767.528 1043.01 769.352C1043.01 771.176 1041.47 771.944 1039.22 771.944C1036.96 771.944 1035.42 771.176 1035.42 769.352ZM1050.45 769.352C1050.45 764.408 1045.74 760.952 1039.22 760.952C1032.69 760.952 1027.98 764.408 1027.98 769.352C1027.98 774.296 1032.69 777.752 1039.22 777.752C1045.74 777.752 1050.45 774.296 1050.45 769.352ZM1031.3 786.44H1054V795.56H1061.78V780.344H1031.3V786.44ZM1067.39 761.672H1061.78V750.488H1054V778.808H1061.78V767.96H1067.39V761.672ZM1109.15 762.344C1097.82 761.144 1094.56 756.008 1094.56 752.024V751.016H1086.59V752.024C1086.59 756.008 1083.32 761.144 1072 762.344L1074.73 768.344C1082.6 767.384 1087.79 764.456 1090.57 760.52C1093.36 764.456 1098.54 767.384 1106.41 768.344L1109.15 762.344ZM1098.25 789.128H1082.41V786.248H1098.25V789.128ZM1098.25 780.488H1082.41V777.464H1074.73V795.08H1105.93V777.464H1098.25V780.488ZM1070.17 769.688V775.736H1110.97V769.688H1070.17ZM1140.71 768.776H1133.99V764.216H1140.71V768.776ZM1148.39 753.416H1140.71V758.36H1133.99V753.416H1126.31V774.776H1148.39V753.416ZM1146.13 789.704C1140.9 789.704 1138.35 788.84 1138.35 786.632C1138.35 784.472 1140.9 783.608 1146.13 783.608C1151.31 783.608 1153.86 784.472 1153.86 786.632C1153.86 788.84 1151.31 789.704 1146.13 789.704ZM1146.13 777.608C1136.67 777.608 1130.63 780.968 1130.63 786.632C1130.63 792.296 1136.67 795.656 1146.13 795.656C1155.54 795.656 1161.59 792.296 1161.59 786.632C1161.59 780.968 1155.54 777.608 1146.13 777.608ZM1161.06 760.568V750.536H1153.28V776.744H1161.06V766.856H1166.67V760.568H1161.06ZM1199.84 788.984H1184.72V786.056H1199.84V788.984ZM1199.84 780.2H1184.72V776.936H1177.04V795.032H1207.52V776.936H1199.84V780.2ZM1185.44 767.96H1178.86V763.64H1185.44V767.96ZM1199.74 750.536V760.376H1193.02V752.792H1185.44V757.784H1178.86V752.744H1171.18V774.056H1193.02V766.52H1199.74V775.208H1207.52V750.536H1199.74ZM1220.38 778.04H1227.82C1227.19 771.704 1235.4 769.736 1235.4 763.064C1235.4 756.392 1230.79 753.56 1224.79 753.56C1220.47 753.56 1216.83 755.576 1214.19 758.6L1218.89 762.92C1220.38 761.432 1221.77 760.424 1223.74 760.424C1225.71 760.424 1227.19 761.48 1227.19 763.64C1227.19 767.576 1219.23 770.648 1220.38 778.04ZM1224.07 791.672C1227 791.672 1229.16 789.32 1229.16 786.344C1229.16 783.368 1227 781.064 1224.07 781.064C1221.1 781.064 1218.99 783.368 1218.99 786.344C1218.99 789.32 1221.1 791.672 1224.07 791.672Z" fill="#BDBDBD"/>
<path d="M531.092 835.24H523.364V864.952H526.628C530.996 864.952 536.18 864.76 541.94 863.752L541.268 857.176C537.572 857.848 534.212 858.136 531.092 858.28V835.24ZM553.268 830.488V847.336H550.484V831.208H543.284V873.496H550.484V853.48H553.268V875.512H560.612V830.488H553.268ZM567.857 835V841.192H581.585C580.337 850.744 575.105 857.128 565.169 862.312L569.489 868.168C584.705 860.488 589.457 848.92 589.457 835H567.857ZM607.457 847.096H601.649V830.44H593.873V875.464H601.649V853.432H607.457V847.096ZM636.374 850.216H629.75V840.04H636.374V850.216ZM644.006 833.992H622.118V856.264H644.006V833.992ZM635.03 860.008H627.254V874.888H658.214V868.792H635.03V860.008ZM656.87 843.112V830.488H649.094V863.272H656.87V849.4H662.486V843.112H656.87ZM701.362 839.464H677.842V837.112H701.026V831.064H670.114V845.464H701.362V839.464ZM677.506 867.736H701.266V855.064H669.778V860.824H693.586V862.36H669.826V875.272H702.37V869.416H677.506V867.736ZM665.362 847.24V853.288H706.162V847.24H665.362ZM721.95 859C719.214 859 717.486 856.072 717.486 849.688C717.486 843.4 719.214 840.472 721.95 840.472C724.686 840.472 726.414 843.4 726.414 849.688C726.414 856.072 724.686 859 721.95 859ZM739.902 830.392V846.184H733.614C732.558 838.216 727.95 833.416 721.95 833.416C715.134 833.416 710.094 839.656 710.094 849.688C710.094 859.816 715.134 866.056 721.95 866.056C728.19 866.056 732.894 860.872 733.71 852.376H739.902V875.704H747.678V830.392H739.902ZM765.338 845.512H782.522V850.744H765.338V845.512ZM777.866 864.376V856.84H790.202V833.176H782.522V839.512H765.338V833.176H757.658V856.84H770.09V864.376H753.626V870.568H794.378V864.376H777.866ZM833.303 860.152C835.175 850.264 835.175 843.784 835.175 838.168V833.944H801.863V840.04H827.399C827.399 845.08 827.207 851.176 825.575 859.336L833.303 860.152ZM819.191 864.376V849.208H811.415V864.376H797.783V870.568H838.583V864.376H819.191ZM890.588 830.536H882.812V855.496H890.588V830.536ZM880.748 848.296C873.068 846.232 870.716 841.192 870.716 836.344V832.072H862.796V836.344C862.796 841.288 860.3 846.712 852.332 848.968L856.076 855.064C861.356 853.624 864.764 850.552 866.78 846.664C868.796 850.216 872.06 852.952 877.052 854.296L880.748 848.296ZM872.252 863.176H878.348V869.08H872.252V863.176ZM885.98 869.08V863.176H890.732V857.176H859.772V863.176H864.62V869.08H859.34V875.08H891.212V869.08H885.98ZM917.416 837.784C922.888 837.784 925.96 838.84 925.96 841.144C925.96 843.496 922.888 844.504 917.416 844.504C911.944 844.504 908.872 843.496 908.872 841.144C908.872 838.84 911.944 837.784 917.416 837.784ZM917.416 850.6C927.304 850.6 933.976 847 933.976 841.144C933.976 835.336 927.304 831.736 917.416 831.736C907.528 831.736 900.856 835.336 900.856 841.144C900.856 847 907.528 850.6 917.416 850.6ZM909.544 861.688H901.768V874.888H933.208V868.792H909.544V861.688ZM897.016 853.096V859.192H937.816V853.096H897.016ZM982.429 860.056H990.205V830.44H982.429V842.008H975.757V848.2H982.429V860.056ZM955.021 833.8V839.896H967.117C966.253 845.56 962.317 849.88 952.621 852.712L955.789 858.664C969.709 854.392 975.421 846.472 975.421 833.8H955.021ZM978.541 857.032H970.813V858.232C970.813 862.552 967.645 867.88 957.277 869.368L960.253 875.416C967.309 874.36 972.013 871.384 974.701 867.544C977.293 871.384 981.949 874.312 989.053 875.368L992.077 869.368C981.661 867.88 978.541 862.552 978.541 858.232V857.032ZM1016.7 836.68C1022.75 836.68 1025.19 837.208 1025.19 838.696C1025.19 840.232 1022.75 840.712 1016.7 840.712C1010.65 840.712 1008.2 840.232 1008.2 838.696C1008.2 837.208 1010.65 836.68 1016.7 836.68ZM1016.7 846.328C1027.11 846.328 1033.26 843.64 1033.26 838.696C1033.26 833.752 1027.11 831.064 1016.7 831.064C1006.28 831.064 1000.14 833.752 1000.14 838.696C1000.14 843.64 1006.28 846.328 1016.7 846.328ZM1008.54 868.12H1032.3V855.784H1000.81V861.448H1024.62V862.84H1000.86V875.368H1033.4V869.608H1008.54V868.12ZM996.297 847.912V853.912H1037.1V847.912H996.297ZM1079.84 850.408C1072.88 848.2 1070.24 843.496 1069.76 838.936H1077.87V832.888H1053.44V838.936H1061.74C1061.31 843.784 1058.57 848.872 1051.33 851.08L1055.31 857.128C1060.49 855.544 1063.85 852.328 1065.82 848.296C1067.84 851.992 1071.05 854.92 1075.9 856.36L1079.84 850.408ZM1058.09 865.48H1081.37V875.608H1089.15V859.432H1058.09V865.48ZM1081.37 830.488V857.656H1089.15V830.488H1081.37ZM1123.08 849.304C1116.65 847.192 1114.01 842.776 1113.43 838.312H1121.4V832.216H1097.16V838.312H1105.27C1104.7 843.064 1101.96 847.816 1095.1 849.976L1098.99 856.12C1104.17 854.44 1107.48 851.224 1109.5 847.192C1111.37 850.84 1114.49 853.816 1119.29 855.304L1123.08 849.304ZM1125.96 868.984H1110.84V866.056H1125.96V868.984ZM1125.96 860.2H1110.84V856.84H1103.16V875.08H1133.64V856.84H1125.96V860.2ZM1125.87 830.536V840.136H1120.15V846.328H1125.87V855.208H1133.64V830.536H1125.87ZM1165.97 850.216H1159.34V840.04H1165.97V850.216ZM1173.6 833.992H1151.71V856.264H1173.6V833.992ZM1164.62 860.008H1156.85V874.888H1187.81V868.792H1164.62V860.008ZM1186.46 843.112V830.488H1178.69V863.272H1186.46V849.4H1192.08V843.112H1186.46ZM1230.96 839.464H1207.44V837.112H1230.62V831.064H1199.71V845.464H1230.96V839.464ZM1207.1 867.736H1230.86V855.064H1199.37V860.824H1223.18V862.36H1199.42V875.272H1231.96V869.416H1207.1V867.736ZM1194.96 847.24V853.288H1235.76V847.24H1194.96ZM1251.54 859C1248.81 859 1247.08 856.072 1247.08 849.688C1247.08 843.4 1248.81 840.472 1251.54 840.472C1254.28 840.472 1256.01 843.4 1256.01 849.688C1256.01 856.072 1254.28 859 1251.54 859ZM1269.5 830.392V846.184H1263.21C1262.15 838.216 1257.54 833.416 1251.54 833.416C1244.73 833.416 1239.69 839.656 1239.69 849.688C1239.69 859.816 1244.73 866.056 1251.54 866.056C1257.78 866.056 1262.49 860.872 1263.3 852.376H1269.5V875.704H1277.27V830.392H1269.5ZM1306.67 862.072H1298.89V874.888H1330.33V868.792H1306.67V862.072ZM1306.86 841.672H1322.12V844.552H1306.86V841.672ZM1318.33 853.864V850.6H1329.8V832.12H1322.12V835.816H1306.86V832.12H1299.18V850.6H1310.56V853.864H1294.09V859.96H1334.94V853.864H1318.33ZM1347.66 840.712H1361V834.52H1339.93V865.048H1343.87C1351.35 865.048 1357.74 864.856 1364.41 863.656L1363.69 857.32C1358.31 858.232 1353.32 858.568 1347.66 858.616V840.712ZM1380.01 846.52H1373.96V830.44H1366.19V875.656H1373.96V852.856H1380.01V846.52Z" fill="#333333"/>
<path d="M1387.54 858.04H1393.06L1394.31 841.816L1394.6 834.184H1386.01L1386.29 841.816L1387.54 858.04ZM1390.28 871.672C1393.25 871.672 1395.37 869.32 1395.37 866.344C1395.37 863.368 1393.25 861.064 1390.28 861.064C1387.35 861.064 1385.24 863.368 1385.24 866.344C1385.24 869.32 1387.35 871.672 1390.28 871.672Z" fill="#FE8369"/>
<defs>
<filter id="filter0_d_20_55" x="133" y="105" width="528" height="381" filterUnits="userSpaceOnUse" color-interpolation-filters="sRGB">
<feFlood flood-opacity="0" result="BackgroundImageFix"/>
<feColorMatrix in="SourceAlpha" type="matrix" values="0 0 0 0 0 0 0 0 0 0 0 0 0 0 0 0 0 0 127 0" result="hardAlpha"/>
<feOffset/>
<feGaussianBlur stdDeviation="40"/>
<feComposite in2="hardAlpha" operator="out"/>
<feColorMatrix type="matrix" values="0 0 0 0 0 0 0 0 0 0 0 0 0 0 0 0 0 0 0.1 0"/>
<feBlend mode="normal" in2="BackgroundImageFix" result="effect1_dropShadow_20_55"/>
<feBlend mode="normal" in="SourceGraphic" in2="effect1_dropShadow_20_55" result="shape"/>
</filter>
<filter id="filter1_d_20_55" x="692" y="105" width="528" height="381" filterUnits="userSpaceOnUse" color-interpolation-filters="sRGB">
<feFlood flood-opacity="0" result="BackgroundImageFix"/>
<feColorMatrix in="SourceAlpha" type="matrix" values="0 0 0 0 0 0 0 0 0 0 0 0 0 0 0 0 0 0 127 0" result="hardAlpha"/>
<feOffset/>
<feGaussianBlur stdDeviation="40"/>
<feComposite in2="hardAlpha" operator="out"/>
<feColorMatrix type="matrix" values="0 0 0 0 0 0 0 0 0 0 0 0 0 0 0 0 0 0 0.1 0"/>
<feBlend mode="normal" in2="BackgroundImageFix" result="effect1_dropShadow_20_55"/>
<feBlend mode="normal" in="SourceGraphic" in2="effect1_dropShadow_20_55" result="shape"/>
</filter>
<filter id="filter2_d_20_55" x="1251" y="105" width="528" height="381" filterUnits="userSpaceOnUse" color-interpolation-filters="sRGB">
<feFlood flood-opacity="0" result="BackgroundImageFix"/>
<feColorMatrix in="SourceAlpha" type="matrix" values="0 0 0 0 0 0 0 0 0 0 0 0 0 0 0 0 0 0 127 0" result="hardAlpha"/>
<feOffset/>
<feGaussianBlur stdDeviation="40"/>
<feComposite in2="hardAlpha" operator="out"/>
<feColorMatrix type="matrix" values="0 0 0 0 0 0 0 0 0 0 0 0 0 0 0 0 0 0 0.1 0"/>
<feBlend mode="normal" in2="BackgroundImageFix" result="effect1_dropShadow_20_55"/>
<feBlend mode="normal" in="SourceGraphic" in2="effect1_dropShadow_20_55" result="shape"/>
</filter>
<clipPath id="clip0_20_55">
<rect width="108" height="94" fill="white" transform="translate(343 223)"/>
</clipPath>
<clipPath id="clip1_20_55">
<rect width="65" height="106" fill="white" transform="translate(1480 208)"/>
</clipPath>
</defs>
</svg>
